<svg width="100%" height="100%" xmlns="http://www.w3.org/2000/svg" version="1.1" xmlns:xlink="http://www.w3.org/1999/xlink">
    <svg xmlns="http://www.w3.org/2000/svg" version="1.1">

<!-- Canvas: behaviorGeneration -->
<g transform="translate(276 20)">

    <rect
        id="14294"
        width="562"
        height="507"
        style="fill:white;stroke:black;stroke-width:2;fill-opacity:1.0;stroke-opacity:1.0"/>

    <text
        x="8"
        y="20"
        font-family="Verdana"
        fill="black">
            <tspan style="font-weight: bold" font-size="13">behaviorGeneration</tspan>
    </text>

</g>

</svg><!-- Component: trimPath -->
<g transform="translate(426 52)">
    <rect
        data-name="testManuelSchrick.autopilot.autopilot.behaviorGeneration.trimPath"
        id="14296"
        width="153"
        height="215"
        style="
                fill:white;
            stroke:black;
            stroke-width:2;
            fill-opacity:1.0;
            stroke-opacity:1.0"
        onmouseout="this.style.stroke = '#000000'; this.style['stroke-width'] = 2; this.style.cursor='default';"
    />

    <text
        x="10"
        y="15"
        alignment-baseline="middle"
        font-family="Verdana"
        fill="black">
            <tspan style="font-weight: bold" font-size="11">trimPath</tspan>
    </text>

</g><!-- Component: calcMotionCmds -->
<g transform="translate(629 52)">
    <rect
        data-name="testManuelSchrick.autopilot.autopilot.behaviorGeneration.calcMotionCmds"
        id="14297"
        width="159"
        height="375"
        style="
                fill:rgb(242,242,242);
            stroke:black;
            stroke-width:2;
            fill-opacity:1.0;
            stroke-opacity:1.0"
        onmouseout="this.style.stroke = '#000000'; this.style['stroke-width'] = 2; this.style.cursor='default';"
            onmouseover="this.style.stroke = '#316FC0'; this.style['stroke-width'] = 5; this.style.cursor='pointer';"
            onclick="window.open('testManuelSchrick.autopilot.autopilot.behaviorGeneration.calcMotionCmds.html','_parent',false);parent.openFileInEditor('/autopilot/autopilot/behaviorGeneration/calcMotionCmds.ema');"
    />

    <text
        x="10"
        y="15"
        alignment-baseline="middle"
        font-family="Verdana"
        fill="black">
            <tspan style="font-weight: bold" font-size="11">calcMotionCmds</tspan>
    </text>

</g><defs>
    <marker id="0,0,0" markerWidth="13" markerHeight="13" refX="5" refY="5" orient="auto">
            <polyline points="0,2 5,5 0,8" style="fill:none; stroke:rgb(0,0,0);
                    stroke-width:1" />
    </marker>
</defs><line
    stroke-linecap="square"
    x1="796"
    y1="287"
    x2="830"
    y2="287"
    style="stroke:rgb(0, 0,0);
            stroke-width:2;
                marker-end: url(#0,0,0)
            "
/>

<line
    stroke-linecap="square"
    x1="796"
    y1="247"
    x2="830"
    y2="247"
    style="stroke:rgb(0, 0,0);
            stroke-width:2;
                marker-end: url(#0,0,0)
            "
/>

<line
    stroke-linecap="square"
    x1="796"
    y1="207"
    x2="830"
    y2="207"
    style="stroke:rgb(0, 0,0);
            stroke-width:2;
                marker-end: url(#0,0,0)
            "
/>

<line
    stroke-linecap="square"
    x1="796"
    y1="167"
    x2="830"
    y2="167"
    style="stroke:rgb(0, 0,0);
            stroke-width:2;
                marker-end: url(#0,0,0)
            "
/>

<line
    stroke-linecap="square"
    x1="284"
    y1="87"
    x2="306"
    y2="87"
    style="stroke:rgb(0, 0,0);
            stroke-width:2;
"
/>
    <text
        x="287"
        y="80"
        alignment-baseline="middle"
        font-family="Verdana"
        font-size="11"
        fill="black">
    0
    </text>

<line
    stroke-linecap="square"
    x1="306"
    y1="87"
    x2="306"
    y2="344"
    style="stroke:rgb(0, 0,0);
            stroke-width:4;
"
/>

    <circle cx="306" cy="87" r="4" fill="black" />
<line
    stroke-linecap="square"
    x1="306"
    y1="344"
    x2="336"
    y2="344"
    style="stroke:rgb(0, 0,0);
            stroke-width:4;
"
/>

<line
    stroke-linecap="square"
    x1="336"
    y1="344"
    x2="336"
    y2="167"
    style="stroke:rgb(0, 0,0);
            stroke-width:4;
"
/>

    <circle cx="336" cy="344" r="4" fill="black" />
<line
    stroke-linecap="square"
    x1="336"
    y1="167"
    x2="396"
    y2="167"
    style="stroke:rgb(0, 0,0);
            stroke-width:4;
"
/>

    <circle cx="336" cy="167" r="4" fill="black" />
<line
    stroke-linecap="square"
    x1="396"
    y1="167"
    x2="396"
    y2="87"
    style="stroke:rgb(0, 0,0);
            stroke-width:4;
"
/>

<line
    stroke-linecap="square"
    x1="396"
    y1="87"
    x2="418"
    y2="87"
    style="stroke:rgb(0, 0,0);
            stroke-width:2;
                marker-end: url(#0,0,0)
            "
/>
    <text
        x="407"
        y="76"
        alignment-baseline="middle"
        font-family="Verdana"
        font-size="11"
        fill="black">
    0
    </text>

    <circle cx="396" cy="87" r="4" fill="black" />
<line
    stroke-linecap="square"
    x1="284"
    y1="287"
    x2="306"
    y2="287"
    style="stroke:rgb(0, 0,0);
            stroke-width:2;
"
/>
    <text
        x="287"
        y="280"
        alignment-baseline="middle"
        font-family="Verdana"
        font-size="11"
        fill="black">
    1
    </text>

<line
    stroke-linecap="square"
    x1="306"
    y1="287"
    x2="306"
    y2="344"
    style="stroke:rgb(0, 0,0);
            stroke-width:4;
"
/>

    <circle cx="306" cy="287" r="4" fill="black" />
<line
    stroke-linecap="square"
    x1="306"
    y1="344"
    x2="336"
    y2="344"
    style="stroke:rgb(0, 0,0);
            stroke-width:4;
"
/>

<line
    stroke-linecap="square"
    x1="336"
    y1="344"
    x2="336"
    y2="167"
    style="stroke:rgb(0, 0,0);
            stroke-width:4;
"
/>

    <circle cx="336" cy="344" r="4" fill="black" />
<line
    stroke-linecap="square"
    x1="336"
    y1="167"
    x2="396"
    y2="167"
    style="stroke:rgb(0, 0,0);
            stroke-width:4;
"
/>

    <circle cx="336" cy="167" r="4" fill="black" />
<line
    stroke-linecap="square"
    x1="396"
    y1="167"
    x2="396"
    y2="127"
    style="stroke:rgb(0, 0,0);
            stroke-width:4;
"
/>

<line
    stroke-linecap="square"
    x1="396"
    y1="127"
    x2="418"
    y2="127"
    style="stroke:rgb(0, 0,0);
            stroke-width:2;
                marker-end: url(#0,0,0)
            "
/>
    <text
        x="407"
        y="116"
        alignment-baseline="middle"
        font-family="Verdana"
        font-size="11"
        fill="black">
    1
    </text>

    <circle cx="396" cy="127" r="4" fill="black" />
<line
    stroke-linecap="square"
    x1="284"
    y1="407"
    x2="306"
    y2="407"
    style="stroke:rgb(0, 0,0);
            stroke-width:2;
"
/>
    <text
        x="287"
        y="400"
        alignment-baseline="middle"
        font-family="Verdana"
        font-size="11"
        fill="black">
    4
    </text>

<line
    stroke-linecap="square"
    x1="306"
    y1="407"
    x2="306"
    y2="344"
    style="stroke:rgb(0, 0,0);
            stroke-width:4;
"
/>

    <circle cx="306" cy="407" r="4" fill="black" />
<line
    stroke-linecap="square"
    x1="306"
    y1="344"
    x2="336"
    y2="344"
    style="stroke:rgb(0, 0,0);
            stroke-width:4;
"
/>

<line
    stroke-linecap="square"
    x1="336"
    y1="344"
    x2="336"
    y2="167"
    style="stroke:rgb(0, 0,0);
            stroke-width:4;
"
/>

    <circle cx="336" cy="344" r="4" fill="black" />
<line
    stroke-linecap="square"
    x1="336"
    y1="167"
    x2="396"
    y2="167"
    style="stroke:rgb(0, 0,0);
            stroke-width:4;
"
/>

    <circle cx="336" cy="167" r="4" fill="black" />
<line
    stroke-linecap="square"
    x1="396"
    y1="167"
    x2="396"
    y2="167"
    style="stroke:rgb(0, 0,0);
            stroke-width:4;
"
/>

<line
    stroke-linecap="square"
    x1="396"
    y1="167"
    x2="418"
    y2="167"
    style="stroke:rgb(0, 0,0);
            stroke-width:2;
                marker-end: url(#0,0,0)
            "
/>
    <text
        x="407"
        y="156"
        alignment-baseline="middle"
        font-family="Verdana"
        font-size="11"
        fill="black">
    4
    </text>

    <circle cx="396" cy="167" r="4" fill="black" />
<line
    stroke-linecap="square"
    x1="284"
    y1="447"
    x2="306"
    y2="447"
    style="stroke:rgb(0, 0,0);
            stroke-width:2;
"
/>
    <text
        x="287"
        y="440"
        alignment-baseline="middle"
        font-family="Verdana"
        font-size="11"
        fill="black">
    5
    </text>

<line
    stroke-linecap="square"
    x1="306"
    y1="447"
    x2="306"
    y2="344"
    style="stroke:rgb(0, 0,0);
            stroke-width:4;
"
/>

    <circle cx="306" cy="447" r="4" fill="black" />
<line
    stroke-linecap="square"
    x1="306"
    y1="344"
    x2="336"
    y2="344"
    style="stroke:rgb(0, 0,0);
            stroke-width:4;
"
/>

<line
    stroke-linecap="square"
    x1="336"
    y1="344"
    x2="336"
    y2="167"
    style="stroke:rgb(0, 0,0);
            stroke-width:4;
"
/>

    <circle cx="336" cy="344" r="4" fill="black" />
<line
    stroke-linecap="square"
    x1="336"
    y1="167"
    x2="396"
    y2="167"
    style="stroke:rgb(0, 0,0);
            stroke-width:4;
"
/>

    <circle cx="336" cy="167" r="4" fill="black" />
<line
    stroke-linecap="square"
    x1="396"
    y1="167"
    x2="396"
    y2="207"
    style="stroke:rgb(0, 0,0);
            stroke-width:4;
"
/>

<line
    stroke-linecap="square"
    x1="396"
    y1="207"
    x2="418"
    y2="207"
    style="stroke:rgb(0, 0,0);
            stroke-width:2;
                marker-end: url(#0,0,0)
            "
/>
    <text
        x="407"
        y="196"
        alignment-baseline="middle"
        font-family="Verdana"
        font-size="11"
        fill="black">
    5
    </text>

    <circle cx="396" cy="207" r="4" fill="black" />
<line
    stroke-linecap="square"
    x1="284"
    y1="487"
    x2="306"
    y2="487"
    style="stroke:rgb(0, 0,0);
            stroke-width:2;
"
/>
    <text
        x="287"
        y="480"
        alignment-baseline="middle"
        font-family="Verdana"
        font-size="11"
        fill="black">
    6
    </text>

<line
    stroke-linecap="square"
    x1="306"
    y1="487"
    x2="306"
    y2="344"
    style="stroke:rgb(0, 0,0);
            stroke-width:4;
"
/>

    <circle cx="306" cy="487" r="4" fill="black" />
<line
    stroke-linecap="square"
    x1="306"
    y1="344"
    x2="336"
    y2="344"
    style="stroke:rgb(0, 0,0);
            stroke-width:4;
"
/>

<line
    stroke-linecap="square"
    x1="336"
    y1="344"
    x2="336"
    y2="167"
    style="stroke:rgb(0, 0,0);
            stroke-width:4;
"
/>

    <circle cx="336" cy="344" r="4" fill="black" />
<line
    stroke-linecap="square"
    x1="336"
    y1="167"
    x2="396"
    y2="167"
    style="stroke:rgb(0, 0,0);
            stroke-width:4;
"
/>

    <circle cx="336" cy="167" r="4" fill="black" />
<line
    stroke-linecap="square"
    x1="396"
    y1="167"
    x2="396"
    y2="247"
    style="stroke:rgb(0, 0,0);
            stroke-width:4;
"
/>

<line
    stroke-linecap="square"
    x1="396"
    y1="247"
    x2="418"
    y2="247"
    style="stroke:rgb(0, 0,0);
            stroke-width:2;
                marker-end: url(#0,0,0)
            "
/>
    <text
        x="407"
        y="236"
        alignment-baseline="middle"
        font-family="Verdana"
        font-size="11"
        fill="black">
    6
    </text>

    <circle cx="396" cy="247" r="4" fill="black" />
<line
    stroke-linecap="square"
    x1="284"
    y1="87"
    x2="306"
    y2="87"
    style="stroke:rgb(0, 0,0);
            stroke-width:2;
"
/>
    <text
        x="287"
        y="80"
        alignment-baseline="middle"
        font-family="Verdana"
        font-size="11"
        fill="black">
    0
    </text>

<line
    stroke-linecap="square"
    x1="306"
    y1="87"
    x2="306"
    y2="344"
    style="stroke:rgb(0, 0,0);
            stroke-width:4;
"
/>

    <circle cx="306" cy="87" r="4" fill="black" />
<line
    stroke-linecap="square"
    x1="306"
    y1="344"
    x2="336"
    y2="344"
    style="stroke:rgb(0, 0,0);
            stroke-width:4;
"
/>

<line
    stroke-linecap="square"
    x1="336"
    y1="344"
    x2="336"
    y2="347"
    style="stroke:rgb(0, 0,0);
            stroke-width:4;
"
/>

    <circle cx="336" cy="344" r="4" fill="black" />
<line
    stroke-linecap="square"
    x1="336"
    y1="347"
    x2="579"
    y2="347"
    style="stroke:rgb(0, 0,0);
            stroke-width:4;
"
/>

    <circle cx="336" cy="347" r="4" fill="black" />
<line
    stroke-linecap="square"
    x1="579"
    y1="347"
    x2="579"
    y2="287"
    style="stroke:rgb(0, 0,0);
            stroke-width:4;
"
/>

<line
    stroke-linecap="square"
    x1="579"
    y1="287"
    x2="621"
    y2="287"
    style="stroke:rgb(0, 0,0);
            stroke-width:2;
                marker-end: url(#0,0,0)
            "
/>
    <text
        x="610"
        y="276"
        alignment-baseline="middle"
        font-family="Verdana"
        font-size="11"
        fill="black">
    0
    </text>

    <circle cx="579" cy="287" r="4" fill="black" />
<line
    stroke-linecap="square"
    x1="284"
    y1="287"
    x2="306"
    y2="287"
    style="stroke:rgb(0, 0,0);
            stroke-width:2;
"
/>
    <text
        x="287"
        y="280"
        alignment-baseline="middle"
        font-family="Verdana"
        font-size="11"
        fill="black">
    1
    </text>

<line
    stroke-linecap="square"
    x1="306"
    y1="287"
    x2="306"
    y2="344"
    style="stroke:rgb(0, 0,0);
            stroke-width:4;
"
/>

    <circle cx="306" cy="287" r="4" fill="black" />
<line
    stroke-linecap="square"
    x1="306"
    y1="344"
    x2="336"
    y2="344"
    style="stroke:rgb(0, 0,0);
            stroke-width:4;
"
/>

<line
    stroke-linecap="square"
    x1="336"
    y1="344"
    x2="336"
    y2="347"
    style="stroke:rgb(0, 0,0);
            stroke-width:4;
"
/>

    <circle cx="336" cy="344" r="4" fill="black" />
<line
    stroke-linecap="square"
    x1="336"
    y1="347"
    x2="579"
    y2="347"
    style="stroke:rgb(0, 0,0);
            stroke-width:4;
"
/>

    <circle cx="336" cy="347" r="4" fill="black" />
<line
    stroke-linecap="square"
    x1="579"
    y1="347"
    x2="579"
    y2="327"
    style="stroke:rgb(0, 0,0);
            stroke-width:4;
"
/>

<line
    stroke-linecap="square"
    x1="579"
    y1="327"
    x2="621"
    y2="327"
    style="stroke:rgb(0, 0,0);
            stroke-width:2;
                marker-end: url(#0,0,0)
            "
/>
    <text
        x="610"
        y="316"
        alignment-baseline="middle"
        font-family="Verdana"
        font-size="11"
        fill="black">
    1
    </text>

    <circle cx="579" cy="327" r="4" fill="black" />
<line
    stroke-linecap="square"
    x1="284"
    y1="327"
    x2="306"
    y2="327"
    style="stroke:rgb(0, 0,0);
            stroke-width:2;
"
/>
    <text
        x="287"
        y="320"
        alignment-baseline="middle"
        font-family="Verdana"
        font-size="11"
        fill="black">
    2
    </text>

<line
    stroke-linecap="square"
    x1="306"
    y1="327"
    x2="306"
    y2="344"
    style="stroke:rgb(0, 0,0);
            stroke-width:4;
"
/>

    <circle cx="306" cy="327" r="4" fill="black" />
<line
    stroke-linecap="square"
    x1="306"
    y1="344"
    x2="336"
    y2="344"
    style="stroke:rgb(0, 0,0);
            stroke-width:4;
"
/>

<line
    stroke-linecap="square"
    x1="336"
    y1="344"
    x2="336"
    y2="347"
    style="stroke:rgb(0, 0,0);
            stroke-width:4;
"
/>

    <circle cx="336" cy="344" r="4" fill="black" />
<line
    stroke-linecap="square"
    x1="336"
    y1="347"
    x2="579"
    y2="347"
    style="stroke:rgb(0, 0,0);
            stroke-width:4;
"
/>

    <circle cx="336" cy="347" r="4" fill="black" />
<line
    stroke-linecap="square"
    x1="579"
    y1="347"
    x2="579"
    y2="367"
    style="stroke:rgb(0, 0,0);
            stroke-width:4;
"
/>

<line
    stroke-linecap="square"
    x1="579"
    y1="367"
    x2="621"
    y2="367"
    style="stroke:rgb(0, 0,0);
            stroke-width:2;
                marker-end: url(#0,0,0)
            "
/>
    <text
        x="610"
        y="356"
        alignment-baseline="middle"
        font-family="Verdana"
        font-size="11"
        fill="black">
    2
    </text>

    <circle cx="579" cy="367" r="4" fill="black" />
<line
    stroke-linecap="square"
    x1="284"
    y1="367"
    x2="306"
    y2="367"
    style="stroke:rgb(0, 0,0);
            stroke-width:2;
"
/>
    <text
        x="287"
        y="360"
        alignment-baseline="middle"
        font-family="Verdana"
        font-size="11"
        fill="black">
    3
    </text>

<line
    stroke-linecap="square"
    x1="306"
    y1="367"
    x2="306"
    y2="344"
    style="stroke:rgb(0, 0,0);
            stroke-width:4;
"
/>

    <circle cx="306" cy="367" r="4" fill="black" />
<line
    stroke-linecap="square"
    x1="306"
    y1="344"
    x2="336"
    y2="344"
    style="stroke:rgb(0, 0,0);
            stroke-width:4;
"
/>

<line
    stroke-linecap="square"
    x1="336"
    y1="344"
    x2="336"
    y2="347"
    style="stroke:rgb(0, 0,0);
            stroke-width:4;
"
/>

    <circle cx="336" cy="344" r="4" fill="black" />
<line
    stroke-linecap="square"
    x1="336"
    y1="347"
    x2="579"
    y2="347"
    style="stroke:rgb(0, 0,0);
            stroke-width:4;
"
/>

    <circle cx="336" cy="347" r="4" fill="black" />
<line
    stroke-linecap="square"
    x1="579"
    y1="347"
    x2="579"
    y2="407"
    style="stroke:rgb(0, 0,0);
            stroke-width:4;
"
/>

<line
    stroke-linecap="square"
    x1="579"
    y1="407"
    x2="621"
    y2="407"
    style="stroke:rgb(0, 0,0);
            stroke-width:2;
                marker-end: url(#0,0,0)
            "
/>
    <text
        x="610"
        y="396"
        alignment-baseline="middle"
        font-family="Verdana"
        font-size="11"
        fill="black">
    3
    </text>

    <circle cx="579" cy="407" r="4" fill="black" />
<line
    stroke-linecap="square"
    x1="587"
    y1="87"
    x2="621"
    y2="87"
    style="stroke:rgb(0, 0,0);
            stroke-width:2;
                marker-end: url(#0,0,0)
            "
/>

<line
    stroke-linecap="square"
    x1="587"
    y1="127"
    x2="621"
    y2="127"
    style="stroke:rgb(0, 0,0);
            stroke-width:2;
                marker-end: url(#0,0,0)
            "
/>

<line
    stroke-linecap="square"
    x1="587"
    y1="167"
    x2="621"
    y2="167"
    style="stroke:rgb(0, 0,0);
            stroke-width:2;
                marker-end: url(#0,0,0)
            "
/>

<defs>
    <!-- Small box indicating a port -->
    <rect id="port" x="0" y="0" width="16" height="16"
          style="fill:white;stroke:rgb(0,0,0);stroke-width:1;fill-opacity:1.0;stroke-opacity:1.0"/>
</defs><use x="780" y="279" xlink:href="#port" />
<text text-anchor="end" alignment-baseline="middle" x="777" y="289" transform="rotate(0,777,289)" style="font-weight: regular" font-family="Verdana" font-size="9" fill="black">
desiredD
</text>

<text text-anchor="end" alignment-baseline="middle" x="777" y="299" transform="rotate(0,777,299)" style="font-weight: regular" font-family="Verdana" font-size="9" fill="black">
rectionX
</text>

<use x="830" y="279" xlink:href="#port" />
<text text-anchor="start" alignment-baseline="middle" x="850" y="289" transform="rotate(0,850,289)" style="font-weight: regular" font-family="Verdana" font-size="9" fill="black">
desiredD
</text>

<text text-anchor="start" alignment-baseline="middle" x="850" y="299" transform="rotate(0,850,299)" style="font-weight: regular" font-family="Verdana" font-size="9" fill="black">
rectionX
</text>

<use x="780" y="239" xlink:href="#port" />
<text text-anchor="end" alignment-baseline="middle" x="777" y="249" transform="rotate(0,777,249)" style="font-weight: regular" font-family="Verdana" font-size="9" fill="black">
desiredD
</text>

<text text-anchor="end" alignment-baseline="middle" x="777" y="259" transform="rotate(0,777,259)" style="font-weight: regular" font-family="Verdana" font-size="9" fill="black">
rectionY
</text>

<use x="830" y="239" xlink:href="#port" />
<text text-anchor="start" alignment-baseline="middle" x="850" y="249" transform="rotate(0,850,249)" style="font-weight: regular" font-family="Verdana" font-size="9" fill="black">
desiredD
</text>

<text text-anchor="start" alignment-baseline="middle" x="850" y="259" transform="rotate(0,850,259)" style="font-weight: regular" font-family="Verdana" font-size="9" fill="black">
rectionY
</text>

<use x="780" y="199" xlink:href="#port" />
<text text-anchor="end" alignment-baseline="middle" x="777" y="209" transform="rotate(0,777,209)" style="font-weight: regular" font-family="Verdana" font-size="9" fill="black">
signedDistanc
</text>

<text text-anchor="end" alignment-baseline="middle" x="777" y="219" transform="rotate(0,777,219)" style="font-weight: regular" font-family="Verdana" font-size="9" fill="black">
ToTrajectory
</text>

<use x="830" y="199" xlink:href="#port" />
<text text-anchor="start" alignment-baseline="middle" x="850" y="209" transform="rotate(0,850,209)" style="font-weight: regular" font-family="Verdana" font-size="9" fill="black">
signedDistanc
</text>

<text text-anchor="start" alignment-baseline="middle" x="850" y="219" transform="rotate(0,850,219)" style="font-weight: regular" font-family="Verdana" font-size="9" fill="black">
ToTrajectory
</text>

<use x="780" y="159" xlink:href="#port" />
<text text-anchor="end" alignment-baseline="middle" x="777" y="169" transform="rotate(0,777,169)" style="font-weight: regular" font-family="Verdana" font-size="9" fill="black">
desired
</text>

<text text-anchor="end" alignment-baseline="middle" x="777" y="179" transform="rotate(0,777,179)" style="font-weight: regular" font-family="Verdana" font-size="9" fill="black">
elocity
</text>

<use x="830" y="159" xlink:href="#port" />
<text text-anchor="start" alignment-baseline="middle" x="850" y="169" transform="rotate(0,850,169)" style="font-weight: regular" font-family="Verdana" font-size="9" fill="black">
desired
</text>

<text text-anchor="start" alignment-baseline="middle" x="850" y="179" transform="rotate(0,850,179)" style="font-weight: regular" font-family="Verdana" font-size="9" fill="black">
elocity
</text>

<use x="268" y="79" xlink:href="#port" />
<text text-anchor="end" alignment-baseline="middle" x="264" y="89" transform="rotate(0,264,89)" style="font-weight: regular" font-family="Verdana" font-size="9" fill="black">
currentP
</text>

<text text-anchor="end" alignment-baseline="middle" x="264" y="99" transform="rotate(0,264,99)" style="font-weight: regular" font-family="Verdana" font-size="9" fill="black">
sitionX
</text>

<use x="418" y="79" xlink:href="#port" />
<text text-anchor="start" alignment-baseline="middle" x="437" y="89" transform="rotate(0,437,89)" style="font-weight: regular" font-family="Verdana" font-size="9" fill="black">
currentP
</text>

<text text-anchor="start" alignment-baseline="middle" x="437" y="99" transform="rotate(0,437,99)" style="font-weight: regular" font-family="Verdana" font-size="9" fill="black">
sitionX
</text>

<use x="268" y="279" xlink:href="#port" />
<text text-anchor="end" alignment-baseline="middle" x="264" y="289" transform="rotate(0,264,289)" style="font-weight: regular" font-family="Verdana" font-size="9" fill="black">
currentP
</text>

<text text-anchor="end" alignment-baseline="middle" x="264" y="299" transform="rotate(0,264,299)" style="font-weight: regular" font-family="Verdana" font-size="9" fill="black">
sitionY
</text>

<use x="418" y="119" xlink:href="#port" />
<text text-anchor="start" alignment-baseline="middle" x="437" y="129" transform="rotate(0,437,129)" style="font-weight: regular" font-family="Verdana" font-size="9" fill="black">
currentP
</text>

<text text-anchor="start" alignment-baseline="middle" x="437" y="139" transform="rotate(0,437,139)" style="font-weight: regular" font-family="Verdana" font-size="9" fill="black">
sitionY
</text>

<use x="268" y="399" xlink:href="#port" />
<text text-anchor="end" alignment-baseline="middle" x="264" y="409" transform="rotate(0,264,409)" style="font-weight: regular" font-family="Verdana" font-size="9" fill="black">
plannedTraj
</text>

<text text-anchor="end" alignment-baseline="middle" x="264" y="419" transform="rotate(0,264,419)" style="font-weight: regular" font-family="Verdana" font-size="9" fill="black">
ctoryLength
</text>

<use x="418" y="159" xlink:href="#port" />
<text text-anchor="start" alignment-baseline="middle" x="437" y="169" transform="rotate(0,437,169)" style="font-weight: regular" font-family="Verdana" font-size="9" fill="black">
plannedTraj
</text>

<text text-anchor="start" alignment-baseline="middle" x="437" y="179" transform="rotate(0,437,179)" style="font-weight: regular" font-family="Verdana" font-size="9" fill="black">
ctoryLength
</text>

<use x="268" y="439" xlink:href="#port" />
<text text-anchor="end" alignment-baseline="middle" x="264" y="449" transform="rotate(0,264,449)" style="font-weight: regular" font-family="Verdana" font-size="9" fill="black">
plannedTr
</text>

<text text-anchor="end" alignment-baseline="middle" x="264" y="459" transform="rotate(0,264,459)" style="font-weight: regular" font-family="Verdana" font-size="9" fill="black">
jectoryX
</text>

<use x="418" y="199" xlink:href="#port" />
<text text-anchor="start" alignment-baseline="middle" x="437" y="209" transform="rotate(0,437,209)" style="font-weight: regular" font-family="Verdana" font-size="9" fill="black">
plannedTr
</text>

<text text-anchor="start" alignment-baseline="middle" x="437" y="219" transform="rotate(0,437,219)" style="font-weight: regular" font-family="Verdana" font-size="9" fill="black">
jectoryX
</text>

<use x="268" y="479" xlink:href="#port" />
<text text-anchor="end" alignment-baseline="middle" x="264" y="489" transform="rotate(0,264,489)" style="font-weight: regular" font-family="Verdana" font-size="9" fill="black">
plannedTr
</text>

<text text-anchor="end" alignment-baseline="middle" x="264" y="499" transform="rotate(0,264,499)" style="font-weight: regular" font-family="Verdana" font-size="9" fill="black">
jectoryY
</text>

<use x="418" y="239" xlink:href="#port" />
<text text-anchor="start" alignment-baseline="middle" x="437" y="249" transform="rotate(0,437,249)" style="font-weight: regular" font-family="Verdana" font-size="9" fill="black">
plannedTr
</text>

<text text-anchor="start" alignment-baseline="middle" x="437" y="259" transform="rotate(0,437,259)" style="font-weight: regular" font-family="Verdana" font-size="9" fill="black">
jectoryY
</text>

<use x="268" y="79" xlink:href="#port" />
<text text-anchor="end" alignment-baseline="middle" x="264" y="89" transform="rotate(0,264,89)" style="font-weight: regular" font-family="Verdana" font-size="9" fill="black">
currentP
</text>

<text text-anchor="end" alignment-baseline="middle" x="264" y="99" transform="rotate(0,264,99)" style="font-weight: regular" font-family="Verdana" font-size="9" fill="black">
sitionX
</text>

<use x="621" y="279" xlink:href="#port" />
<text text-anchor="start" alignment-baseline="middle" x="640" y="289" transform="rotate(0,640,289)" style="font-weight: regular" font-family="Verdana" font-size="9" fill="black">
currentP
</text>

<text text-anchor="start" alignment-baseline="middle" x="640" y="299" transform="rotate(0,640,299)" style="font-weight: regular" font-family="Verdana" font-size="9" fill="black">
sitionX
</text>

<use x="268" y="279" xlink:href="#port" />
<text text-anchor="end" alignment-baseline="middle" x="264" y="289" transform="rotate(0,264,289)" style="font-weight: regular" font-family="Verdana" font-size="9" fill="black">
currentP
</text>

<text text-anchor="end" alignment-baseline="middle" x="264" y="299" transform="rotate(0,264,299)" style="font-weight: regular" font-family="Verdana" font-size="9" fill="black">
sitionY
</text>

<use x="621" y="319" xlink:href="#port" />
<text text-anchor="start" alignment-baseline="middle" x="640" y="329" transform="rotate(0,640,329)" style="font-weight: regular" font-family="Verdana" font-size="9" fill="black">
currentP
</text>

<text text-anchor="start" alignment-baseline="middle" x="640" y="339" transform="rotate(0,640,339)" style="font-weight: regular" font-family="Verdana" font-size="9" fill="black">
sitionY
</text>

<use x="268" y="319" xlink:href="#port" />
<text text-anchor="end" alignment-baseline="middle" x="264" y="329" transform="rotate(0,264,329)" style="font-weight: regular" font-family="Verdana" font-size="9" fill="black">
currentD
</text>

<text text-anchor="end" alignment-baseline="middle" x="264" y="339" transform="rotate(0,264,339)" style="font-weight: regular" font-family="Verdana" font-size="9" fill="black">
rectionX
</text>

<use x="621" y="359" xlink:href="#port" />
<text text-anchor="start" alignment-baseline="middle" x="640" y="369" transform="rotate(0,640,369)" style="font-weight: regular" font-family="Verdana" font-size="9" fill="black">
currentD
</text>

<text text-anchor="start" alignment-baseline="middle" x="640" y="379" transform="rotate(0,640,379)" style="font-weight: regular" font-family="Verdana" font-size="9" fill="black">
rectionX
</text>

<use x="268" y="359" xlink:href="#port" />
<text text-anchor="end" alignment-baseline="middle" x="264" y="369" transform="rotate(0,264,369)" style="font-weight: regular" font-family="Verdana" font-size="9" fill="black">
currentD
</text>

<text text-anchor="end" alignment-baseline="middle" x="264" y="379" transform="rotate(0,264,379)" style="font-weight: regular" font-family="Verdana" font-size="9" fill="black">
rectionY
</text>

<use x="621" y="399" xlink:href="#port" />
<text text-anchor="start" alignment-baseline="middle" x="640" y="409" transform="rotate(0,640,409)" style="font-weight: regular" font-family="Verdana" font-size="9" fill="black">
currentD
</text>

<text text-anchor="start" alignment-baseline="middle" x="640" y="419" transform="rotate(0,640,419)" style="font-weight: regular" font-family="Verdana" font-size="9" fill="black">
rectionY
</text>

<use x="571" y="79" xlink:href="#port" />
<text text-anchor="end" alignment-baseline="middle" x="568" y="89" transform="rotate(0,568,89)" style="font-weight: regular" font-family="Verdana" font-size="9" fill="black">
trimmedTraj
</text>

<text text-anchor="end" alignment-baseline="middle" x="568" y="99" transform="rotate(0,568,99)" style="font-weight: regular" font-family="Verdana" font-size="9" fill="black">
ctoryLength
</text>

<use x="621" y="79" xlink:href="#port" />
<text text-anchor="start" alignment-baseline="middle" x="640" y="89" transform="rotate(0,640,89)" style="font-weight: regular" font-family="Verdana" font-size="9" fill="black">
trimmedTraj
</text>

<text text-anchor="start" alignment-baseline="middle" x="640" y="99" transform="rotate(0,640,99)" style="font-weight: regular" font-family="Verdana" font-size="9" fill="black">
ctoryLength
</text>

<use x="571" y="119" xlink:href="#port" />
<text text-anchor="end" alignment-baseline="middle" x="568" y="129" transform="rotate(0,568,129)" style="font-weight: regular" font-family="Verdana" font-size="9" fill="black">
trimmedTr
</text>

<text text-anchor="end" alignment-baseline="middle" x="568" y="139" transform="rotate(0,568,139)" style="font-weight: regular" font-family="Verdana" font-size="9" fill="black">
jectoryX
</text>

<use x="621" y="119" xlink:href="#port" />
<text text-anchor="start" alignment-baseline="middle" x="640" y="129" transform="rotate(0,640,129)" style="font-weight: regular" font-family="Verdana" font-size="9" fill="black">
trimmedTr
</text>

<text text-anchor="start" alignment-baseline="middle" x="640" y="139" transform="rotate(0,640,139)" style="font-weight: regular" font-family="Verdana" font-size="9" fill="black">
jectoryX
</text>

<use x="571" y="159" xlink:href="#port" />
<text text-anchor="end" alignment-baseline="middle" x="568" y="169" transform="rotate(0,568,169)" style="font-weight: regular" font-family="Verdana" font-size="9" fill="black">
trimmedTr
</text>

<text text-anchor="end" alignment-baseline="middle" x="568" y="179" transform="rotate(0,568,179)" style="font-weight: regular" font-family="Verdana" font-size="9" fill="black">
jectoryY
</text>

<use x="621" y="159" xlink:href="#port" />
<text text-anchor="start" alignment-baseline="middle" x="640" y="169" transform="rotate(0,640,169)" style="font-weight: regular" font-family="Verdana" font-size="9" fill="black">
trimmedTr
</text>

<text text-anchor="start" alignment-baseline="middle" x="640" y="179" transform="rotate(0,640,179)" style="font-weight: regular" font-family="Verdana" font-size="9" fill="black">
jectoryY
</text>


</svg>