<svg width="100%" height="100%" xmlns="http://www.w3.org/2000/svg" version="1.1" xmlns:xlink="http://www.w3.org/1999/xlink">
    <svg xmlns="http://www.w3.org/2000/svg" version="1.1">

<!-- Canvas: environment -->
<g transform="translate(176 20)">

    <rect
        id="16899"
        width="530"
        height="347"
        style="fill:white;stroke:black;stroke-width:2;fill-opacity:1.0;stroke-opacity:1.0"/>

    <text
        x="8"
        y="20"
        font-family="Verdana"
        fill="black">
            <tspan style="font-weight: bold" font-size="13">environment</tspan>
    </text>

</g>

</svg><!-- Component: physicsSimulation -->
<g transform="translate(226 52)">
    <rect
        data-name="testManuelSchrick.pumpStationExample.pumpStation.environment.physicsSimulation"
        id="16900"
        width="149"
        height="255"
        style="
                fill:white;
            stroke:black;
            stroke-width:2;
            fill-opacity:1.0;
            stroke-opacity:1.0"
        onmouseout="this.style.stroke = '#000000'; this.style['stroke-width'] = 2; this.style.cursor='default';"
    />

    <text
        x="10"
        y="15"
        alignment-baseline="middle"
        font-family="Verdana"
        fill="black">
            <tspan style="font-weight: bold" font-size="11">physicsSimulation</tspan>
    </text>

</g><!-- Component: simulationPanel -->
<g transform="translate(525 52)">
    <rect
        data-name="testManuelSchrick.pumpStationExample.pumpStation.environment.simulationPanel"
        id="16901"
        width="131"
        height="175"
        style="
                fill:white;
            stroke:black;
            stroke-width:2;
            fill-opacity:1.0;
            stroke-opacity:1.0"
        onmouseout="this.style.stroke = '#000000'; this.style['stroke-width'] = 2; this.style.cursor='default';"
    />

    <text
        x="10"
        y="15"
        alignment-baseline="middle"
        font-family="Verdana"
        fill="black">
            <tspan style="font-weight: bold" font-size="11">simulationPanel</tspan>
    </text>

</g><defs>
    <marker id="0,0,0" markerWidth="13" markerHeight="13" refX="5" refY="5" orient="auto">
            <polyline points="0,2 5,5 0,8" style="fill:none; stroke:rgb(0,0,0);
                    stroke-width:1" />
    </marker>
</defs><line
    stroke-linecap="square"
    x1="383"
    y1="127"
    x2="405"
    y2="127"
    style="stroke:rgb(0, 0,0);
            stroke-width:2;
"
/>
    <text
        x="386"
        y="120"
        alignment-baseline="middle"
        font-family="Verdana"
        font-size="11"
        fill="black">
    1
    </text>

<line
    stroke-linecap="square"
    x1="405"
    y1="127"
    x2="405"
    y2="187"
    style="stroke:rgb(0, 0,0);
            stroke-width:4;
"
/>

    <circle cx="405" cy="127" r="4" fill="black" />
<line
    stroke-linecap="square"
    x1="405"
    y1="187"
    x2="435"
    y2="187"
    style="stroke:rgb(0, 0,0);
            stroke-width:4;
"
/>

<line
    stroke-linecap="square"
    x1="435"
    y1="187"
    x2="435"
    y2="287"
    style="stroke:rgb(0, 0,0);
            stroke-width:4;
"
/>

    <circle cx="435" cy="187" r="4" fill="black" />
<line
    stroke-linecap="square"
    x1="435"
    y1="287"
    x2="656"
    y2="287"
    style="stroke:rgb(0, 0,0);
            stroke-width:4;
"
/>

    <circle cx="435" cy="287" r="4" fill="black" />
<line
    stroke-linecap="square"
    x1="656"
    y1="287"
    x2="656"
    y2="247"
    style="stroke:rgb(0, 0,0);
            stroke-width:4;
"
/>

<line
    stroke-linecap="square"
    x1="656"
    y1="247"
    x2="698"
    y2="247"
    style="stroke:rgb(0, 0,0);
            stroke-width:2;
                marker-end: url(#0,0,0)
            "
/>
    <text
        x="687"
        y="236"
        alignment-baseline="middle"
        font-family="Verdana"
        font-size="11"
        fill="black">
    1
    </text>

    <circle cx="656" cy="247" r="4" fill="black" />
<line
    stroke-linecap="square"
    x1="383"
    y1="247"
    x2="405"
    y2="247"
    style="stroke:rgb(0, 0,0);
            stroke-width:2;
"
/>
    <text
        x="386"
        y="240"
        alignment-baseline="middle"
        font-family="Verdana"
        font-size="11"
        fill="black">
    2
    </text>

<line
    stroke-linecap="square"
    x1="405"
    y1="247"
    x2="405"
    y2="187"
    style="stroke:rgb(0, 0,0);
            stroke-width:4;
"
/>

    <circle cx="405" cy="247" r="4" fill="black" />
<line
    stroke-linecap="square"
    x1="405"
    y1="187"
    x2="435"
    y2="187"
    style="stroke:rgb(0, 0,0);
            stroke-width:4;
"
/>

<line
    stroke-linecap="square"
    x1="435"
    y1="187"
    x2="435"
    y2="287"
    style="stroke:rgb(0, 0,0);
            stroke-width:4;
"
/>

    <circle cx="435" cy="187" r="4" fill="black" />
<line
    stroke-linecap="square"
    x1="435"
    y1="287"
    x2="656"
    y2="287"
    style="stroke:rgb(0, 0,0);
            stroke-width:4;
"
/>

    <circle cx="435" cy="287" r="4" fill="black" />
<line
    stroke-linecap="square"
    x1="656"
    y1="287"
    x2="656"
    y2="287"
    style="stroke:rgb(0, 0,0);
            stroke-width:4;
"
/>

<line
    stroke-linecap="square"
    x1="656"
    y1="287"
    x2="698"
    y2="287"
    style="stroke:rgb(0, 0,0);
            stroke-width:2;
                marker-end: url(#0,0,0)
            "
/>
    <text
        x="687"
        y="276"
        alignment-baseline="middle"
        font-family="Verdana"
        font-size="11"
        fill="black">
    2
    </text>

    <circle cx="656" cy="287" r="4" fill="black" />
<line
    stroke-linecap="square"
    x1="383"
    y1="287"
    x2="405"
    y2="287"
    style="stroke:rgb(0, 0,0);
            stroke-width:2;
"
/>
    <text
        x="386"
        y="280"
        alignment-baseline="middle"
        font-family="Verdana"
        font-size="11"
        fill="black">
    3
    </text>

<line
    stroke-linecap="square"
    x1="405"
    y1="287"
    x2="405"
    y2="187"
    style="stroke:rgb(0, 0,0);
            stroke-width:4;
"
/>

    <circle cx="405" cy="287" r="4" fill="black" />
<line
    stroke-linecap="square"
    x1="405"
    y1="187"
    x2="435"
    y2="187"
    style="stroke:rgb(0, 0,0);
            stroke-width:4;
"
/>

<line
    stroke-linecap="square"
    x1="435"
    y1="187"
    x2="435"
    y2="287"
    style="stroke:rgb(0, 0,0);
            stroke-width:4;
"
/>

    <circle cx="435" cy="187" r="4" fill="black" />
<line
    stroke-linecap="square"
    x1="435"
    y1="287"
    x2="656"
    y2="287"
    style="stroke:rgb(0, 0,0);
            stroke-width:4;
"
/>

    <circle cx="435" cy="287" r="4" fill="black" />
<line
    stroke-linecap="square"
    x1="656"
    y1="287"
    x2="656"
    y2="327"
    style="stroke:rgb(0, 0,0);
            stroke-width:4;
"
/>

<line
    stroke-linecap="square"
    x1="656"
    y1="327"
    x2="698"
    y2="327"
    style="stroke:rgb(0, 0,0);
            stroke-width:2;
                marker-end: url(#0,0,0)
            "
/>
    <text
        x="687"
        y="316"
        alignment-baseline="middle"
        font-family="Verdana"
        font-size="11"
        fill="black">
    3
    </text>

    <circle cx="656" cy="327" r="4" fill="black" />
<line
    stroke-linecap="square"
    x1="664"
    y1="127"
    x2="698"
    y2="127"
    style="stroke:rgb(0, 0,0);
            stroke-width:2;
                marker-end: url(#0,0,0)
            "
/>

<line
    stroke-linecap="square"
    x1="184"
    y1="127"
    x2="218"
    y2="127"
    style="stroke:rgb(0, 0,0);
            stroke-width:2;
                marker-end: url(#0,0,0)
            "
/>

<line
    stroke-linecap="square"
    x1="184"
    y1="87"
    x2="218"
    y2="87"
    style="stroke:rgb(0, 0,0);
            stroke-width:2;
                marker-end: url(#0,0,0)
            "
/>

<line
    stroke-linecap="square"
    x1="184"
    y1="247"
    x2="218"
    y2="247"
    style="stroke:rgb(0, 0,0);
            stroke-width:2;
                marker-end: url(#0,0,0)
            "
/>

<line
    stroke-linecap="square"
    x1="383"
    y1="87"
    x2="405"
    y2="87"
    style="stroke:rgb(0, 0,0);
            stroke-width:2;
"
/>
    <text
        x="386"
        y="80"
        alignment-baseline="middle"
        font-family="Verdana"
        font-size="11"
        fill="black">
    0
    </text>

<line
    stroke-linecap="square"
    x1="405"
    y1="87"
    x2="405"
    y2="187"
    style="stroke:rgb(0, 0,0);
            stroke-width:4;
"
/>

    <circle cx="405" cy="87" r="4" fill="black" />
<line
    stroke-linecap="square"
    x1="405"
    y1="187"
    x2="435"
    y2="187"
    style="stroke:rgb(0, 0,0);
            stroke-width:4;
"
/>

<line
    stroke-linecap="square"
    x1="435"
    y1="187"
    x2="435"
    y2="147"
    style="stroke:rgb(0, 0,0);
            stroke-width:4;
"
/>

    <circle cx="435" cy="187" r="4" fill="black" />
<line
    stroke-linecap="square"
    x1="435"
    y1="147"
    x2="495"
    y2="147"
    style="stroke:rgb(0, 0,0);
            stroke-width:4;
"
/>

    <circle cx="435" cy="147" r="4" fill="black" />
<line
    stroke-linecap="square"
    x1="495"
    y1="147"
    x2="495"
    y2="87"
    style="stroke:rgb(0, 0,0);
            stroke-width:4;
"
/>

<line
    stroke-linecap="square"
    x1="495"
    y1="87"
    x2="517"
    y2="87"
    style="stroke:rgb(0, 0,0);
            stroke-width:2;
                marker-end: url(#0,0,0)
            "
/>
    <text
        x="506"
        y="76"
        alignment-baseline="middle"
        font-family="Verdana"
        font-size="11"
        fill="black">
    0
    </text>

    <circle cx="495" cy="87" r="4" fill="black" />
<line
    stroke-linecap="square"
    x1="383"
    y1="127"
    x2="405"
    y2="127"
    style="stroke:rgb(0, 0,0);
            stroke-width:2;
"
/>
    <text
        x="386"
        y="120"
        alignment-baseline="middle"
        font-family="Verdana"
        font-size="11"
        fill="black">
    1
    </text>

<line
    stroke-linecap="square"
    x1="405"
    y1="127"
    x2="405"
    y2="187"
    style="stroke:rgb(0, 0,0);
            stroke-width:4;
"
/>

    <circle cx="405" cy="127" r="4" fill="black" />
<line
    stroke-linecap="square"
    x1="405"
    y1="187"
    x2="435"
    y2="187"
    style="stroke:rgb(0, 0,0);
            stroke-width:4;
"
/>

<line
    stroke-linecap="square"
    x1="435"
    y1="187"
    x2="435"
    y2="147"
    style="stroke:rgb(0, 0,0);
            stroke-width:4;
"
/>

    <circle cx="435" cy="187" r="4" fill="black" />
<line
    stroke-linecap="square"
    x1="435"
    y1="147"
    x2="495"
    y2="147"
    style="stroke:rgb(0, 0,0);
            stroke-width:4;
"
/>

    <circle cx="435" cy="147" r="4" fill="black" />
<line
    stroke-linecap="square"
    x1="495"
    y1="147"
    x2="495"
    y2="127"
    style="stroke:rgb(0, 0,0);
            stroke-width:4;
"
/>

<line
    stroke-linecap="square"
    x1="495"
    y1="127"
    x2="517"
    y2="127"
    style="stroke:rgb(0, 0,0);
            stroke-width:2;
                marker-end: url(#0,0,0)
            "
/>
    <text
        x="506"
        y="116"
        alignment-baseline="middle"
        font-family="Verdana"
        font-size="11"
        fill="black">
    1
    </text>

    <circle cx="495" cy="127" r="4" fill="black" />
<line
    stroke-linecap="square"
    x1="383"
    y1="247"
    x2="405"
    y2="247"
    style="stroke:rgb(0, 0,0);
            stroke-width:2;
"
/>
    <text
        x="386"
        y="240"
        alignment-baseline="middle"
        font-family="Verdana"
        font-size="11"
        fill="black">
    2
    </text>

<line
    stroke-linecap="square"
    x1="405"
    y1="247"
    x2="405"
    y2="187"
    style="stroke:rgb(0, 0,0);
            stroke-width:4;
"
/>

    <circle cx="405" cy="247" r="4" fill="black" />
<line
    stroke-linecap="square"
    x1="405"
    y1="187"
    x2="435"
    y2="187"
    style="stroke:rgb(0, 0,0);
            stroke-width:4;
"
/>

<line
    stroke-linecap="square"
    x1="435"
    y1="187"
    x2="435"
    y2="147"
    style="stroke:rgb(0, 0,0);
            stroke-width:4;
"
/>

    <circle cx="435" cy="187" r="4" fill="black" />
<line
    stroke-linecap="square"
    x1="435"
    y1="147"
    x2="495"
    y2="147"
    style="stroke:rgb(0, 0,0);
            stroke-width:4;
"
/>

    <circle cx="435" cy="147" r="4" fill="black" />
<line
    stroke-linecap="square"
    x1="495"
    y1="147"
    x2="495"
    y2="167"
    style="stroke:rgb(0, 0,0);
            stroke-width:4;
"
/>

<line
    stroke-linecap="square"
    x1="495"
    y1="167"
    x2="517"
    y2="167"
    style="stroke:rgb(0, 0,0);
            stroke-width:2;
                marker-end: url(#0,0,0)
            "
/>
    <text
        x="506"
        y="156"
        alignment-baseline="middle"
        font-family="Verdana"
        font-size="11"
        fill="black">
    2
    </text>

    <circle cx="495" cy="167" r="4" fill="black" />
<line
    stroke-linecap="square"
    x1="383"
    y1="287"
    x2="405"
    y2="287"
    style="stroke:rgb(0, 0,0);
            stroke-width:2;
"
/>
    <text
        x="386"
        y="280"
        alignment-baseline="middle"
        font-family="Verdana"
        font-size="11"
        fill="black">
    3
    </text>

<line
    stroke-linecap="square"
    x1="405"
    y1="287"
    x2="405"
    y2="187"
    style="stroke:rgb(0, 0,0);
            stroke-width:4;
"
/>

    <circle cx="405" cy="287" r="4" fill="black" />
<line
    stroke-linecap="square"
    x1="405"
    y1="187"
    x2="435"
    y2="187"
    style="stroke:rgb(0, 0,0);
            stroke-width:4;
"
/>

<line
    stroke-linecap="square"
    x1="435"
    y1="187"
    x2="435"
    y2="147"
    style="stroke:rgb(0, 0,0);
            stroke-width:4;
"
/>

    <circle cx="435" cy="187" r="4" fill="black" />
<line
    stroke-linecap="square"
    x1="435"
    y1="147"
    x2="495"
    y2="147"
    style="stroke:rgb(0, 0,0);
            stroke-width:4;
"
/>

    <circle cx="435" cy="147" r="4" fill="black" />
<line
    stroke-linecap="square"
    x1="495"
    y1="147"
    x2="495"
    y2="207"
    style="stroke:rgb(0, 0,0);
            stroke-width:4;
"
/>

<line
    stroke-linecap="square"
    x1="495"
    y1="207"
    x2="517"
    y2="207"
    style="stroke:rgb(0, 0,0);
            stroke-width:2;
                marker-end: url(#0,0,0)
            "
/>
    <text
        x="506"
        y="196"
        alignment-baseline="middle"
        font-family="Verdana"
        font-size="11"
        fill="black">
    3
    </text>

    <circle cx="495" cy="207" r="4" fill="black" />
<defs>
    <!-- Small box indicating a port -->
    <rect id="port" x="0" y="0" width="16" height="16"
          style="fill:white;stroke:rgb(0,0,0);stroke-width:1;fill-opacity:1.0;stroke-opacity:1.0"/>
</defs><use x="367" y="119" xlink:href="#port" />
<text text-anchor="end" alignment-baseline="middle" x="364" y="129" transform="rotate(0,364,129)" style="font-weight: regular" font-family="Verdana" font-size="9" fill="black">
level1
</text>

<use x="698" y="239" xlink:href="#port" />
<text text-anchor="start" alignment-baseline="middle" x="718" y="249" transform="rotate(0,718,249)" style="font-weight: regular" font-family="Verdana" font-size="9" fill="black">
level1
</text>

<use x="367" y="239" xlink:href="#port" />
<text text-anchor="end" alignment-baseline="middle" x="364" y="249" transform="rotate(0,364,249)" style="font-weight: regular" font-family="Verdana" font-size="9" fill="black">
pump
</text>

<use x="698" y="279" xlink:href="#port" />
<text text-anchor="start" alignment-baseline="middle" x="718" y="289" transform="rotate(0,718,289)" style="font-weight: regular" font-family="Verdana" font-size="9" fill="black">
pump
</text>

<use x="367" y="279" xlink:href="#port" />
<text text-anchor="end" alignment-baseline="middle" x="364" y="289" transform="rotate(0,364,289)" style="font-weight: regular" font-family="Verdana" font-size="9" fill="black">
valve
</text>

<use x="698" y="319" xlink:href="#port" />
<text text-anchor="start" alignment-baseline="middle" x="718" y="329" transform="rotate(0,718,329)" style="font-weight: regular" font-family="Verdana" font-size="9" fill="black">
valve
</text>

<use x="648" y="119" xlink:href="#port" />
<text text-anchor="end" alignment-baseline="middle" x="645" y="129" transform="rotate(0,645,129)" style="font-weight: regular" font-family="Verdana" font-size="9" fill="black">
button
</text>

<use x="698" y="119" xlink:href="#port" />
<text text-anchor="start" alignment-baseline="middle" x="718" y="129" transform="rotate(0,718,129)" style="font-weight: regular" font-family="Verdana" font-size="9" fill="black">
button
</text>

<use x="168" y="119" xlink:href="#port" />
<text text-anchor="end" alignment-baseline="middle" x="164" y="129" transform="rotate(0,164,129)" style="font-weight: regular" font-family="Verdana" font-size="9" fill="black">
pumpActu
</text>

<text text-anchor="end" alignment-baseline="middle" x="164" y="139" transform="rotate(0,164,139)" style="font-weight: regular" font-family="Verdana" font-size="9" fill="black">
atorPort
</text>

<use x="218" y="119" xlink:href="#port" />
<text text-anchor="start" alignment-baseline="middle" x="237" y="129" transform="rotate(0,237,129)" style="font-weight: regular" font-family="Verdana" font-size="9" fill="black">
pumpActu
</text>

<text text-anchor="start" alignment-baseline="middle" x="237" y="139" transform="rotate(0,237,139)" style="font-weight: regular" font-family="Verdana" font-size="9" fill="black">
atorPort
</text>

<use x="168" y="79" xlink:href="#port" />
<text text-anchor="end" alignment-baseline="middle" x="164" y="89" transform="rotate(0,164,89)" style="font-weight: regular" font-family="Verdana" font-size="9" fill="black">
valveOpen
</text>

<use x="218" y="79" xlink:href="#port" />
<text text-anchor="start" alignment-baseline="middle" x="237" y="89" transform="rotate(0,237,89)" style="font-weight: regular" font-family="Verdana" font-size="9" fill="black">
valveOpen
</text>

<use x="168" y="239" xlink:href="#port" />
<text text-anchor="end" alignment-baseline="middle" x="164" y="249" transform="rotate(0,164,249)" style="font-weight: regular" font-family="Verdana" font-size="9" fill="black">
valve
</text>

<text text-anchor="end" alignment-baseline="middle" x="164" y="259" transform="rotate(0,164,259)" style="font-weight: regular" font-family="Verdana" font-size="9" fill="black">
Close
</text>

<use x="218" y="239" xlink:href="#port" />
<text text-anchor="start" alignment-baseline="middle" x="237" y="249" transform="rotate(0,237,249)" style="font-weight: regular" font-family="Verdana" font-size="9" fill="black">
valve
</text>

<text text-anchor="start" alignment-baseline="middle" x="237" y="259" transform="rotate(0,237,259)" style="font-weight: regular" font-family="Verdana" font-size="9" fill="black">
Close
</text>

<use x="367" y="79" xlink:href="#port" />
<text text-anchor="end" alignment-baseline="middle" x="364" y="89" transform="rotate(0,364,89)" style="font-weight: regular" font-family="Verdana" font-size="9" fill="black">
level2
</text>

<use x="517" y="79" xlink:href="#port" />
<text text-anchor="start" alignment-baseline="middle" x="536" y="89" transform="rotate(0,536,89)" style="font-weight: regular" font-family="Verdana" font-size="9" fill="black">
level2
</text>

<use x="367" y="119" xlink:href="#port" />
<text text-anchor="end" alignment-baseline="middle" x="364" y="129" transform="rotate(0,364,129)" style="font-weight: regular" font-family="Verdana" font-size="9" fill="black">
level1
</text>

<use x="517" y="119" xlink:href="#port" />
<text text-anchor="start" alignment-baseline="middle" x="536" y="129" transform="rotate(0,536,129)" style="font-weight: regular" font-family="Verdana" font-size="9" fill="black">
level1
</text>

<use x="367" y="239" xlink:href="#port" />
<text text-anchor="end" alignment-baseline="middle" x="364" y="249" transform="rotate(0,364,249)" style="font-weight: regular" font-family="Verdana" font-size="9" fill="black">
pump
</text>

<use x="517" y="159" xlink:href="#port" />
<text text-anchor="start" alignment-baseline="middle" x="536" y="169" transform="rotate(0,536,169)" style="font-weight: regular" font-family="Verdana" font-size="9" fill="black">
pump
</text>

<use x="367" y="279" xlink:href="#port" />
<text text-anchor="end" alignment-baseline="middle" x="364" y="289" transform="rotate(0,364,289)" style="font-weight: regular" font-family="Verdana" font-size="9" fill="black">
valve
</text>

<use x="517" y="199" xlink:href="#port" />
<text text-anchor="start" alignment-baseline="middle" x="536" y="209" transform="rotate(0,536,209)" style="font-weight: regular" font-family="Verdana" font-size="9" fill="black">
valve
</text>


</svg>