<svg width="100%" height="100%" xmlns="http://www.w3.org/2000/svg" version="1.1" xmlns:xlink="http://www.w3.org/1999/xlink">
    <svg xmlns="http://www.w3.org/2000/svg" version="1.1">

<!-- Canvas: environment -->
<g transform="translate(16 20)">

    <rect
        id="16922"
        width="342"
        height="347"
        style="fill:white;stroke:black;stroke-width:2;fill-opacity:1.0;stroke-opacity:1.0"/>

    <text
        x="8"
        y="20"
        font-family="Verdana"
        fill="black">
            <tspan style="font-weight: bold" font-size="13">environment</tspan>
    </text>

</g>

</svg><!-- Component: physicsSimulation -->
<g transform="translate(66 52)">
    <rect
        data-name="testManuelSchrick.pumpStationExample.pumpStation.environment.physicsSimulation"
        id="16923"
        width="49"
        height="255"
        style="
                fill:white;
            stroke:black;
            stroke-width:2;
            fill-opacity:1.0;
            stroke-opacity:1.0"
        onmouseout="this.style.stroke = '#000000'; this.style['stroke-width'] = 2; this.style.cursor='default';"
    />

    <text
        x="10"
        y="15"
        alignment-baseline="middle"
        font-family="Verdana"
        fill="black">
            <tspan style="font-weight: bold" font-size="11">physicsSimulation</tspan>
    </text>

</g><!-- Component: simulationPanel -->
<g transform="translate(265 52)">
    <rect
        data-name="testManuelSchrick.pumpStationExample.pumpStation.environment.simulationPanel"
        id="16924"
        width="43"
        height="175"
        style="
                fill:white;
            stroke:black;
            stroke-width:2;
            fill-opacity:1.0;
            stroke-opacity:1.0"
        onmouseout="this.style.stroke = '#000000'; this.style['stroke-width'] = 2; this.style.cursor='default';"
    />

    <text
        x="10"
        y="15"
        alignment-baseline="middle"
        font-family="Verdana"
        fill="black">
            <tspan style="font-weight: bold" font-size="11">simulationPanel</tspan>
    </text>

</g><defs>
    <marker id="0,0,0" markerWidth="13" markerHeight="13" refX="5" refY="5" orient="auto">
            <polyline points="0,2 5,5 0,8" style="fill:none; stroke:rgb(0,0,0);
                    stroke-width:1" />
    </marker>
</defs><line
    stroke-linecap="square"
    x1="123"
    y1="127"
    x2="145"
    y2="127"
    style="stroke:rgb(0, 0,0);
            stroke-width:2;
"
/>
    <text
        x="126"
        y="120"
        alignment-baseline="middle"
        font-family="Verdana"
        font-size="11"
        fill="black">
    1
    </text>

<line
    stroke-linecap="square"
    x1="145"
    y1="127"
    x2="145"
    y2="187"
    style="stroke:rgb(0, 0,0);
            stroke-width:4;
"
/>

    <circle cx="145" cy="127" r="4" fill="black" />
<line
    stroke-linecap="square"
    x1="145"
    y1="187"
    x2="175"
    y2="187"
    style="stroke:rgb(0, 0,0);
            stroke-width:4;
"
/>

<line
    stroke-linecap="square"
    x1="175"
    y1="187"
    x2="175"
    y2="287"
    style="stroke:rgb(0, 0,0);
            stroke-width:4;
"
/>

    <circle cx="175" cy="187" r="4" fill="black" />
<line
    stroke-linecap="square"
    x1="175"
    y1="287"
    x2="308"
    y2="287"
    style="stroke:rgb(0, 0,0);
            stroke-width:4;
"
/>

    <circle cx="175" cy="287" r="4" fill="black" />
<line
    stroke-linecap="square"
    x1="308"
    y1="287"
    x2="308"
    y2="247"
    style="stroke:rgb(0, 0,0);
            stroke-width:4;
"
/>

<line
    stroke-linecap="square"
    x1="308"
    y1="247"
    x2="350"
    y2="247"
    style="stroke:rgb(0, 0,0);
            stroke-width:2;
                marker-end: url(#0,0,0)
            "
/>
    <text
        x="339"
        y="236"
        alignment-baseline="middle"
        font-family="Verdana"
        font-size="11"
        fill="black">
    1
    </text>

    <circle cx="308" cy="247" r="4" fill="black" />
<line
    stroke-linecap="square"
    x1="123"
    y1="247"
    x2="145"
    y2="247"
    style="stroke:rgb(0, 0,0);
            stroke-width:2;
"
/>
    <text
        x="126"
        y="240"
        alignment-baseline="middle"
        font-family="Verdana"
        font-size="11"
        fill="black">
    2
    </text>

<line
    stroke-linecap="square"
    x1="145"
    y1="247"
    x2="145"
    y2="187"
    style="stroke:rgb(0, 0,0);
            stroke-width:4;
"
/>

    <circle cx="145" cy="247" r="4" fill="black" />
<line
    stroke-linecap="square"
    x1="145"
    y1="187"
    x2="175"
    y2="187"
    style="stroke:rgb(0, 0,0);
            stroke-width:4;
"
/>

<line
    stroke-linecap="square"
    x1="175"
    y1="187"
    x2="175"
    y2="287"
    style="stroke:rgb(0, 0,0);
            stroke-width:4;
"
/>

    <circle cx="175" cy="187" r="4" fill="black" />
<line
    stroke-linecap="square"
    x1="175"
    y1="287"
    x2="308"
    y2="287"
    style="stroke:rgb(0, 0,0);
            stroke-width:4;
"
/>

    <circle cx="175" cy="287" r="4" fill="black" />
<line
    stroke-linecap="square"
    x1="308"
    y1="287"
    x2="308"
    y2="287"
    style="stroke:rgb(0, 0,0);
            stroke-width:4;
"
/>

<line
    stroke-linecap="square"
    x1="308"
    y1="287"
    x2="350"
    y2="287"
    style="stroke:rgb(0, 0,0);
            stroke-width:2;
                marker-end: url(#0,0,0)
            "
/>
    <text
        x="339"
        y="276"
        alignment-baseline="middle"
        font-family="Verdana"
        font-size="11"
        fill="black">
    2
    </text>

    <circle cx="308" cy="287" r="4" fill="black" />
<line
    stroke-linecap="square"
    x1="123"
    y1="287"
    x2="145"
    y2="287"
    style="stroke:rgb(0, 0,0);
            stroke-width:2;
"
/>
    <text
        x="126"
        y="280"
        alignment-baseline="middle"
        font-family="Verdana"
        font-size="11"
        fill="black">
    3
    </text>

<line
    stroke-linecap="square"
    x1="145"
    y1="287"
    x2="145"
    y2="187"
    style="stroke:rgb(0, 0,0);
            stroke-width:4;
"
/>

    <circle cx="145" cy="287" r="4" fill="black" />
<line
    stroke-linecap="square"
    x1="145"
    y1="187"
    x2="175"
    y2="187"
    style="stroke:rgb(0, 0,0);
            stroke-width:4;
"
/>

<line
    stroke-linecap="square"
    x1="175"
    y1="187"
    x2="175"
    y2="287"
    style="stroke:rgb(0, 0,0);
            stroke-width:4;
"
/>

    <circle cx="175" cy="187" r="4" fill="black" />
<line
    stroke-linecap="square"
    x1="175"
    y1="287"
    x2="308"
    y2="287"
    style="stroke:rgb(0, 0,0);
            stroke-width:4;
"
/>

    <circle cx="175" cy="287" r="4" fill="black" />
<line
    stroke-linecap="square"
    x1="308"
    y1="287"
    x2="308"
    y2="327"
    style="stroke:rgb(0, 0,0);
            stroke-width:4;
"
/>

<line
    stroke-linecap="square"
    x1="308"
    y1="327"
    x2="350"
    y2="327"
    style="stroke:rgb(0, 0,0);
            stroke-width:2;
                marker-end: url(#0,0,0)
            "
/>
    <text
        x="339"
        y="316"
        alignment-baseline="middle"
        font-family="Verdana"
        font-size="11"
        fill="black">
    3
    </text>

    <circle cx="308" cy="327" r="4" fill="black" />
<line
    stroke-linecap="square"
    x1="316"
    y1="127"
    x2="350"
    y2="127"
    style="stroke:rgb(0, 0,0);
            stroke-width:2;
                marker-end: url(#0,0,0)
            "
/>

<line
    stroke-linecap="square"
    x1="24"
    y1="127"
    x2="58"
    y2="127"
    style="stroke:rgb(0, 0,0);
            stroke-width:2;
                marker-end: url(#0,0,0)
            "
/>

<line
    stroke-linecap="square"
    x1="24"
    y1="87"
    x2="58"
    y2="87"
    style="stroke:rgb(0, 0,0);
            stroke-width:2;
                marker-end: url(#0,0,0)
            "
/>

<line
    stroke-linecap="square"
    x1="24"
    y1="247"
    x2="58"
    y2="247"
    style="stroke:rgb(0, 0,0);
            stroke-width:2;
                marker-end: url(#0,0,0)
            "
/>

<line
    stroke-linecap="square"
    x1="123"
    y1="87"
    x2="145"
    y2="87"
    style="stroke:rgb(0, 0,0);
            stroke-width:2;
"
/>
    <text
        x="126"
        y="80"
        alignment-baseline="middle"
        font-family="Verdana"
        font-size="11"
        fill="black">
    0
    </text>

<line
    stroke-linecap="square"
    x1="145"
    y1="87"
    x2="145"
    y2="187"
    style="stroke:rgb(0, 0,0);
            stroke-width:4;
"
/>

    <circle cx="145" cy="87" r="4" fill="black" />
<line
    stroke-linecap="square"
    x1="145"
    y1="187"
    x2="175"
    y2="187"
    style="stroke:rgb(0, 0,0);
            stroke-width:4;
"
/>

<line
    stroke-linecap="square"
    x1="175"
    y1="187"
    x2="175"
    y2="147"
    style="stroke:rgb(0, 0,0);
            stroke-width:4;
"
/>

    <circle cx="175" cy="187" r="4" fill="black" />
<line
    stroke-linecap="square"
    x1="175"
    y1="147"
    x2="235"
    y2="147"
    style="stroke:rgb(0, 0,0);
            stroke-width:4;
"
/>

    <circle cx="175" cy="147" r="4" fill="black" />
<line
    stroke-linecap="square"
    x1="235"
    y1="147"
    x2="235"
    y2="87"
    style="stroke:rgb(0, 0,0);
            stroke-width:4;
"
/>

<line
    stroke-linecap="square"
    x1="235"
    y1="87"
    x2="257"
    y2="87"
    style="stroke:rgb(0, 0,0);
            stroke-width:2;
                marker-end: url(#0,0,0)
            "
/>
    <text
        x="246"
        y="76"
        alignment-baseline="middle"
        font-family="Verdana"
        font-size="11"
        fill="black">
    0
    </text>

    <circle cx="235" cy="87" r="4" fill="black" />
<line
    stroke-linecap="square"
    x1="123"
    y1="127"
    x2="145"
    y2="127"
    style="stroke:rgb(0, 0,0);
            stroke-width:2;
"
/>
    <text
        x="126"
        y="120"
        alignment-baseline="middle"
        font-family="Verdana"
        font-size="11"
        fill="black">
    1
    </text>

<line
    stroke-linecap="square"
    x1="145"
    y1="127"
    x2="145"
    y2="187"
    style="stroke:rgb(0, 0,0);
            stroke-width:4;
"
/>

    <circle cx="145" cy="127" r="4" fill="black" />
<line
    stroke-linecap="square"
    x1="145"
    y1="187"
    x2="175"
    y2="187"
    style="stroke:rgb(0, 0,0);
            stroke-width:4;
"
/>

<line
    stroke-linecap="square"
    x1="175"
    y1="187"
    x2="175"
    y2="147"
    style="stroke:rgb(0, 0,0);
            stroke-width:4;
"
/>

    <circle cx="175" cy="187" r="4" fill="black" />
<line
    stroke-linecap="square"
    x1="175"
    y1="147"
    x2="235"
    y2="147"
    style="stroke:rgb(0, 0,0);
            stroke-width:4;
"
/>

    <circle cx="175" cy="147" r="4" fill="black" />
<line
    stroke-linecap="square"
    x1="235"
    y1="147"
    x2="235"
    y2="127"
    style="stroke:rgb(0, 0,0);
            stroke-width:4;
"
/>

<line
    stroke-linecap="square"
    x1="235"
    y1="127"
    x2="257"
    y2="127"
    style="stroke:rgb(0, 0,0);
            stroke-width:2;
                marker-end: url(#0,0,0)
            "
/>
    <text
        x="246"
        y="116"
        alignment-baseline="middle"
        font-family="Verdana"
        font-size="11"
        fill="black">
    1
    </text>

    <circle cx="235" cy="127" r="4" fill="black" />
<line
    stroke-linecap="square"
    x1="123"
    y1="247"
    x2="145"
    y2="247"
    style="stroke:rgb(0, 0,0);
            stroke-width:2;
"
/>
    <text
        x="126"
        y="240"
        alignment-baseline="middle"
        font-family="Verdana"
        font-size="11"
        fill="black">
    2
    </text>

<line
    stroke-linecap="square"
    x1="145"
    y1="247"
    x2="145"
    y2="187"
    style="stroke:rgb(0, 0,0);
            stroke-width:4;
"
/>

    <circle cx="145" cy="247" r="4" fill="black" />
<line
    stroke-linecap="square"
    x1="145"
    y1="187"
    x2="175"
    y2="187"
    style="stroke:rgb(0, 0,0);
            stroke-width:4;
"
/>

<line
    stroke-linecap="square"
    x1="175"
    y1="187"
    x2="175"
    y2="147"
    style="stroke:rgb(0, 0,0);
            stroke-width:4;
"
/>

    <circle cx="175" cy="187" r="4" fill="black" />
<line
    stroke-linecap="square"
    x1="175"
    y1="147"
    x2="235"
    y2="147"
    style="stroke:rgb(0, 0,0);
            stroke-width:4;
"
/>

    <circle cx="175" cy="147" r="4" fill="black" />
<line
    stroke-linecap="square"
    x1="235"
    y1="147"
    x2="235"
    y2="167"
    style="stroke:rgb(0, 0,0);
            stroke-width:4;
"
/>

<line
    stroke-linecap="square"
    x1="235"
    y1="167"
    x2="257"
    y2="167"
    style="stroke:rgb(0, 0,0);
            stroke-width:2;
                marker-end: url(#0,0,0)
            "
/>
    <text
        x="246"
        y="156"
        alignment-baseline="middle"
        font-family="Verdana"
        font-size="11"
        fill="black">
    2
    </text>

    <circle cx="235" cy="167" r="4" fill="black" />
<line
    stroke-linecap="square"
    x1="123"
    y1="287"
    x2="145"
    y2="287"
    style="stroke:rgb(0, 0,0);
            stroke-width:2;
"
/>
    <text
        x="126"
        y="280"
        alignment-baseline="middle"
        font-family="Verdana"
        font-size="11"
        fill="black">
    3
    </text>

<line
    stroke-linecap="square"
    x1="145"
    y1="287"
    x2="145"
    y2="187"
    style="stroke:rgb(0, 0,0);
            stroke-width:4;
"
/>

    <circle cx="145" cy="287" r="4" fill="black" />
<line
    stroke-linecap="square"
    x1="145"
    y1="187"
    x2="175"
    y2="187"
    style="stroke:rgb(0, 0,0);
            stroke-width:4;
"
/>

<line
    stroke-linecap="square"
    x1="175"
    y1="187"
    x2="175"
    y2="147"
    style="stroke:rgb(0, 0,0);
            stroke-width:4;
"
/>

    <circle cx="175" cy="187" r="4" fill="black" />
<line
    stroke-linecap="square"
    x1="175"
    y1="147"
    x2="235"
    y2="147"
    style="stroke:rgb(0, 0,0);
            stroke-width:4;
"
/>

    <circle cx="175" cy="147" r="4" fill="black" />
<line
    stroke-linecap="square"
    x1="235"
    y1="147"
    x2="235"
    y2="207"
    style="stroke:rgb(0, 0,0);
            stroke-width:4;
"
/>

<line
    stroke-linecap="square"
    x1="235"
    y1="207"
    x2="257"
    y2="207"
    style="stroke:rgb(0, 0,0);
            stroke-width:2;
                marker-end: url(#0,0,0)
            "
/>
    <text
        x="246"
        y="196"
        alignment-baseline="middle"
        font-family="Verdana"
        font-size="11"
        fill="black">
    3
    </text>

    <circle cx="235" cy="207" r="4" fill="black" />
<defs>
    <!-- Small box indicating a port -->
    <rect id="port" x="0" y="0" width="16" height="16"
          style="fill:white;stroke:rgb(0,0,0);stroke-width:1;fill-opacity:1.0;stroke-opacity:1.0"/>
</defs><use x="107" y="119" xlink:href="#port" />
<text text-anchor="end" alignment-baseline="middle" x="104" y="129" transform="rotate(0,104,129)" style="font-weight: regular" font-family="Verdana" font-size="9" fill="black">

</text>

<use x="350" y="239" xlink:href="#port" />
<text text-anchor="start" alignment-baseline="middle" x="370" y="249" transform="rotate(0,370,249)" style="font-weight: regular" font-family="Verdana" font-size="9" fill="black">

</text>

<use x="107" y="239" xlink:href="#port" />
<text text-anchor="end" alignment-baseline="middle" x="104" y="249" transform="rotate(0,104,249)" style="font-weight: regular" font-family="Verdana" font-size="9" fill="black">

</text>

<use x="350" y="279" xlink:href="#port" />
<text text-anchor="start" alignment-baseline="middle" x="370" y="289" transform="rotate(0,370,289)" style="font-weight: regular" font-family="Verdana" font-size="9" fill="black">

</text>

<use x="107" y="279" xlink:href="#port" />
<text text-anchor="end" alignment-baseline="middle" x="104" y="289" transform="rotate(0,104,289)" style="font-weight: regular" font-family="Verdana" font-size="9" fill="black">

</text>

<use x="350" y="319" xlink:href="#port" />
<text text-anchor="start" alignment-baseline="middle" x="370" y="329" transform="rotate(0,370,329)" style="font-weight: regular" font-family="Verdana" font-size="9" fill="black">

</text>

<use x="300" y="119" xlink:href="#port" />
<text text-anchor="end" alignment-baseline="middle" x="297" y="129" transform="rotate(0,297,129)" style="font-weight: regular" font-family="Verdana" font-size="9" fill="black">

</text>

<use x="350" y="119" xlink:href="#port" />
<text text-anchor="start" alignment-baseline="middle" x="370" y="129" transform="rotate(0,370,129)" style="font-weight: regular" font-family="Verdana" font-size="9" fill="black">

</text>

<use x="8" y="119" xlink:href="#port" />
<text text-anchor="end" alignment-baseline="middle" x="4" y="129" transform="rotate(0,4,129)" style="font-weight: regular" font-family="Verdana" font-size="9" fill="black">

</text>

<use x="58" y="119" xlink:href="#port" />
<text text-anchor="start" alignment-baseline="middle" x="77" y="129" transform="rotate(0,77,129)" style="font-weight: regular" font-family="Verdana" font-size="9" fill="black">

</text>

<use x="8" y="79" xlink:href="#port" />
<text text-anchor="end" alignment-baseline="middle" x="4" y="89" transform="rotate(0,4,89)" style="font-weight: regular" font-family="Verdana" font-size="9" fill="black">

</text>

<use x="58" y="79" xlink:href="#port" />
<text text-anchor="start" alignment-baseline="middle" x="77" y="89" transform="rotate(0,77,89)" style="font-weight: regular" font-family="Verdana" font-size="9" fill="black">

</text>

<use x="8" y="239" xlink:href="#port" />
<text text-anchor="end" alignment-baseline="middle" x="4" y="249" transform="rotate(0,4,249)" style="font-weight: regular" font-family="Verdana" font-size="9" fill="black">

</text>

<use x="58" y="239" xlink:href="#port" />
<text text-anchor="start" alignment-baseline="middle" x="77" y="249" transform="rotate(0,77,249)" style="font-weight: regular" font-family="Verdana" font-size="9" fill="black">

</text>

<use x="107" y="79" xlink:href="#port" />
<text text-anchor="end" alignment-baseline="middle" x="104" y="89" transform="rotate(0,104,89)" style="font-weight: regular" font-family="Verdana" font-size="9" fill="black">

</text>

<use x="257" y="79" xlink:href="#port" />
<text text-anchor="start" alignment-baseline="middle" x="276" y="89" transform="rotate(0,276,89)" style="font-weight: regular" font-family="Verdana" font-size="9" fill="black">

</text>

<use x="107" y="119" xlink:href="#port" />
<text text-anchor="end" alignment-baseline="middle" x="104" y="129" transform="rotate(0,104,129)" style="font-weight: regular" font-family="Verdana" font-size="9" fill="black">

</text>

<use x="257" y="119" xlink:href="#port" />
<text text-anchor="start" alignment-baseline="middle" x="276" y="129" transform="rotate(0,276,129)" style="font-weight: regular" font-family="Verdana" font-size="9" fill="black">

</text>

<use x="107" y="239" xlink:href="#port" />
<text text-anchor="end" alignment-baseline="middle" x="104" y="249" transform="rotate(0,104,249)" style="font-weight: regular" font-family="Verdana" font-size="9" fill="black">

</text>

<use x="257" y="159" xlink:href="#port" />
<text text-anchor="start" alignment-baseline="middle" x="276" y="169" transform="rotate(0,276,169)" style="font-weight: regular" font-family="Verdana" font-size="9" fill="black">

</text>

<use x="107" y="279" xlink:href="#port" />
<text text-anchor="end" alignment-baseline="middle" x="104" y="289" transform="rotate(0,104,289)" style="font-weight: regular" font-family="Verdana" font-size="9" fill="black">

</text>

<use x="257" y="199" xlink:href="#port" />
<text text-anchor="start" alignment-baseline="middle" x="276" y="209" transform="rotate(0,276,209)" style="font-weight: regular" font-family="Verdana" font-size="9" fill="black">

</text>


</svg>