<svg width="100%" height="100%" xmlns="http://www.w3.org/2000/svg" version="1.1" xmlns:xlink="http://www.w3.org/1999/xlink">
    <svg xmlns="http://www.w3.org/2000/svg" version="1.1">

<!-- Canvas: behaviorGeneration -->
<g transform="translate(276 20)">

    <rect
        id="15131"
        width="566"
        height="402"
        style="fill:white;stroke:black;stroke-width:2;fill-opacity:1.0;stroke-opacity:1.0"/>

    <text
        x="8"
        y="20"
        font-family="Verdana"
        fill="black">
            <tspan style="font-weight: bold" font-size="13">behaviorGeneration</tspan>
    </text>

</g>

</svg><!-- Component: trimPath -->
<g transform="translate(426 147)">
    <rect
        data-name="testManuelSchrick.autopilot.autopilot.behaviorGeneration.trimPath"
        id="15133"
        width="138"
        height="255"
        style="
                fill:white;
            stroke:black;
            stroke-width:2;
            fill-opacity:1.0;
            stroke-opacity:1.0"
        onmouseout="this.style.stroke = '#000000'; this.style['stroke-width'] = 2; this.style.cursor='default';"
    />

    <text
        x="10"
        y="15"
        alignment-baseline="middle"
        font-family="Verdana"
        fill="black">
            <tspan style="font-weight: bold" font-size="11">trimPath</tspan>
    </text>

</g><!-- Component: calcMotionCmds -->
<g transform="translate(654 52)">
    <rect
        data-name="testManuelSchrick.autopilot.autopilot.behaviorGeneration.calcMotionCmds"
        id="15134"
        width="138"
        height="350"
        style="
                fill:rgb(242,242,242);
            stroke:black;
            stroke-width:2;
            fill-opacity:1.0;
            stroke-opacity:1.0"
        onmouseout="this.style.stroke = '#000000'; this.style['stroke-width'] = 2; this.style.cursor='default';"
            onmouseover="this.style.stroke = '#316FC0'; this.style['stroke-width'] = 5; this.style.cursor='pointer';"
            onclick="window.open('testManuelSchrick.autopilot.autopilot.behaviorGeneration.calcMotionCmds.html','_parent',false);parent.openFileInEditor('/autopilot/autopilot/behaviorGeneration/calcMotionCmds.ema');"
    />

    <text
        x="10"
        y="15"
        alignment-baseline="middle"
        font-family="Verdana"
        fill="black">
            <tspan style="font-weight: bold" font-size="11">calcMotionCmds</tspan>
    </text>

</g><defs>
    <marker id="0,0,0" markerWidth="13" markerHeight="13" refX="5" refY="5" orient="auto">
            <polyline points="0,2 5,5 0,8" style="fill:none; stroke:rgb(0,0,0);
                    stroke-width:1" />
    </marker>
</defs><line
    stroke-linecap="square"
    x1="800"
    y1="127"
    x2="834"
    y2="127"
    style="stroke:rgb(0, 0,0);
            stroke-width:2;
                marker-end: url(#0,0,0)
            "
/>

<line
    stroke-linecap="square"
    x1="800"
    y1="87"
    x2="834"
    y2="87"
    style="stroke:rgb(0, 0,0);
            stroke-width:2;
                marker-end: url(#0,0,0)
            "
/>

<line
    stroke-linecap="square"
    x1="800"
    y1="182"
    x2="834"
    y2="182"
    style="stroke:rgb(0, 0,0);
            stroke-width:2;
                marker-end: url(#0,0,0)
            "
/>

<line
    stroke-linecap="square"
    x1="800"
    y1="222"
    x2="834"
    y2="222"
    style="stroke:rgb(0, 0,0);
            stroke-width:2;
                marker-end: url(#0,0,0)
            "
/>

<line
    stroke-linecap="square"
    x1="284"
    y1="87"
    x2="306"
    y2="87"
    style="stroke:rgb(0, 0,0);
            stroke-width:2;
"
/>
    <text
        x="287"
        y="80"
        alignment-baseline="middle"
        font-family="Verdana"
        font-size="11"
        fill="black">
    0
    </text>

<line
    stroke-linecap="square"
    x1="306"
    y1="87"
    x2="306"
    y2="227"
    style="stroke:rgb(0, 0,0);
            stroke-width:4;
"
/>

    <circle cx="306" cy="87" r="4" fill="black" />
<line
    stroke-linecap="square"
    x1="306"
    y1="227"
    x2="336"
    y2="227"
    style="stroke:rgb(0, 0,0);
            stroke-width:4;
"
/>

<line
    stroke-linecap="square"
    x1="336"
    y1="227"
    x2="336"
    y2="282"
    style="stroke:rgb(0, 0,0);
            stroke-width:4;
"
/>

    <circle cx="336" cy="227" r="4" fill="black" />
<line
    stroke-linecap="square"
    x1="336"
    y1="282"
    x2="396"
    y2="282"
    style="stroke:rgb(0, 0,0);
            stroke-width:4;
"
/>

    <circle cx="336" cy="282" r="4" fill="black" />
<line
    stroke-linecap="square"
    x1="396"
    y1="282"
    x2="396"
    y2="182"
    style="stroke:rgb(0, 0,0);
            stroke-width:4;
"
/>

<line
    stroke-linecap="square"
    x1="396"
    y1="182"
    x2="418"
    y2="182"
    style="stroke:rgb(0, 0,0);
            stroke-width:2;
                marker-end: url(#0,0,0)
            "
/>
    <text
        x="407"
        y="171"
        alignment-baseline="middle"
        font-family="Verdana"
        font-size="11"
        fill="black">
    0
    </text>

    <circle cx="396" cy="182" r="4" fill="black" />
<line
    stroke-linecap="square"
    x1="284"
    y1="127"
    x2="306"
    y2="127"
    style="stroke:rgb(0, 0,0);
            stroke-width:2;
"
/>
    <text
        x="287"
        y="120"
        alignment-baseline="middle"
        font-family="Verdana"
        font-size="11"
        fill="black">
    1
    </text>

<line
    stroke-linecap="square"
    x1="306"
    y1="127"
    x2="306"
    y2="227"
    style="stroke:rgb(0, 0,0);
            stroke-width:4;
"
/>

    <circle cx="306" cy="127" r="4" fill="black" />
<line
    stroke-linecap="square"
    x1="306"
    y1="227"
    x2="336"
    y2="227"
    style="stroke:rgb(0, 0,0);
            stroke-width:4;
"
/>

<line
    stroke-linecap="square"
    x1="336"
    y1="227"
    x2="336"
    y2="282"
    style="stroke:rgb(0, 0,0);
            stroke-width:4;
"
/>

    <circle cx="336" cy="227" r="4" fill="black" />
<line
    stroke-linecap="square"
    x1="336"
    y1="282"
    x2="396"
    y2="282"
    style="stroke:rgb(0, 0,0);
            stroke-width:4;
"
/>

    <circle cx="336" cy="282" r="4" fill="black" />
<line
    stroke-linecap="square"
    x1="396"
    y1="282"
    x2="396"
    y2="222"
    style="stroke:rgb(0, 0,0);
            stroke-width:4;
"
/>

<line
    stroke-linecap="square"
    x1="396"
    y1="222"
    x2="418"
    y2="222"
    style="stroke:rgb(0, 0,0);
            stroke-width:2;
                marker-end: url(#0,0,0)
            "
/>
    <text
        x="407"
        y="211"
        alignment-baseline="middle"
        font-family="Verdana"
        font-size="11"
        fill="black">
    1
    </text>

    <circle cx="396" cy="222" r="4" fill="black" />
<line
    stroke-linecap="square"
    x1="284"
    y1="262"
    x2="306"
    y2="262"
    style="stroke:rgb(0, 0,0);
            stroke-width:2;
"
/>
    <text
        x="287"
        y="255"
        alignment-baseline="middle"
        font-family="Verdana"
        font-size="11"
        fill="black">
    4
    </text>

<line
    stroke-linecap="square"
    x1="306"
    y1="262"
    x2="306"
    y2="227"
    style="stroke:rgb(0, 0,0);
            stroke-width:4;
"
/>

    <circle cx="306" cy="262" r="4" fill="black" />
<line
    stroke-linecap="square"
    x1="306"
    y1="227"
    x2="336"
    y2="227"
    style="stroke:rgb(0, 0,0);
            stroke-width:4;
"
/>

<line
    stroke-linecap="square"
    x1="336"
    y1="227"
    x2="336"
    y2="282"
    style="stroke:rgb(0, 0,0);
            stroke-width:4;
"
/>

    <circle cx="336" cy="227" r="4" fill="black" />
<line
    stroke-linecap="square"
    x1="336"
    y1="282"
    x2="396"
    y2="282"
    style="stroke:rgb(0, 0,0);
            stroke-width:4;
"
/>

    <circle cx="336" cy="282" r="4" fill="black" />
<line
    stroke-linecap="square"
    x1="396"
    y1="282"
    x2="396"
    y2="262"
    style="stroke:rgb(0, 0,0);
            stroke-width:4;
"
/>

<line
    stroke-linecap="square"
    x1="396"
    y1="262"
    x2="418"
    y2="262"
    style="stroke:rgb(0, 0,0);
            stroke-width:2;
                marker-end: url(#0,0,0)
            "
/>
    <text
        x="407"
        y="251"
        alignment-baseline="middle"
        font-family="Verdana"
        font-size="11"
        fill="black">
    4
    </text>

    <circle cx="396" cy="262" r="4" fill="black" />
<line
    stroke-linecap="square"
    x1="284"
    y1="302"
    x2="306"
    y2="302"
    style="stroke:rgb(0, 0,0);
            stroke-width:2;
"
/>
    <text
        x="287"
        y="295"
        alignment-baseline="middle"
        font-family="Verdana"
        font-size="11"
        fill="black">
    5
    </text>

<line
    stroke-linecap="square"
    x1="306"
    y1="302"
    x2="306"
    y2="227"
    style="stroke:rgb(0, 0,0);
            stroke-width:4;
"
/>

    <circle cx="306" cy="302" r="4" fill="black" />
<line
    stroke-linecap="square"
    x1="306"
    y1="227"
    x2="336"
    y2="227"
    style="stroke:rgb(0, 0,0);
            stroke-width:4;
"
/>

<line
    stroke-linecap="square"
    x1="336"
    y1="227"
    x2="336"
    y2="282"
    style="stroke:rgb(0, 0,0);
            stroke-width:4;
"
/>

    <circle cx="336" cy="227" r="4" fill="black" />
<line
    stroke-linecap="square"
    x1="336"
    y1="282"
    x2="396"
    y2="282"
    style="stroke:rgb(0, 0,0);
            stroke-width:4;
"
/>

    <circle cx="336" cy="282" r="4" fill="black" />
<line
    stroke-linecap="square"
    x1="396"
    y1="282"
    x2="396"
    y2="302"
    style="stroke:rgb(0, 0,0);
            stroke-width:4;
"
/>

<line
    stroke-linecap="square"
    x1="396"
    y1="302"
    x2="418"
    y2="302"
    style="stroke:rgb(0, 0,0);
            stroke-width:2;
                marker-end: url(#0,0,0)
            "
/>
    <text
        x="407"
        y="291"
        alignment-baseline="middle"
        font-family="Verdana"
        font-size="11"
        fill="black">
    5
    </text>

    <circle cx="396" cy="302" r="4" fill="black" />
<line
    stroke-linecap="square"
    x1="284"
    y1="382"
    x2="306"
    y2="382"
    style="stroke:rgb(0, 0,0);
            stroke-width:2;
"
/>
    <text
        x="287"
        y="375"
        alignment-baseline="middle"
        font-family="Verdana"
        font-size="11"
        fill="black">
    6
    </text>

<line
    stroke-linecap="square"
    x1="306"
    y1="382"
    x2="306"
    y2="227"
    style="stroke:rgb(0, 0,0);
            stroke-width:4;
"
/>

    <circle cx="306" cy="382" r="4" fill="black" />
<line
    stroke-linecap="square"
    x1="306"
    y1="227"
    x2="336"
    y2="227"
    style="stroke:rgb(0, 0,0);
            stroke-width:4;
"
/>

<line
    stroke-linecap="square"
    x1="336"
    y1="227"
    x2="336"
    y2="282"
    style="stroke:rgb(0, 0,0);
            stroke-width:4;
"
/>

    <circle cx="336" cy="227" r="4" fill="black" />
<line
    stroke-linecap="square"
    x1="336"
    y1="282"
    x2="396"
    y2="282"
    style="stroke:rgb(0, 0,0);
            stroke-width:4;
"
/>

    <circle cx="336" cy="282" r="4" fill="black" />
<line
    stroke-linecap="square"
    x1="396"
    y1="282"
    x2="396"
    y2="382"
    style="stroke:rgb(0, 0,0);
            stroke-width:4;
"
/>

<line
    stroke-linecap="square"
    x1="396"
    y1="382"
    x2="418"
    y2="382"
    style="stroke:rgb(0, 0,0);
            stroke-width:2;
                marker-end: url(#0,0,0)
            "
/>
    <text
        x="407"
        y="371"
        alignment-baseline="middle"
        font-family="Verdana"
        font-size="11"
        fill="black">
    6
    </text>

    <circle cx="396" cy="382" r="4" fill="black" />
<line
    stroke-linecap="square"
    x1="284"
    y1="87"
    x2="306"
    y2="87"
    style="stroke:rgb(0, 0,0);
            stroke-width:2;
"
/>
    <text
        x="287"
        y="80"
        alignment-baseline="middle"
        font-family="Verdana"
        font-size="11"
        fill="black">
    0
    </text>

<line
    stroke-linecap="square"
    x1="306"
    y1="87"
    x2="306"
    y2="227"
    style="stroke:rgb(0, 0,0);
            stroke-width:4;
"
/>

    <circle cx="306" cy="87" r="4" fill="black" />
<line
    stroke-linecap="square"
    x1="306"
    y1="227"
    x2="336"
    y2="227"
    style="stroke:rgb(0, 0,0);
            stroke-width:4;
"
/>

<line
    stroke-linecap="square"
    x1="336"
    y1="227"
    x2="336"
    y2="127"
    style="stroke:rgb(0, 0,0);
            stroke-width:4;
"
/>

    <circle cx="336" cy="227" r="4" fill="black" />
<line
    stroke-linecap="square"
    x1="336"
    y1="127"
    x2="624"
    y2="127"
    style="stroke:rgb(0, 0,0);
            stroke-width:4;
"
/>

    <circle cx="336" cy="127" r="4" fill="black" />
<line
    stroke-linecap="square"
    x1="624"
    y1="127"
    x2="624"
    y2="127"
    style="stroke:rgb(0, 0,0);
            stroke-width:4;
"
/>

<line
    stroke-linecap="square"
    x1="624"
    y1="127"
    x2="646"
    y2="127"
    style="stroke:rgb(0, 0,0);
            stroke-width:2;
                marker-end: url(#0,0,0)
            "
/>
    <text
        x="635"
        y="116"
        alignment-baseline="middle"
        font-family="Verdana"
        font-size="11"
        fill="black">
    0
    </text>

    <circle cx="624" cy="127" r="4" fill="black" />
<line
    stroke-linecap="square"
    x1="284"
    y1="127"
    x2="306"
    y2="127"
    style="stroke:rgb(0, 0,0);
            stroke-width:2;
"
/>
    <text
        x="287"
        y="120"
        alignment-baseline="middle"
        font-family="Verdana"
        font-size="11"
        fill="black">
    1
    </text>

<line
    stroke-linecap="square"
    x1="306"
    y1="127"
    x2="306"
    y2="227"
    style="stroke:rgb(0, 0,0);
            stroke-width:4;
"
/>

    <circle cx="306" cy="127" r="4" fill="black" />
<line
    stroke-linecap="square"
    x1="306"
    y1="227"
    x2="336"
    y2="227"
    style="stroke:rgb(0, 0,0);
            stroke-width:4;
"
/>

<line
    stroke-linecap="square"
    x1="336"
    y1="227"
    x2="336"
    y2="127"
    style="stroke:rgb(0, 0,0);
            stroke-width:4;
"
/>

    <circle cx="336" cy="227" r="4" fill="black" />
<line
    stroke-linecap="square"
    x1="336"
    y1="127"
    x2="624"
    y2="127"
    style="stroke:rgb(0, 0,0);
            stroke-width:4;
"
/>

    <circle cx="336" cy="127" r="4" fill="black" />
<line
    stroke-linecap="square"
    x1="624"
    y1="127"
    x2="624"
    y2="182"
    style="stroke:rgb(0, 0,0);
            stroke-width:4;
"
/>

<line
    stroke-linecap="square"
    x1="624"
    y1="182"
    x2="646"
    y2="182"
    style="stroke:rgb(0, 0,0);
            stroke-width:2;
                marker-end: url(#0,0,0)
            "
/>
    <text
        x="635"
        y="171"
        alignment-baseline="middle"
        font-family="Verdana"
        font-size="11"
        fill="black">
    1
    </text>

    <circle cx="624" cy="182" r="4" fill="black" />
<line
    stroke-linecap="square"
    x1="284"
    y1="182"
    x2="306"
    y2="182"
    style="stroke:rgb(0, 0,0);
            stroke-width:2;
"
/>
    <text
        x="287"
        y="175"
        alignment-baseline="middle"
        font-family="Verdana"
        font-size="11"
        fill="black">
    2
    </text>

<line
    stroke-linecap="square"
    x1="306"
    y1="182"
    x2="306"
    y2="227"
    style="stroke:rgb(0, 0,0);
            stroke-width:4;
"
/>

    <circle cx="306" cy="182" r="4" fill="black" />
<line
    stroke-linecap="square"
    x1="306"
    y1="227"
    x2="336"
    y2="227"
    style="stroke:rgb(0, 0,0);
            stroke-width:4;
"
/>

<line
    stroke-linecap="square"
    x1="336"
    y1="227"
    x2="336"
    y2="127"
    style="stroke:rgb(0, 0,0);
            stroke-width:4;
"
/>

    <circle cx="336" cy="227" r="4" fill="black" />
<line
    stroke-linecap="square"
    x1="336"
    y1="127"
    x2="624"
    y2="127"
    style="stroke:rgb(0, 0,0);
            stroke-width:4;
"
/>

    <circle cx="336" cy="127" r="4" fill="black" />
<line
    stroke-linecap="square"
    x1="624"
    y1="127"
    x2="624"
    y2="222"
    style="stroke:rgb(0, 0,0);
            stroke-width:4;
"
/>

<line
    stroke-linecap="square"
    x1="624"
    y1="222"
    x2="646"
    y2="222"
    style="stroke:rgb(0, 0,0);
            stroke-width:2;
                marker-end: url(#0,0,0)
            "
/>
    <text
        x="635"
        y="211"
        alignment-baseline="middle"
        font-family="Verdana"
        font-size="11"
        fill="black">
    2
    </text>

    <circle cx="624" cy="222" r="4" fill="black" />
<line
    stroke-linecap="square"
    x1="284"
    y1="222"
    x2="306"
    y2="222"
    style="stroke:rgb(0, 0,0);
            stroke-width:2;
"
/>
    <text
        x="287"
        y="215"
        alignment-baseline="middle"
        font-family="Verdana"
        font-size="11"
        fill="black">
    3
    </text>

<line
    stroke-linecap="square"
    x1="306"
    y1="222"
    x2="306"
    y2="227"
    style="stroke:rgb(0, 0,0);
            stroke-width:4;
"
/>

    <circle cx="306" cy="222" r="4" fill="black" />
<line
    stroke-linecap="square"
    x1="306"
    y1="227"
    x2="336"
    y2="227"
    style="stroke:rgb(0, 0,0);
            stroke-width:4;
"
/>

<line
    stroke-linecap="square"
    x1="336"
    y1="227"
    x2="336"
    y2="127"
    style="stroke:rgb(0, 0,0);
            stroke-width:4;
"
/>

    <circle cx="336" cy="227" r="4" fill="black" />
<line
    stroke-linecap="square"
    x1="336"
    y1="127"
    x2="624"
    y2="127"
    style="stroke:rgb(0, 0,0);
            stroke-width:4;
"
/>

    <circle cx="336" cy="127" r="4" fill="black" />
<line
    stroke-linecap="square"
    x1="624"
    y1="127"
    x2="624"
    y2="262"
    style="stroke:rgb(0, 0,0);
            stroke-width:4;
"
/>

<line
    stroke-linecap="square"
    x1="624"
    y1="262"
    x2="646"
    y2="262"
    style="stroke:rgb(0, 0,0);
            stroke-width:2;
                marker-end: url(#0,0,0)
            "
/>
    <text
        x="635"
        y="251"
        alignment-baseline="middle"
        font-family="Verdana"
        font-size="11"
        fill="black">
    3
    </text>

    <circle cx="624" cy="262" r="4" fill="black" />
<line
    stroke-linecap="square"
    x1="572"
    y1="382"
    x2="646"
    y2="382"
    style="stroke:rgb(0, 0,0);
            stroke-width:2;
                marker-end: url(#0,0,0)
            "
/>

<line
    stroke-linecap="square"
    x1="572"
    y1="302"
    x2="646"
    y2="302"
    style="stroke:rgb(0, 0,0);
            stroke-width:2;
                marker-end: url(#0,0,0)
            "
/>

<line
    stroke-linecap="square"
    x1="572"
    y1="342"
    x2="646"
    y2="342"
    style="stroke:rgb(0, 0,0);
            stroke-width:2;
                marker-end: url(#0,0,0)
            "
/>

<defs>
    <!-- Small box indicating a port -->
    <rect id="port" x="0" y="0" width="16" height="16"
          style="fill:white;stroke:rgb(0,0,0);stroke-width:1;fill-opacity:1.0;stroke-opacity:1.0"/>
</defs><use x="784" y="119" xlink:href="#port" />
<text text-anchor="end" alignment-baseline="middle" x="781" y="129" transform="rotate(0,781,129)" style="font-weight: regular" font-family="Verdana" font-size="9" fill="black">
desiredD
</text>

<text text-anchor="end" alignment-baseline="middle" x="781" y="139" transform="rotate(0,781,139)" style="font-weight: regular" font-family="Verdana" font-size="9" fill="black">
irectionX
</text>

<use x="834" y="119" xlink:href="#port" />
<text text-anchor="start" alignment-baseline="middle" x="854" y="129" transform="rotate(0,854,129)" style="font-weight: regular" font-family="Verdana" font-size="9" fill="black">
desiredD
</text>

<text text-anchor="start" alignment-baseline="middle" x="854" y="139" transform="rotate(0,854,139)" style="font-weight: regular" font-family="Verdana" font-size="9" fill="black">
irectionX
</text>

<use x="784" y="79" xlink:href="#port" />
<text text-anchor="end" alignment-baseline="middle" x="781" y="89" transform="rotate(0,781,89)" style="font-weight: regular" font-family="Verdana" font-size="9" fill="black">
desiredD
</text>

<text text-anchor="end" alignment-baseline="middle" x="781" y="99" transform="rotate(0,781,99)" style="font-weight: regular" font-family="Verdana" font-size="9" fill="black">
irectionY
</text>

<use x="834" y="79" xlink:href="#port" />
<text text-anchor="start" alignment-baseline="middle" x="854" y="89" transform="rotate(0,854,89)" style="font-weight: regular" font-family="Verdana" font-size="9" fill="black">
desiredD
</text>

<text text-anchor="start" alignment-baseline="middle" x="854" y="99" transform="rotate(0,854,99)" style="font-weight: regular" font-family="Verdana" font-size="9" fill="black">
irectionY
</text>

<use x="784" y="174" xlink:href="#port" />
<text text-anchor="end" alignment-baseline="middle" x="781" y="184" transform="rotate(0,781,184)" style="font-weight: regular" font-family="Verdana" font-size="9" fill="black">
signedDistanc
</text>

<text text-anchor="end" alignment-baseline="middle" x="781" y="194" transform="rotate(0,781,194)" style="font-weight: regular" font-family="Verdana" font-size="9" fill="black">
eToTrajectory
</text>

<use x="834" y="174" xlink:href="#port" />
<text text-anchor="start" alignment-baseline="middle" x="854" y="184" transform="rotate(0,854,184)" style="font-weight: regular" font-family="Verdana" font-size="9" fill="black">
signedDistanc
</text>

<text text-anchor="start" alignment-baseline="middle" x="854" y="194" transform="rotate(0,854,194)" style="font-weight: regular" font-family="Verdana" font-size="9" fill="black">
eToTrajectory
</text>

<use x="784" y="214" xlink:href="#port" />
<text text-anchor="end" alignment-baseline="middle" x="781" y="224" transform="rotate(0,781,224)" style="font-weight: regular" font-family="Verdana" font-size="9" fill="black">
desired
</text>

<text text-anchor="end" alignment-baseline="middle" x="781" y="234" transform="rotate(0,781,234)" style="font-weight: regular" font-family="Verdana" font-size="9" fill="black">
Velocity
</text>

<use x="834" y="214" xlink:href="#port" />
<text text-anchor="start" alignment-baseline="middle" x="854" y="224" transform="rotate(0,854,224)" style="font-weight: regular" font-family="Verdana" font-size="9" fill="black">
desired
</text>

<text text-anchor="start" alignment-baseline="middle" x="854" y="234" transform="rotate(0,854,234)" style="font-weight: regular" font-family="Verdana" font-size="9" fill="black">
Velocity
</text>

<use x="268" y="79" xlink:href="#port" />
<text text-anchor="end" alignment-baseline="middle" x="264" y="89" transform="rotate(0,264,89)" style="font-weight: regular" font-family="Verdana" font-size="9" fill="black">
currentP
</text>

<text text-anchor="end" alignment-baseline="middle" x="264" y="99" transform="rotate(0,264,99)" style="font-weight: regular" font-family="Verdana" font-size="9" fill="black">
ositionX
</text>

<use x="418" y="174" xlink:href="#port" />
<text text-anchor="start" alignment-baseline="middle" x="437" y="184" transform="rotate(0,437,184)" style="font-weight: regular" font-family="Verdana" font-size="9" fill="black">
currentP
</text>

<text text-anchor="start" alignment-baseline="middle" x="437" y="194" transform="rotate(0,437,194)" style="font-weight: regular" font-family="Verdana" font-size="9" fill="black">
ositionX
</text>

<use x="268" y="119" xlink:href="#port" />
<text text-anchor="end" alignment-baseline="middle" x="264" y="129" transform="rotate(0,264,129)" style="font-weight: regular" font-family="Verdana" font-size="9" fill="black">
currentP
</text>

<text text-anchor="end" alignment-baseline="middle" x="264" y="139" transform="rotate(0,264,139)" style="font-weight: regular" font-family="Verdana" font-size="9" fill="black">
ositionY
</text>

<use x="418" y="214" xlink:href="#port" />
<text text-anchor="start" alignment-baseline="middle" x="437" y="224" transform="rotate(0,437,224)" style="font-weight: regular" font-family="Verdana" font-size="9" fill="black">
currentP
</text>

<text text-anchor="start" alignment-baseline="middle" x="437" y="234" transform="rotate(0,437,234)" style="font-weight: regular" font-family="Verdana" font-size="9" fill="black">
ositionY
</text>

<use x="268" y="254" xlink:href="#port" />
<text text-anchor="end" alignment-baseline="middle" x="264" y="264" transform="rotate(0,264,264)" style="font-weight: regular" font-family="Verdana" font-size="9" fill="black">
plannedTraj
</text>

<text text-anchor="end" alignment-baseline="middle" x="264" y="274" transform="rotate(0,264,274)" style="font-weight: regular" font-family="Verdana" font-size="9" fill="black">
ectoryLength
</text>

<use x="418" y="254" xlink:href="#port" />
<text text-anchor="start" alignment-baseline="middle" x="437" y="264" transform="rotate(0,437,264)" style="font-weight: regular" font-family="Verdana" font-size="9" fill="black">
plannedTraj
</text>

<text text-anchor="start" alignment-baseline="middle" x="437" y="274" transform="rotate(0,437,274)" style="font-weight: regular" font-family="Verdana" font-size="9" fill="black">
ectoryLength
</text>

<use x="268" y="294" xlink:href="#port" />
<text text-anchor="end" alignment-baseline="middle" x="264" y="304" transform="rotate(0,264,304)" style="font-weight: regular" font-family="Verdana" font-size="9" fill="black">
plannedTr
</text>

<text text-anchor="end" alignment-baseline="middle" x="264" y="314" transform="rotate(0,264,314)" style="font-weight: regular" font-family="Verdana" font-size="9" fill="black">
ajectoryX
</text>

<use x="418" y="294" xlink:href="#port" />
<text text-anchor="start" alignment-baseline="middle" x="437" y="304" transform="rotate(0,437,304)" style="font-weight: regular" font-family="Verdana" font-size="9" fill="black">
plannedTr
</text>

<text text-anchor="start" alignment-baseline="middle" x="437" y="314" transform="rotate(0,437,314)" style="font-weight: regular" font-family="Verdana" font-size="9" fill="black">
ajectoryX
</text>

<use x="268" y="374" xlink:href="#port" />
<text text-anchor="end" alignment-baseline="middle" x="264" y="384" transform="rotate(0,264,384)" style="font-weight: regular" font-family="Verdana" font-size="9" fill="black">
plannedTr
</text>

<text text-anchor="end" alignment-baseline="middle" x="264" y="394" transform="rotate(0,264,394)" style="font-weight: regular" font-family="Verdana" font-size="9" fill="black">
ajectoryY
</text>

<use x="418" y="374" xlink:href="#port" />
<text text-anchor="start" alignment-baseline="middle" x="437" y="384" transform="rotate(0,437,384)" style="font-weight: regular" font-family="Verdana" font-size="9" fill="black">
plannedTr
</text>

<text text-anchor="start" alignment-baseline="middle" x="437" y="394" transform="rotate(0,437,394)" style="font-weight: regular" font-family="Verdana" font-size="9" fill="black">
ajectoryY
</text>

<use x="268" y="79" xlink:href="#port" />
<text text-anchor="end" alignment-baseline="middle" x="264" y="89" transform="rotate(0,264,89)" style="font-weight: regular" font-family="Verdana" font-size="9" fill="black">
currentP
</text>

<text text-anchor="end" alignment-baseline="middle" x="264" y="99" transform="rotate(0,264,99)" style="font-weight: regular" font-family="Verdana" font-size="9" fill="black">
ositionX
</text>

<use x="646" y="119" xlink:href="#port" />
<text text-anchor="start" alignment-baseline="middle" x="665" y="129" transform="rotate(0,665,129)" style="font-weight: regular" font-family="Verdana" font-size="9" fill="black">
currentP
</text>

<text text-anchor="start" alignment-baseline="middle" x="665" y="139" transform="rotate(0,665,139)" style="font-weight: regular" font-family="Verdana" font-size="9" fill="black">
ositionX
</text>

<use x="268" y="119" xlink:href="#port" />
<text text-anchor="end" alignment-baseline="middle" x="264" y="129" transform="rotate(0,264,129)" style="font-weight: regular" font-family="Verdana" font-size="9" fill="black">
currentP
</text>

<text text-anchor="end" alignment-baseline="middle" x="264" y="139" transform="rotate(0,264,139)" style="font-weight: regular" font-family="Verdana" font-size="9" fill="black">
ositionY
</text>

<use x="646" y="174" xlink:href="#port" />
<text text-anchor="start" alignment-baseline="middle" x="665" y="184" transform="rotate(0,665,184)" style="font-weight: regular" font-family="Verdana" font-size="9" fill="black">
currentP
</text>

<text text-anchor="start" alignment-baseline="middle" x="665" y="194" transform="rotate(0,665,194)" style="font-weight: regular" font-family="Verdana" font-size="9" fill="black">
ositionY
</text>

<use x="268" y="174" xlink:href="#port" />
<text text-anchor="end" alignment-baseline="middle" x="264" y="184" transform="rotate(0,264,184)" style="font-weight: regular" font-family="Verdana" font-size="9" fill="black">
currentD
</text>

<text text-anchor="end" alignment-baseline="middle" x="264" y="194" transform="rotate(0,264,194)" style="font-weight: regular" font-family="Verdana" font-size="9" fill="black">
irectionX
</text>

<use x="646" y="214" xlink:href="#port" />
<text text-anchor="start" alignment-baseline="middle" x="665" y="224" transform="rotate(0,665,224)" style="font-weight: regular" font-family="Verdana" font-size="9" fill="black">
currentD
</text>

<text text-anchor="start" alignment-baseline="middle" x="665" y="234" transform="rotate(0,665,234)" style="font-weight: regular" font-family="Verdana" font-size="9" fill="black">
irectionX
</text>

<use x="268" y="214" xlink:href="#port" />
<text text-anchor="end" alignment-baseline="middle" x="264" y="224" transform="rotate(0,264,224)" style="font-weight: regular" font-family="Verdana" font-size="9" fill="black">
currentD
</text>

<text text-anchor="end" alignment-baseline="middle" x="264" y="234" transform="rotate(0,264,234)" style="font-weight: regular" font-family="Verdana" font-size="9" fill="black">
irectionY
</text>

<use x="646" y="254" xlink:href="#port" />
<text text-anchor="start" alignment-baseline="middle" x="665" y="264" transform="rotate(0,665,264)" style="font-weight: regular" font-family="Verdana" font-size="9" fill="black">
currentD
</text>

<text text-anchor="start" alignment-baseline="middle" x="665" y="274" transform="rotate(0,665,274)" style="font-weight: regular" font-family="Verdana" font-size="9" fill="black">
irectionY
</text>

<use x="556" y="374" xlink:href="#port" />
<text text-anchor="end" alignment-baseline="middle" x="553" y="384" transform="rotate(0,553,384)" style="font-weight: regular" font-family="Verdana" font-size="9" fill="black">
trimmedTraj
</text>

<text text-anchor="end" alignment-baseline="middle" x="553" y="394" transform="rotate(0,553,394)" style="font-weight: regular" font-family="Verdana" font-size="9" fill="black">
ectoryLength
</text>

<use x="646" y="374" xlink:href="#port" />
<text text-anchor="start" alignment-baseline="middle" x="665" y="384" transform="rotate(0,665,384)" style="font-weight: regular" font-family="Verdana" font-size="9" fill="black">
trimmedTraj
</text>

<text text-anchor="start" alignment-baseline="middle" x="665" y="394" transform="rotate(0,665,394)" style="font-weight: regular" font-family="Verdana" font-size="9" fill="black">
ectoryLength
</text>

<use x="556" y="294" xlink:href="#port" />
<text text-anchor="end" alignment-baseline="middle" x="553" y="304" transform="rotate(0,553,304)" style="font-weight: regular" font-family="Verdana" font-size="9" fill="black">
trimmedTr
</text>

<text text-anchor="end" alignment-baseline="middle" x="553" y="314" transform="rotate(0,553,314)" style="font-weight: regular" font-family="Verdana" font-size="9" fill="black">
ajectoryX
</text>

<use x="646" y="294" xlink:href="#port" />
<text text-anchor="start" alignment-baseline="middle" x="665" y="304" transform="rotate(0,665,304)" style="font-weight: regular" font-family="Verdana" font-size="9" fill="black">
trimmedTr
</text>

<text text-anchor="start" alignment-baseline="middle" x="665" y="314" transform="rotate(0,665,314)" style="font-weight: regular" font-family="Verdana" font-size="9" fill="black">
ajectoryX
</text>

<use x="556" y="334" xlink:href="#port" />
<text text-anchor="end" alignment-baseline="middle" x="553" y="344" transform="rotate(0,553,344)" style="font-weight: regular" font-family="Verdana" font-size="9" fill="black">
trimmedTr
</text>

<text text-anchor="end" alignment-baseline="middle" x="553" y="354" transform="rotate(0,553,354)" style="font-weight: regular" font-family="Verdana" font-size="9" fill="black">
ajectoryY
</text>

<use x="646" y="334" xlink:href="#port" />
<text text-anchor="start" alignment-baseline="middle" x="665" y="344" transform="rotate(0,665,344)" style="font-weight: regular" font-family="Verdana" font-size="9" fill="black">
trimmedTr
</text>

<text text-anchor="start" alignment-baseline="middle" x="665" y="354" transform="rotate(0,665,354)" style="font-weight: regular" font-family="Verdana" font-size="9" fill="black">
ajectoryY
</text>


</svg>