<svg width="100%" height="100%" xmlns="http://www.w3.org/2000/svg" version="1.1" xmlns:xlink="http://www.w3.org/1999/xlink">
    <svg xmlns="http://www.w3.org/2000/svg" version="1.1">

<!-- Canvas: behaviorGeneration -->
<g transform="translate(16 20)">

    <rect
        id="15165"
        width="360"
        height="402"
        style="fill:white;stroke:black;stroke-width:2;fill-opacity:1.0;stroke-opacity:1.0"/>

    <text
        x="8"
        y="20"
        font-family="Verdana"
        fill="black">
            <tspan style="font-weight: bold" font-size="13">behaviorGeneration</tspan>
    </text>

</g>

</svg><!-- Component: trimPath -->
<g transform="translate(166 147)">
    <rect
        data-name="testManuelSchrick.autopilot.autopilot.behaviorGeneration.trimPath"
        id="15167"
        width="25"
        height="255"
        style="
                fill:white;
            stroke:black;
            stroke-width:2;
            fill-opacity:1.0;
            stroke-opacity:1.0"
        onmouseout="this.style.stroke = '#000000'; this.style['stroke-width'] = 2; this.style.cursor='default';"
    />

    <text
        x="10"
        y="15"
        alignment-baseline="middle"
        font-family="Verdana"
        fill="black">
            <tspan style="font-weight: bold" font-size="11">trimPath</tspan>
    </text>

</g><!-- Component: calcMotionCmds -->
<g transform="translate(281 52)">
    <rect
        data-name="testManuelSchrick.autopilot.autopilot.behaviorGeneration.calcMotionCmds"
        id="15168"
        width="45"
        height="350"
        style="
                fill:rgb(242,242,242);
            stroke:black;
            stroke-width:2;
            fill-opacity:1.0;
            stroke-opacity:1.0"
        onmouseout="this.style.stroke = '#000000'; this.style['stroke-width'] = 2; this.style.cursor='default';"
            onmouseover="this.style.stroke = '#316FC0'; this.style['stroke-width'] = 5; this.style.cursor='pointer';"
            onclick="window.open('testManuelSchrick.autopilot.autopilot.behaviorGeneration.calcMotionCmds_no_port_names.html','_parent',false);parent.openFileInEditor('/autopilot/autopilot/behaviorGeneration/calcMotionCmds.ema');"
    />

    <text
        x="10"
        y="15"
        alignment-baseline="middle"
        font-family="Verdana"
        fill="black">
            <tspan style="font-weight: bold" font-size="11">calcMotionCmds</tspan>
    </text>

</g><defs>
    <marker id="0,0,0" markerWidth="13" markerHeight="13" refX="5" refY="5" orient="auto">
            <polyline points="0,2 5,5 0,8" style="fill:none; stroke:rgb(0,0,0);
                    stroke-width:1" />
    </marker>
</defs><line
    stroke-linecap="square"
    x1="334"
    y1="127"
    x2="368"
    y2="127"
    style="stroke:rgb(0, 0,0);
            stroke-width:2;
                marker-end: url(#0,0,0)
            "
/>

<line
    stroke-linecap="square"
    x1="334"
    y1="87"
    x2="368"
    y2="87"
    style="stroke:rgb(0, 0,0);
            stroke-width:2;
                marker-end: url(#0,0,0)
            "
/>

<line
    stroke-linecap="square"
    x1="334"
    y1="182"
    x2="368"
    y2="182"
    style="stroke:rgb(0, 0,0);
            stroke-width:2;
                marker-end: url(#0,0,0)
            "
/>

<line
    stroke-linecap="square"
    x1="334"
    y1="222"
    x2="368"
    y2="222"
    style="stroke:rgb(0, 0,0);
            stroke-width:2;
                marker-end: url(#0,0,0)
            "
/>

<line
    stroke-linecap="square"
    x1="24"
    y1="87"
    x2="46"
    y2="87"
    style="stroke:rgb(0, 0,0);
            stroke-width:2;
"
/>
    <text
        x="27"
        y="80"
        alignment-baseline="middle"
        font-family="Verdana"
        font-size="11"
        fill="black">
    0
    </text>

<line
    stroke-linecap="square"
    x1="46"
    y1="87"
    x2="46"
    y2="227"
    style="stroke:rgb(0, 0,0);
            stroke-width:4;
"
/>

    <circle cx="46" cy="87" r="4" fill="black" />
<line
    stroke-linecap="square"
    x1="46"
    y1="227"
    x2="76"
    y2="227"
    style="stroke:rgb(0, 0,0);
            stroke-width:4;
"
/>

<line
    stroke-linecap="square"
    x1="76"
    y1="227"
    x2="76"
    y2="282"
    style="stroke:rgb(0, 0,0);
            stroke-width:4;
"
/>

    <circle cx="76" cy="227" r="4" fill="black" />
<line
    stroke-linecap="square"
    x1="76"
    y1="282"
    x2="136"
    y2="282"
    style="stroke:rgb(0, 0,0);
            stroke-width:4;
"
/>

    <circle cx="76" cy="282" r="4" fill="black" />
<line
    stroke-linecap="square"
    x1="136"
    y1="282"
    x2="136"
    y2="182"
    style="stroke:rgb(0, 0,0);
            stroke-width:4;
"
/>

<line
    stroke-linecap="square"
    x1="136"
    y1="182"
    x2="158"
    y2="182"
    style="stroke:rgb(0, 0,0);
            stroke-width:2;
                marker-end: url(#0,0,0)
            "
/>
    <text
        x="147"
        y="171"
        alignment-baseline="middle"
        font-family="Verdana"
        font-size="11"
        fill="black">
    0
    </text>

    <circle cx="136" cy="182" r="4" fill="black" />
<line
    stroke-linecap="square"
    x1="24"
    y1="127"
    x2="46"
    y2="127"
    style="stroke:rgb(0, 0,0);
            stroke-width:2;
"
/>
    <text
        x="27"
        y="120"
        alignment-baseline="middle"
        font-family="Verdana"
        font-size="11"
        fill="black">
    1
    </text>

<line
    stroke-linecap="square"
    x1="46"
    y1="127"
    x2="46"
    y2="227"
    style="stroke:rgb(0, 0,0);
            stroke-width:4;
"
/>

    <circle cx="46" cy="127" r="4" fill="black" />
<line
    stroke-linecap="square"
    x1="46"
    y1="227"
    x2="76"
    y2="227"
    style="stroke:rgb(0, 0,0);
            stroke-width:4;
"
/>

<line
    stroke-linecap="square"
    x1="76"
    y1="227"
    x2="76"
    y2="282"
    style="stroke:rgb(0, 0,0);
            stroke-width:4;
"
/>

    <circle cx="76" cy="227" r="4" fill="black" />
<line
    stroke-linecap="square"
    x1="76"
    y1="282"
    x2="136"
    y2="282"
    style="stroke:rgb(0, 0,0);
            stroke-width:4;
"
/>

    <circle cx="76" cy="282" r="4" fill="black" />
<line
    stroke-linecap="square"
    x1="136"
    y1="282"
    x2="136"
    y2="222"
    style="stroke:rgb(0, 0,0);
            stroke-width:4;
"
/>

<line
    stroke-linecap="square"
    x1="136"
    y1="222"
    x2="158"
    y2="222"
    style="stroke:rgb(0, 0,0);
            stroke-width:2;
                marker-end: url(#0,0,0)
            "
/>
    <text
        x="147"
        y="211"
        alignment-baseline="middle"
        font-family="Verdana"
        font-size="11"
        fill="black">
    1
    </text>

    <circle cx="136" cy="222" r="4" fill="black" />
<line
    stroke-linecap="square"
    x1="24"
    y1="262"
    x2="46"
    y2="262"
    style="stroke:rgb(0, 0,0);
            stroke-width:2;
"
/>
    <text
        x="27"
        y="255"
        alignment-baseline="middle"
        font-family="Verdana"
        font-size="11"
        fill="black">
    4
    </text>

<line
    stroke-linecap="square"
    x1="46"
    y1="262"
    x2="46"
    y2="227"
    style="stroke:rgb(0, 0,0);
            stroke-width:4;
"
/>

    <circle cx="46" cy="262" r="4" fill="black" />
<line
    stroke-linecap="square"
    x1="46"
    y1="227"
    x2="76"
    y2="227"
    style="stroke:rgb(0, 0,0);
            stroke-width:4;
"
/>

<line
    stroke-linecap="square"
    x1="76"
    y1="227"
    x2="76"
    y2="282"
    style="stroke:rgb(0, 0,0);
            stroke-width:4;
"
/>

    <circle cx="76" cy="227" r="4" fill="black" />
<line
    stroke-linecap="square"
    x1="76"
    y1="282"
    x2="136"
    y2="282"
    style="stroke:rgb(0, 0,0);
            stroke-width:4;
"
/>

    <circle cx="76" cy="282" r="4" fill="black" />
<line
    stroke-linecap="square"
    x1="136"
    y1="282"
    x2="136"
    y2="262"
    style="stroke:rgb(0, 0,0);
            stroke-width:4;
"
/>

<line
    stroke-linecap="square"
    x1="136"
    y1="262"
    x2="158"
    y2="262"
    style="stroke:rgb(0, 0,0);
            stroke-width:2;
                marker-end: url(#0,0,0)
            "
/>
    <text
        x="147"
        y="251"
        alignment-baseline="middle"
        font-family="Verdana"
        font-size="11"
        fill="black">
    4
    </text>

    <circle cx="136" cy="262" r="4" fill="black" />
<line
    stroke-linecap="square"
    x1="24"
    y1="302"
    x2="46"
    y2="302"
    style="stroke:rgb(0, 0,0);
            stroke-width:2;
"
/>
    <text
        x="27"
        y="295"
        alignment-baseline="middle"
        font-family="Verdana"
        font-size="11"
        fill="black">
    5
    </text>

<line
    stroke-linecap="square"
    x1="46"
    y1="302"
    x2="46"
    y2="227"
    style="stroke:rgb(0, 0,0);
            stroke-width:4;
"
/>

    <circle cx="46" cy="302" r="4" fill="black" />
<line
    stroke-linecap="square"
    x1="46"
    y1="227"
    x2="76"
    y2="227"
    style="stroke:rgb(0, 0,0);
            stroke-width:4;
"
/>

<line
    stroke-linecap="square"
    x1="76"
    y1="227"
    x2="76"
    y2="282"
    style="stroke:rgb(0, 0,0);
            stroke-width:4;
"
/>

    <circle cx="76" cy="227" r="4" fill="black" />
<line
    stroke-linecap="square"
    x1="76"
    y1="282"
    x2="136"
    y2="282"
    style="stroke:rgb(0, 0,0);
            stroke-width:4;
"
/>

    <circle cx="76" cy="282" r="4" fill="black" />
<line
    stroke-linecap="square"
    x1="136"
    y1="282"
    x2="136"
    y2="302"
    style="stroke:rgb(0, 0,0);
            stroke-width:4;
"
/>

<line
    stroke-linecap="square"
    x1="136"
    y1="302"
    x2="158"
    y2="302"
    style="stroke:rgb(0, 0,0);
            stroke-width:2;
                marker-end: url(#0,0,0)
            "
/>
    <text
        x="147"
        y="291"
        alignment-baseline="middle"
        font-family="Verdana"
        font-size="11"
        fill="black">
    5
    </text>

    <circle cx="136" cy="302" r="4" fill="black" />
<line
    stroke-linecap="square"
    x1="24"
    y1="382"
    x2="46"
    y2="382"
    style="stroke:rgb(0, 0,0);
            stroke-width:2;
"
/>
    <text
        x="27"
        y="375"
        alignment-baseline="middle"
        font-family="Verdana"
        font-size="11"
        fill="black">
    6
    </text>

<line
    stroke-linecap="square"
    x1="46"
    y1="382"
    x2="46"
    y2="227"
    style="stroke:rgb(0, 0,0);
            stroke-width:4;
"
/>

    <circle cx="46" cy="382" r="4" fill="black" />
<line
    stroke-linecap="square"
    x1="46"
    y1="227"
    x2="76"
    y2="227"
    style="stroke:rgb(0, 0,0);
            stroke-width:4;
"
/>

<line
    stroke-linecap="square"
    x1="76"
    y1="227"
    x2="76"
    y2="282"
    style="stroke:rgb(0, 0,0);
            stroke-width:4;
"
/>

    <circle cx="76" cy="227" r="4" fill="black" />
<line
    stroke-linecap="square"
    x1="76"
    y1="282"
    x2="136"
    y2="282"
    style="stroke:rgb(0, 0,0);
            stroke-width:4;
"
/>

    <circle cx="76" cy="282" r="4" fill="black" />
<line
    stroke-linecap="square"
    x1="136"
    y1="282"
    x2="136"
    y2="382"
    style="stroke:rgb(0, 0,0);
            stroke-width:4;
"
/>

<line
    stroke-linecap="square"
    x1="136"
    y1="382"
    x2="158"
    y2="382"
    style="stroke:rgb(0, 0,0);
            stroke-width:2;
                marker-end: url(#0,0,0)
            "
/>
    <text
        x="147"
        y="371"
        alignment-baseline="middle"
        font-family="Verdana"
        font-size="11"
        fill="black">
    6
    </text>

    <circle cx="136" cy="382" r="4" fill="black" />
<line
    stroke-linecap="square"
    x1="24"
    y1="87"
    x2="46"
    y2="87"
    style="stroke:rgb(0, 0,0);
            stroke-width:2;
"
/>
    <text
        x="27"
        y="80"
        alignment-baseline="middle"
        font-family="Verdana"
        font-size="11"
        fill="black">
    0
    </text>

<line
    stroke-linecap="square"
    x1="46"
    y1="87"
    x2="46"
    y2="227"
    style="stroke:rgb(0, 0,0);
            stroke-width:4;
"
/>

    <circle cx="46" cy="87" r="4" fill="black" />
<line
    stroke-linecap="square"
    x1="46"
    y1="227"
    x2="76"
    y2="227"
    style="stroke:rgb(0, 0,0);
            stroke-width:4;
"
/>

<line
    stroke-linecap="square"
    x1="76"
    y1="227"
    x2="76"
    y2="127"
    style="stroke:rgb(0, 0,0);
            stroke-width:4;
"
/>

    <circle cx="76" cy="227" r="4" fill="black" />
<line
    stroke-linecap="square"
    x1="76"
    y1="127"
    x2="251"
    y2="127"
    style="stroke:rgb(0, 0,0);
            stroke-width:4;
"
/>

    <circle cx="76" cy="127" r="4" fill="black" />
<line
    stroke-linecap="square"
    x1="251"
    y1="127"
    x2="251"
    y2="127"
    style="stroke:rgb(0, 0,0);
            stroke-width:4;
"
/>

<line
    stroke-linecap="square"
    x1="251"
    y1="127"
    x2="273"
    y2="127"
    style="stroke:rgb(0, 0,0);
            stroke-width:2;
                marker-end: url(#0,0,0)
            "
/>
    <text
        x="262"
        y="116"
        alignment-baseline="middle"
        font-family="Verdana"
        font-size="11"
        fill="black">
    0
    </text>

    <circle cx="251" cy="127" r="4" fill="black" />
<line
    stroke-linecap="square"
    x1="24"
    y1="127"
    x2="46"
    y2="127"
    style="stroke:rgb(0, 0,0);
            stroke-width:2;
"
/>
    <text
        x="27"
        y="120"
        alignment-baseline="middle"
        font-family="Verdana"
        font-size="11"
        fill="black">
    1
    </text>

<line
    stroke-linecap="square"
    x1="46"
    y1="127"
    x2="46"
    y2="227"
    style="stroke:rgb(0, 0,0);
            stroke-width:4;
"
/>

    <circle cx="46" cy="127" r="4" fill="black" />
<line
    stroke-linecap="square"
    x1="46"
    y1="227"
    x2="76"
    y2="227"
    style="stroke:rgb(0, 0,0);
            stroke-width:4;
"
/>

<line
    stroke-linecap="square"
    x1="76"
    y1="227"
    x2="76"
    y2="127"
    style="stroke:rgb(0, 0,0);
            stroke-width:4;
"
/>

    <circle cx="76" cy="227" r="4" fill="black" />
<line
    stroke-linecap="square"
    x1="76"
    y1="127"
    x2="251"
    y2="127"
    style="stroke:rgb(0, 0,0);
            stroke-width:4;
"
/>

    <circle cx="76" cy="127" r="4" fill="black" />
<line
    stroke-linecap="square"
    x1="251"
    y1="127"
    x2="251"
    y2="182"
    style="stroke:rgb(0, 0,0);
            stroke-width:4;
"
/>

<line
    stroke-linecap="square"
    x1="251"
    y1="182"
    x2="273"
    y2="182"
    style="stroke:rgb(0, 0,0);
            stroke-width:2;
                marker-end: url(#0,0,0)
            "
/>
    <text
        x="262"
        y="171"
        alignment-baseline="middle"
        font-family="Verdana"
        font-size="11"
        fill="black">
    1
    </text>

    <circle cx="251" cy="182" r="4" fill="black" />
<line
    stroke-linecap="square"
    x1="24"
    y1="182"
    x2="46"
    y2="182"
    style="stroke:rgb(0, 0,0);
            stroke-width:2;
"
/>
    <text
        x="27"
        y="175"
        alignment-baseline="middle"
        font-family="Verdana"
        font-size="11"
        fill="black">
    2
    </text>

<line
    stroke-linecap="square"
    x1="46"
    y1="182"
    x2="46"
    y2="227"
    style="stroke:rgb(0, 0,0);
            stroke-width:4;
"
/>

    <circle cx="46" cy="182" r="4" fill="black" />
<line
    stroke-linecap="square"
    x1="46"
    y1="227"
    x2="76"
    y2="227"
    style="stroke:rgb(0, 0,0);
            stroke-width:4;
"
/>

<line
    stroke-linecap="square"
    x1="76"
    y1="227"
    x2="76"
    y2="127"
    style="stroke:rgb(0, 0,0);
            stroke-width:4;
"
/>

    <circle cx="76" cy="227" r="4" fill="black" />
<line
    stroke-linecap="square"
    x1="76"
    y1="127"
    x2="251"
    y2="127"
    style="stroke:rgb(0, 0,0);
            stroke-width:4;
"
/>

    <circle cx="76" cy="127" r="4" fill="black" />
<line
    stroke-linecap="square"
    x1="251"
    y1="127"
    x2="251"
    y2="222"
    style="stroke:rgb(0, 0,0);
            stroke-width:4;
"
/>

<line
    stroke-linecap="square"
    x1="251"
    y1="222"
    x2="273"
    y2="222"
    style="stroke:rgb(0, 0,0);
            stroke-width:2;
                marker-end: url(#0,0,0)
            "
/>
    <text
        x="262"
        y="211"
        alignment-baseline="middle"
        font-family="Verdana"
        font-size="11"
        fill="black">
    2
    </text>

    <circle cx="251" cy="222" r="4" fill="black" />
<line
    stroke-linecap="square"
    x1="24"
    y1="222"
    x2="46"
    y2="222"
    style="stroke:rgb(0, 0,0);
            stroke-width:2;
"
/>
    <text
        x="27"
        y="215"
        alignment-baseline="middle"
        font-family="Verdana"
        font-size="11"
        fill="black">
    3
    </text>

<line
    stroke-linecap="square"
    x1="46"
    y1="222"
    x2="46"
    y2="227"
    style="stroke:rgb(0, 0,0);
            stroke-width:4;
"
/>

    <circle cx="46" cy="222" r="4" fill="black" />
<line
    stroke-linecap="square"
    x1="46"
    y1="227"
    x2="76"
    y2="227"
    style="stroke:rgb(0, 0,0);
            stroke-width:4;
"
/>

<line
    stroke-linecap="square"
    x1="76"
    y1="227"
    x2="76"
    y2="127"
    style="stroke:rgb(0, 0,0);
            stroke-width:4;
"
/>

    <circle cx="76" cy="227" r="4" fill="black" />
<line
    stroke-linecap="square"
    x1="76"
    y1="127"
    x2="251"
    y2="127"
    style="stroke:rgb(0, 0,0);
            stroke-width:4;
"
/>

    <circle cx="76" cy="127" r="4" fill="black" />
<line
    stroke-linecap="square"
    x1="251"
    y1="127"
    x2="251"
    y2="262"
    style="stroke:rgb(0, 0,0);
            stroke-width:4;
"
/>

<line
    stroke-linecap="square"
    x1="251"
    y1="262"
    x2="273"
    y2="262"
    style="stroke:rgb(0, 0,0);
            stroke-width:2;
                marker-end: url(#0,0,0)
            "
/>
    <text
        x="262"
        y="251"
        alignment-baseline="middle"
        font-family="Verdana"
        font-size="11"
        fill="black">
    3
    </text>

    <circle cx="251" cy="262" r="4" fill="black" />
<line
    stroke-linecap="square"
    x1="199"
    y1="382"
    x2="273"
    y2="382"
    style="stroke:rgb(0, 0,0);
            stroke-width:2;
                marker-end: url(#0,0,0)
            "
/>

<line
    stroke-linecap="square"
    x1="199"
    y1="302"
    x2="273"
    y2="302"
    style="stroke:rgb(0, 0,0);
            stroke-width:2;
                marker-end: url(#0,0,0)
            "
/>

<line
    stroke-linecap="square"
    x1="199"
    y1="342"
    x2="273"
    y2="342"
    style="stroke:rgb(0, 0,0);
            stroke-width:2;
                marker-end: url(#0,0,0)
            "
/>

<defs>
    <!-- Small box indicating a port -->
    <rect id="port" x="0" y="0" width="16" height="16"
          style="fill:white;stroke:rgb(0,0,0);stroke-width:1;fill-opacity:1.0;stroke-opacity:1.0"/>
</defs><use x="318" y="119" xlink:href="#port" />
<text text-anchor="end" alignment-baseline="middle" x="315" y="129" transform="rotate(0,315,129)" style="font-weight: regular" font-family="Verdana" font-size="9" fill="black">

</text>

<use x="368" y="119" xlink:href="#port" />
<text text-anchor="start" alignment-baseline="middle" x="388" y="129" transform="rotate(0,388,129)" style="font-weight: regular" font-family="Verdana" font-size="9" fill="black">

</text>

<use x="318" y="79" xlink:href="#port" />
<text text-anchor="end" alignment-baseline="middle" x="315" y="89" transform="rotate(0,315,89)" style="font-weight: regular" font-family="Verdana" font-size="9" fill="black">

</text>

<use x="368" y="79" xlink:href="#port" />
<text text-anchor="start" alignment-baseline="middle" x="388" y="89" transform="rotate(0,388,89)" style="font-weight: regular" font-family="Verdana" font-size="9" fill="black">

</text>

<use x="318" y="174" xlink:href="#port" />
<text text-anchor="end" alignment-baseline="middle" x="315" y="184" transform="rotate(0,315,184)" style="font-weight: regular" font-family="Verdana" font-size="9" fill="black">

</text>

<use x="368" y="174" xlink:href="#port" />
<text text-anchor="start" alignment-baseline="middle" x="388" y="184" transform="rotate(0,388,184)" style="font-weight: regular" font-family="Verdana" font-size="9" fill="black">

</text>

<use x="318" y="214" xlink:href="#port" />
<text text-anchor="end" alignment-baseline="middle" x="315" y="224" transform="rotate(0,315,224)" style="font-weight: regular" font-family="Verdana" font-size="9" fill="black">

</text>

<use x="368" y="214" xlink:href="#port" />
<text text-anchor="start" alignment-baseline="middle" x="388" y="224" transform="rotate(0,388,224)" style="font-weight: regular" font-family="Verdana" font-size="9" fill="black">

</text>

<use x="8" y="79" xlink:href="#port" />
<text text-anchor="end" alignment-baseline="middle" x="4" y="89" transform="rotate(0,4,89)" style="font-weight: regular" font-family="Verdana" font-size="9" fill="black">

</text>

<use x="158" y="174" xlink:href="#port" />
<text text-anchor="start" alignment-baseline="middle" x="177" y="184" transform="rotate(0,177,184)" style="font-weight: regular" font-family="Verdana" font-size="9" fill="black">

</text>

<use x="8" y="119" xlink:href="#port" />
<text text-anchor="end" alignment-baseline="middle" x="4" y="129" transform="rotate(0,4,129)" style="font-weight: regular" font-family="Verdana" font-size="9" fill="black">

</text>

<use x="158" y="214" xlink:href="#port" />
<text text-anchor="start" alignment-baseline="middle" x="177" y="224" transform="rotate(0,177,224)" style="font-weight: regular" font-family="Verdana" font-size="9" fill="black">

</text>

<use x="8" y="254" xlink:href="#port" />
<text text-anchor="end" alignment-baseline="middle" x="4" y="264" transform="rotate(0,4,264)" style="font-weight: regular" font-family="Verdana" font-size="9" fill="black">

</text>

<use x="158" y="254" xlink:href="#port" />
<text text-anchor="start" alignment-baseline="middle" x="177" y="264" transform="rotate(0,177,264)" style="font-weight: regular" font-family="Verdana" font-size="9" fill="black">

</text>

<use x="8" y="294" xlink:href="#port" />
<text text-anchor="end" alignment-baseline="middle" x="4" y="304" transform="rotate(0,4,304)" style="font-weight: regular" font-family="Verdana" font-size="9" fill="black">

</text>

<use x="158" y="294" xlink:href="#port" />
<text text-anchor="start" alignment-baseline="middle" x="177" y="304" transform="rotate(0,177,304)" style="font-weight: regular" font-family="Verdana" font-size="9" fill="black">

</text>

<use x="8" y="374" xlink:href="#port" />
<text text-anchor="end" alignment-baseline="middle" x="4" y="384" transform="rotate(0,4,384)" style="font-weight: regular" font-family="Verdana" font-size="9" fill="black">

</text>

<use x="158" y="374" xlink:href="#port" />
<text text-anchor="start" alignment-baseline="middle" x="177" y="384" transform="rotate(0,177,384)" style="font-weight: regular" font-family="Verdana" font-size="9" fill="black">

</text>

<use x="8" y="79" xlink:href="#port" />
<text text-anchor="end" alignment-baseline="middle" x="4" y="89" transform="rotate(0,4,89)" style="font-weight: regular" font-family="Verdana" font-size="9" fill="black">

</text>

<use x="273" y="119" xlink:href="#port" />
<text text-anchor="start" alignment-baseline="middle" x="292" y="129" transform="rotate(0,292,129)" style="font-weight: regular" font-family="Verdana" font-size="9" fill="black">

</text>

<use x="8" y="119" xlink:href="#port" />
<text text-anchor="end" alignment-baseline="middle" x="4" y="129" transform="rotate(0,4,129)" style="font-weight: regular" font-family="Verdana" font-size="9" fill="black">

</text>

<use x="273" y="174" xlink:href="#port" />
<text text-anchor="start" alignment-baseline="middle" x="292" y="184" transform="rotate(0,292,184)" style="font-weight: regular" font-family="Verdana" font-size="9" fill="black">

</text>

<use x="8" y="174" xlink:href="#port" />
<text text-anchor="end" alignment-baseline="middle" x="4" y="184" transform="rotate(0,4,184)" style="font-weight: regular" font-family="Verdana" font-size="9" fill="black">

</text>

<use x="273" y="214" xlink:href="#port" />
<text text-anchor="start" alignment-baseline="middle" x="292" y="224" transform="rotate(0,292,224)" style="font-weight: regular" font-family="Verdana" font-size="9" fill="black">

</text>

<use x="8" y="214" xlink:href="#port" />
<text text-anchor="end" alignment-baseline="middle" x="4" y="224" transform="rotate(0,4,224)" style="font-weight: regular" font-family="Verdana" font-size="9" fill="black">

</text>

<use x="273" y="254" xlink:href="#port" />
<text text-anchor="start" alignment-baseline="middle" x="292" y="264" transform="rotate(0,292,264)" style="font-weight: regular" font-family="Verdana" font-size="9" fill="black">

</text>

<use x="183" y="374" xlink:href="#port" />
<text text-anchor="end" alignment-baseline="middle" x="180" y="384" transform="rotate(0,180,384)" style="font-weight: regular" font-family="Verdana" font-size="9" fill="black">

</text>

<use x="273" y="374" xlink:href="#port" />
<text text-anchor="start" alignment-baseline="middle" x="292" y="384" transform="rotate(0,292,384)" style="font-weight: regular" font-family="Verdana" font-size="9" fill="black">

</text>

<use x="183" y="294" xlink:href="#port" />
<text text-anchor="end" alignment-baseline="middle" x="180" y="304" transform="rotate(0,180,304)" style="font-weight: regular" font-family="Verdana" font-size="9" fill="black">

</text>

<use x="273" y="294" xlink:href="#port" />
<text text-anchor="start" alignment-baseline="middle" x="292" y="304" transform="rotate(0,292,304)" style="font-weight: regular" font-family="Verdana" font-size="9" fill="black">

</text>

<use x="183" y="334" xlink:href="#port" />
<text text-anchor="end" alignment-baseline="middle" x="180" y="344" transform="rotate(0,180,344)" style="font-weight: regular" font-family="Verdana" font-size="9" fill="black">

</text>

<use x="273" y="334" xlink:href="#port" />
<text text-anchor="start" alignment-baseline="middle" x="292" y="344" transform="rotate(0,292,344)" style="font-weight: regular" font-family="Verdana" font-size="9" fill="black">

</text>


</svg>