<svg width="100%" height="100%" xmlns="http://www.w3.org/2000/svg" version="1.1" xmlns:xlink="http://www.w3.org/1999/xlink">
    <svg xmlns="http://www.w3.org/2000/svg" version="1.1">

<!-- Canvas: behaviorGeneration -->
<g transform="translate(142 20)">

    <rect
        id="109"
        width="769"
        height="562"
        style="fill:white;stroke:black;stroke-width:2;fill-opacity:1.0;stroke-opacity:1.0"/>

    <text
        x="8"
        y="20"
        style="font-weight: bold"
        font-family="Verdana"
        font-size="13"
        fill="black">
            behaviorGeneration
    </text>

</g>

</svg><!-- Component: trimPath -->
<g transform="translate(232 347)">
    <rect
        data-name="testManuelSchrick.autopilot.autopilot.behaviorGeneration.trimPath"
        id="110"
        width="282"
        height="215"
        style="fill:white;stroke:black;stroke-width:2;fill-opacity:1.0;stroke-opacity:1.0"
        onmouseout="this.style.stroke = '#000000'; this.style['stroke-width'] = 2; this.style.cursor='default';"
    />

    <text
        x="10"
        y="15"
        alignment-baseline="middle"
        style="font-weight: bold"
        font-family="Verdana"
        font-size="11"
        fill="black">
    trimPath
    </text>
</g><!-- Component: calcMotionCmds -->
<g transform="translate(564 52)">
    <rect
        data-name="testManuelSchrick.autopilot.autopilot.behaviorGeneration.calcMotionCmds"
        id="111"
        width="297"
        height="430"
        style="fill:white;stroke:black;stroke-width:2;fill-opacity:1.0;stroke-opacity:1.0"
        onmouseout="this.style.stroke = '#000000'; this.style['stroke-width'] = 2; this.style.cursor='default';"
            onmouseover="this.style.stroke = '#316FC0'; this.style['stroke-width'] = 5; this.style.cursor='pointer';"
            onclick="window.open('testManuelSchrick.autopilot.autopilot.behaviorGeneration.calcMotionCmds.html','_parent',false);parent.openFileInEditor('/autopilot/autopilot/behaviorGeneration/calcMotionCmds.ema');"
    />

    <text
        x="10"
        y="15"
        alignment-baseline="middle"
        style="font-weight: bold"
        font-family="Verdana"
        font-size="11"
        fill="black">
    calcMotionCmds
    </text>
</g><defs>
    <marker id="0,0,0" markerWidth="13" markerHeight="13" refX="5" refY="5" orient="auto">
            <polyline points="0,2 5,5 0,8" style="fill:none; stroke:rgb(0,0,0);
                    stroke-width:1" />
    </marker>
</defs><line
    stroke-linecap="square"
    x1="869"
    y1="127"
    x2="903"
    y2="127"
    style="stroke:rgb(0, 0,0);
            stroke-width:2;
                marker-end: url(#0,0,0)
            "
/>

<line
    stroke-linecap="square"
    x1="869"
    y1="87"
    x2="903"
    y2="87"
    style="stroke:rgb(0, 0,0);
            stroke-width:2;
                marker-end: url(#0,0,0)
            "
/>

<line
    stroke-linecap="square"
    x1="869"
    y1="167"
    x2="903"
    y2="167"
    style="stroke:rgb(0, 0,0);
            stroke-width:2;
                marker-end: url(#0,0,0)
            "
/>

<line
    stroke-linecap="square"
    x1="869"
    y1="207"
    x2="903"
    y2="207"
    style="stroke:rgb(0, 0,0);
            stroke-width:2;
                marker-end: url(#0,0,0)
            "
/>

<line
    stroke-linecap="square"
    x1="150"
    y1="87"
    x2="172"
    y2="87"
    style="stroke:rgb(0, 0,0);
            stroke-width:2;
"
/>
    <text
        x="153"
        y="80"
        alignment-baseline="middle"
        font-family="Verdana"
        font-size="11"
        fill="black">
    0
    </text>

<line
    stroke-linecap="square"
    x1="172"
    y1="87"
    x2="172"
    y2="207"
    style="stroke:rgb(0, 0,0);
            stroke-width:4;
"
/>

    <circle cx="172" cy="87" r="4" fill="black" />
<line
    stroke-linecap="square"
    x1="172"
    y1="207"
    x2="187"
    y2="207"
    style="stroke:rgb(0, 0,0);
            stroke-width:4;
"
/>

<line
    stroke-linecap="square"
    x1="187"
    y1="207"
    x2="187"
    y2="462"
    style="stroke:rgb(0, 0,0);
            stroke-width:4;
"
/>

    <circle cx="187" cy="207" r="4" fill="black" />
<line
    stroke-linecap="square"
    x1="187"
    y1="462"
    x2="202"
    y2="462"
    style="stroke:rgb(0, 0,0);
            stroke-width:4;
"
/>

    <circle cx="187" cy="462" r="4" fill="black" />
<line
    stroke-linecap="square"
    x1="202"
    y1="462"
    x2="202"
    y2="382"
    style="stroke:rgb(0, 0,0);
            stroke-width:4;
"
/>

<line
    stroke-linecap="square"
    x1="202"
    y1="382"
    x2="224"
    y2="382"
    style="stroke:rgb(0, 0,0);
            stroke-width:2;
                marker-end: url(#0,0,0)
            "
/>
    <text
        x="213"
        y="371"
        alignment-baseline="middle"
        font-family="Verdana"
        font-size="11"
        fill="black">
    0
    </text>

    <circle cx="202" cy="382" r="4" fill="black" />
<line
    stroke-linecap="square"
    x1="150"
    y1="127"
    x2="172"
    y2="127"
    style="stroke:rgb(0, 0,0);
            stroke-width:2;
"
/>
    <text
        x="153"
        y="120"
        alignment-baseline="middle"
        font-family="Verdana"
        font-size="11"
        fill="black">
    1
    </text>

<line
    stroke-linecap="square"
    x1="172"
    y1="127"
    x2="172"
    y2="207"
    style="stroke:rgb(0, 0,0);
            stroke-width:4;
"
/>

    <circle cx="172" cy="127" r="4" fill="black" />
<line
    stroke-linecap="square"
    x1="172"
    y1="207"
    x2="187"
    y2="207"
    style="stroke:rgb(0, 0,0);
            stroke-width:4;
"
/>

<line
    stroke-linecap="square"
    x1="187"
    y1="207"
    x2="187"
    y2="462"
    style="stroke:rgb(0, 0,0);
            stroke-width:4;
"
/>

    <circle cx="187" cy="207" r="4" fill="black" />
<line
    stroke-linecap="square"
    x1="187"
    y1="462"
    x2="202"
    y2="462"
    style="stroke:rgb(0, 0,0);
            stroke-width:4;
"
/>

    <circle cx="187" cy="462" r="4" fill="black" />
<line
    stroke-linecap="square"
    x1="202"
    y1="462"
    x2="202"
    y2="422"
    style="stroke:rgb(0, 0,0);
            stroke-width:4;
"
/>

<line
    stroke-linecap="square"
    x1="202"
    y1="422"
    x2="224"
    y2="422"
    style="stroke:rgb(0, 0,0);
            stroke-width:2;
                marker-end: url(#0,0,0)
            "
/>
    <text
        x="213"
        y="411"
        alignment-baseline="middle"
        font-family="Verdana"
        font-size="11"
        fill="black">
    1
    </text>

    <circle cx="202" cy="422" r="4" fill="black" />
<line
    stroke-linecap="square"
    x1="150"
    y1="247"
    x2="172"
    y2="247"
    style="stroke:rgb(0, 0,0);
            stroke-width:2;
"
/>
    <text
        x="153"
        y="240"
        alignment-baseline="middle"
        font-family="Verdana"
        font-size="11"
        fill="black">
    4
    </text>

<line
    stroke-linecap="square"
    x1="172"
    y1="247"
    x2="172"
    y2="207"
    style="stroke:rgb(0, 0,0);
            stroke-width:4;
"
/>

    <circle cx="172" cy="247" r="4" fill="black" />
<line
    stroke-linecap="square"
    x1="172"
    y1="207"
    x2="187"
    y2="207"
    style="stroke:rgb(0, 0,0);
            stroke-width:4;
"
/>

<line
    stroke-linecap="square"
    x1="187"
    y1="207"
    x2="187"
    y2="462"
    style="stroke:rgb(0, 0,0);
            stroke-width:4;
"
/>

    <circle cx="187" cy="207" r="4" fill="black" />
<line
    stroke-linecap="square"
    x1="187"
    y1="462"
    x2="202"
    y2="462"
    style="stroke:rgb(0, 0,0);
            stroke-width:4;
"
/>

    <circle cx="187" cy="462" r="4" fill="black" />
<line
    stroke-linecap="square"
    x1="202"
    y1="462"
    x2="202"
    y2="462"
    style="stroke:rgb(0, 0,0);
            stroke-width:4;
"
/>

<line
    stroke-linecap="square"
    x1="202"
    y1="462"
    x2="224"
    y2="462"
    style="stroke:rgb(0, 0,0);
            stroke-width:2;
                marker-end: url(#0,0,0)
            "
/>
    <text
        x="213"
        y="451"
        alignment-baseline="middle"
        font-family="Verdana"
        font-size="11"
        fill="black">
    4
    </text>

    <circle cx="202" cy="462" r="4" fill="black" />
<line
    stroke-linecap="square"
    x1="150"
    y1="287"
    x2="172"
    y2="287"
    style="stroke:rgb(0, 0,0);
            stroke-width:2;
"
/>
    <text
        x="153"
        y="280"
        alignment-baseline="middle"
        font-family="Verdana"
        font-size="11"
        fill="black">
    5
    </text>

<line
    stroke-linecap="square"
    x1="172"
    y1="287"
    x2="172"
    y2="207"
    style="stroke:rgb(0, 0,0);
            stroke-width:4;
"
/>

    <circle cx="172" cy="287" r="4" fill="black" />
<line
    stroke-linecap="square"
    x1="172"
    y1="207"
    x2="187"
    y2="207"
    style="stroke:rgb(0, 0,0);
            stroke-width:4;
"
/>

<line
    stroke-linecap="square"
    x1="187"
    y1="207"
    x2="187"
    y2="462"
    style="stroke:rgb(0, 0,0);
            stroke-width:4;
"
/>

    <circle cx="187" cy="207" r="4" fill="black" />
<line
    stroke-linecap="square"
    x1="187"
    y1="462"
    x2="202"
    y2="462"
    style="stroke:rgb(0, 0,0);
            stroke-width:4;
"
/>

    <circle cx="187" cy="462" r="4" fill="black" />
<line
    stroke-linecap="square"
    x1="202"
    y1="462"
    x2="202"
    y2="502"
    style="stroke:rgb(0, 0,0);
            stroke-width:4;
"
/>

<line
    stroke-linecap="square"
    x1="202"
    y1="502"
    x2="224"
    y2="502"
    style="stroke:rgb(0, 0,0);
            stroke-width:2;
                marker-end: url(#0,0,0)
            "
/>
    <text
        x="213"
        y="491"
        alignment-baseline="middle"
        font-family="Verdana"
        font-size="11"
        fill="black">
    5
    </text>

    <circle cx="202" cy="502" r="4" fill="black" />
<line
    stroke-linecap="square"
    x1="150"
    y1="327"
    x2="172"
    y2="327"
    style="stroke:rgb(0, 0,0);
            stroke-width:2;
"
/>
    <text
        x="153"
        y="320"
        alignment-baseline="middle"
        font-family="Verdana"
        font-size="11"
        fill="black">
    6
    </text>

<line
    stroke-linecap="square"
    x1="172"
    y1="327"
    x2="172"
    y2="207"
    style="stroke:rgb(0, 0,0);
            stroke-width:4;
"
/>

    <circle cx="172" cy="327" r="4" fill="black" />
<line
    stroke-linecap="square"
    x1="172"
    y1="207"
    x2="187"
    y2="207"
    style="stroke:rgb(0, 0,0);
            stroke-width:4;
"
/>

<line
    stroke-linecap="square"
    x1="187"
    y1="207"
    x2="187"
    y2="462"
    style="stroke:rgb(0, 0,0);
            stroke-width:4;
"
/>

    <circle cx="187" cy="207" r="4" fill="black" />
<line
    stroke-linecap="square"
    x1="187"
    y1="462"
    x2="202"
    y2="462"
    style="stroke:rgb(0, 0,0);
            stroke-width:4;
"
/>

    <circle cx="187" cy="462" r="4" fill="black" />
<line
    stroke-linecap="square"
    x1="202"
    y1="462"
    x2="202"
    y2="542"
    style="stroke:rgb(0, 0,0);
            stroke-width:4;
"
/>

<line
    stroke-linecap="square"
    x1="202"
    y1="542"
    x2="224"
    y2="542"
    style="stroke:rgb(0, 0,0);
            stroke-width:2;
                marker-end: url(#0,0,0)
            "
/>
    <text
        x="213"
        y="531"
        alignment-baseline="middle"
        font-family="Verdana"
        font-size="11"
        fill="black">
    6
    </text>

    <circle cx="202" cy="542" r="4" fill="black" />
<line
    stroke-linecap="square"
    x1="150"
    y1="87"
    x2="172"
    y2="87"
    style="stroke:rgb(0, 0,0);
            stroke-width:2;
"
/>
    <text
        x="153"
        y="80"
        alignment-baseline="middle"
        font-family="Verdana"
        font-size="11"
        fill="black">
    0
    </text>

<line
    stroke-linecap="square"
    x1="172"
    y1="87"
    x2="172"
    y2="207"
    style="stroke:rgb(0, 0,0);
            stroke-width:4;
"
/>

    <circle cx="172" cy="87" r="4" fill="black" />
<line
    stroke-linecap="square"
    x1="172"
    y1="207"
    x2="187"
    y2="207"
    style="stroke:rgb(0, 0,0);
            stroke-width:4;
"
/>

<line
    stroke-linecap="square"
    x1="187"
    y1="207"
    x2="187"
    y2="187"
    style="stroke:rgb(0, 0,0);
            stroke-width:4;
"
/>

    <circle cx="187" cy="207" r="4" fill="black" />
<line
    stroke-linecap="square"
    x1="187"
    y1="187"
    x2="534"
    y2="187"
    style="stroke:rgb(0, 0,0);
            stroke-width:4;
"
/>

    <circle cx="187" cy="187" r="4" fill="black" />
<line
    stroke-linecap="square"
    x1="534"
    y1="187"
    x2="534"
    y2="127"
    style="stroke:rgb(0, 0,0);
            stroke-width:4;
"
/>

<line
    stroke-linecap="square"
    x1="534"
    y1="127"
    x2="556"
    y2="127"
    style="stroke:rgb(0, 0,0);
            stroke-width:2;
                marker-end: url(#0,0,0)
            "
/>
    <text
        x="545"
        y="116"
        alignment-baseline="middle"
        font-family="Verdana"
        font-size="11"
        fill="black">
    0
    </text>

    <circle cx="534" cy="127" r="4" fill="black" />
<line
    stroke-linecap="square"
    x1="150"
    y1="127"
    x2="172"
    y2="127"
    style="stroke:rgb(0, 0,0);
            stroke-width:2;
"
/>
    <text
        x="153"
        y="120"
        alignment-baseline="middle"
        font-family="Verdana"
        font-size="11"
        fill="black">
    1
    </text>

<line
    stroke-linecap="square"
    x1="172"
    y1="127"
    x2="172"
    y2="207"
    style="stroke:rgb(0, 0,0);
            stroke-width:4;
"
/>

    <circle cx="172" cy="127" r="4" fill="black" />
<line
    stroke-linecap="square"
    x1="172"
    y1="207"
    x2="187"
    y2="207"
    style="stroke:rgb(0, 0,0);
            stroke-width:4;
"
/>

<line
    stroke-linecap="square"
    x1="187"
    y1="207"
    x2="187"
    y2="187"
    style="stroke:rgb(0, 0,0);
            stroke-width:4;
"
/>

    <circle cx="187" cy="207" r="4" fill="black" />
<line
    stroke-linecap="square"
    x1="187"
    y1="187"
    x2="534"
    y2="187"
    style="stroke:rgb(0, 0,0);
            stroke-width:4;
"
/>

    <circle cx="187" cy="187" r="4" fill="black" />
<line
    stroke-linecap="square"
    x1="534"
    y1="187"
    x2="534"
    y2="167"
    style="stroke:rgb(0, 0,0);
            stroke-width:4;
"
/>

<line
    stroke-linecap="square"
    x1="534"
    y1="167"
    x2="556"
    y2="167"
    style="stroke:rgb(0, 0,0);
            stroke-width:2;
                marker-end: url(#0,0,0)
            "
/>
    <text
        x="545"
        y="156"
        alignment-baseline="middle"
        font-family="Verdana"
        font-size="11"
        fill="black">
    1
    </text>

    <circle cx="534" cy="167" r="4" fill="black" />
<line
    stroke-linecap="square"
    x1="150"
    y1="167"
    x2="172"
    y2="167"
    style="stroke:rgb(0, 0,0);
            stroke-width:2;
"
/>
    <text
        x="153"
        y="160"
        alignment-baseline="middle"
        font-family="Verdana"
        font-size="11"
        fill="black">
    2
    </text>

<line
    stroke-linecap="square"
    x1="172"
    y1="167"
    x2="172"
    y2="207"
    style="stroke:rgb(0, 0,0);
            stroke-width:4;
"
/>

    <circle cx="172" cy="167" r="4" fill="black" />
<line
    stroke-linecap="square"
    x1="172"
    y1="207"
    x2="187"
    y2="207"
    style="stroke:rgb(0, 0,0);
            stroke-width:4;
"
/>

<line
    stroke-linecap="square"
    x1="187"
    y1="207"
    x2="187"
    y2="187"
    style="stroke:rgb(0, 0,0);
            stroke-width:4;
"
/>

    <circle cx="187" cy="207" r="4" fill="black" />
<line
    stroke-linecap="square"
    x1="187"
    y1="187"
    x2="534"
    y2="187"
    style="stroke:rgb(0, 0,0);
            stroke-width:4;
"
/>

    <circle cx="187" cy="187" r="4" fill="black" />
<line
    stroke-linecap="square"
    x1="534"
    y1="187"
    x2="534"
    y2="207"
    style="stroke:rgb(0, 0,0);
            stroke-width:4;
"
/>

<line
    stroke-linecap="square"
    x1="534"
    y1="207"
    x2="556"
    y2="207"
    style="stroke:rgb(0, 0,0);
            stroke-width:2;
                marker-end: url(#0,0,0)
            "
/>
    <text
        x="545"
        y="196"
        alignment-baseline="middle"
        font-family="Verdana"
        font-size="11"
        fill="black">
    2
    </text>

    <circle cx="534" cy="207" r="4" fill="black" />
<line
    stroke-linecap="square"
    x1="150"
    y1="207"
    x2="172"
    y2="207"
    style="stroke:rgb(0, 0,0);
            stroke-width:2;
"
/>
    <text
        x="153"
        y="200"
        alignment-baseline="middle"
        font-family="Verdana"
        font-size="11"
        fill="black">
    3
    </text>

<line
    stroke-linecap="square"
    x1="172"
    y1="207"
    x2="172"
    y2="207"
    style="stroke:rgb(0, 0,0);
            stroke-width:4;
"
/>

    <circle cx="172" cy="207" r="4" fill="black" />
<line
    stroke-linecap="square"
    x1="172"
    y1="207"
    x2="187"
    y2="207"
    style="stroke:rgb(0, 0,0);
            stroke-width:4;
"
/>

<line
    stroke-linecap="square"
    x1="187"
    y1="207"
    x2="187"
    y2="187"
    style="stroke:rgb(0, 0,0);
            stroke-width:4;
"
/>

    <circle cx="187" cy="207" r="4" fill="black" />
<line
    stroke-linecap="square"
    x1="187"
    y1="187"
    x2="534"
    y2="187"
    style="stroke:rgb(0, 0,0);
            stroke-width:4;
"
/>

    <circle cx="187" cy="187" r="4" fill="black" />
<line
    stroke-linecap="square"
    x1="534"
    y1="187"
    x2="534"
    y2="247"
    style="stroke:rgb(0, 0,0);
            stroke-width:4;
"
/>

<line
    stroke-linecap="square"
    x1="534"
    y1="247"
    x2="556"
    y2="247"
    style="stroke:rgb(0, 0,0);
            stroke-width:2;
                marker-end: url(#0,0,0)
            "
/>
    <text
        x="545"
        y="236"
        alignment-baseline="middle"
        font-family="Verdana"
        font-size="11"
        fill="black">
    3
    </text>

    <circle cx="534" cy="247" r="4" fill="black" />
<line
    stroke-linecap="square"
    x1="522"
    y1="382"
    x2="556"
    y2="382"
    style="stroke:rgb(0, 0,0);
            stroke-width:2;
                marker-end: url(#0,0,0)
            "
/>

<line
    stroke-linecap="square"
    x1="522"
    y1="422"
    x2="556"
    y2="422"
    style="stroke:rgb(0, 0,0);
            stroke-width:2;
                marker-end: url(#0,0,0)
            "
/>

<line
    stroke-linecap="square"
    x1="522"
    y1="462"
    x2="556"
    y2="462"
    style="stroke:rgb(0, 0,0);
            stroke-width:2;
                marker-end: url(#0,0,0)
            "
/>

<defs>
    <!-- Small box indicating a port -->
    <rect id="port" x="0" y="0" width="16" height="16"
          style="fill:white;stroke:rgb(0,0,0);stroke-width:1;fill-opacity:1.0;stroke-opacity:1.0"/>
</defs><use x="134" y="79" xlink:href="#port" />
<text text-anchor="end" alignment-baseline="middle" x="130" y="89" transform="rotate(0,130,89)" style="font-weight: regular" font-family="Verdana" font-size="9" fill="black">
currentPositionX
</text>

<use x="134" y="119" xlink:href="#port" />
<text text-anchor="end" alignment-baseline="middle" x="130" y="129" transform="rotate(0,130,129)" style="font-weight: regular" font-family="Verdana" font-size="9" fill="black">
currentPositionY
</text>

<use x="134" y="159" xlink:href="#port" />
<text text-anchor="end" alignment-baseline="middle" x="130" y="169" transform="rotate(0,130,169)" style="font-weight: regular" font-family="Verdana" font-size="9" fill="black">
currentDirectionX
</text>

<use x="134" y="199" xlink:href="#port" />
<text text-anchor="end" alignment-baseline="middle" x="130" y="209" transform="rotate(0,130,209)" style="font-weight: regular" font-family="Verdana" font-size="9" fill="black">
currentDirectionY
</text>

<use x="134" y="239" xlink:href="#port" />
<text text-anchor="end" alignment-baseline="middle" x="130" y="249" transform="rotate(0,130,249)" style="font-weight: regular" font-family="Verdana" font-size="9" fill="black">
plannedTrajectoryLength
</text>

<use x="134" y="279" xlink:href="#port" />
<text text-anchor="end" alignment-baseline="middle" x="130" y="289" transform="rotate(0,130,289)" style="font-weight: regular" font-family="Verdana" font-size="9" fill="black">
plannedTrajectoryX
</text>

<use x="134" y="319" xlink:href="#port" />
<text text-anchor="end" alignment-baseline="middle" x="130" y="329" transform="rotate(0,130,329)" style="font-weight: regular" font-family="Verdana" font-size="9" fill="black">
plannedTrajectoryY
</text>

<use x="903" y="119" xlink:href="#port" />
<text text-anchor="start" alignment-baseline="middle" x="923" y="129" transform="rotate(0,923,129)" style="font-weight: regular" font-family="Verdana" font-size="9" fill="black">
desiredDirectionX
</text>

<use x="903" y="79" xlink:href="#port" />
<text text-anchor="start" alignment-baseline="middle" x="923" y="89" transform="rotate(0,923,89)" style="font-weight: regular" font-family="Verdana" font-size="9" fill="black">
desiredDirectionY
</text>

<use x="903" y="159" xlink:href="#port" />
<text text-anchor="start" alignment-baseline="middle" x="923" y="169" transform="rotate(0,923,169)" style="font-weight: regular" font-family="Verdana" font-size="9" fill="black">
signedDistanceToTrajectory
</text>

<use x="903" y="199" xlink:href="#port" />
<text text-anchor="start" alignment-baseline="middle" x="923" y="209" transform="rotate(0,923,209)" style="font-weight: regular" font-family="Verdana" font-size="9" fill="black">
desiredVelocity
</text>

<use x="224" y="374" xlink:href="#port" />
<text text-anchor="start" alignment-baseline="middle" x="243" y="384" transform="rotate(0,243,384)" style="font-weight: regular" font-family="Verdana" font-size="9" fill="black">
currentPositionX
</text>

<use x="224" y="414" xlink:href="#port" />
<text text-anchor="start" alignment-baseline="middle" x="243" y="424" transform="rotate(0,243,424)" style="font-weight: regular" font-family="Verdana" font-size="9" fill="black">
currentPositionY
</text>

<use x="224" y="454" xlink:href="#port" />
<text text-anchor="start" alignment-baseline="middle" x="243" y="464" transform="rotate(0,243,464)" style="font-weight: regular" font-family="Verdana" font-size="9" fill="black">
plannedTrajectoryLength
</text>

<use x="224" y="494" xlink:href="#port" />
<text text-anchor="start" alignment-baseline="middle" x="243" y="504" transform="rotate(0,243,504)" style="font-weight: regular" font-family="Verdana" font-size="9" fill="black">
plannedTrajectoryX
</text>

<use x="224" y="534" xlink:href="#port" />
<text text-anchor="start" alignment-baseline="middle" x="243" y="544" transform="rotate(0,243,544)" style="font-weight: regular" font-family="Verdana" font-size="9" fill="black">
plannedTrajectoryY
</text>

<use x="506" y="374" xlink:href="#port" />
<text text-anchor="end" alignment-baseline="middle" x="503" y="384" transform="rotate(0,503,384)" style="font-weight: regular" font-family="Verdana" font-size="9" fill="black">
trimmedTrajectoryLength
</text>

<use x="506" y="414" xlink:href="#port" />
<text text-anchor="end" alignment-baseline="middle" x="503" y="424" transform="rotate(0,503,424)" style="font-weight: regular" font-family="Verdana" font-size="9" fill="black">
trimmedTrajectoryX
</text>

<use x="506" y="454" xlink:href="#port" />
<text text-anchor="end" alignment-baseline="middle" x="503" y="464" transform="rotate(0,503,464)" style="font-weight: regular" font-family="Verdana" font-size="9" fill="black">
trimmedTrajectoryY
</text>

<use x="556" y="119" xlink:href="#port" />
<text text-anchor="start" alignment-baseline="middle" x="575" y="129" transform="rotate(0,575,129)" style="font-weight: regular" font-family="Verdana" font-size="9" fill="black">
currentPositionX
</text>

<use x="556" y="159" xlink:href="#port" />
<text text-anchor="start" alignment-baseline="middle" x="575" y="169" transform="rotate(0,575,169)" style="font-weight: regular" font-family="Verdana" font-size="9" fill="black">
currentPositionY
</text>

<use x="556" y="199" xlink:href="#port" />
<text text-anchor="start" alignment-baseline="middle" x="575" y="209" transform="rotate(0,575,209)" style="font-weight: regular" font-family="Verdana" font-size="9" fill="black">
currentDirectionX
</text>

<use x="556" y="239" xlink:href="#port" />
<text text-anchor="start" alignment-baseline="middle" x="575" y="249" transform="rotate(0,575,249)" style="font-weight: regular" font-family="Verdana" font-size="9" fill="black">
currentDirectionY
</text>

<use x="556" y="374" xlink:href="#port" />
<text text-anchor="start" alignment-baseline="middle" x="575" y="384" transform="rotate(0,575,384)" style="font-weight: regular" font-family="Verdana" font-size="9" fill="black">
trimmedTrajectoryLength
</text>

<use x="556" y="414" xlink:href="#port" />
<text text-anchor="start" alignment-baseline="middle" x="575" y="424" transform="rotate(0,575,424)" style="font-weight: regular" font-family="Verdana" font-size="9" fill="black">
trimmedTrajectoryX
</text>

<use x="556" y="454" xlink:href="#port" />
<text text-anchor="start" alignment-baseline="middle" x="575" y="464" transform="rotate(0,575,464)" style="font-weight: regular" font-family="Verdana" font-size="9" fill="black">
trimmedTrajectoryY
</text>

<use x="853" y="119" xlink:href="#port" />
<text text-anchor="end" alignment-baseline="middle" x="850" y="129" transform="rotate(0,850,129)" style="font-weight: regular" font-family="Verdana" font-size="9" fill="black">
desiredDirectionX
</text>

<use x="853" y="79" xlink:href="#port" />
<text text-anchor="end" alignment-baseline="middle" x="850" y="89" transform="rotate(0,850,89)" style="font-weight: regular" font-family="Verdana" font-size="9" fill="black">
desiredDirectionY
</text>

<use x="853" y="159" xlink:href="#port" />
<text text-anchor="end" alignment-baseline="middle" x="850" y="169" transform="rotate(0,850,169)" style="font-weight: regular" font-family="Verdana" font-size="9" fill="black">
signedDistanceToTrajectory
</text>

<use x="853" y="199" xlink:href="#port" />
<text text-anchor="end" alignment-baseline="middle" x="850" y="209" transform="rotate(0,850,209)" style="font-weight: regular" font-family="Verdana" font-size="9" fill="black">
desiredVelocity
</text>


</svg>