<svg width="100%" height="100%" xmlns="http://www.w3.org/2000/svg" version="1.1" xmlns:xlink="http://www.w3.org/1999/xlink">
    <svg xmlns="http://www.w3.org/2000/svg" version="1.1">

<!-- Canvas: behaviorGeneration -->
<g transform="translate(16 20)">

    <rect
        id="142"
        width="400"
        height="562"
        style="fill:white;stroke:black;stroke-width:2;fill-opacity:1.0;stroke-opacity:1.0"/>

    <text
        x="8"
        y="20"
        style="font-weight: bold"
        font-family="Verdana"
        font-size="13"
        fill="black">
            behaviorGeneration
    </text>

</g>

</svg><!-- Component: trimPath -->
<g transform="translate(106 347)">
    <rect
        data-name="testManuelSchrick.autopilot.autopilot.behaviorGeneration.trimPath"
        id="143"
        width="75"
        height="215"
        style="fill:white;stroke:black;stroke-width:2;fill-opacity:1.0;stroke-opacity:1.0"
        onmouseout="this.style.stroke = '#000000'; this.style['stroke-width'] = 2; this.style.cursor='default';"
    />

    <text
        x="10"
        y="15"
        alignment-baseline="middle"
        style="font-weight: bold"
        font-family="Verdana"
        font-size="11"
        fill="black">
    trimPath
    </text>
</g><!-- Component: calcMotionCmds -->
<g transform="translate(231 52)">
    <rect
        data-name="testManuelSchrick.autopilot.autopilot.behaviorGeneration.calcMotionCmds"
        id="144"
        width="135"
        height="430"
        style="fill:white;stroke:black;stroke-width:2;fill-opacity:1.0;stroke-opacity:1.0"
        onmouseout="this.style.stroke = '#000000'; this.style['stroke-width'] = 2; this.style.cursor='default';"
            onmouseover="this.style.stroke = '#316FC0'; this.style['stroke-width'] = 5; this.style.cursor='pointer';"
            onclick="window.open('testManuelSchrick.autopilot.autopilot.behaviorGeneration.calcMotionCmds_no_port_names.html','_parent',false);parent.openFileInEditor('/autopilot/autopilot/behaviorGeneration/calcMotionCmds.ema');"
    />

    <text
        x="10"
        y="15"
        alignment-baseline="middle"
        style="font-weight: bold"
        font-family="Verdana"
        font-size="11"
        fill="black">
    calcMotionCmds
    </text>
</g><defs>
    <marker id="0,0,0" markerWidth="13" markerHeight="13" refX="5" refY="5" orient="auto">
            <polyline points="0,2 5,5 0,8" style="fill:none; stroke:rgb(0,0,0);
                    stroke-width:1" />
    </marker>
</defs><line
    stroke-linecap="square"
    x1="374"
    y1="127"
    x2="408"
    y2="127"
    style="stroke:rgb(0, 0,0);
            stroke-width:2;
                marker-end: url(#0,0,0)
            "
/>

<line
    stroke-linecap="square"
    x1="374"
    y1="87"
    x2="408"
    y2="87"
    style="stroke:rgb(0, 0,0);
            stroke-width:2;
                marker-end: url(#0,0,0)
            "
/>

<line
    stroke-linecap="square"
    x1="374"
    y1="167"
    x2="408"
    y2="167"
    style="stroke:rgb(0, 0,0);
            stroke-width:2;
                marker-end: url(#0,0,0)
            "
/>

<line
    stroke-linecap="square"
    x1="374"
    y1="207"
    x2="408"
    y2="207"
    style="stroke:rgb(0, 0,0);
            stroke-width:2;
                marker-end: url(#0,0,0)
            "
/>

<line
    stroke-linecap="square"
    x1="24"
    y1="87"
    x2="46"
    y2="87"
    style="stroke:rgb(0, 0,0);
            stroke-width:2;
"
/>
    <text
        x="27"
        y="80"
        alignment-baseline="middle"
        font-family="Verdana"
        font-size="11"
        fill="black">
    0
    </text>

<line
    stroke-linecap="square"
    x1="46"
    y1="87"
    x2="46"
    y2="207"
    style="stroke:rgb(0, 0,0);
            stroke-width:4;
"
/>

    <circle cx="46" cy="87" r="4" fill="black" />
<line
    stroke-linecap="square"
    x1="46"
    y1="207"
    x2="61"
    y2="207"
    style="stroke:rgb(0, 0,0);
            stroke-width:4;
"
/>

<line
    stroke-linecap="square"
    x1="61"
    y1="207"
    x2="61"
    y2="462"
    style="stroke:rgb(0, 0,0);
            stroke-width:4;
"
/>

    <circle cx="61" cy="207" r="4" fill="black" />
<line
    stroke-linecap="square"
    x1="61"
    y1="462"
    x2="76"
    y2="462"
    style="stroke:rgb(0, 0,0);
            stroke-width:4;
"
/>

    <circle cx="61" cy="462" r="4" fill="black" />
<line
    stroke-linecap="square"
    x1="76"
    y1="462"
    x2="76"
    y2="382"
    style="stroke:rgb(0, 0,0);
            stroke-width:4;
"
/>

<line
    stroke-linecap="square"
    x1="76"
    y1="382"
    x2="98"
    y2="382"
    style="stroke:rgb(0, 0,0);
            stroke-width:2;
                marker-end: url(#0,0,0)
            "
/>
    <text
        x="87"
        y="371"
        alignment-baseline="middle"
        font-family="Verdana"
        font-size="11"
        fill="black">
    0
    </text>

    <circle cx="76" cy="382" r="4" fill="black" />
<line
    stroke-linecap="square"
    x1="24"
    y1="127"
    x2="46"
    y2="127"
    style="stroke:rgb(0, 0,0);
            stroke-width:2;
"
/>
    <text
        x="27"
        y="120"
        alignment-baseline="middle"
        font-family="Verdana"
        font-size="11"
        fill="black">
    1
    </text>

<line
    stroke-linecap="square"
    x1="46"
    y1="127"
    x2="46"
    y2="207"
    style="stroke:rgb(0, 0,0);
            stroke-width:4;
"
/>

    <circle cx="46" cy="127" r="4" fill="black" />
<line
    stroke-linecap="square"
    x1="46"
    y1="207"
    x2="61"
    y2="207"
    style="stroke:rgb(0, 0,0);
            stroke-width:4;
"
/>

<line
    stroke-linecap="square"
    x1="61"
    y1="207"
    x2="61"
    y2="462"
    style="stroke:rgb(0, 0,0);
            stroke-width:4;
"
/>

    <circle cx="61" cy="207" r="4" fill="black" />
<line
    stroke-linecap="square"
    x1="61"
    y1="462"
    x2="76"
    y2="462"
    style="stroke:rgb(0, 0,0);
            stroke-width:4;
"
/>

    <circle cx="61" cy="462" r="4" fill="black" />
<line
    stroke-linecap="square"
    x1="76"
    y1="462"
    x2="76"
    y2="422"
    style="stroke:rgb(0, 0,0);
            stroke-width:4;
"
/>

<line
    stroke-linecap="square"
    x1="76"
    y1="422"
    x2="98"
    y2="422"
    style="stroke:rgb(0, 0,0);
            stroke-width:2;
                marker-end: url(#0,0,0)
            "
/>
    <text
        x="87"
        y="411"
        alignment-baseline="middle"
        font-family="Verdana"
        font-size="11"
        fill="black">
    1
    </text>

    <circle cx="76" cy="422" r="4" fill="black" />
<line
    stroke-linecap="square"
    x1="24"
    y1="247"
    x2="46"
    y2="247"
    style="stroke:rgb(0, 0,0);
            stroke-width:2;
"
/>
    <text
        x="27"
        y="240"
        alignment-baseline="middle"
        font-family="Verdana"
        font-size="11"
        fill="black">
    4
    </text>

<line
    stroke-linecap="square"
    x1="46"
    y1="247"
    x2="46"
    y2="207"
    style="stroke:rgb(0, 0,0);
            stroke-width:4;
"
/>

    <circle cx="46" cy="247" r="4" fill="black" />
<line
    stroke-linecap="square"
    x1="46"
    y1="207"
    x2="61"
    y2="207"
    style="stroke:rgb(0, 0,0);
            stroke-width:4;
"
/>

<line
    stroke-linecap="square"
    x1="61"
    y1="207"
    x2="61"
    y2="462"
    style="stroke:rgb(0, 0,0);
            stroke-width:4;
"
/>

    <circle cx="61" cy="207" r="4" fill="black" />
<line
    stroke-linecap="square"
    x1="61"
    y1="462"
    x2="76"
    y2="462"
    style="stroke:rgb(0, 0,0);
            stroke-width:4;
"
/>

    <circle cx="61" cy="462" r="4" fill="black" />
<line
    stroke-linecap="square"
    x1="76"
    y1="462"
    x2="76"
    y2="462"
    style="stroke:rgb(0, 0,0);
            stroke-width:4;
"
/>

<line
    stroke-linecap="square"
    x1="76"
    y1="462"
    x2="98"
    y2="462"
    style="stroke:rgb(0, 0,0);
            stroke-width:2;
                marker-end: url(#0,0,0)
            "
/>
    <text
        x="87"
        y="451"
        alignment-baseline="middle"
        font-family="Verdana"
        font-size="11"
        fill="black">
    4
    </text>

    <circle cx="76" cy="462" r="4" fill="black" />
<line
    stroke-linecap="square"
    x1="24"
    y1="287"
    x2="46"
    y2="287"
    style="stroke:rgb(0, 0,0);
            stroke-width:2;
"
/>
    <text
        x="27"
        y="280"
        alignment-baseline="middle"
        font-family="Verdana"
        font-size="11"
        fill="black">
    5
    </text>

<line
    stroke-linecap="square"
    x1="46"
    y1="287"
    x2="46"
    y2="207"
    style="stroke:rgb(0, 0,0);
            stroke-width:4;
"
/>

    <circle cx="46" cy="287" r="4" fill="black" />
<line
    stroke-linecap="square"
    x1="46"
    y1="207"
    x2="61"
    y2="207"
    style="stroke:rgb(0, 0,0);
            stroke-width:4;
"
/>

<line
    stroke-linecap="square"
    x1="61"
    y1="207"
    x2="61"
    y2="462"
    style="stroke:rgb(0, 0,0);
            stroke-width:4;
"
/>

    <circle cx="61" cy="207" r="4" fill="black" />
<line
    stroke-linecap="square"
    x1="61"
    y1="462"
    x2="76"
    y2="462"
    style="stroke:rgb(0, 0,0);
            stroke-width:4;
"
/>

    <circle cx="61" cy="462" r="4" fill="black" />
<line
    stroke-linecap="square"
    x1="76"
    y1="462"
    x2="76"
    y2="502"
    style="stroke:rgb(0, 0,0);
            stroke-width:4;
"
/>

<line
    stroke-linecap="square"
    x1="76"
    y1="502"
    x2="98"
    y2="502"
    style="stroke:rgb(0, 0,0);
            stroke-width:2;
                marker-end: url(#0,0,0)
            "
/>
    <text
        x="87"
        y="491"
        alignment-baseline="middle"
        font-family="Verdana"
        font-size="11"
        fill="black">
    5
    </text>

    <circle cx="76" cy="502" r="4" fill="black" />
<line
    stroke-linecap="square"
    x1="24"
    y1="327"
    x2="46"
    y2="327"
    style="stroke:rgb(0, 0,0);
            stroke-width:2;
"
/>
    <text
        x="27"
        y="320"
        alignment-baseline="middle"
        font-family="Verdana"
        font-size="11"
        fill="black">
    6
    </text>

<line
    stroke-linecap="square"
    x1="46"
    y1="327"
    x2="46"
    y2="207"
    style="stroke:rgb(0, 0,0);
            stroke-width:4;
"
/>

    <circle cx="46" cy="327" r="4" fill="black" />
<line
    stroke-linecap="square"
    x1="46"
    y1="207"
    x2="61"
    y2="207"
    style="stroke:rgb(0, 0,0);
            stroke-width:4;
"
/>

<line
    stroke-linecap="square"
    x1="61"
    y1="207"
    x2="61"
    y2="462"
    style="stroke:rgb(0, 0,0);
            stroke-width:4;
"
/>

    <circle cx="61" cy="207" r="4" fill="black" />
<line
    stroke-linecap="square"
    x1="61"
    y1="462"
    x2="76"
    y2="462"
    style="stroke:rgb(0, 0,0);
            stroke-width:4;
"
/>

    <circle cx="61" cy="462" r="4" fill="black" />
<line
    stroke-linecap="square"
    x1="76"
    y1="462"
    x2="76"
    y2="542"
    style="stroke:rgb(0, 0,0);
            stroke-width:4;
"
/>

<line
    stroke-linecap="square"
    x1="76"
    y1="542"
    x2="98"
    y2="542"
    style="stroke:rgb(0, 0,0);
            stroke-width:2;
                marker-end: url(#0,0,0)
            "
/>
    <text
        x="87"
        y="531"
        alignment-baseline="middle"
        font-family="Verdana"
        font-size="11"
        fill="black">
    6
    </text>

    <circle cx="76" cy="542" r="4" fill="black" />
<line
    stroke-linecap="square"
    x1="24"
    y1="87"
    x2="46"
    y2="87"
    style="stroke:rgb(0, 0,0);
            stroke-width:2;
"
/>
    <text
        x="27"
        y="80"
        alignment-baseline="middle"
        font-family="Verdana"
        font-size="11"
        fill="black">
    0
    </text>

<line
    stroke-linecap="square"
    x1="46"
    y1="87"
    x2="46"
    y2="207"
    style="stroke:rgb(0, 0,0);
            stroke-width:4;
"
/>

    <circle cx="46" cy="87" r="4" fill="black" />
<line
    stroke-linecap="square"
    x1="46"
    y1="207"
    x2="61"
    y2="207"
    style="stroke:rgb(0, 0,0);
            stroke-width:4;
"
/>

<line
    stroke-linecap="square"
    x1="61"
    y1="207"
    x2="61"
    y2="187"
    style="stroke:rgb(0, 0,0);
            stroke-width:4;
"
/>

    <circle cx="61" cy="207" r="4" fill="black" />
<line
    stroke-linecap="square"
    x1="61"
    y1="187"
    x2="201"
    y2="187"
    style="stroke:rgb(0, 0,0);
            stroke-width:4;
"
/>

    <circle cx="61" cy="187" r="4" fill="black" />
<line
    stroke-linecap="square"
    x1="201"
    y1="187"
    x2="201"
    y2="127"
    style="stroke:rgb(0, 0,0);
            stroke-width:4;
"
/>

<line
    stroke-linecap="square"
    x1="201"
    y1="127"
    x2="223"
    y2="127"
    style="stroke:rgb(0, 0,0);
            stroke-width:2;
                marker-end: url(#0,0,0)
            "
/>
    <text
        x="212"
        y="116"
        alignment-baseline="middle"
        font-family="Verdana"
        font-size="11"
        fill="black">
    0
    </text>

    <circle cx="201" cy="127" r="4" fill="black" />
<line
    stroke-linecap="square"
    x1="24"
    y1="127"
    x2="46"
    y2="127"
    style="stroke:rgb(0, 0,0);
            stroke-width:2;
"
/>
    <text
        x="27"
        y="120"
        alignment-baseline="middle"
        font-family="Verdana"
        font-size="11"
        fill="black">
    1
    </text>

<line
    stroke-linecap="square"
    x1="46"
    y1="127"
    x2="46"
    y2="207"
    style="stroke:rgb(0, 0,0);
            stroke-width:4;
"
/>

    <circle cx="46" cy="127" r="4" fill="black" />
<line
    stroke-linecap="square"
    x1="46"
    y1="207"
    x2="61"
    y2="207"
    style="stroke:rgb(0, 0,0);
            stroke-width:4;
"
/>

<line
    stroke-linecap="square"
    x1="61"
    y1="207"
    x2="61"
    y2="187"
    style="stroke:rgb(0, 0,0);
            stroke-width:4;
"
/>

    <circle cx="61" cy="207" r="4" fill="black" />
<line
    stroke-linecap="square"
    x1="61"
    y1="187"
    x2="201"
    y2="187"
    style="stroke:rgb(0, 0,0);
            stroke-width:4;
"
/>

    <circle cx="61" cy="187" r="4" fill="black" />
<line
    stroke-linecap="square"
    x1="201"
    y1="187"
    x2="201"
    y2="167"
    style="stroke:rgb(0, 0,0);
            stroke-width:4;
"
/>

<line
    stroke-linecap="square"
    x1="201"
    y1="167"
    x2="223"
    y2="167"
    style="stroke:rgb(0, 0,0);
            stroke-width:2;
                marker-end: url(#0,0,0)
            "
/>
    <text
        x="212"
        y="156"
        alignment-baseline="middle"
        font-family="Verdana"
        font-size="11"
        fill="black">
    1
    </text>

    <circle cx="201" cy="167" r="4" fill="black" />
<line
    stroke-linecap="square"
    x1="24"
    y1="167"
    x2="46"
    y2="167"
    style="stroke:rgb(0, 0,0);
            stroke-width:2;
"
/>
    <text
        x="27"
        y="160"
        alignment-baseline="middle"
        font-family="Verdana"
        font-size="11"
        fill="black">
    2
    </text>

<line
    stroke-linecap="square"
    x1="46"
    y1="167"
    x2="46"
    y2="207"
    style="stroke:rgb(0, 0,0);
            stroke-width:4;
"
/>

    <circle cx="46" cy="167" r="4" fill="black" />
<line
    stroke-linecap="square"
    x1="46"
    y1="207"
    x2="61"
    y2="207"
    style="stroke:rgb(0, 0,0);
            stroke-width:4;
"
/>

<line
    stroke-linecap="square"
    x1="61"
    y1="207"
    x2="61"
    y2="187"
    style="stroke:rgb(0, 0,0);
            stroke-width:4;
"
/>

    <circle cx="61" cy="207" r="4" fill="black" />
<line
    stroke-linecap="square"
    x1="61"
    y1="187"
    x2="201"
    y2="187"
    style="stroke:rgb(0, 0,0);
            stroke-width:4;
"
/>

    <circle cx="61" cy="187" r="4" fill="black" />
<line
    stroke-linecap="square"
    x1="201"
    y1="187"
    x2="201"
    y2="207"
    style="stroke:rgb(0, 0,0);
            stroke-width:4;
"
/>

<line
    stroke-linecap="square"
    x1="201"
    y1="207"
    x2="223"
    y2="207"
    style="stroke:rgb(0, 0,0);
            stroke-width:2;
                marker-end: url(#0,0,0)
            "
/>
    <text
        x="212"
        y="196"
        alignment-baseline="middle"
        font-family="Verdana"
        font-size="11"
        fill="black">
    2
    </text>

    <circle cx="201" cy="207" r="4" fill="black" />
<line
    stroke-linecap="square"
    x1="24"
    y1="207"
    x2="46"
    y2="207"
    style="stroke:rgb(0, 0,0);
            stroke-width:2;
"
/>
    <text
        x="27"
        y="200"
        alignment-baseline="middle"
        font-family="Verdana"
        font-size="11"
        fill="black">
    3
    </text>

<line
    stroke-linecap="square"
    x1="46"
    y1="207"
    x2="46"
    y2="207"
    style="stroke:rgb(0, 0,0);
            stroke-width:4;
"
/>

    <circle cx="46" cy="207" r="4" fill="black" />
<line
    stroke-linecap="square"
    x1="46"
    y1="207"
    x2="61"
    y2="207"
    style="stroke:rgb(0, 0,0);
            stroke-width:4;
"
/>

<line
    stroke-linecap="square"
    x1="61"
    y1="207"
    x2="61"
    y2="187"
    style="stroke:rgb(0, 0,0);
            stroke-width:4;
"
/>

    <circle cx="61" cy="207" r="4" fill="black" />
<line
    stroke-linecap="square"
    x1="61"
    y1="187"
    x2="201"
    y2="187"
    style="stroke:rgb(0, 0,0);
            stroke-width:4;
"
/>

    <circle cx="61" cy="187" r="4" fill="black" />
<line
    stroke-linecap="square"
    x1="201"
    y1="187"
    x2="201"
    y2="247"
    style="stroke:rgb(0, 0,0);
            stroke-width:4;
"
/>

<line
    stroke-linecap="square"
    x1="201"
    y1="247"
    x2="223"
    y2="247"
    style="stroke:rgb(0, 0,0);
            stroke-width:2;
                marker-end: url(#0,0,0)
            "
/>
    <text
        x="212"
        y="236"
        alignment-baseline="middle"
        font-family="Verdana"
        font-size="11"
        fill="black">
    3
    </text>

    <circle cx="201" cy="247" r="4" fill="black" />
<line
    stroke-linecap="square"
    x1="189"
    y1="382"
    x2="223"
    y2="382"
    style="stroke:rgb(0, 0,0);
            stroke-width:2;
                marker-end: url(#0,0,0)
            "
/>

<line
    stroke-linecap="square"
    x1="189"
    y1="422"
    x2="223"
    y2="422"
    style="stroke:rgb(0, 0,0);
            stroke-width:2;
                marker-end: url(#0,0,0)
            "
/>

<line
    stroke-linecap="square"
    x1="189"
    y1="462"
    x2="223"
    y2="462"
    style="stroke:rgb(0, 0,0);
            stroke-width:2;
                marker-end: url(#0,0,0)
            "
/>

<defs>
    <!-- Small box indicating a port -->
    <rect id="port" x="0" y="0" width="16" height="16"
          style="fill:white;stroke:rgb(0,0,0);stroke-width:1;fill-opacity:1.0;stroke-opacity:1.0"/>
</defs><use x="8" y="79" xlink:href="#port" />
<text text-anchor="end" alignment-baseline="middle" x="4" y="89" transform="rotate(0,4,89)" style="font-weight: regular" font-family="Verdana" font-size="9" fill="black">

</text>

<use x="8" y="119" xlink:href="#port" />
<text text-anchor="end" alignment-baseline="middle" x="4" y="129" transform="rotate(0,4,129)" style="font-weight: regular" font-family="Verdana" font-size="9" fill="black">

</text>

<use x="8" y="159" xlink:href="#port" />
<text text-anchor="end" alignment-baseline="middle" x="4" y="169" transform="rotate(0,4,169)" style="font-weight: regular" font-family="Verdana" font-size="9" fill="black">

</text>

<use x="8" y="199" xlink:href="#port" />
<text text-anchor="end" alignment-baseline="middle" x="4" y="209" transform="rotate(0,4,209)" style="font-weight: regular" font-family="Verdana" font-size="9" fill="black">

</text>

<use x="8" y="239" xlink:href="#port" />
<text text-anchor="end" alignment-baseline="middle" x="4" y="249" transform="rotate(0,4,249)" style="font-weight: regular" font-family="Verdana" font-size="9" fill="black">

</text>

<use x="8" y="279" xlink:href="#port" />
<text text-anchor="end" alignment-baseline="middle" x="4" y="289" transform="rotate(0,4,289)" style="font-weight: regular" font-family="Verdana" font-size="9" fill="black">

</text>

<use x="8" y="319" xlink:href="#port" />
<text text-anchor="end" alignment-baseline="middle" x="4" y="329" transform="rotate(0,4,329)" style="font-weight: regular" font-family="Verdana" font-size="9" fill="black">

</text>

<use x="408" y="119" xlink:href="#port" />
<text text-anchor="start" alignment-baseline="middle" x="428" y="129" transform="rotate(0,428,129)" style="font-weight: regular" font-family="Verdana" font-size="9" fill="black">

</text>

<use x="408" y="79" xlink:href="#port" />
<text text-anchor="start" alignment-baseline="middle" x="428" y="89" transform="rotate(0,428,89)" style="font-weight: regular" font-family="Verdana" font-size="9" fill="black">

</text>

<use x="408" y="159" xlink:href="#port" />
<text text-anchor="start" alignment-baseline="middle" x="428" y="169" transform="rotate(0,428,169)" style="font-weight: regular" font-family="Verdana" font-size="9" fill="black">

</text>

<use x="408" y="199" xlink:href="#port" />
<text text-anchor="start" alignment-baseline="middle" x="428" y="209" transform="rotate(0,428,209)" style="font-weight: regular" font-family="Verdana" font-size="9" fill="black">

</text>

<use x="98" y="374" xlink:href="#port" />
<text text-anchor="start" alignment-baseline="middle" x="117" y="384" transform="rotate(0,117,384)" style="font-weight: regular" font-family="Verdana" font-size="9" fill="black">

</text>

<use x="98" y="414" xlink:href="#port" />
<text text-anchor="start" alignment-baseline="middle" x="117" y="424" transform="rotate(0,117,424)" style="font-weight: regular" font-family="Verdana" font-size="9" fill="black">

</text>

<use x="98" y="454" xlink:href="#port" />
<text text-anchor="start" alignment-baseline="middle" x="117" y="464" transform="rotate(0,117,464)" style="font-weight: regular" font-family="Verdana" font-size="9" fill="black">

</text>

<use x="98" y="494" xlink:href="#port" />
<text text-anchor="start" alignment-baseline="middle" x="117" y="504" transform="rotate(0,117,504)" style="font-weight: regular" font-family="Verdana" font-size="9" fill="black">

</text>

<use x="98" y="534" xlink:href="#port" />
<text text-anchor="start" alignment-baseline="middle" x="117" y="544" transform="rotate(0,117,544)" style="font-weight: regular" font-family="Verdana" font-size="9" fill="black">

</text>

<use x="173" y="374" xlink:href="#port" />
<text text-anchor="end" alignment-baseline="middle" x="170" y="384" transform="rotate(0,170,384)" style="font-weight: regular" font-family="Verdana" font-size="9" fill="black">

</text>

<use x="173" y="414" xlink:href="#port" />
<text text-anchor="end" alignment-baseline="middle" x="170" y="424" transform="rotate(0,170,424)" style="font-weight: regular" font-family="Verdana" font-size="9" fill="black">

</text>

<use x="173" y="454" xlink:href="#port" />
<text text-anchor="end" alignment-baseline="middle" x="170" y="464" transform="rotate(0,170,464)" style="font-weight: regular" font-family="Verdana" font-size="9" fill="black">

</text>

<use x="223" y="119" xlink:href="#port" />
<text text-anchor="start" alignment-baseline="middle" x="242" y="129" transform="rotate(0,242,129)" style="font-weight: regular" font-family="Verdana" font-size="9" fill="black">

</text>

<use x="223" y="159" xlink:href="#port" />
<text text-anchor="start" alignment-baseline="middle" x="242" y="169" transform="rotate(0,242,169)" style="font-weight: regular" font-family="Verdana" font-size="9" fill="black">

</text>

<use x="223" y="199" xlink:href="#port" />
<text text-anchor="start" alignment-baseline="middle" x="242" y="209" transform="rotate(0,242,209)" style="font-weight: regular" font-family="Verdana" font-size="9" fill="black">

</text>

<use x="223" y="239" xlink:href="#port" />
<text text-anchor="start" alignment-baseline="middle" x="242" y="249" transform="rotate(0,242,249)" style="font-weight: regular" font-family="Verdana" font-size="9" fill="black">

</text>

<use x="223" y="374" xlink:href="#port" />
<text text-anchor="start" alignment-baseline="middle" x="242" y="384" transform="rotate(0,242,384)" style="font-weight: regular" font-family="Verdana" font-size="9" fill="black">

</text>

<use x="223" y="414" xlink:href="#port" />
<text text-anchor="start" alignment-baseline="middle" x="242" y="424" transform="rotate(0,242,424)" style="font-weight: regular" font-family="Verdana" font-size="9" fill="black">

</text>

<use x="223" y="454" xlink:href="#port" />
<text text-anchor="start" alignment-baseline="middle" x="242" y="464" transform="rotate(0,242,464)" style="font-weight: regular" font-family="Verdana" font-size="9" fill="black">

</text>

<use x="358" y="119" xlink:href="#port" />
<text text-anchor="end" alignment-baseline="middle" x="355" y="129" transform="rotate(0,355,129)" style="font-weight: regular" font-family="Verdana" font-size="9" fill="black">

</text>

<use x="358" y="79" xlink:href="#port" />
<text text-anchor="end" alignment-baseline="middle" x="355" y="89" transform="rotate(0,355,89)" style="font-weight: regular" font-family="Verdana" font-size="9" fill="black">

</text>

<use x="358" y="159" xlink:href="#port" />
<text text-anchor="end" alignment-baseline="middle" x="355" y="169" transform="rotate(0,355,169)" style="font-weight: regular" font-family="Verdana" font-size="9" fill="black">

</text>

<use x="358" y="199" xlink:href="#port" />
<text text-anchor="end" alignment-baseline="middle" x="355" y="209" transform="rotate(0,355,209)" style="font-weight: regular" font-family="Verdana" font-size="9" fill="black">

</text>


</svg>