<svg width="100%" height="100%" xmlns="http://www.w3.org/2000/svg" version="1.1" xmlns:xlink="http://www.w3.org/1999/xlink">
    <svg xmlns="http://www.w3.org/2000/svg" version="1.1">

<!-- Canvas: behaviorGeneration -->
<g transform="translate(16 20)">

    <rect
        id="7310"
        width="745"
        height="600"
        style="fill:white;stroke:black;stroke-width:2;fill-opacity:1.0;stroke-opacity:1.0"/>

    <text
        x="8"
        y="20"
        font-family="Verdana"
        fill="black">
            <tspan style="font-weight: bold" font-size="13">BehaviorGeneration</tspan>
            <tspan font-size="11"></tspan>
    </text>

    <text
        x="8"
        y="35"
        font-family="Verdana"
        font-size="12"
        fill="black">
            behaviorGeneration
    </text>

</g>

</svg><!-- Component: trimPath -->
<g transform="translate(166 270)">
    <rect
        data-name="testManuelSchrick.autopilot.autopilot.behaviorGeneration.trimPath"
        id="7312"
        width="120"
        height="310"
        style="
                fill:white;
            stroke:black;
            stroke-width:2;
            fill-opacity:1.0;
            stroke-opacity:1.0"
        onmouseout="this.style.stroke = '#000000'; this.style['stroke-width'] = 2; this.style.cursor='default';"
    />

    <text
        x="10"
        y="15"
        alignment-baseline="middle"
        font-family="Verdana"
        fill="black">
            <tspan style="font-weight: bold" font-size="11">TrimPath</tspan>
            <tspan font-size="9"></tspan>
    </text>

    <text
        x="10"
        y="30"
        alignment-baseline="middle"
        font-family="Verdana"
        font-size="10"
        fill="black">
    trimPath
    </text>
</g><!-- Component: calcMotionCmds -->
<g transform="translate(376 120)">
    <rect
        data-name="testManuelSchrick.autopilot.autopilot.behaviorGeneration.calcMotionCmds"
        id="7313"
        width="345"
        height="460"
        style="
                fill:rgb(242,242,242);
            stroke:black;
            stroke-width:2;
            fill-opacity:1.0;
            stroke-opacity:1.0"
        onmouseout="this.style.stroke = '#000000'; this.style['stroke-width'] = 2; this.style.cursor='default';"
            onmouseover="this.style.stroke = '#316FC0'; this.style['stroke-width'] = 5; this.style.cursor='pointer';"
            onclick="window.open('testManuelSchrick.autopilot.autopilot.behaviorGeneration.calcMotionCmds_no_port_names.html','_parent',false);parent.openFileInEditor('/autopilot/autopilot/behaviorGeneration/calcMotionCmds.ema');"
    />

    <text
        x="10"
        y="15"
        alignment-baseline="middle"
        font-family="Verdana"
        fill="black">
            <tspan style="font-weight: bold" font-size="11">CalculateMotionCommands</tspan>
            <tspan font-size="9"></tspan>
    </text>

    <text
        x="10"
        y="30"
        alignment-baseline="middle"
        font-family="Verdana"
        font-size="10"
        fill="black">
    calcMotionCmds
    </text>
</g><defs>
    <marker id="0,0,0" markerWidth="13" markerHeight="13" refX="5" refY="5" orient="auto">
            <polyline points="0,2 5,5 0,8" style="fill:none; stroke:rgb(0,0,0);
                    stroke-width:1" />
    </marker>
</defs><line
    stroke-linecap="square"
    x1="729"
    y1="250"
    x2="753"
    y2="250"
    style="stroke:rgb(0, 0,0);
            stroke-width:2;
                marker-end: url(#0,0,0)
            "
/>

<line
    stroke-linecap="square"
    x1="729"
    y1="210"
    x2="753"
    y2="210"
    style="stroke:rgb(0, 0,0);
            stroke-width:2;
                marker-end: url(#0,0,0)
            "
/>

<line
    stroke-linecap="square"
    x1="729"
    y1="360"
    x2="753"
    y2="360"
    style="stroke:rgb(0, 0,0);
            stroke-width:2;
                marker-end: url(#0,0,0)
            "
/>

<line
    stroke-linecap="square"
    x1="729"
    y1="400"
    x2="753"
    y2="400"
    style="stroke:rgb(0, 0,0);
            stroke-width:2;
                marker-end: url(#0,0,0)
            "
/>

<line
    stroke-linecap="square"
    x1="24"
    y1="210"
    x2="46"
    y2="210"
    style="stroke:rgb(0, 0,0);
            stroke-width:2;
"
/>
    <text
        x="27"
        y="203"
        alignment-baseline="middle"
        font-family="Verdana"
        font-size="11"
        fill="black">
    0
    </text>

<line
    stroke-linecap="square"
    x1="46"
    y1="210"
    x2="46"
    y2="405"
    style="stroke:rgb(0, 0,0);
            stroke-width:4;
"
/>

    <circle cx="46" cy="210" r="4" fill="black" />
<line
    stroke-linecap="square"
    x1="46"
    y1="405"
    x2="76"
    y2="405"
    style="stroke:rgb(0, 0,0);
            stroke-width:4;
"
/>

<line
    stroke-linecap="square"
    x1="76"
    y1="405"
    x2="76"
    y2="460"
    style="stroke:rgb(0, 0,0);
            stroke-width:4;
"
/>

    <circle cx="76" cy="405" r="4" fill="black" />
<line
    stroke-linecap="square"
    x1="76"
    y1="460"
    x2="136"
    y2="460"
    style="stroke:rgb(0, 0,0);
            stroke-width:4;
"
/>

    <circle cx="76" cy="460" r="4" fill="black" />
<line
    stroke-linecap="square"
    x1="136"
    y1="460"
    x2="136"
    y2="360"
    style="stroke:rgb(0, 0,0);
            stroke-width:4;
"
/>

<line
    stroke-linecap="square"
    x1="136"
    y1="360"
    x2="158"
    y2="360"
    style="stroke:rgb(0, 0,0);
            stroke-width:2;
                marker-end: url(#0,0,0)
            "
/>
    <text
        x="147"
        y="349"
        alignment-baseline="middle"
        font-family="Verdana"
        font-size="11"
        fill="black">
    0
    </text>

    <circle cx="136" cy="360" r="4" fill="black" />
<line
    stroke-linecap="square"
    x1="24"
    y1="250"
    x2="46"
    y2="250"
    style="stroke:rgb(0, 0,0);
            stroke-width:2;
"
/>
    <text
        x="27"
        y="243"
        alignment-baseline="middle"
        font-family="Verdana"
        font-size="11"
        fill="black">
    1
    </text>

<line
    stroke-linecap="square"
    x1="46"
    y1="250"
    x2="46"
    y2="405"
    style="stroke:rgb(0, 0,0);
            stroke-width:4;
"
/>

    <circle cx="46" cy="250" r="4" fill="black" />
<line
    stroke-linecap="square"
    x1="46"
    y1="405"
    x2="76"
    y2="405"
    style="stroke:rgb(0, 0,0);
            stroke-width:4;
"
/>

<line
    stroke-linecap="square"
    x1="76"
    y1="405"
    x2="76"
    y2="460"
    style="stroke:rgb(0, 0,0);
            stroke-width:4;
"
/>

    <circle cx="76" cy="405" r="4" fill="black" />
<line
    stroke-linecap="square"
    x1="76"
    y1="460"
    x2="136"
    y2="460"
    style="stroke:rgb(0, 0,0);
            stroke-width:4;
"
/>

    <circle cx="76" cy="460" r="4" fill="black" />
<line
    stroke-linecap="square"
    x1="136"
    y1="460"
    x2="136"
    y2="400"
    style="stroke:rgb(0, 0,0);
            stroke-width:4;
"
/>

<line
    stroke-linecap="square"
    x1="136"
    y1="400"
    x2="158"
    y2="400"
    style="stroke:rgb(0, 0,0);
            stroke-width:2;
                marker-end: url(#0,0,0)
            "
/>
    <text
        x="147"
        y="389"
        alignment-baseline="middle"
        font-family="Verdana"
        font-size="11"
        fill="black">
    1
    </text>

    <circle cx="136" cy="400" r="4" fill="black" />
<line
    stroke-linecap="square"
    x1="24"
    y1="440"
    x2="46"
    y2="440"
    style="stroke:rgb(0, 0,0);
            stroke-width:2;
"
/>
    <text
        x="27"
        y="433"
        alignment-baseline="middle"
        font-family="Verdana"
        font-size="11"
        fill="black">
    4
    </text>

<line
    stroke-linecap="square"
    x1="46"
    y1="440"
    x2="46"
    y2="405"
    style="stroke:rgb(0, 0,0);
            stroke-width:4;
"
/>

    <circle cx="46" cy="440" r="4" fill="black" />
<line
    stroke-linecap="square"
    x1="46"
    y1="405"
    x2="76"
    y2="405"
    style="stroke:rgb(0, 0,0);
            stroke-width:4;
"
/>

<line
    stroke-linecap="square"
    x1="76"
    y1="405"
    x2="76"
    y2="460"
    style="stroke:rgb(0, 0,0);
            stroke-width:4;
"
/>

    <circle cx="76" cy="405" r="4" fill="black" />
<line
    stroke-linecap="square"
    x1="76"
    y1="460"
    x2="136"
    y2="460"
    style="stroke:rgb(0, 0,0);
            stroke-width:4;
"
/>

    <circle cx="76" cy="460" r="4" fill="black" />
<line
    stroke-linecap="square"
    x1="136"
    y1="460"
    x2="136"
    y2="440"
    style="stroke:rgb(0, 0,0);
            stroke-width:4;
"
/>

<line
    stroke-linecap="square"
    x1="136"
    y1="440"
    x2="158"
    y2="440"
    style="stroke:rgb(0, 0,0);
            stroke-width:2;
                marker-end: url(#0,0,0)
            "
/>
    <text
        x="147"
        y="429"
        alignment-baseline="middle"
        font-family="Verdana"
        font-size="11"
        fill="black">
    4
    </text>

    <circle cx="136" cy="440" r="4" fill="black" />
<line
    stroke-linecap="square"
    x1="24"
    y1="480"
    x2="46"
    y2="480"
    style="stroke:rgb(0, 0,0);
            stroke-width:2;
"
/>
    <text
        x="27"
        y="473"
        alignment-baseline="middle"
        font-family="Verdana"
        font-size="11"
        fill="black">
    5
    </text>

<line
    stroke-linecap="square"
    x1="46"
    y1="480"
    x2="46"
    y2="405"
    style="stroke:rgb(0, 0,0);
            stroke-width:4;
"
/>

    <circle cx="46" cy="480" r="4" fill="black" />
<line
    stroke-linecap="square"
    x1="46"
    y1="405"
    x2="76"
    y2="405"
    style="stroke:rgb(0, 0,0);
            stroke-width:4;
"
/>

<line
    stroke-linecap="square"
    x1="76"
    y1="405"
    x2="76"
    y2="460"
    style="stroke:rgb(0, 0,0);
            stroke-width:4;
"
/>

    <circle cx="76" cy="405" r="4" fill="black" />
<line
    stroke-linecap="square"
    x1="76"
    y1="460"
    x2="136"
    y2="460"
    style="stroke:rgb(0, 0,0);
            stroke-width:4;
"
/>

    <circle cx="76" cy="460" r="4" fill="black" />
<line
    stroke-linecap="square"
    x1="136"
    y1="460"
    x2="136"
    y2="480"
    style="stroke:rgb(0, 0,0);
            stroke-width:4;
"
/>

<line
    stroke-linecap="square"
    x1="136"
    y1="480"
    x2="158"
    y2="480"
    style="stroke:rgb(0, 0,0);
            stroke-width:2;
                marker-end: url(#0,0,0)
            "
/>
    <text
        x="147"
        y="469"
        alignment-baseline="middle"
        font-family="Verdana"
        font-size="11"
        fill="black">
    5
    </text>

    <circle cx="136" cy="480" r="4" fill="black" />
<line
    stroke-linecap="square"
    x1="24"
    y1="560"
    x2="46"
    y2="560"
    style="stroke:rgb(0, 0,0);
            stroke-width:2;
"
/>
    <text
        x="27"
        y="553"
        alignment-baseline="middle"
        font-family="Verdana"
        font-size="11"
        fill="black">
    6
    </text>

<line
    stroke-linecap="square"
    x1="46"
    y1="560"
    x2="46"
    y2="405"
    style="stroke:rgb(0, 0,0);
            stroke-width:4;
"
/>

    <circle cx="46" cy="560" r="4" fill="black" />
<line
    stroke-linecap="square"
    x1="46"
    y1="405"
    x2="76"
    y2="405"
    style="stroke:rgb(0, 0,0);
            stroke-width:4;
"
/>

<line
    stroke-linecap="square"
    x1="76"
    y1="405"
    x2="76"
    y2="460"
    style="stroke:rgb(0, 0,0);
            stroke-width:4;
"
/>

    <circle cx="76" cy="405" r="4" fill="black" />
<line
    stroke-linecap="square"
    x1="76"
    y1="460"
    x2="136"
    y2="460"
    style="stroke:rgb(0, 0,0);
            stroke-width:4;
"
/>

    <circle cx="76" cy="460" r="4" fill="black" />
<line
    stroke-linecap="square"
    x1="136"
    y1="460"
    x2="136"
    y2="560"
    style="stroke:rgb(0, 0,0);
            stroke-width:4;
"
/>

<line
    stroke-linecap="square"
    x1="136"
    y1="560"
    x2="158"
    y2="560"
    style="stroke:rgb(0, 0,0);
            stroke-width:2;
                marker-end: url(#0,0,0)
            "
/>
    <text
        x="147"
        y="549"
        alignment-baseline="middle"
        font-family="Verdana"
        font-size="11"
        fill="black">
    6
    </text>

    <circle cx="136" cy="560" r="4" fill="black" />
<line
    stroke-linecap="square"
    x1="24"
    y1="210"
    x2="46"
    y2="210"
    style="stroke:rgb(0, 0,0);
            stroke-width:2;
"
/>
    <text
        x="27"
        y="203"
        alignment-baseline="middle"
        font-family="Verdana"
        font-size="11"
        fill="black">
    0
    </text>

<line
    stroke-linecap="square"
    x1="46"
    y1="210"
    x2="46"
    y2="405"
    style="stroke:rgb(0, 0,0);
            stroke-width:4;
"
/>

    <circle cx="46" cy="210" r="4" fill="black" />
<line
    stroke-linecap="square"
    x1="46"
    y1="405"
    x2="76"
    y2="405"
    style="stroke:rgb(0, 0,0);
            stroke-width:4;
"
/>

<line
    stroke-linecap="square"
    x1="76"
    y1="405"
    x2="76"
    y2="250"
    style="stroke:rgb(0, 0,0);
            stroke-width:4;
"
/>

    <circle cx="76" cy="405" r="4" fill="black" />
<line
    stroke-linecap="square"
    x1="76"
    y1="250"
    x2="346"
    y2="250"
    style="stroke:rgb(0, 0,0);
            stroke-width:4;
"
/>

    <circle cx="76" cy="250" r="4" fill="black" />
<line
    stroke-linecap="square"
    x1="346"
    y1="250"
    x2="346"
    y2="250"
    style="stroke:rgb(0, 0,0);
            stroke-width:4;
"
/>

<line
    stroke-linecap="square"
    x1="346"
    y1="250"
    x2="368"
    y2="250"
    style="stroke:rgb(0, 0,0);
            stroke-width:2;
                marker-end: url(#0,0,0)
            "
/>
    <text
        x="357"
        y="239"
        alignment-baseline="middle"
        font-family="Verdana"
        font-size="11"
        fill="black">
    0
    </text>

    <circle cx="346" cy="250" r="4" fill="black" />
<line
    stroke-linecap="square"
    x1="24"
    y1="250"
    x2="46"
    y2="250"
    style="stroke:rgb(0, 0,0);
            stroke-width:2;
"
/>
    <text
        x="27"
        y="243"
        alignment-baseline="middle"
        font-family="Verdana"
        font-size="11"
        fill="black">
    1
    </text>

<line
    stroke-linecap="square"
    x1="46"
    y1="250"
    x2="46"
    y2="405"
    style="stroke:rgb(0, 0,0);
            stroke-width:4;
"
/>

    <circle cx="46" cy="250" r="4" fill="black" />
<line
    stroke-linecap="square"
    x1="46"
    y1="405"
    x2="76"
    y2="405"
    style="stroke:rgb(0, 0,0);
            stroke-width:4;
"
/>

<line
    stroke-linecap="square"
    x1="76"
    y1="405"
    x2="76"
    y2="250"
    style="stroke:rgb(0, 0,0);
            stroke-width:4;
"
/>

    <circle cx="76" cy="405" r="4" fill="black" />
<line
    stroke-linecap="square"
    x1="76"
    y1="250"
    x2="346"
    y2="250"
    style="stroke:rgb(0, 0,0);
            stroke-width:4;
"
/>

    <circle cx="76" cy="250" r="4" fill="black" />
<line
    stroke-linecap="square"
    x1="346"
    y1="250"
    x2="346"
    y2="360"
    style="stroke:rgb(0, 0,0);
            stroke-width:4;
"
/>

<line
    stroke-linecap="square"
    x1="346"
    y1="360"
    x2="368"
    y2="360"
    style="stroke:rgb(0, 0,0);
            stroke-width:2;
                marker-end: url(#0,0,0)
            "
/>
    <text
        x="357"
        y="349"
        alignment-baseline="middle"
        font-family="Verdana"
        font-size="11"
        fill="black">
    1
    </text>

    <circle cx="346" cy="360" r="4" fill="black" />
<line
    stroke-linecap="square"
    x1="24"
    y1="360"
    x2="46"
    y2="360"
    style="stroke:rgb(0, 0,0);
            stroke-width:2;
"
/>
    <text
        x="27"
        y="353"
        alignment-baseline="middle"
        font-family="Verdana"
        font-size="11"
        fill="black">
    2
    </text>

<line
    stroke-linecap="square"
    x1="46"
    y1="360"
    x2="46"
    y2="405"
    style="stroke:rgb(0, 0,0);
            stroke-width:4;
"
/>

    <circle cx="46" cy="360" r="4" fill="black" />
<line
    stroke-linecap="square"
    x1="46"
    y1="405"
    x2="76"
    y2="405"
    style="stroke:rgb(0, 0,0);
            stroke-width:4;
"
/>

<line
    stroke-linecap="square"
    x1="76"
    y1="405"
    x2="76"
    y2="250"
    style="stroke:rgb(0, 0,0);
            stroke-width:4;
"
/>

    <circle cx="76" cy="405" r="4" fill="black" />
<line
    stroke-linecap="square"
    x1="76"
    y1="250"
    x2="346"
    y2="250"
    style="stroke:rgb(0, 0,0);
            stroke-width:4;
"
/>

    <circle cx="76" cy="250" r="4" fill="black" />
<line
    stroke-linecap="square"
    x1="346"
    y1="250"
    x2="346"
    y2="400"
    style="stroke:rgb(0, 0,0);
            stroke-width:4;
"
/>

<line
    stroke-linecap="square"
    x1="346"
    y1="400"
    x2="368"
    y2="400"
    style="stroke:rgb(0, 0,0);
            stroke-width:2;
                marker-end: url(#0,0,0)
            "
/>
    <text
        x="357"
        y="389"
        alignment-baseline="middle"
        font-family="Verdana"
        font-size="11"
        fill="black">
    2
    </text>

    <circle cx="346" cy="400" r="4" fill="black" />
<line
    stroke-linecap="square"
    x1="24"
    y1="400"
    x2="46"
    y2="400"
    style="stroke:rgb(0, 0,0);
            stroke-width:2;
"
/>
    <text
        x="27"
        y="393"
        alignment-baseline="middle"
        font-family="Verdana"
        font-size="11"
        fill="black">
    3
    </text>

<line
    stroke-linecap="square"
    x1="46"
    y1="400"
    x2="46"
    y2="405"
    style="stroke:rgb(0, 0,0);
            stroke-width:4;
"
/>

    <circle cx="46" cy="400" r="4" fill="black" />
<line
    stroke-linecap="square"
    x1="46"
    y1="405"
    x2="76"
    y2="405"
    style="stroke:rgb(0, 0,0);
            stroke-width:4;
"
/>

<line
    stroke-linecap="square"
    x1="76"
    y1="405"
    x2="76"
    y2="250"
    style="stroke:rgb(0, 0,0);
            stroke-width:4;
"
/>

    <circle cx="76" cy="405" r="4" fill="black" />
<line
    stroke-linecap="square"
    x1="76"
    y1="250"
    x2="346"
    y2="250"
    style="stroke:rgb(0, 0,0);
            stroke-width:4;
"
/>

    <circle cx="76" cy="250" r="4" fill="black" />
<line
    stroke-linecap="square"
    x1="346"
    y1="250"
    x2="346"
    y2="440"
    style="stroke:rgb(0, 0,0);
            stroke-width:4;
"
/>

<line
    stroke-linecap="square"
    x1="346"
    y1="440"
    x2="368"
    y2="440"
    style="stroke:rgb(0, 0,0);
            stroke-width:2;
                marker-end: url(#0,0,0)
            "
/>
    <text
        x="357"
        y="429"
        alignment-baseline="middle"
        font-family="Verdana"
        font-size="11"
        fill="black">
    3
    </text>

    <circle cx="346" cy="440" r="4" fill="black" />
<line
    stroke-linecap="square"
    x1="294"
    y1="560"
    x2="368"
    y2="560"
    style="stroke:rgb(0, 0,0);
            stroke-width:2;
                marker-end: url(#0,0,0)
            "
/>

<line
    stroke-linecap="square"
    x1="294"
    y1="480"
    x2="368"
    y2="480"
    style="stroke:rgb(0, 0,0);
            stroke-width:2;
                marker-end: url(#0,0,0)
            "
/>

<line
    stroke-linecap="square"
    x1="294"
    y1="520"
    x2="368"
    y2="520"
    style="stroke:rgb(0, 0,0);
            stroke-width:2;
                marker-end: url(#0,0,0)
            "
/>

<defs>
    <!-- Small box indicating a port -->
    <rect id="port" x="0" y="0" width="16" height="16"
          style="fill:white;stroke:rgb(0,0,0);stroke-width:1;fill-opacity:1.0;stroke-opacity:1.0"/>
</defs><use x="713" y="242" xlink:href="#port" />
<text text-anchor="end" alignment-baseline="middle" x="710" y="252" transform="rotate(0,710,252)" style="font-weight: regular" font-family="Verdana" font-size="9" fill="black">

</text>

<use x="753" y="242" xlink:href="#port" />
<text text-anchor="start" alignment-baseline="middle" x="773" y="252" transform="rotate(0,773,252)" style="font-weight: regular" font-family="Verdana" font-size="9" fill="black">

</text>

<use x="713" y="202" xlink:href="#port" />
<text text-anchor="end" alignment-baseline="middle" x="710" y="212" transform="rotate(0,710,212)" style="font-weight: regular" font-family="Verdana" font-size="9" fill="black">

</text>

<use x="753" y="202" xlink:href="#port" />
<text text-anchor="start" alignment-baseline="middle" x="773" y="212" transform="rotate(0,773,212)" style="font-weight: regular" font-family="Verdana" font-size="9" fill="black">

</text>

<use x="713" y="352" xlink:href="#port" />
<text text-anchor="end" alignment-baseline="middle" x="710" y="362" transform="rotate(0,710,362)" style="font-weight: regular" font-family="Verdana" font-size="9" fill="black">

</text>

<use x="753" y="352" xlink:href="#port" />
<text text-anchor="start" alignment-baseline="middle" x="773" y="362" transform="rotate(0,773,362)" style="font-weight: regular" font-family="Verdana" font-size="9" fill="black">

</text>

<use x="713" y="392" xlink:href="#port" />
<text text-anchor="end" alignment-baseline="middle" x="710" y="402" transform="rotate(0,710,402)" style="font-weight: regular" font-family="Verdana" font-size="9" fill="black">

</text>

<use x="753" y="392" xlink:href="#port" />
<text text-anchor="start" alignment-baseline="middle" x="773" y="402" transform="rotate(0,773,402)" style="font-weight: regular" font-family="Verdana" font-size="9" fill="black">

</text>

<use x="8" y="202" xlink:href="#port" />
<text text-anchor="end" alignment-baseline="middle" x="4" y="212" transform="rotate(0,4,212)" style="font-weight: regular" font-family="Verdana" font-size="9" fill="black">

</text>

<use x="158" y="352" xlink:href="#port" />
<text text-anchor="start" alignment-baseline="middle" x="177" y="362" transform="rotate(0,177,362)" style="font-weight: regular" font-family="Verdana" font-size="9" fill="black">

</text>

<use x="8" y="242" xlink:href="#port" />
<text text-anchor="end" alignment-baseline="middle" x="4" y="252" transform="rotate(0,4,252)" style="font-weight: regular" font-family="Verdana" font-size="9" fill="black">

</text>

<use x="158" y="392" xlink:href="#port" />
<text text-anchor="start" alignment-baseline="middle" x="177" y="402" transform="rotate(0,177,402)" style="font-weight: regular" font-family="Verdana" font-size="9" fill="black">

</text>

<use x="8" y="432" xlink:href="#port" />
<text text-anchor="end" alignment-baseline="middle" x="4" y="442" transform="rotate(0,4,442)" style="font-weight: regular" font-family="Verdana" font-size="9" fill="black">

</text>

<use x="158" y="432" xlink:href="#port" />
<text text-anchor="start" alignment-baseline="middle" x="177" y="442" transform="rotate(0,177,442)" style="font-weight: regular" font-family="Verdana" font-size="9" fill="black">

</text>

<use x="8" y="472" xlink:href="#port" />
<text text-anchor="end" alignment-baseline="middle" x="4" y="482" transform="rotate(0,4,482)" style="font-weight: regular" font-family="Verdana" font-size="9" fill="black">

</text>

<use x="158" y="472" xlink:href="#port" />
<text text-anchor="start" alignment-baseline="middle" x="177" y="482" transform="rotate(0,177,482)" style="font-weight: regular" font-family="Verdana" font-size="9" fill="black">

</text>

<use x="8" y="552" xlink:href="#port" />
<text text-anchor="end" alignment-baseline="middle" x="4" y="562" transform="rotate(0,4,562)" style="font-weight: regular" font-family="Verdana" font-size="9" fill="black">

</text>

<use x="158" y="552" xlink:href="#port" />
<text text-anchor="start" alignment-baseline="middle" x="177" y="562" transform="rotate(0,177,562)" style="font-weight: regular" font-family="Verdana" font-size="9" fill="black">

</text>

<use x="8" y="202" xlink:href="#port" />
<text text-anchor="end" alignment-baseline="middle" x="4" y="212" transform="rotate(0,4,212)" style="font-weight: regular" font-family="Verdana" font-size="9" fill="black">

</text>

<use x="368" y="242" xlink:href="#port" />
<text text-anchor="start" alignment-baseline="middle" x="387" y="252" transform="rotate(0,387,252)" style="font-weight: regular" font-family="Verdana" font-size="9" fill="black">

</text>

<use x="8" y="242" xlink:href="#port" />
<text text-anchor="end" alignment-baseline="middle" x="4" y="252" transform="rotate(0,4,252)" style="font-weight: regular" font-family="Verdana" font-size="9" fill="black">

</text>

<use x="368" y="352" xlink:href="#port" />
<text text-anchor="start" alignment-baseline="middle" x="387" y="362" transform="rotate(0,387,362)" style="font-weight: regular" font-family="Verdana" font-size="9" fill="black">

</text>

<use x="8" y="352" xlink:href="#port" />
<text text-anchor="end" alignment-baseline="middle" x="4" y="362" transform="rotate(0,4,362)" style="font-weight: regular" font-family="Verdana" font-size="9" fill="black">

</text>

<use x="368" y="392" xlink:href="#port" />
<text text-anchor="start" alignment-baseline="middle" x="387" y="402" transform="rotate(0,387,402)" style="font-weight: regular" font-family="Verdana" font-size="9" fill="black">

</text>

<use x="8" y="392" xlink:href="#port" />
<text text-anchor="end" alignment-baseline="middle" x="4" y="402" transform="rotate(0,4,402)" style="font-weight: regular" font-family="Verdana" font-size="9" fill="black">

</text>

<use x="368" y="432" xlink:href="#port" />
<text text-anchor="start" alignment-baseline="middle" x="387" y="442" transform="rotate(0,387,442)" style="font-weight: regular" font-family="Verdana" font-size="9" fill="black">

</text>

<use x="278" y="552" xlink:href="#port" />
<text text-anchor="end" alignment-baseline="middle" x="275" y="562" transform="rotate(0,275,562)" style="font-weight: regular" font-family="Verdana" font-size="9" fill="black">

</text>

<use x="368" y="552" xlink:href="#port" />
<text text-anchor="start" alignment-baseline="middle" x="387" y="562" transform="rotate(0,387,562)" style="font-weight: regular" font-family="Verdana" font-size="9" fill="black">

</text>

<use x="278" y="472" xlink:href="#port" />
<text text-anchor="end" alignment-baseline="middle" x="275" y="482" transform="rotate(0,275,482)" style="font-weight: regular" font-family="Verdana" font-size="9" fill="black">

</text>

<use x="368" y="472" xlink:href="#port" />
<text text-anchor="start" alignment-baseline="middle" x="387" y="482" transform="rotate(0,387,482)" style="font-weight: regular" font-family="Verdana" font-size="9" fill="black">

</text>

<use x="278" y="512" xlink:href="#port" />
<text text-anchor="end" alignment-baseline="middle" x="275" y="522" transform="rotate(0,275,522)" style="font-weight: regular" font-family="Verdana" font-size="9" fill="black">

</text>

<use x="368" y="512" xlink:href="#port" />
<text text-anchor="start" alignment-baseline="middle" x="387" y="522" transform="rotate(0,387,522)" style="font-weight: regular" font-family="Verdana" font-size="9" fill="black">

</text>


</svg>