<svg width="100%" height="100%" xmlns="http://www.w3.org/2000/svg" version="1.1" xmlns:xlink="http://www.w3.org/1999/xlink">
    <svg xmlns="http://www.w3.org/2000/svg" version="1.1">

<!-- Canvas: environment -->
<g transform="translate(16 20)">

    <rect
        id="1450"
        width="526"
        height="347"
        style="fill:white;stroke:black;stroke-width:2;fill-opacity:1.0;stroke-opacity:1.0"/>

    <text
        x="8"
        y="20"
        style="font-weight: bold"
        font-family="Verdana"
        font-size="13"
        fill="black">
            environment
    </text>

</g>

</svg><!-- Component: physicsSimulation -->
<g transform="translate(66 52)">
    <rect
        data-name="testManuelSchrick.pumpStationExample.pumpStation.environment.physicsSimulation"
        id="1451"
        width="147"
        height="295"
        style="
                fill:white;
            stroke:black;
            stroke-width:2;
            fill-opacity:1.0;
            stroke-opacity:1.0"
        onmouseout="this.style.stroke = '#000000'; this.style['stroke-width'] = 2; this.style.cursor='default';"
    />

    <text
        x="10"
        y="15"
        alignment-baseline="middle"
        style="font-weight: bold"
        font-family="Verdana"
        font-size="11"
        fill="black">
    physicsSimulation
    </text>
</g><!-- Component: simulationPanel -->
<g transform="translate(363 52)">
    <rect
        data-name="testManuelSchrick.pumpStationExample.pumpStation.environment.simulationPanel"
        id="1452"
        width="129"
        height="175"
        style="
                fill:white;
            stroke:black;
            stroke-width:2;
            fill-opacity:1.0;
            stroke-opacity:1.0"
        onmouseout="this.style.stroke = '#000000'; this.style['stroke-width'] = 2; this.style.cursor='default';"
    />

    <text
        x="10"
        y="15"
        alignment-baseline="middle"
        style="font-weight: bold"
        font-family="Verdana"
        font-size="11"
        fill="black">
    simulationPanel
    </text>
</g><defs>
    <marker id="0,0,0" markerWidth="13" markerHeight="13" refX="5" refY="5" orient="auto">
            <polyline points="0,2 5,5 0,8" style="fill:none; stroke:rgb(0,0,0);
                    stroke-width:1" />
    </marker>
</defs><line
    stroke-linecap="square"
    x1="221"
    y1="247"
    x2="243"
    y2="247"
    style="stroke:rgb(0, 0,0);
            stroke-width:2;
"
/>
    <text
        x="224"
        y="240"
        alignment-baseline="middle"
        font-family="Verdana"
        font-size="11"
        fill="black">
    1
    </text>

<line
    stroke-linecap="square"
    x1="243"
    y1="247"
    x2="243"
    y2="237"
    style="stroke:rgb(0, 0,0);
            stroke-width:4;
"
/>

    <circle cx="243" cy="247" r="4" fill="black" />
<line
    stroke-linecap="square"
    x1="243"
    y1="237"
    x2="273"
    y2="237"
    style="stroke:rgb(0, 0,0);
            stroke-width:4;
"
/>

<line
    stroke-linecap="square"
    x1="273"
    y1="237"
    x2="273"
    y2="287"
    style="stroke:rgb(0, 0,0);
            stroke-width:4;
"
/>

    <circle cx="273" cy="237" r="4" fill="black" />
<line
    stroke-linecap="square"
    x1="273"
    y1="287"
    x2="492"
    y2="287"
    style="stroke:rgb(0, 0,0);
            stroke-width:4;
"
/>

    <circle cx="273" cy="287" r="4" fill="black" />
<line
    stroke-linecap="square"
    x1="492"
    y1="287"
    x2="492"
    y2="247"
    style="stroke:rgb(0, 0,0);
            stroke-width:4;
"
/>

<line
    stroke-linecap="square"
    x1="492"
    y1="247"
    x2="534"
    y2="247"
    style="stroke:rgb(0, 0,0);
            stroke-width:2;
                marker-end: url(#0,0,0)
            "
/>
    <text
        x="523"
        y="236"
        alignment-baseline="middle"
        font-family="Verdana"
        font-size="11"
        fill="black">
    1
    </text>

    <circle cx="492" cy="247" r="4" fill="black" />
<line
    stroke-linecap="square"
    x1="221"
    y1="287"
    x2="243"
    y2="287"
    style="stroke:rgb(0, 0,0);
            stroke-width:2;
"
/>
    <text
        x="224"
        y="280"
        alignment-baseline="middle"
        font-family="Verdana"
        font-size="11"
        fill="black">
    2
    </text>

<line
    stroke-linecap="square"
    x1="243"
    y1="287"
    x2="243"
    y2="237"
    style="stroke:rgb(0, 0,0);
            stroke-width:4;
"
/>

    <circle cx="243" cy="287" r="4" fill="black" />
<line
    stroke-linecap="square"
    x1="243"
    y1="237"
    x2="273"
    y2="237"
    style="stroke:rgb(0, 0,0);
            stroke-width:4;
"
/>

<line
    stroke-linecap="square"
    x1="273"
    y1="237"
    x2="273"
    y2="287"
    style="stroke:rgb(0, 0,0);
            stroke-width:4;
"
/>

    <circle cx="273" cy="237" r="4" fill="black" />
<line
    stroke-linecap="square"
    x1="273"
    y1="287"
    x2="492"
    y2="287"
    style="stroke:rgb(0, 0,0);
            stroke-width:4;
"
/>

    <circle cx="273" cy="287" r="4" fill="black" />
<line
    stroke-linecap="square"
    x1="492"
    y1="287"
    x2="492"
    y2="287"
    style="stroke:rgb(0, 0,0);
            stroke-width:4;
"
/>

<line
    stroke-linecap="square"
    x1="492"
    y1="287"
    x2="534"
    y2="287"
    style="stroke:rgb(0, 0,0);
            stroke-width:2;
                marker-end: url(#0,0,0)
            "
/>
    <text
        x="523"
        y="276"
        alignment-baseline="middle"
        font-family="Verdana"
        font-size="11"
        fill="black">
    2
    </text>

    <circle cx="492" cy="287" r="4" fill="black" />
<line
    stroke-linecap="square"
    x1="221"
    y1="327"
    x2="243"
    y2="327"
    style="stroke:rgb(0, 0,0);
            stroke-width:2;
"
/>
    <text
        x="224"
        y="320"
        alignment-baseline="middle"
        font-family="Verdana"
        font-size="11"
        fill="black">
    3
    </text>

<line
    stroke-linecap="square"
    x1="243"
    y1="327"
    x2="243"
    y2="237"
    style="stroke:rgb(0, 0,0);
            stroke-width:4;
"
/>

    <circle cx="243" cy="327" r="4" fill="black" />
<line
    stroke-linecap="square"
    x1="243"
    y1="237"
    x2="273"
    y2="237"
    style="stroke:rgb(0, 0,0);
            stroke-width:4;
"
/>

<line
    stroke-linecap="square"
    x1="273"
    y1="237"
    x2="273"
    y2="287"
    style="stroke:rgb(0, 0,0);
            stroke-width:4;
"
/>

    <circle cx="273" cy="237" r="4" fill="black" />
<line
    stroke-linecap="square"
    x1="273"
    y1="287"
    x2="492"
    y2="287"
    style="stroke:rgb(0, 0,0);
            stroke-width:4;
"
/>

    <circle cx="273" cy="287" r="4" fill="black" />
<line
    stroke-linecap="square"
    x1="492"
    y1="287"
    x2="492"
    y2="327"
    style="stroke:rgb(0, 0,0);
            stroke-width:4;
"
/>

<line
    stroke-linecap="square"
    x1="492"
    y1="327"
    x2="534"
    y2="327"
    style="stroke:rgb(0, 0,0);
            stroke-width:2;
                marker-end: url(#0,0,0)
            "
/>
    <text
        x="523"
        y="316"
        alignment-baseline="middle"
        font-family="Verdana"
        font-size="11"
        fill="black">
    3
    </text>

    <circle cx="492" cy="327" r="4" fill="black" />
<line
    stroke-linecap="square"
    x1="500"
    y1="87"
    x2="534"
    y2="87"
    style="stroke:rgb(0, 0,0);
            stroke-width:2;
                marker-end: url(#0,0,0)
            "
/>

<line
    stroke-linecap="square"
    x1="24"
    y1="87"
    x2="58"
    y2="87"
    style="stroke:rgb(0, 0,0);
            stroke-width:2;
                marker-end: url(#0,0,0)
            "
/>

<line
    stroke-linecap="square"
    x1="24"
    y1="247"
    x2="58"
    y2="247"
    style="stroke:rgb(0, 0,0);
            stroke-width:2;
                marker-end: url(#0,0,0)
            "
/>

<line
    stroke-linecap="square"
    x1="24"
    y1="287"
    x2="58"
    y2="287"
    style="stroke:rgb(0, 0,0);
            stroke-width:2;
                marker-end: url(#0,0,0)
            "
/>

<line
    stroke-linecap="square"
    x1="221"
    y1="87"
    x2="243"
    y2="87"
    style="stroke:rgb(0, 0,0);
            stroke-width:2;
"
/>
    <text
        x="224"
        y="80"
        alignment-baseline="middle"
        font-family="Verdana"
        font-size="11"
        fill="black">
    0
    </text>

<line
    stroke-linecap="square"
    x1="243"
    y1="87"
    x2="243"
    y2="237"
    style="stroke:rgb(0, 0,0);
            stroke-width:4;
"
/>

    <circle cx="243" cy="87" r="4" fill="black" />
<line
    stroke-linecap="square"
    x1="243"
    y1="237"
    x2="273"
    y2="237"
    style="stroke:rgb(0, 0,0);
            stroke-width:4;
"
/>

<line
    stroke-linecap="square"
    x1="273"
    y1="237"
    x2="273"
    y2="147"
    style="stroke:rgb(0, 0,0);
            stroke-width:4;
"
/>

    <circle cx="273" cy="237" r="4" fill="black" />
<line
    stroke-linecap="square"
    x1="273"
    y1="147"
    x2="333"
    y2="147"
    style="stroke:rgb(0, 0,0);
            stroke-width:4;
"
/>

    <circle cx="273" cy="147" r="4" fill="black" />
<line
    stroke-linecap="square"
    x1="333"
    y1="147"
    x2="333"
    y2="87"
    style="stroke:rgb(0, 0,0);
            stroke-width:4;
"
/>

<line
    stroke-linecap="square"
    x1="333"
    y1="87"
    x2="355"
    y2="87"
    style="stroke:rgb(0, 0,0);
            stroke-width:2;
                marker-end: url(#0,0,0)
            "
/>
    <text
        x="344"
        y="76"
        alignment-baseline="middle"
        font-family="Verdana"
        font-size="11"
        fill="black">
    0
    </text>

    <circle cx="333" cy="87" r="4" fill="black" />
<line
    stroke-linecap="square"
    x1="221"
    y1="247"
    x2="243"
    y2="247"
    style="stroke:rgb(0, 0,0);
            stroke-width:2;
"
/>
    <text
        x="224"
        y="240"
        alignment-baseline="middle"
        font-family="Verdana"
        font-size="11"
        fill="black">
    1
    </text>

<line
    stroke-linecap="square"
    x1="243"
    y1="247"
    x2="243"
    y2="237"
    style="stroke:rgb(0, 0,0);
            stroke-width:4;
"
/>

    <circle cx="243" cy="247" r="4" fill="black" />
<line
    stroke-linecap="square"
    x1="243"
    y1="237"
    x2="273"
    y2="237"
    style="stroke:rgb(0, 0,0);
            stroke-width:4;
"
/>

<line
    stroke-linecap="square"
    x1="273"
    y1="237"
    x2="273"
    y2="147"
    style="stroke:rgb(0, 0,0);
            stroke-width:4;
"
/>

    <circle cx="273" cy="237" r="4" fill="black" />
<line
    stroke-linecap="square"
    x1="273"
    y1="147"
    x2="333"
    y2="147"
    style="stroke:rgb(0, 0,0);
            stroke-width:4;
"
/>

    <circle cx="273" cy="147" r="4" fill="black" />
<line
    stroke-linecap="square"
    x1="333"
    y1="147"
    x2="333"
    y2="127"
    style="stroke:rgb(0, 0,0);
            stroke-width:4;
"
/>

<line
    stroke-linecap="square"
    x1="333"
    y1="127"
    x2="355"
    y2="127"
    style="stroke:rgb(0, 0,0);
            stroke-width:2;
                marker-end: url(#0,0,0)
            "
/>
    <text
        x="344"
        y="116"
        alignment-baseline="middle"
        font-family="Verdana"
        font-size="11"
        fill="black">
    1
    </text>

    <circle cx="333" cy="127" r="4" fill="black" />
<line
    stroke-linecap="square"
    x1="221"
    y1="287"
    x2="243"
    y2="287"
    style="stroke:rgb(0, 0,0);
            stroke-width:2;
"
/>
    <text
        x="224"
        y="280"
        alignment-baseline="middle"
        font-family="Verdana"
        font-size="11"
        fill="black">
    2
    </text>

<line
    stroke-linecap="square"
    x1="243"
    y1="287"
    x2="243"
    y2="237"
    style="stroke:rgb(0, 0,0);
            stroke-width:4;
"
/>

    <circle cx="243" cy="287" r="4" fill="black" />
<line
    stroke-linecap="square"
    x1="243"
    y1="237"
    x2="273"
    y2="237"
    style="stroke:rgb(0, 0,0);
            stroke-width:4;
"
/>

<line
    stroke-linecap="square"
    x1="273"
    y1="237"
    x2="273"
    y2="147"
    style="stroke:rgb(0, 0,0);
            stroke-width:4;
"
/>

    <circle cx="273" cy="237" r="4" fill="black" />
<line
    stroke-linecap="square"
    x1="273"
    y1="147"
    x2="333"
    y2="147"
    style="stroke:rgb(0, 0,0);
            stroke-width:4;
"
/>

    <circle cx="273" cy="147" r="4" fill="black" />
<line
    stroke-linecap="square"
    x1="333"
    y1="147"
    x2="333"
    y2="167"
    style="stroke:rgb(0, 0,0);
            stroke-width:4;
"
/>

<line
    stroke-linecap="square"
    x1="333"
    y1="167"
    x2="355"
    y2="167"
    style="stroke:rgb(0, 0,0);
            stroke-width:2;
                marker-end: url(#0,0,0)
            "
/>
    <text
        x="344"
        y="156"
        alignment-baseline="middle"
        font-family="Verdana"
        font-size="11"
        fill="black">
    2
    </text>

    <circle cx="333" cy="167" r="4" fill="black" />
<line
    stroke-linecap="square"
    x1="221"
    y1="327"
    x2="243"
    y2="327"
    style="stroke:rgb(0, 0,0);
            stroke-width:2;
"
/>
    <text
        x="224"
        y="320"
        alignment-baseline="middle"
        font-family="Verdana"
        font-size="11"
        fill="black">
    3
    </text>

<line
    stroke-linecap="square"
    x1="243"
    y1="327"
    x2="243"
    y2="237"
    style="stroke:rgb(0, 0,0);
            stroke-width:4;
"
/>

    <circle cx="243" cy="327" r="4" fill="black" />
<line
    stroke-linecap="square"
    x1="243"
    y1="237"
    x2="273"
    y2="237"
    style="stroke:rgb(0, 0,0);
            stroke-width:4;
"
/>

<line
    stroke-linecap="square"
    x1="273"
    y1="237"
    x2="273"
    y2="147"
    style="stroke:rgb(0, 0,0);
            stroke-width:4;
"
/>

    <circle cx="273" cy="237" r="4" fill="black" />
<line
    stroke-linecap="square"
    x1="273"
    y1="147"
    x2="333"
    y2="147"
    style="stroke:rgb(0, 0,0);
            stroke-width:4;
"
/>

    <circle cx="273" cy="147" r="4" fill="black" />
<line
    stroke-linecap="square"
    x1="333"
    y1="147"
    x2="333"
    y2="207"
    style="stroke:rgb(0, 0,0);
            stroke-width:4;
"
/>

<line
    stroke-linecap="square"
    x1="333"
    y1="207"
    x2="355"
    y2="207"
    style="stroke:rgb(0, 0,0);
            stroke-width:2;
                marker-end: url(#0,0,0)
            "
/>
    <text
        x="344"
        y="196"
        alignment-baseline="middle"
        font-family="Verdana"
        font-size="11"
        fill="black">
    3
    </text>

    <circle cx="333" cy="207" r="4" fill="black" />
<defs>
    <!-- Small box indicating a port -->
    <rect id="port" x="0" y="0" width="16" height="16"
          style="fill:white;stroke:rgb(0,0,0);stroke-width:1;fill-opacity:1.0;stroke-opacity:1.0"/>
</defs><use x="205" y="239" xlink:href="#port" />
<text text-anchor="end" alignment-baseline="middle" x="202" y="249" transform="rotate(0,202,249)" style="font-weight: regular" font-family="Verdana" font-size="9" fill="black">

</text>

<use x="534" y="239" xlink:href="#port" />
<text text-anchor="start" alignment-baseline="middle" x="554" y="249" transform="rotate(0,554,249)" style="font-weight: regular" font-family="Verdana" font-size="9" fill="black">

</text>

<use x="205" y="279" xlink:href="#port" />
<text text-anchor="end" alignment-baseline="middle" x="202" y="289" transform="rotate(0,202,289)" style="font-weight: regular" font-family="Verdana" font-size="9" fill="black">

</text>

<use x="534" y="279" xlink:href="#port" />
<text text-anchor="start" alignment-baseline="middle" x="554" y="289" transform="rotate(0,554,289)" style="font-weight: regular" font-family="Verdana" font-size="9" fill="black">

</text>

<use x="205" y="319" xlink:href="#port" />
<text text-anchor="end" alignment-baseline="middle" x="202" y="329" transform="rotate(0,202,329)" style="font-weight: regular" font-family="Verdana" font-size="9" fill="black">

</text>

<use x="534" y="319" xlink:href="#port" />
<text text-anchor="start" alignment-baseline="middle" x="554" y="329" transform="rotate(0,554,329)" style="font-weight: regular" font-family="Verdana" font-size="9" fill="black">

</text>

<use x="484" y="79" xlink:href="#port" />
<text text-anchor="end" alignment-baseline="middle" x="481" y="89" transform="rotate(0,481,89)" style="font-weight: regular" font-family="Verdana" font-size="9" fill="black">

</text>

<use x="534" y="79" xlink:href="#port" />
<text text-anchor="start" alignment-baseline="middle" x="554" y="89" transform="rotate(0,554,89)" style="font-weight: regular" font-family="Verdana" font-size="9" fill="black">

</text>

<use x="8" y="79" xlink:href="#port" />
<text text-anchor="end" alignment-baseline="middle" x="4" y="89" transform="rotate(0,4,89)" style="font-weight: regular" font-family="Verdana" font-size="9" fill="black">

</text>

<use x="58" y="79" xlink:href="#port" />
<text text-anchor="start" alignment-baseline="middle" x="77" y="89" transform="rotate(0,77,89)" style="font-weight: regular" font-family="Verdana" font-size="9" fill="black">

</text>

<use x="8" y="239" xlink:href="#port" />
<text text-anchor="end" alignment-baseline="middle" x="4" y="249" transform="rotate(0,4,249)" style="font-weight: regular" font-family="Verdana" font-size="9" fill="black">

</text>

<use x="58" y="239" xlink:href="#port" />
<text text-anchor="start" alignment-baseline="middle" x="77" y="249" transform="rotate(0,77,249)" style="font-weight: regular" font-family="Verdana" font-size="9" fill="black">

</text>

<use x="8" y="279" xlink:href="#port" />
<text text-anchor="end" alignment-baseline="middle" x="4" y="289" transform="rotate(0,4,289)" style="font-weight: regular" font-family="Verdana" font-size="9" fill="black">

</text>

<use x="58" y="279" xlink:href="#port" />
<text text-anchor="start" alignment-baseline="middle" x="77" y="289" transform="rotate(0,77,289)" style="font-weight: regular" font-family="Verdana" font-size="9" fill="black">

</text>

<use x="205" y="79" xlink:href="#port" />
<text text-anchor="end" alignment-baseline="middle" x="202" y="89" transform="rotate(0,202,89)" style="font-weight: regular" font-family="Verdana" font-size="9" fill="black">

</text>

<use x="355" y="79" xlink:href="#port" />
<text text-anchor="start" alignment-baseline="middle" x="374" y="89" transform="rotate(0,374,89)" style="font-weight: regular" font-family="Verdana" font-size="9" fill="black">

</text>

<use x="205" y="239" xlink:href="#port" />
<text text-anchor="end" alignment-baseline="middle" x="202" y="249" transform="rotate(0,202,249)" style="font-weight: regular" font-family="Verdana" font-size="9" fill="black">

</text>

<use x="355" y="119" xlink:href="#port" />
<text text-anchor="start" alignment-baseline="middle" x="374" y="129" transform="rotate(0,374,129)" style="font-weight: regular" font-family="Verdana" font-size="9" fill="black">

</text>

<use x="205" y="279" xlink:href="#port" />
<text text-anchor="end" alignment-baseline="middle" x="202" y="289" transform="rotate(0,202,289)" style="font-weight: regular" font-family="Verdana" font-size="9" fill="black">

</text>

<use x="355" y="159" xlink:href="#port" />
<text text-anchor="start" alignment-baseline="middle" x="374" y="169" transform="rotate(0,374,169)" style="font-weight: regular" font-family="Verdana" font-size="9" fill="black">

</text>

<use x="205" y="319" xlink:href="#port" />
<text text-anchor="end" alignment-baseline="middle" x="202" y="329" transform="rotate(0,202,329)" style="font-weight: regular" font-family="Verdana" font-size="9" fill="black">

</text>

<use x="355" y="199" xlink:href="#port" />
<text text-anchor="start" alignment-baseline="middle" x="374" y="209" transform="rotate(0,374,209)" style="font-weight: regular" font-family="Verdana" font-size="9" fill="black">

</text>


</svg>