<svg width="100%" height="100%" xmlns="http://www.w3.org/2000/svg" version="1.1" xmlns:xlink="http://www.w3.org/1999/xlink">
    <svg xmlns="http://www.w3.org/2000/svg" version="1.1">

<!-- Canvas: environment -->
<g transform="translate(106 20)">

    <rect
        id="1427"
        width="526"
        height="347"
        style="fill:white;stroke:black;stroke-width:2;fill-opacity:1.0;stroke-opacity:1.0"/>

    <text
        x="8"
        y="20"
        style="font-weight: bold"
        font-family="Verdana"
        font-size="13"
        fill="black">
            environment
    </text>

</g>

</svg><!-- Component: physicsSimulation -->
<g transform="translate(156 52)">
    <rect
        data-name="testManuelSchrick.pumpStationExample.pumpStation.environment.physicsSimulation"
        id="1428"
        width="147"
        height="295"
        style="
                fill:white;
            stroke:black;
            stroke-width:2;
            fill-opacity:1.0;
            stroke-opacity:1.0"
        onmouseout="this.style.stroke = '#000000'; this.style['stroke-width'] = 2; this.style.cursor='default';"
    />

    <text
        x="10"
        y="15"
        alignment-baseline="middle"
        style="font-weight: bold"
        font-family="Verdana"
        font-size="11"
        fill="black">
    physicsSimulation
    </text>
</g><!-- Component: simulationPanel -->
<g transform="translate(453 52)">
    <rect
        data-name="testManuelSchrick.pumpStationExample.pumpStation.environment.simulationPanel"
        id="1429"
        width="129"
        height="175"
        style="
                fill:white;
            stroke:black;
            stroke-width:2;
            fill-opacity:1.0;
            stroke-opacity:1.0"
        onmouseout="this.style.stroke = '#000000'; this.style['stroke-width'] = 2; this.style.cursor='default';"
    />

    <text
        x="10"
        y="15"
        alignment-baseline="middle"
        style="font-weight: bold"
        font-family="Verdana"
        font-size="11"
        fill="black">
    simulationPanel
    </text>
</g><defs>
    <marker id="0,0,0" markerWidth="13" markerHeight="13" refX="5" refY="5" orient="auto">
            <polyline points="0,2 5,5 0,8" style="fill:none; stroke:rgb(0,0,0);
                    stroke-width:1" />
    </marker>
</defs><line
    stroke-linecap="square"
    x1="311"
    y1="247"
    x2="333"
    y2="247"
    style="stroke:rgb(0, 0,0);
            stroke-width:2;
"
/>
    <text
        x="314"
        y="240"
        alignment-baseline="middle"
        font-family="Verdana"
        font-size="11"
        fill="black">
    1
    </text>

<line
    stroke-linecap="square"
    x1="333"
    y1="247"
    x2="333"
    y2="237"
    style="stroke:rgb(0, 0,0);
            stroke-width:4;
"
/>

    <circle cx="333" cy="247" r="4" fill="black" />
<line
    stroke-linecap="square"
    x1="333"
    y1="237"
    x2="363"
    y2="237"
    style="stroke:rgb(0, 0,0);
            stroke-width:4;
"
/>

<line
    stroke-linecap="square"
    x1="363"
    y1="237"
    x2="363"
    y2="287"
    style="stroke:rgb(0, 0,0);
            stroke-width:4;
"
/>

    <circle cx="363" cy="237" r="4" fill="black" />
<line
    stroke-linecap="square"
    x1="363"
    y1="287"
    x2="582"
    y2="287"
    style="stroke:rgb(0, 0,0);
            stroke-width:4;
"
/>

    <circle cx="363" cy="287" r="4" fill="black" />
<line
    stroke-linecap="square"
    x1="582"
    y1="287"
    x2="582"
    y2="247"
    style="stroke:rgb(0, 0,0);
            stroke-width:4;
"
/>

<line
    stroke-linecap="square"
    x1="582"
    y1="247"
    x2="624"
    y2="247"
    style="stroke:rgb(0, 0,0);
            stroke-width:2;
                marker-end: url(#0,0,0)
            "
/>
    <text
        x="613"
        y="236"
        alignment-baseline="middle"
        font-family="Verdana"
        font-size="11"
        fill="black">
    1
    </text>

    <circle cx="582" cy="247" r="4" fill="black" />
<line
    stroke-linecap="square"
    x1="311"
    y1="287"
    x2="333"
    y2="287"
    style="stroke:rgb(0, 0,0);
            stroke-width:2;
"
/>
    <text
        x="314"
        y="280"
        alignment-baseline="middle"
        font-family="Verdana"
        font-size="11"
        fill="black">
    2
    </text>

<line
    stroke-linecap="square"
    x1="333"
    y1="287"
    x2="333"
    y2="237"
    style="stroke:rgb(0, 0,0);
            stroke-width:4;
"
/>

    <circle cx="333" cy="287" r="4" fill="black" />
<line
    stroke-linecap="square"
    x1="333"
    y1="237"
    x2="363"
    y2="237"
    style="stroke:rgb(0, 0,0);
            stroke-width:4;
"
/>

<line
    stroke-linecap="square"
    x1="363"
    y1="237"
    x2="363"
    y2="287"
    style="stroke:rgb(0, 0,0);
            stroke-width:4;
"
/>

    <circle cx="363" cy="237" r="4" fill="black" />
<line
    stroke-linecap="square"
    x1="363"
    y1="287"
    x2="582"
    y2="287"
    style="stroke:rgb(0, 0,0);
            stroke-width:4;
"
/>

    <circle cx="363" cy="287" r="4" fill="black" />
<line
    stroke-linecap="square"
    x1="582"
    y1="287"
    x2="582"
    y2="287"
    style="stroke:rgb(0, 0,0);
            stroke-width:4;
"
/>

<line
    stroke-linecap="square"
    x1="582"
    y1="287"
    x2="624"
    y2="287"
    style="stroke:rgb(0, 0,0);
            stroke-width:2;
                marker-end: url(#0,0,0)
            "
/>
    <text
        x="613"
        y="276"
        alignment-baseline="middle"
        font-family="Verdana"
        font-size="11"
        fill="black">
    2
    </text>

    <circle cx="582" cy="287" r="4" fill="black" />
<line
    stroke-linecap="square"
    x1="311"
    y1="327"
    x2="333"
    y2="327"
    style="stroke:rgb(0, 0,0);
            stroke-width:2;
"
/>
    <text
        x="314"
        y="320"
        alignment-baseline="middle"
        font-family="Verdana"
        font-size="11"
        fill="black">
    3
    </text>

<line
    stroke-linecap="square"
    x1="333"
    y1="327"
    x2="333"
    y2="237"
    style="stroke:rgb(0, 0,0);
            stroke-width:4;
"
/>

    <circle cx="333" cy="327" r="4" fill="black" />
<line
    stroke-linecap="square"
    x1="333"
    y1="237"
    x2="363"
    y2="237"
    style="stroke:rgb(0, 0,0);
            stroke-width:4;
"
/>

<line
    stroke-linecap="square"
    x1="363"
    y1="237"
    x2="363"
    y2="287"
    style="stroke:rgb(0, 0,0);
            stroke-width:4;
"
/>

    <circle cx="363" cy="237" r="4" fill="black" />
<line
    stroke-linecap="square"
    x1="363"
    y1="287"
    x2="582"
    y2="287"
    style="stroke:rgb(0, 0,0);
            stroke-width:4;
"
/>

    <circle cx="363" cy="287" r="4" fill="black" />
<line
    stroke-linecap="square"
    x1="582"
    y1="287"
    x2="582"
    y2="327"
    style="stroke:rgb(0, 0,0);
            stroke-width:4;
"
/>

<line
    stroke-linecap="square"
    x1="582"
    y1="327"
    x2="624"
    y2="327"
    style="stroke:rgb(0, 0,0);
            stroke-width:2;
                marker-end: url(#0,0,0)
            "
/>
    <text
        x="613"
        y="316"
        alignment-baseline="middle"
        font-family="Verdana"
        font-size="11"
        fill="black">
    3
    </text>

    <circle cx="582" cy="327" r="4" fill="black" />
<line
    stroke-linecap="square"
    x1="590"
    y1="87"
    x2="624"
    y2="87"
    style="stroke:rgb(0, 0,0);
            stroke-width:2;
                marker-end: url(#0,0,0)
            "
/>

<line
    stroke-linecap="square"
    x1="114"
    y1="87"
    x2="148"
    y2="87"
    style="stroke:rgb(0, 0,0);
            stroke-width:2;
                marker-end: url(#0,0,0)
            "
/>

<line
    stroke-linecap="square"
    x1="114"
    y1="247"
    x2="148"
    y2="247"
    style="stroke:rgb(0, 0,0);
            stroke-width:2;
                marker-end: url(#0,0,0)
            "
/>

<line
    stroke-linecap="square"
    x1="114"
    y1="287"
    x2="148"
    y2="287"
    style="stroke:rgb(0, 0,0);
            stroke-width:2;
                marker-end: url(#0,0,0)
            "
/>

<line
    stroke-linecap="square"
    x1="311"
    y1="87"
    x2="333"
    y2="87"
    style="stroke:rgb(0, 0,0);
            stroke-width:2;
"
/>
    <text
        x="314"
        y="80"
        alignment-baseline="middle"
        font-family="Verdana"
        font-size="11"
        fill="black">
    0
    </text>

<line
    stroke-linecap="square"
    x1="333"
    y1="87"
    x2="333"
    y2="237"
    style="stroke:rgb(0, 0,0);
            stroke-width:4;
"
/>

    <circle cx="333" cy="87" r="4" fill="black" />
<line
    stroke-linecap="square"
    x1="333"
    y1="237"
    x2="363"
    y2="237"
    style="stroke:rgb(0, 0,0);
            stroke-width:4;
"
/>

<line
    stroke-linecap="square"
    x1="363"
    y1="237"
    x2="363"
    y2="147"
    style="stroke:rgb(0, 0,0);
            stroke-width:4;
"
/>

    <circle cx="363" cy="237" r="4" fill="black" />
<line
    stroke-linecap="square"
    x1="363"
    y1="147"
    x2="423"
    y2="147"
    style="stroke:rgb(0, 0,0);
            stroke-width:4;
"
/>

    <circle cx="363" cy="147" r="4" fill="black" />
<line
    stroke-linecap="square"
    x1="423"
    y1="147"
    x2="423"
    y2="87"
    style="stroke:rgb(0, 0,0);
            stroke-width:4;
"
/>

<line
    stroke-linecap="square"
    x1="423"
    y1="87"
    x2="445"
    y2="87"
    style="stroke:rgb(0, 0,0);
            stroke-width:2;
                marker-end: url(#0,0,0)
            "
/>
    <text
        x="434"
        y="76"
        alignment-baseline="middle"
        font-family="Verdana"
        font-size="11"
        fill="black">
    0
    </text>

    <circle cx="423" cy="87" r="4" fill="black" />
<line
    stroke-linecap="square"
    x1="311"
    y1="247"
    x2="333"
    y2="247"
    style="stroke:rgb(0, 0,0);
            stroke-width:2;
"
/>
    <text
        x="314"
        y="240"
        alignment-baseline="middle"
        font-family="Verdana"
        font-size="11"
        fill="black">
    1
    </text>

<line
    stroke-linecap="square"
    x1="333"
    y1="247"
    x2="333"
    y2="237"
    style="stroke:rgb(0, 0,0);
            stroke-width:4;
"
/>

    <circle cx="333" cy="247" r="4" fill="black" />
<line
    stroke-linecap="square"
    x1="333"
    y1="237"
    x2="363"
    y2="237"
    style="stroke:rgb(0, 0,0);
            stroke-width:4;
"
/>

<line
    stroke-linecap="square"
    x1="363"
    y1="237"
    x2="363"
    y2="147"
    style="stroke:rgb(0, 0,0);
            stroke-width:4;
"
/>

    <circle cx="363" cy="237" r="4" fill="black" />
<line
    stroke-linecap="square"
    x1="363"
    y1="147"
    x2="423"
    y2="147"
    style="stroke:rgb(0, 0,0);
            stroke-width:4;
"
/>

    <circle cx="363" cy="147" r="4" fill="black" />
<line
    stroke-linecap="square"
    x1="423"
    y1="147"
    x2="423"
    y2="127"
    style="stroke:rgb(0, 0,0);
            stroke-width:4;
"
/>

<line
    stroke-linecap="square"
    x1="423"
    y1="127"
    x2="445"
    y2="127"
    style="stroke:rgb(0, 0,0);
            stroke-width:2;
                marker-end: url(#0,0,0)
            "
/>
    <text
        x="434"
        y="116"
        alignment-baseline="middle"
        font-family="Verdana"
        font-size="11"
        fill="black">
    1
    </text>

    <circle cx="423" cy="127" r="4" fill="black" />
<line
    stroke-linecap="square"
    x1="311"
    y1="287"
    x2="333"
    y2="287"
    style="stroke:rgb(0, 0,0);
            stroke-width:2;
"
/>
    <text
        x="314"
        y="280"
        alignment-baseline="middle"
        font-family="Verdana"
        font-size="11"
        fill="black">
    2
    </text>

<line
    stroke-linecap="square"
    x1="333"
    y1="287"
    x2="333"
    y2="237"
    style="stroke:rgb(0, 0,0);
            stroke-width:4;
"
/>

    <circle cx="333" cy="287" r="4" fill="black" />
<line
    stroke-linecap="square"
    x1="333"
    y1="237"
    x2="363"
    y2="237"
    style="stroke:rgb(0, 0,0);
            stroke-width:4;
"
/>

<line
    stroke-linecap="square"
    x1="363"
    y1="237"
    x2="363"
    y2="147"
    style="stroke:rgb(0, 0,0);
            stroke-width:4;
"
/>

    <circle cx="363" cy="237" r="4" fill="black" />
<line
    stroke-linecap="square"
    x1="363"
    y1="147"
    x2="423"
    y2="147"
    style="stroke:rgb(0, 0,0);
            stroke-width:4;
"
/>

    <circle cx="363" cy="147" r="4" fill="black" />
<line
    stroke-linecap="square"
    x1="423"
    y1="147"
    x2="423"
    y2="167"
    style="stroke:rgb(0, 0,0);
            stroke-width:4;
"
/>

<line
    stroke-linecap="square"
    x1="423"
    y1="167"
    x2="445"
    y2="167"
    style="stroke:rgb(0, 0,0);
            stroke-width:2;
                marker-end: url(#0,0,0)
            "
/>
    <text
        x="434"
        y="156"
        alignment-baseline="middle"
        font-family="Verdana"
        font-size="11"
        fill="black">
    2
    </text>

    <circle cx="423" cy="167" r="4" fill="black" />
<line
    stroke-linecap="square"
    x1="311"
    y1="327"
    x2="333"
    y2="327"
    style="stroke:rgb(0, 0,0);
            stroke-width:2;
"
/>
    <text
        x="314"
        y="320"
        alignment-baseline="middle"
        font-family="Verdana"
        font-size="11"
        fill="black">
    3
    </text>

<line
    stroke-linecap="square"
    x1="333"
    y1="327"
    x2="333"
    y2="237"
    style="stroke:rgb(0, 0,0);
            stroke-width:4;
"
/>

    <circle cx="333" cy="327" r="4" fill="black" />
<line
    stroke-linecap="square"
    x1="333"
    y1="237"
    x2="363"
    y2="237"
    style="stroke:rgb(0, 0,0);
            stroke-width:4;
"
/>

<line
    stroke-linecap="square"
    x1="363"
    y1="237"
    x2="363"
    y2="147"
    style="stroke:rgb(0, 0,0);
            stroke-width:4;
"
/>

    <circle cx="363" cy="237" r="4" fill="black" />
<line
    stroke-linecap="square"
    x1="363"
    y1="147"
    x2="423"
    y2="147"
    style="stroke:rgb(0, 0,0);
            stroke-width:4;
"
/>

    <circle cx="363" cy="147" r="4" fill="black" />
<line
    stroke-linecap="square"
    x1="423"
    y1="147"
    x2="423"
    y2="207"
    style="stroke:rgb(0, 0,0);
            stroke-width:4;
"
/>

<line
    stroke-linecap="square"
    x1="423"
    y1="207"
    x2="445"
    y2="207"
    style="stroke:rgb(0, 0,0);
            stroke-width:2;
                marker-end: url(#0,0,0)
            "
/>
    <text
        x="434"
        y="196"
        alignment-baseline="middle"
        font-family="Verdana"
        font-size="11"
        fill="black">
    3
    </text>

    <circle cx="423" cy="207" r="4" fill="black" />
<defs>
    <!-- Small box indicating a port -->
    <rect id="port" x="0" y="0" width="16" height="16"
          style="fill:white;stroke:rgb(0,0,0);stroke-width:1;fill-opacity:1.0;stroke-opacity:1.0"/>
</defs><use x="295" y="239" xlink:href="#port" />
<text text-anchor="end" alignment-baseline="middle" x="292" y="249" transform="rotate(0,292,249)" style="font-weight: regular" font-family="Verdana" font-size="9" fill="black">
level1
</text>

<use x="624" y="239" xlink:href="#port" />
<text text-anchor="start" alignment-baseline="middle" x="644" y="249" transform="rotate(0,644,249)" style="font-weight: regular" font-family="Verdana" font-size="9" fill="black">
level1
</text>

<use x="295" y="279" xlink:href="#port" />
<text text-anchor="end" alignment-baseline="middle" x="292" y="289" transform="rotate(0,292,289)" style="font-weight: regular" font-family="Verdana" font-size="9" fill="black">
pump
</text>

<use x="624" y="279" xlink:href="#port" />
<text text-anchor="start" alignment-baseline="middle" x="644" y="289" transform="rotate(0,644,289)" style="font-weight: regular" font-family="Verdana" font-size="9" fill="black">
pump
</text>

<use x="295" y="319" xlink:href="#port" />
<text text-anchor="end" alignment-baseline="middle" x="292" y="329" transform="rotate(0,292,329)" style="font-weight: regular" font-family="Verdana" font-size="9" fill="black">
valve
</text>

<use x="624" y="319" xlink:href="#port" />
<text text-anchor="start" alignment-baseline="middle" x="644" y="329" transform="rotate(0,644,329)" style="font-weight: regular" font-family="Verdana" font-size="9" fill="black">
valve
</text>

<use x="574" y="79" xlink:href="#port" />
<text text-anchor="end" alignment-baseline="middle" x="571" y="89" transform="rotate(0,571,89)" style="font-weight: regular" font-family="Verdana" font-size="9" fill="black">
button
</text>

<use x="624" y="79" xlink:href="#port" />
<text text-anchor="start" alignment-baseline="middle" x="644" y="89" transform="rotate(0,644,89)" style="font-weight: regular" font-family="Verdana" font-size="9" fill="black">
button
</text>

<use x="98" y="79" xlink:href="#port" />
<text text-anchor="end" alignment-baseline="middle" x="94" y="89" transform="rotate(0,94,89)" style="font-weight: regular" font-family="Verdana" font-size="9" fill="black">
pumpActuatorPort
</text>

<use x="148" y="79" xlink:href="#port" />
<text text-anchor="start" alignment-baseline="middle" x="167" y="89" transform="rotate(0,167,89)" style="font-weight: regular" font-family="Verdana" font-size="9" fill="black">
pumpActuatorPort
</text>

<use x="98" y="239" xlink:href="#port" />
<text text-anchor="end" alignment-baseline="middle" x="94" y="249" transform="rotate(0,94,249)" style="font-weight: regular" font-family="Verdana" font-size="9" fill="black">
valveOpen
</text>

<use x="148" y="239" xlink:href="#port" />
<text text-anchor="start" alignment-baseline="middle" x="167" y="249" transform="rotate(0,167,249)" style="font-weight: regular" font-family="Verdana" font-size="9" fill="black">
valveOpen
</text>

<use x="98" y="279" xlink:href="#port" />
<text text-anchor="end" alignment-baseline="middle" x="94" y="289" transform="rotate(0,94,289)" style="font-weight: regular" font-family="Verdana" font-size="9" fill="black">
valveClose
</text>

<use x="148" y="279" xlink:href="#port" />
<text text-anchor="start" alignment-baseline="middle" x="167" y="289" transform="rotate(0,167,289)" style="font-weight: regular" font-family="Verdana" font-size="9" fill="black">
valveClose
</text>

<use x="295" y="79" xlink:href="#port" />
<text text-anchor="end" alignment-baseline="middle" x="292" y="89" transform="rotate(0,292,89)" style="font-weight: regular" font-family="Verdana" font-size="9" fill="black">
level2
</text>

<use x="445" y="79" xlink:href="#port" />
<text text-anchor="start" alignment-baseline="middle" x="464" y="89" transform="rotate(0,464,89)" style="font-weight: regular" font-family="Verdana" font-size="9" fill="black">
level2
</text>

<use x="295" y="239" xlink:href="#port" />
<text text-anchor="end" alignment-baseline="middle" x="292" y="249" transform="rotate(0,292,249)" style="font-weight: regular" font-family="Verdana" font-size="9" fill="black">
level1
</text>

<use x="445" y="119" xlink:href="#port" />
<text text-anchor="start" alignment-baseline="middle" x="464" y="129" transform="rotate(0,464,129)" style="font-weight: regular" font-family="Verdana" font-size="9" fill="black">
level1
</text>

<use x="295" y="279" xlink:href="#port" />
<text text-anchor="end" alignment-baseline="middle" x="292" y="289" transform="rotate(0,292,289)" style="font-weight: regular" font-family="Verdana" font-size="9" fill="black">
pump
</text>

<use x="445" y="159" xlink:href="#port" />
<text text-anchor="start" alignment-baseline="middle" x="464" y="169" transform="rotate(0,464,169)" style="font-weight: regular" font-family="Verdana" font-size="9" fill="black">
pump
</text>

<use x="295" y="319" xlink:href="#port" />
<text text-anchor="end" alignment-baseline="middle" x="292" y="329" transform="rotate(0,292,329)" style="font-weight: regular" font-family="Verdana" font-size="9" fill="black">
valve
</text>

<use x="445" y="199" xlink:href="#port" />
<text text-anchor="start" alignment-baseline="middle" x="464" y="209" transform="rotate(0,464,209)" style="font-weight: regular" font-family="Verdana" font-size="9" fill="black">
valve
</text>


</svg>