<svg width="100%" height="100%" xmlns="http://www.w3.org/2000/svg" version="1.1" xmlns:xlink="http://www.w3.org/1999/xlink">
    <svg xmlns="http://www.w3.org/2000/svg" version="1.1">

<!-- Canvas: environment -->
<g transform="translate(62 20)">

    <rect
        id="17816"
        width="412"
        height="362"
        style="fill:white;stroke:black;stroke-width:2;fill-opacity:1.0;stroke-opacity:1.0"/>

    <text
        x="8"
        y="20"
        font-family="Verdana"
        fill="black">
            <tspan style="font-weight: bold" font-size="13">environment</tspan>
    </text>

</g>

</svg><!-- Component: physicsSimulation -->
<g transform="translate(92 52)">
    <rect
        data-name="testManuelSchrick.pumpStationExample.pumpStation.environment.physicsSimulation_aSPumpingSystemWitness1"
        id="17817"
        width="135"
        height="310"
        style="
                fill:white;
            stroke:black;
            stroke-width:2;
            fill-opacity:1.0;
            stroke-opacity:1.0"
        onmouseout="this.style.stroke = 'black'; this.style['stroke-width'] = 2; this.style.cursor='default';"
    />

    <text
        x="10"
        y="15"
        alignment-baseline="middle"
        font-family="Verdana"
        fill="black">
            <tspan style="font-weight: bold" font-size="11">physicsSimulation</tspan>
    </text>

    <text
            x="10"
            y="30"
            alignment-baseline="middle"
            font-family="Verdana"
            fill="black">
                <tspan style="font-weight: bold" font-size="11"></tspan>
        </text>

</g><!-- Component: simulationPanel -->
<g transform="translate(322 187)">
    <rect
        data-name="testManuelSchrick.pumpStationExample.pumpStation.environment.simulationPanel_aSPumpingSystemWitness1"
        id="17818"
        width="122"
        height="175"
        style="
                fill:white;
            stroke:black;
            stroke-width:2;
            fill-opacity:1.0;
            stroke-opacity:1.0"
        onmouseout="this.style.stroke = 'black'; this.style['stroke-width'] = 2; this.style.cursor='default';"
    />

    <text
        x="10"
        y="15"
        alignment-baseline="middle"
        font-family="Verdana"
        fill="black">
            <tspan style="font-weight: bold" font-size="11">simulationPanel</tspan>
    </text>

    <text
            x="10"
            y="30"
            alignment-baseline="middle"
            font-family="Verdana"
            fill="black">
                <tspan style="font-weight: bold" font-size="11"></tspan>
        </text>

</g><defs>
    <marker id="0,0,0" markerWidth="13" markerHeight="13" refX="5" refY="5" orient="auto">
            <polyline points="0,2 5,5 0,8" style="fill:none; stroke:rgb(0,0,0);
                    stroke-width:1" />
    </marker>
    <marker id="255,0,0" markerWidth="13" markerHeight="13" refX="5" refY="5" orient="auto">
            <polyline points="0,2 5,5 0,8" style="fill:none; stroke:rgb(255,0,0);
                    stroke-width:1" />
    </marker>
</defs><line
    stroke-linecap="square"
    x1="235"
    y1="222"
    x2="252"
    y2="222"
    style="stroke:rgb(0, 0,0);
            stroke-width:2;
"
/>
    <text
        x="238"
        y="215"
        alignment-baseline="middle"
        font-family="Verdana"
        font-size="11"
        fill="black">
    1
    </text>

<line
    stroke-linecap="square"
    x1="252"
    y1="222"
    x2="252"
    y2="242"
    style="stroke:rgb(0, 0,0);
            stroke-width:4;
"
/>

    <circle cx="252" cy="222" r="4" fill="black" />
<line
    stroke-linecap="square"
    x1="252"
    y1="242"
    x2="262"
    y2="242"
    style="stroke:rgb(0, 0,0);
            stroke-width:4;
"
/>

<line
    stroke-linecap="square"
    x1="262"
    y1="242"
    x2="262"
    y2="127"
    style="stroke:rgb(0, 0,0);
            stroke-width:4;
"
/>

    <circle cx="262" cy="242" r="4" fill="black" />
<line
    stroke-linecap="square"
    x1="262"
    y1="127"
    x2="444"
    y2="127"
    style="stroke:rgb(0, 0,0);
            stroke-width:4;
"
/>

    <circle cx="262" cy="127" r="4" fill="black" />
<line
    stroke-linecap="square"
    x1="444"
    y1="127"
    x2="444"
    y2="87"
    style="stroke:rgb(0, 0,0);
            stroke-width:4;
"
/>

<line
    stroke-linecap="square"
    x1="444"
    y1="87"
    x2="466"
    y2="87"
    style="stroke:rgb(0, 0,0);
            stroke-width:2;
                marker-end: url(#0,0,0)
            "
/>
    <text
        x="455"
        y="76"
        alignment-baseline="middle"
        font-family="Verdana"
        font-size="11"
        fill="black">
    1
    </text>

    <circle cx="444" cy="87" r="4" fill="black" />
<line
    stroke-linecap="square"
    x1="235"
    y1="302"
    x2="252"
    y2="302"
    style="stroke:rgb(0, 0,0);
            stroke-width:2;
"
/>
    <text
        x="238"
        y="295"
        alignment-baseline="middle"
        font-family="Verdana"
        font-size="11"
        fill="black">
    2
    </text>

<line
    stroke-linecap="square"
    x1="252"
    y1="302"
    x2="252"
    y2="242"
    style="stroke:rgb(0, 0,0);
            stroke-width:4;
"
/>

    <circle cx="252" cy="302" r="4" fill="black" />
<line
    stroke-linecap="square"
    x1="252"
    y1="242"
    x2="262"
    y2="242"
    style="stroke:rgb(0, 0,0);
            stroke-width:4;
"
/>

<line
    stroke-linecap="square"
    x1="262"
    y1="242"
    x2="262"
    y2="127"
    style="stroke:rgb(0, 0,0);
            stroke-width:4;
"
/>

    <circle cx="262" cy="242" r="4" fill="black" />
<line
    stroke-linecap="square"
    x1="262"
    y1="127"
    x2="444"
    y2="127"
    style="stroke:rgb(0, 0,0);
            stroke-width:4;
"
/>

    <circle cx="262" cy="127" r="4" fill="black" />
<line
    stroke-linecap="square"
    x1="444"
    y1="127"
    x2="444"
    y2="127"
    style="stroke:rgb(0, 0,0);
            stroke-width:4;
"
/>

<line
    stroke-linecap="square"
    x1="444"
    y1="127"
    x2="466"
    y2="127"
    style="stroke:rgb(0, 0,0);
            stroke-width:2;
                marker-end: url(#0,0,0)
            "
/>
    <text
        x="455"
        y="116"
        alignment-baseline="middle"
        font-family="Verdana"
        font-size="11"
        fill="black">
    2
    </text>

    <circle cx="444" cy="127" r="4" fill="black" />
<line
    stroke-linecap="square"
    x1="235"
    y1="342"
    x2="252"
    y2="342"
    style="stroke:rgb(0, 0,0);
            stroke-width:2;
"
/>
    <text
        x="238"
        y="335"
        alignment-baseline="middle"
        font-family="Verdana"
        font-size="11"
        fill="black">
    3
    </text>

<line
    stroke-linecap="square"
    x1="252"
    y1="342"
    x2="252"
    y2="242"
    style="stroke:rgb(0, 0,0);
            stroke-width:4;
"
/>

    <circle cx="252" cy="342" r="4" fill="black" />
<line
    stroke-linecap="square"
    x1="252"
    y1="242"
    x2="262"
    y2="242"
    style="stroke:rgb(0, 0,0);
            stroke-width:4;
"
/>

<line
    stroke-linecap="square"
    x1="262"
    y1="242"
    x2="262"
    y2="127"
    style="stroke:rgb(0, 0,0);
            stroke-width:4;
"
/>

    <circle cx="262" cy="242" r="4" fill="black" />
<line
    stroke-linecap="square"
    x1="262"
    y1="127"
    x2="444"
    y2="127"
    style="stroke:rgb(0, 0,0);
            stroke-width:4;
"
/>

    <circle cx="262" cy="127" r="4" fill="black" />
<line
    stroke-linecap="square"
    x1="444"
    y1="127"
    x2="444"
    y2="167"
    style="stroke:rgb(0, 0,0);
            stroke-width:4;
"
/>

<line
    stroke-linecap="square"
    x1="444"
    y1="167"
    x2="466"
    y2="167"
    style="stroke:rgb(0, 0,0);
            stroke-width:2;
                marker-end: url(#0,0,0)
            "
/>
    <text
        x="455"
        y="156"
        alignment-baseline="middle"
        font-family="Verdana"
        font-size="11"
        fill="black">
    3
    </text>

    <circle cx="444" cy="167" r="4" fill="black" />
<line
    stroke-linecap="square"
    x1="452"
    y1="222"
    x2="466"
    y2="222"
    style="stroke:rgb(0, 0,0);
            stroke-width:2;
                marker-end: url(#0,0,0)
            "
/>

<line
    stroke-linecap="square"
    x1="70"
    y1="222"
    x2="84"
    y2="222"
    style="stroke:rgb(0, 0,0);
            stroke-width:2;
                marker-end: url(#0,0,0)
            "
/>

<line
    stroke-linecap="square"
    x1="70"
    y1="167"
    x2="84"
    y2="167"
    style="stroke:rgb(0, 0,0);
            stroke-width:2;
                marker-end: url(#0,0,0)
            "
/>

<line
    stroke-linecap="square"
    x1="70"
    y1="127"
    x2="84"
    y2="127"
    style="stroke:rgb(0, 0,0);
            stroke-width:2;
                marker-end: url(#0,0,0)
            "
/>

<line
    stroke-linecap="square"
    x1="235"
    y1="87"
    x2="252"
    y2="87"
    style="stroke:rgb(0, 0,0);
            stroke-width:2;
"
/>
    <text
        x="238"
        y="80"
        alignment-baseline="middle"
        font-family="Verdana"
        font-size="11"
        fill="black">
    0
    </text>

<line
    stroke-linecap="square"
    x1="252"
    y1="87"
    x2="252"
    y2="242"
    style="stroke:rgb(0, 0,0);
            stroke-width:4;
"
/>

    <circle cx="252" cy="87" r="4" fill="black" />
<line
    stroke-linecap="square"
    x1="252"
    y1="242"
    x2="262"
    y2="242"
    style="stroke:rgb(0, 0,0);
            stroke-width:4;
"
/>

<line
    stroke-linecap="square"
    x1="262"
    y1="242"
    x2="262"
    y2="282"
    style="stroke:rgb(0, 0,0);
            stroke-width:4;
"
/>

    <circle cx="262" cy="242" r="4" fill="black" />
<line
    stroke-linecap="square"
    x1="262"
    y1="282"
    x2="297"
    y2="282"
    style="stroke:rgb(0, 0,0);
            stroke-width:4;
"
/>

    <circle cx="262" cy="282" r="4" fill="black" />
<line
    stroke-linecap="square"
    x1="297"
    y1="282"
    x2="297"
    y2="222"
    style="stroke:rgb(0, 0,0);
            stroke-width:4;
"
/>

<line
    stroke-linecap="square"
    x1="297"
    y1="222"
    x2="314"
    y2="222"
    style="stroke:rgb(0, 0,0);
            stroke-width:2;
                marker-end: url(#0,0,0)
            "
/>
    <text
        x="303"
        y="211"
        alignment-baseline="middle"
        font-family="Verdana"
        font-size="11"
        fill="black">
    0
    </text>

    <circle cx="297" cy="222" r="4" fill="black" />
<line
    stroke-linecap="square"
    x1="235"
    y1="222"
    x2="252"
    y2="222"
    style="stroke:rgb(0, 0,0);
            stroke-width:2;
"
/>
    <text
        x="238"
        y="215"
        alignment-baseline="middle"
        font-family="Verdana"
        font-size="11"
        fill="black">
    1
    </text>

<line
    stroke-linecap="square"
    x1="252"
    y1="222"
    x2="252"
    y2="242"
    style="stroke:rgb(0, 0,0);
            stroke-width:4;
"
/>

    <circle cx="252" cy="222" r="4" fill="black" />
<line
    stroke-linecap="square"
    x1="252"
    y1="242"
    x2="262"
    y2="242"
    style="stroke:rgb(0, 0,0);
            stroke-width:4;
"
/>

<line
    stroke-linecap="square"
    x1="262"
    y1="242"
    x2="262"
    y2="282"
    style="stroke:rgb(0, 0,0);
            stroke-width:4;
"
/>

    <circle cx="262" cy="242" r="4" fill="black" />
<line
    stroke-linecap="square"
    x1="262"
    y1="282"
    x2="297"
    y2="282"
    style="stroke:rgb(0, 0,0);
            stroke-width:4;
"
/>

    <circle cx="262" cy="282" r="4" fill="black" />
<line
    stroke-linecap="square"
    x1="297"
    y1="282"
    x2="297"
    y2="262"
    style="stroke:rgb(0, 0,0);
            stroke-width:4;
"
/>

<line
    stroke-linecap="square"
    x1="297"
    y1="262"
    x2="314"
    y2="262"
    style="stroke:rgb(0, 0,0);
            stroke-width:2;
                marker-end: url(#0,0,0)
            "
/>
    <text
        x="303"
        y="251"
        alignment-baseline="middle"
        font-family="Verdana"
        font-size="11"
        fill="black">
    1
    </text>

    <circle cx="297" cy="262" r="4" fill="black" />
<line
    stroke-linecap="square"
    x1="235"
    y1="302"
    x2="252"
    y2="302"
    style="stroke:rgb(0, 0,0);
            stroke-width:2;
"
/>
    <text
        x="238"
        y="295"
        alignment-baseline="middle"
        font-family="Verdana"
        font-size="11"
        fill="black">
    2
    </text>

<line
    stroke-linecap="square"
    x1="252"
    y1="302"
    x2="252"
    y2="242"
    style="stroke:rgb(0, 0,0);
            stroke-width:4;
"
/>

    <circle cx="252" cy="302" r="4" fill="black" />
<line
    stroke-linecap="square"
    x1="252"
    y1="242"
    x2="262"
    y2="242"
    style="stroke:rgb(0, 0,0);
            stroke-width:4;
"
/>

<line
    stroke-linecap="square"
    x1="262"
    y1="242"
    x2="262"
    y2="282"
    style="stroke:rgb(0, 0,0);
            stroke-width:4;
"
/>

    <circle cx="262" cy="242" r="4" fill="black" />
<line
    stroke-linecap="square"
    x1="262"
    y1="282"
    x2="297"
    y2="282"
    style="stroke:rgb(0, 0,0);
            stroke-width:4;
"
/>

    <circle cx="262" cy="282" r="4" fill="black" />
<line
    stroke-linecap="square"
    x1="297"
    y1="282"
    x2="297"
    y2="302"
    style="stroke:rgb(0, 0,0);
            stroke-width:4;
"
/>

<line
    stroke-linecap="square"
    x1="297"
    y1="302"
    x2="314"
    y2="302"
    style="stroke:rgb(0, 0,0);
            stroke-width:2;
                marker-end: url(#0,0,0)
            "
/>
    <text
        x="303"
        y="291"
        alignment-baseline="middle"
        font-family="Verdana"
        font-size="11"
        fill="black">
    2
    </text>

    <circle cx="297" cy="302" r="4" fill="black" />
<line
    stroke-linecap="square"
    x1="235"
    y1="342"
    x2="252"
    y2="342"
    style="stroke:rgb(0, 0,0);
            stroke-width:2;
"
/>
    <text
        x="238"
        y="335"
        alignment-baseline="middle"
        font-family="Verdana"
        font-size="11"
        fill="black">
    3
    </text>

<line
    stroke-linecap="square"
    x1="252"
    y1="342"
    x2="252"
    y2="242"
    style="stroke:rgb(0, 0,0);
            stroke-width:4;
"
/>

    <circle cx="252" cy="342" r="4" fill="black" />
<line
    stroke-linecap="square"
    x1="252"
    y1="242"
    x2="262"
    y2="242"
    style="stroke:rgb(0, 0,0);
            stroke-width:4;
"
/>

<line
    stroke-linecap="square"
    x1="262"
    y1="242"
    x2="262"
    y2="282"
    style="stroke:rgb(0, 0,0);
            stroke-width:4;
"
/>

    <circle cx="262" cy="242" r="4" fill="black" />
<line
    stroke-linecap="square"
    x1="262"
    y1="282"
    x2="297"
    y2="282"
    style="stroke:rgb(0, 0,0);
            stroke-width:4;
"
/>

    <circle cx="262" cy="282" r="4" fill="black" />
<line
    stroke-linecap="square"
    x1="297"
    y1="282"
    x2="297"
    y2="342"
    style="stroke:rgb(0, 0,0);
            stroke-width:4;
"
/>

<line
    stroke-linecap="square"
    x1="297"
    y1="342"
    x2="314"
    y2="342"
    style="stroke:rgb(0, 0,0);
            stroke-width:2;
                marker-end: url(#0,0,0)
            "
/>
    <text
        x="303"
        y="331"
        alignment-baseline="middle"
        font-family="Verdana"
        font-size="11"
        fill="black">
    3
    </text>

    <circle cx="297" cy="342" r="4" fill="black" />
<defs>
    <!-- Small box indicating a port -->
    <rect id="port" x="0" y="0" width="16" height="16"
          style="fill:white;stroke:rgb(0,0,0);stroke-width:1;fill-opacity:1.0;stroke-opacity:1.0"/>
</defs><use x="219" y="214" xlink:href="#port" />
<text text-anchor="end" alignment-baseline="middle" x="216" y="224" transform="rotate(0,216,224)" style="font-weight: regular" font-family="Verdana" font-size="9" fill="black">
leve
</text>

<text text-anchor="end" alignment-baseline="middle" x="216" y="234" transform="rotate(0,216,234)" style="font-weight: regular" font-family="Verdana" font-size="9" fill="black">
l1
</text>

<use x="466" y="79" xlink:href="#port" />
<text text-anchor="start" alignment-baseline="middle" x="486" y="89" transform="rotate(0,486,89)" style="font-weight: regular" font-family="Verdana" font-size="9" fill="black">
leve
</text>

<text text-anchor="start" alignment-baseline="middle" x="486" y="99" transform="rotate(0,486,99)" style="font-weight: regular" font-family="Verdana" font-size="9" fill="black">
l1
</text>

<use x="219" y="294" xlink:href="#port" />
<text text-anchor="end" alignment-baseline="middle" x="216" y="304" transform="rotate(0,216,304)" style="font-weight: regular" font-family="Verdana" font-size="9" fill="black">
pum
</text>

<text text-anchor="end" alignment-baseline="middle" x="216" y="314" transform="rotate(0,216,314)" style="font-weight: regular" font-family="Verdana" font-size="9" fill="black">
p
</text>

<use x="466" y="119" xlink:href="#port" />
<text text-anchor="start" alignment-baseline="middle" x="486" y="129" transform="rotate(0,486,129)" style="font-weight: regular" font-family="Verdana" font-size="9" fill="black">
pum
</text>

<text text-anchor="start" alignment-baseline="middle" x="486" y="139" transform="rotate(0,486,139)" style="font-weight: regular" font-family="Verdana" font-size="9" fill="black">
p
</text>

<use x="219" y="334" xlink:href="#port" />
<text text-anchor="end" alignment-baseline="middle" x="216" y="344" transform="rotate(0,216,344)" style="font-weight: regular" font-family="Verdana" font-size="9" fill="black">
val
</text>

<text text-anchor="end" alignment-baseline="middle" x="216" y="354" transform="rotate(0,216,354)" style="font-weight: regular" font-family="Verdana" font-size="9" fill="black">
ve
</text>

<use x="466" y="159" xlink:href="#port" />
<text text-anchor="start" alignment-baseline="middle" x="486" y="169" transform="rotate(0,486,169)" style="font-weight: regular" font-family="Verdana" font-size="9" fill="black">
val
</text>

<text text-anchor="start" alignment-baseline="middle" x="486" y="179" transform="rotate(0,486,179)" style="font-weight: regular" font-family="Verdana" font-size="9" fill="black">
ve
</text>

<use x="436" y="214" xlink:href="#port" />
<text text-anchor="end" alignment-baseline="middle" x="433" y="224" transform="rotate(0,433,224)" style="font-weight: regular" font-family="Verdana" font-size="9" fill="black">
but
</text>

<text text-anchor="end" alignment-baseline="middle" x="433" y="234" transform="rotate(0,433,234)" style="font-weight: regular" font-family="Verdana" font-size="9" fill="black">
ton
</text>

<use x="466" y="214" xlink:href="#port" />
<text text-anchor="start" alignment-baseline="middle" x="486" y="224" transform="rotate(0,486,224)" style="font-weight: regular" font-family="Verdana" font-size="9" fill="black">
but
</text>

<text text-anchor="start" alignment-baseline="middle" x="486" y="234" transform="rotate(0,486,234)" style="font-weight: regular" font-family="Verdana" font-size="9" fill="black">
ton
</text>

<use x="54" y="214" xlink:href="#port" />
<text text-anchor="end" alignment-baseline="middle" x="50" y="224" transform="rotate(0,50,224)" style="font-weight: regular" font-family="Verdana" font-size="9" fill="black">
pumpActu
</text>

<text text-anchor="end" alignment-baseline="middle" x="50" y="234" transform="rotate(0,50,234)" style="font-weight: regular" font-family="Verdana" font-size="9" fill="black">
atorPort
</text>

<use x="84" y="214" xlink:href="#port" />
<text text-anchor="start" alignment-baseline="middle" x="103" y="224" transform="rotate(0,103,224)" style="font-weight: regular" font-family="Verdana" font-size="9" fill="black">
pumpActu
</text>

<text text-anchor="start" alignment-baseline="middle" x="103" y="234" transform="rotate(0,103,234)" style="font-weight: regular" font-family="Verdana" font-size="9" fill="black">
atorPort
</text>

<use x="54" y="159" xlink:href="#port" />
<text text-anchor="end" alignment-baseline="middle" x="50" y="169" transform="rotate(0,50,169)" style="font-weight: regular" font-family="Verdana" font-size="9" fill="black">
valve
</text>

<text text-anchor="end" alignment-baseline="middle" x="50" y="179" transform="rotate(0,50,179)" style="font-weight: regular" font-family="Verdana" font-size="9" fill="black">
Open
</text>

<use x="84" y="159" xlink:href="#port" />
<text text-anchor="start" alignment-baseline="middle" x="103" y="169" transform="rotate(0,103,169)" style="font-weight: regular" font-family="Verdana" font-size="9" fill="black">
valve
</text>

<text text-anchor="start" alignment-baseline="middle" x="103" y="179" transform="rotate(0,103,179)" style="font-weight: regular" font-family="Verdana" font-size="9" fill="black">
Open
</text>

<use x="54" y="119" xlink:href="#port" />
<text text-anchor="end" alignment-baseline="middle" x="50" y="129" transform="rotate(0,50,129)" style="font-weight: regular" font-family="Verdana" font-size="9" fill="black">
valveC
</text>

<text text-anchor="end" alignment-baseline="middle" x="50" y="139" transform="rotate(0,50,139)" style="font-weight: regular" font-family="Verdana" font-size="9" fill="black">
lose
</text>

<use x="84" y="119" xlink:href="#port" />
<text text-anchor="start" alignment-baseline="middle" x="103" y="129" transform="rotate(0,103,129)" style="font-weight: regular" font-family="Verdana" font-size="9" fill="black">
valveC
</text>

<text text-anchor="start" alignment-baseline="middle" x="103" y="139" transform="rotate(0,103,139)" style="font-weight: regular" font-family="Verdana" font-size="9" fill="black">
lose
</text>

<use x="219" y="79" xlink:href="#port" />
<text text-anchor="end" alignment-baseline="middle" x="216" y="89" transform="rotate(0,216,89)" style="font-weight: regular" font-family="Verdana" font-size="9" fill="black">
leve
</text>

<text text-anchor="end" alignment-baseline="middle" x="216" y="99" transform="rotate(0,216,99)" style="font-weight: regular" font-family="Verdana" font-size="9" fill="black">
l2
</text>

<use x="314" y="214" xlink:href="#port" />
<text text-anchor="start" alignment-baseline="middle" x="333" y="224" transform="rotate(0,333,224)" style="font-weight: regular" font-family="Verdana" font-size="9" fill="black">
leve
</text>

<text text-anchor="start" alignment-baseline="middle" x="333" y="234" transform="rotate(0,333,234)" style="font-weight: regular" font-family="Verdana" font-size="9" fill="black">
l2
</text>

<use x="219" y="214" xlink:href="#port" />
<text text-anchor="end" alignment-baseline="middle" x="216" y="224" transform="rotate(0,216,224)" style="font-weight: regular" font-family="Verdana" font-size="9" fill="black">
leve
</text>

<text text-anchor="end" alignment-baseline="middle" x="216" y="234" transform="rotate(0,216,234)" style="font-weight: regular" font-family="Verdana" font-size="9" fill="black">
l1
</text>

<use x="314" y="254" xlink:href="#port" />
<text text-anchor="start" alignment-baseline="middle" x="333" y="264" transform="rotate(0,333,264)" style="font-weight: regular" font-family="Verdana" font-size="9" fill="black">
leve
</text>

<text text-anchor="start" alignment-baseline="middle" x="333" y="274" transform="rotate(0,333,274)" style="font-weight: regular" font-family="Verdana" font-size="9" fill="black">
l1
</text>

<use x="219" y="294" xlink:href="#port" />
<text text-anchor="end" alignment-baseline="middle" x="216" y="304" transform="rotate(0,216,304)" style="font-weight: regular" font-family="Verdana" font-size="9" fill="black">
pum
</text>

<text text-anchor="end" alignment-baseline="middle" x="216" y="314" transform="rotate(0,216,314)" style="font-weight: regular" font-family="Verdana" font-size="9" fill="black">
p
</text>

<use x="314" y="294" xlink:href="#port" />
<text text-anchor="start" alignment-baseline="middle" x="333" y="304" transform="rotate(0,333,304)" style="font-weight: regular" font-family="Verdana" font-size="9" fill="black">
pum
</text>

<text text-anchor="start" alignment-baseline="middle" x="333" y="314" transform="rotate(0,333,314)" style="font-weight: regular" font-family="Verdana" font-size="9" fill="black">
p
</text>

<use x="219" y="334" xlink:href="#port" />
<text text-anchor="end" alignment-baseline="middle" x="216" y="344" transform="rotate(0,216,344)" style="font-weight: regular" font-family="Verdana" font-size="9" fill="black">
val
</text>

<text text-anchor="end" alignment-baseline="middle" x="216" y="354" transform="rotate(0,216,354)" style="font-weight: regular" font-family="Verdana" font-size="9" fill="black">
ve
</text>

<use x="314" y="334" xlink:href="#port" />
<text text-anchor="start" alignment-baseline="middle" x="333" y="344" transform="rotate(0,333,344)" style="font-weight: regular" font-family="Verdana" font-size="9" fill="black">
val
</text>

<text text-anchor="start" alignment-baseline="middle" x="333" y="354" transform="rotate(0,333,354)" style="font-weight: regular" font-family="Verdana" font-size="9" fill="black">
ve
</text>


</svg>