<svg width="100%" height="100%" xmlns="http://www.w3.org/2000/svg" version="1.1" xmlns:xlink="http://www.w3.org/1999/xlink">
    <svg xmlns="http://www.w3.org/2000/svg" version="1.1">

<!-- Canvas: environment -->
<g transform="translate(176 20)">

    <rect
        id="15786"
        width="526"
        height="362"
        style="fill:white;stroke:black;stroke-width:2;fill-opacity:1.0;stroke-opacity:1.0"/>

    <text
        x="8"
        y="20"
        font-family="Verdana"
        fill="black">
            <tspan style="font-weight: bold" font-size="13">environment</tspan>
    </text>

</g>

</svg><!-- Component: physicsSimulation -->
<g transform="translate(226 52)">
    <rect
        data-name="testManuelSchrick.pumpStationExample.pumpStation.environment.physicsSimulation"
        id="15787"
        width="147"
        height="310"
        style="
                fill:white;
            stroke:black;
            stroke-width:2;
            fill-opacity:1.0;
            stroke-opacity:1.0"
        onmouseout="this.style.stroke = '#000000'; this.style['stroke-width'] = 2; this.style.cursor='default';"
    />

    <text
        x="10"
        y="15"
        alignment-baseline="middle"
        font-family="Verdana"
        fill="black">
            <tspan style="font-weight: bold" font-size="11">physicsSimulation</tspan>
    </text>

</g><!-- Component: simulationPanel -->
<g transform="translate(523 187)">
    <rect
        data-name="testManuelSchrick.pumpStationExample.pumpStation.environment.simulationPanel"
        id="15788"
        width="129"
        height="175"
        style="
                fill:white;
            stroke:black;
            stroke-width:2;
            fill-opacity:1.0;
            stroke-opacity:1.0"
        onmouseout="this.style.stroke = '#000000'; this.style['stroke-width'] = 2; this.style.cursor='default';"
    />

    <text
        x="10"
        y="15"
        alignment-baseline="middle"
        font-family="Verdana"
        fill="black">
            <tspan style="font-weight: bold" font-size="11">simulationPanel</tspan>
    </text>

</g><defs>
    <marker id="0,0,0" markerWidth="13" markerHeight="13" refX="5" refY="5" orient="auto">
            <polyline points="0,2 5,5 0,8" style="fill:none; stroke:rgb(0,0,0);
                    stroke-width:1" />
    </marker>
</defs><line
    stroke-linecap="square"
    x1="381"
    y1="222"
    x2="403"
    y2="222"
    style="stroke:rgb(0, 0,0);
            stroke-width:2;
"
/>
    <text
        x="384"
        y="215"
        alignment-baseline="middle"
        font-family="Verdana"
        font-size="11"
        fill="black">
    1
    </text>

<line
    stroke-linecap="square"
    x1="403"
    y1="222"
    x2="403"
    y2="242"
    style="stroke:rgb(0, 0,0);
            stroke-width:4;
"
/>

    <circle cx="403" cy="222" r="4" fill="black" />
<line
    stroke-linecap="square"
    x1="403"
    y1="242"
    x2="433"
    y2="242"
    style="stroke:rgb(0, 0,0);
            stroke-width:4;
"
/>

<line
    stroke-linecap="square"
    x1="433"
    y1="242"
    x2="433"
    y2="127"
    style="stroke:rgb(0, 0,0);
            stroke-width:4;
"
/>

    <circle cx="433" cy="242" r="4" fill="black" />
<line
    stroke-linecap="square"
    x1="433"
    y1="127"
    x2="652"
    y2="127"
    style="stroke:rgb(0, 0,0);
            stroke-width:4;
"
/>

    <circle cx="433" cy="127" r="4" fill="black" />
<line
    stroke-linecap="square"
    x1="652"
    y1="127"
    x2="652"
    y2="87"
    style="stroke:rgb(0, 0,0);
            stroke-width:4;
"
/>

<line
    stroke-linecap="square"
    x1="652"
    y1="87"
    x2="694"
    y2="87"
    style="stroke:rgb(0, 0,0);
            stroke-width:2;
                marker-end: url(#0,0,0)
            "
/>
    <text
        x="683"
        y="76"
        alignment-baseline="middle"
        font-family="Verdana"
        font-size="11"
        fill="black">
    1
    </text>

    <circle cx="652" cy="87" r="4" fill="black" />
<line
    stroke-linecap="square"
    x1="381"
    y1="302"
    x2="403"
    y2="302"
    style="stroke:rgb(0, 0,0);
            stroke-width:2;
"
/>
    <text
        x="384"
        y="295"
        alignment-baseline="middle"
        font-family="Verdana"
        font-size="11"
        fill="black">
    2
    </text>

<line
    stroke-linecap="square"
    x1="403"
    y1="302"
    x2="403"
    y2="242"
    style="stroke:rgb(0, 0,0);
            stroke-width:4;
"
/>

    <circle cx="403" cy="302" r="4" fill="black" />
<line
    stroke-linecap="square"
    x1="403"
    y1="242"
    x2="433"
    y2="242"
    style="stroke:rgb(0, 0,0);
            stroke-width:4;
"
/>

<line
    stroke-linecap="square"
    x1="433"
    y1="242"
    x2="433"
    y2="127"
    style="stroke:rgb(0, 0,0);
            stroke-width:4;
"
/>

    <circle cx="433" cy="242" r="4" fill="black" />
<line
    stroke-linecap="square"
    x1="433"
    y1="127"
    x2="652"
    y2="127"
    style="stroke:rgb(0, 0,0);
            stroke-width:4;
"
/>

    <circle cx="433" cy="127" r="4" fill="black" />
<line
    stroke-linecap="square"
    x1="652"
    y1="127"
    x2="652"
    y2="127"
    style="stroke:rgb(0, 0,0);
            stroke-width:4;
"
/>

<line
    stroke-linecap="square"
    x1="652"
    y1="127"
    x2="694"
    y2="127"
    style="stroke:rgb(0, 0,0);
            stroke-width:2;
                marker-end: url(#0,0,0)
            "
/>
    <text
        x="683"
        y="116"
        alignment-baseline="middle"
        font-family="Verdana"
        font-size="11"
        fill="black">
    2
    </text>

    <circle cx="652" cy="127" r="4" fill="black" />
<line
    stroke-linecap="square"
    x1="381"
    y1="342"
    x2="403"
    y2="342"
    style="stroke:rgb(0, 0,0);
            stroke-width:2;
"
/>
    <text
        x="384"
        y="335"
        alignment-baseline="middle"
        font-family="Verdana"
        font-size="11"
        fill="black">
    3
    </text>

<line
    stroke-linecap="square"
    x1="403"
    y1="342"
    x2="403"
    y2="242"
    style="stroke:rgb(0, 0,0);
            stroke-width:4;
"
/>

    <circle cx="403" cy="342" r="4" fill="black" />
<line
    stroke-linecap="square"
    x1="403"
    y1="242"
    x2="433"
    y2="242"
    style="stroke:rgb(0, 0,0);
            stroke-width:4;
"
/>

<line
    stroke-linecap="square"
    x1="433"
    y1="242"
    x2="433"
    y2="127"
    style="stroke:rgb(0, 0,0);
            stroke-width:4;
"
/>

    <circle cx="433" cy="242" r="4" fill="black" />
<line
    stroke-linecap="square"
    x1="433"
    y1="127"
    x2="652"
    y2="127"
    style="stroke:rgb(0, 0,0);
            stroke-width:4;
"
/>

    <circle cx="433" cy="127" r="4" fill="black" />
<line
    stroke-linecap="square"
    x1="652"
    y1="127"
    x2="652"
    y2="167"
    style="stroke:rgb(0, 0,0);
            stroke-width:4;
"
/>

<line
    stroke-linecap="square"
    x1="652"
    y1="167"
    x2="694"
    y2="167"
    style="stroke:rgb(0, 0,0);
            stroke-width:2;
                marker-end: url(#0,0,0)
            "
/>
    <text
        x="683"
        y="156"
        alignment-baseline="middle"
        font-family="Verdana"
        font-size="11"
        fill="black">
    3
    </text>

    <circle cx="652" cy="167" r="4" fill="black" />
<line
    stroke-linecap="square"
    x1="660"
    y1="222"
    x2="694"
    y2="222"
    style="stroke:rgb(0, 0,0);
            stroke-width:2;
                marker-end: url(#0,0,0)
            "
/>

<line
    stroke-linecap="square"
    x1="184"
    y1="222"
    x2="218"
    y2="222"
    style="stroke:rgb(0, 0,0);
            stroke-width:2;
                marker-end: url(#0,0,0)
            "
/>

<line
    stroke-linecap="square"
    x1="184"
    y1="167"
    x2="218"
    y2="167"
    style="stroke:rgb(0, 0,0);
            stroke-width:2;
                marker-end: url(#0,0,0)
            "
/>

<line
    stroke-linecap="square"
    x1="184"
    y1="127"
    x2="218"
    y2="127"
    style="stroke:rgb(0, 0,0);
            stroke-width:2;
                marker-end: url(#0,0,0)
            "
/>

<line
    stroke-linecap="square"
    x1="381"
    y1="87"
    x2="403"
    y2="87"
    style="stroke:rgb(0, 0,0);
            stroke-width:2;
"
/>
    <text
        x="384"
        y="80"
        alignment-baseline="middle"
        font-family="Verdana"
        font-size="11"
        fill="black">
    0
    </text>

<line
    stroke-linecap="square"
    x1="403"
    y1="87"
    x2="403"
    y2="242"
    style="stroke:rgb(0, 0,0);
            stroke-width:4;
"
/>

    <circle cx="403" cy="87" r="4" fill="black" />
<line
    stroke-linecap="square"
    x1="403"
    y1="242"
    x2="433"
    y2="242"
    style="stroke:rgb(0, 0,0);
            stroke-width:4;
"
/>

<line
    stroke-linecap="square"
    x1="433"
    y1="242"
    x2="433"
    y2="282"
    style="stroke:rgb(0, 0,0);
            stroke-width:4;
"
/>

    <circle cx="433" cy="242" r="4" fill="black" />
<line
    stroke-linecap="square"
    x1="433"
    y1="282"
    x2="493"
    y2="282"
    style="stroke:rgb(0, 0,0);
            stroke-width:4;
"
/>

    <circle cx="433" cy="282" r="4" fill="black" />
<line
    stroke-linecap="square"
    x1="493"
    y1="282"
    x2="493"
    y2="222"
    style="stroke:rgb(0, 0,0);
            stroke-width:4;
"
/>

<line
    stroke-linecap="square"
    x1="493"
    y1="222"
    x2="515"
    y2="222"
    style="stroke:rgb(0, 0,0);
            stroke-width:2;
                marker-end: url(#0,0,0)
            "
/>
    <text
        x="504"
        y="211"
        alignment-baseline="middle"
        font-family="Verdana"
        font-size="11"
        fill="black">
    0
    </text>

    <circle cx="493" cy="222" r="4" fill="black" />
<line
    stroke-linecap="square"
    x1="381"
    y1="222"
    x2="403"
    y2="222"
    style="stroke:rgb(0, 0,0);
            stroke-width:2;
"
/>
    <text
        x="384"
        y="215"
        alignment-baseline="middle"
        font-family="Verdana"
        font-size="11"
        fill="black">
    1
    </text>

<line
    stroke-linecap="square"
    x1="403"
    y1="222"
    x2="403"
    y2="242"
    style="stroke:rgb(0, 0,0);
            stroke-width:4;
"
/>

    <circle cx="403" cy="222" r="4" fill="black" />
<line
    stroke-linecap="square"
    x1="403"
    y1="242"
    x2="433"
    y2="242"
    style="stroke:rgb(0, 0,0);
            stroke-width:4;
"
/>

<line
    stroke-linecap="square"
    x1="433"
    y1="242"
    x2="433"
    y2="282"
    style="stroke:rgb(0, 0,0);
            stroke-width:4;
"
/>

    <circle cx="433" cy="242" r="4" fill="black" />
<line
    stroke-linecap="square"
    x1="433"
    y1="282"
    x2="493"
    y2="282"
    style="stroke:rgb(0, 0,0);
            stroke-width:4;
"
/>

    <circle cx="433" cy="282" r="4" fill="black" />
<line
    stroke-linecap="square"
    x1="493"
    y1="282"
    x2="493"
    y2="262"
    style="stroke:rgb(0, 0,0);
            stroke-width:4;
"
/>

<line
    stroke-linecap="square"
    x1="493"
    y1="262"
    x2="515"
    y2="262"
    style="stroke:rgb(0, 0,0);
            stroke-width:2;
                marker-end: url(#0,0,0)
            "
/>
    <text
        x="504"
        y="251"
        alignment-baseline="middle"
        font-family="Verdana"
        font-size="11"
        fill="black">
    1
    </text>

    <circle cx="493" cy="262" r="4" fill="black" />
<line
    stroke-linecap="square"
    x1="381"
    y1="302"
    x2="403"
    y2="302"
    style="stroke:rgb(0, 0,0);
            stroke-width:2;
"
/>
    <text
        x="384"
        y="295"
        alignment-baseline="middle"
        font-family="Verdana"
        font-size="11"
        fill="black">
    2
    </text>

<line
    stroke-linecap="square"
    x1="403"
    y1="302"
    x2="403"
    y2="242"
    style="stroke:rgb(0, 0,0);
            stroke-width:4;
"
/>

    <circle cx="403" cy="302" r="4" fill="black" />
<line
    stroke-linecap="square"
    x1="403"
    y1="242"
    x2="433"
    y2="242"
    style="stroke:rgb(0, 0,0);
            stroke-width:4;
"
/>

<line
    stroke-linecap="square"
    x1="433"
    y1="242"
    x2="433"
    y2="282"
    style="stroke:rgb(0, 0,0);
            stroke-width:4;
"
/>

    <circle cx="433" cy="242" r="4" fill="black" />
<line
    stroke-linecap="square"
    x1="433"
    y1="282"
    x2="493"
    y2="282"
    style="stroke:rgb(0, 0,0);
            stroke-width:4;
"
/>

    <circle cx="433" cy="282" r="4" fill="black" />
<line
    stroke-linecap="square"
    x1="493"
    y1="282"
    x2="493"
    y2="302"
    style="stroke:rgb(0, 0,0);
            stroke-width:4;
"
/>

<line
    stroke-linecap="square"
    x1="493"
    y1="302"
    x2="515"
    y2="302"
    style="stroke:rgb(0, 0,0);
            stroke-width:2;
                marker-end: url(#0,0,0)
            "
/>
    <text
        x="504"
        y="291"
        alignment-baseline="middle"
        font-family="Verdana"
        font-size="11"
        fill="black">
    2
    </text>

    <circle cx="493" cy="302" r="4" fill="black" />
<line
    stroke-linecap="square"
    x1="381"
    y1="342"
    x2="403"
    y2="342"
    style="stroke:rgb(0, 0,0);
            stroke-width:2;
"
/>
    <text
        x="384"
        y="335"
        alignment-baseline="middle"
        font-family="Verdana"
        font-size="11"
        fill="black">
    3
    </text>

<line
    stroke-linecap="square"
    x1="403"
    y1="342"
    x2="403"
    y2="242"
    style="stroke:rgb(0, 0,0);
            stroke-width:4;
"
/>

    <circle cx="403" cy="342" r="4" fill="black" />
<line
    stroke-linecap="square"
    x1="403"
    y1="242"
    x2="433"
    y2="242"
    style="stroke:rgb(0, 0,0);
            stroke-width:4;
"
/>

<line
    stroke-linecap="square"
    x1="433"
    y1="242"
    x2="433"
    y2="282"
    style="stroke:rgb(0, 0,0);
            stroke-width:4;
"
/>

    <circle cx="433" cy="242" r="4" fill="black" />
<line
    stroke-linecap="square"
    x1="433"
    y1="282"
    x2="493"
    y2="282"
    style="stroke:rgb(0, 0,0);
            stroke-width:4;
"
/>

    <circle cx="433" cy="282" r="4" fill="black" />
<line
    stroke-linecap="square"
    x1="493"
    y1="282"
    x2="493"
    y2="342"
    style="stroke:rgb(0, 0,0);
            stroke-width:4;
"
/>

<line
    stroke-linecap="square"
    x1="493"
    y1="342"
    x2="515"
    y2="342"
    style="stroke:rgb(0, 0,0);
            stroke-width:2;
                marker-end: url(#0,0,0)
            "
/>
    <text
        x="504"
        y="331"
        alignment-baseline="middle"
        font-family="Verdana"
        font-size="11"
        fill="black">
    3
    </text>

    <circle cx="493" cy="342" r="4" fill="black" />
<defs>
    <!-- Small box indicating a port -->
    <rect id="port" x="0" y="0" width="16" height="16"
          style="fill:white;stroke:rgb(0,0,0);stroke-width:1;fill-opacity:1.0;stroke-opacity:1.0"/>
</defs><use x="365" y="214" xlink:href="#port" />
<text text-anchor="end" alignment-baseline="middle" x="362" y="224" transform="rotate(0,362,224)" style="font-weight: regular" font-family="Verdana" font-size="9" fill="black">
level1
</text>

<use x="694" y="79" xlink:href="#port" />
<text text-anchor="start" alignment-baseline="middle" x="714" y="89" transform="rotate(0,714,89)" style="font-weight: regular" font-family="Verdana" font-size="9" fill="black">
level1
</text>

<use x="365" y="294" xlink:href="#port" />
<text text-anchor="end" alignment-baseline="middle" x="362" y="304" transform="rotate(0,362,304)" style="font-weight: regular" font-family="Verdana" font-size="9" fill="black">
pump
</text>

<use x="694" y="119" xlink:href="#port" />
<text text-anchor="start" alignment-baseline="middle" x="714" y="129" transform="rotate(0,714,129)" style="font-weight: regular" font-family="Verdana" font-size="9" fill="black">
pump
</text>

<use x="365" y="334" xlink:href="#port" />
<text text-anchor="end" alignment-baseline="middle" x="362" y="344" transform="rotate(0,362,344)" style="font-weight: regular" font-family="Verdana" font-size="9" fill="black">
valve
</text>

<use x="694" y="159" xlink:href="#port" />
<text text-anchor="start" alignment-baseline="middle" x="714" y="169" transform="rotate(0,714,169)" style="font-weight: regular" font-family="Verdana" font-size="9" fill="black">
valve
</text>

<use x="644" y="214" xlink:href="#port" />
<text text-anchor="end" alignment-baseline="middle" x="641" y="224" transform="rotate(0,641,224)" style="font-weight: regular" font-family="Verdana" font-size="9" fill="black">
button
</text>

<use x="694" y="214" xlink:href="#port" />
<text text-anchor="start" alignment-baseline="middle" x="714" y="224" transform="rotate(0,714,224)" style="font-weight: regular" font-family="Verdana" font-size="9" fill="black">
button
</text>

<use x="168" y="214" xlink:href="#port" />
<text text-anchor="end" alignment-baseline="middle" x="164" y="224" transform="rotate(0,164,224)" style="font-weight: regular" font-family="Verdana" font-size="9" fill="black">
pumpActu
</text>

<text text-anchor="end" alignment-baseline="middle" x="164" y="234" transform="rotate(0,164,234)" style="font-weight: regular" font-family="Verdana" font-size="9" fill="black">
torPort
</text>

<use x="218" y="214" xlink:href="#port" />
<text text-anchor="start" alignment-baseline="middle" x="237" y="224" transform="rotate(0,237,224)" style="font-weight: regular" font-family="Verdana" font-size="9" fill="black">
pumpActu
</text>

<text text-anchor="start" alignment-baseline="middle" x="237" y="234" transform="rotate(0,237,234)" style="font-weight: regular" font-family="Verdana" font-size="9" fill="black">
torPort
</text>

<use x="168" y="159" xlink:href="#port" />
<text text-anchor="end" alignment-baseline="middle" x="164" y="169" transform="rotate(0,164,169)" style="font-weight: regular" font-family="Verdana" font-size="9" fill="black">
valveOpen
</text>

<use x="218" y="159" xlink:href="#port" />
<text text-anchor="start" alignment-baseline="middle" x="237" y="169" transform="rotate(0,237,169)" style="font-weight: regular" font-family="Verdana" font-size="9" fill="black">
valveOpen
</text>

<use x="168" y="119" xlink:href="#port" />
<text text-anchor="end" alignment-baseline="middle" x="164" y="129" transform="rotate(0,164,129)" style="font-weight: regular" font-family="Verdana" font-size="9" fill="black">
valve
</text>

<text text-anchor="end" alignment-baseline="middle" x="164" y="139" transform="rotate(0,164,139)" style="font-weight: regular" font-family="Verdana" font-size="9" fill="black">
lose
</text>

<use x="218" y="119" xlink:href="#port" />
<text text-anchor="start" alignment-baseline="middle" x="237" y="129" transform="rotate(0,237,129)" style="font-weight: regular" font-family="Verdana" font-size="9" fill="black">
valve
</text>

<text text-anchor="start" alignment-baseline="middle" x="237" y="139" transform="rotate(0,237,139)" style="font-weight: regular" font-family="Verdana" font-size="9" fill="black">
lose
</text>

<use x="365" y="79" xlink:href="#port" />
<text text-anchor="end" alignment-baseline="middle" x="362" y="89" transform="rotate(0,362,89)" style="font-weight: regular" font-family="Verdana" font-size="9" fill="black">
level2
</text>

<use x="515" y="214" xlink:href="#port" />
<text text-anchor="start" alignment-baseline="middle" x="534" y="224" transform="rotate(0,534,224)" style="font-weight: regular" font-family="Verdana" font-size="9" fill="black">
level2
</text>

<use x="365" y="214" xlink:href="#port" />
<text text-anchor="end" alignment-baseline="middle" x="362" y="224" transform="rotate(0,362,224)" style="font-weight: regular" font-family="Verdana" font-size="9" fill="black">
level1
</text>

<use x="515" y="254" xlink:href="#port" />
<text text-anchor="start" alignment-baseline="middle" x="534" y="264" transform="rotate(0,534,264)" style="font-weight: regular" font-family="Verdana" font-size="9" fill="black">
level1
</text>

<use x="365" y="294" xlink:href="#port" />
<text text-anchor="end" alignment-baseline="middle" x="362" y="304" transform="rotate(0,362,304)" style="font-weight: regular" font-family="Verdana" font-size="9" fill="black">
pump
</text>

<use x="515" y="294" xlink:href="#port" />
<text text-anchor="start" alignment-baseline="middle" x="534" y="304" transform="rotate(0,534,304)" style="font-weight: regular" font-family="Verdana" font-size="9" fill="black">
pump
</text>

<use x="365" y="334" xlink:href="#port" />
<text text-anchor="end" alignment-baseline="middle" x="362" y="344" transform="rotate(0,362,344)" style="font-weight: regular" font-family="Verdana" font-size="9" fill="black">
valve
</text>

<use x="515" y="334" xlink:href="#port" />
<text text-anchor="start" alignment-baseline="middle" x="534" y="344" transform="rotate(0,534,344)" style="font-weight: regular" font-family="Verdana" font-size="9" fill="black">
valve
</text>


</svg>