<svg width="100%" height="100%" xmlns="http://www.w3.org/2000/svg" version="1.1" xmlns:xlink="http://www.w3.org/1999/xlink">
    <svg xmlns="http://www.w3.org/2000/svg" version="1.1">

<!-- Canvas: behaviorGeneration -->
<g transform="translate(16 20)">

    <rect
        id="15162"
        width="440"
        height="402"
        style="fill:white;stroke:black;stroke-width:2;fill-opacity:1.0;stroke-opacity:1.0"/>

    <text
        x="8"
        y="20"
        font-family="Verdana"
        fill="black">
            <tspan style="font-weight: bold" font-size="13">behaviorGeneration</tspan>
    </text>

</g>

</svg><!-- Component: trimPath -->
<g transform="translate(126 147)">
    <rect
        data-name="testManuelSchrick.autopilot.autopilot.behaviorGeneration.trimPath"
        id="15164"
        width="82"
        height="255"
        style="
                fill:white;
            stroke:black;
            stroke-width:2;
            fill-opacity:1.0;
            stroke-opacity:1.0"
        onmouseout="this.style.stroke = '#000000'; this.style['stroke-width'] = 2; this.style.cursor='default';"
    />

    <text
        x="10"
        y="15"
        alignment-baseline="middle"
        font-family="Verdana"
        fill="black">
            <tspan style="font-weight: bold" font-size="11">trimPath</tspan>
    </text>

</g><!-- Component: calcMotionCmds -->
<g transform="translate(278 52)">
    <rect
        data-name="testManuelSchrick.autopilot.autopilot.behaviorGeneration.calcMotionCmds"
        id="15165"
        width="128"
        height="350"
        style="
                fill:rgb(242,242,242);
            stroke:black;
            stroke-width:2;
            fill-opacity:1.0;
            stroke-opacity:1.0"
        onmouseout="this.style.stroke = '#000000'; this.style['stroke-width'] = 2; this.style.cursor='default';"
            onmouseover="this.style.stroke = '#316FC0'; this.style['stroke-width'] = 5; this.style.cursor='pointer';"
            onclick="window.open('testManuelSchrick.autopilot.autopilot.behaviorGeneration.calcMotionCmds_no_port_names.html','_parent',false);parent.openFileInEditor('/autopilot/autopilot/behaviorGeneration/calcMotionCmds.ema');"
    />

    <text
        x="10"
        y="15"
        alignment-baseline="middle"
        font-family="Verdana"
        fill="black">
            <tspan style="font-weight: bold" font-size="11">calcMotionCmds</tspan>
    </text>

</g><defs>
    <marker id="0,0,0" markerWidth="13" markerHeight="13" refX="5" refY="5" orient="auto">
            <polyline points="0,2 5,5 0,8" style="fill:none; stroke:rgb(0,0,0);
                    stroke-width:1" />
    </marker>
</defs><line
    stroke-linecap="square"
    x1="414"
    y1="127"
    x2="448"
    y2="127"
    style="stroke:rgb(0, 0,0);
            stroke-width:2;
                marker-end: url(#0,0,0)
            "
/>

<line
    stroke-linecap="square"
    x1="414"
    y1="87"
    x2="448"
    y2="87"
    style="stroke:rgb(0, 0,0);
            stroke-width:2;
                marker-end: url(#0,0,0)
            "
/>

<line
    stroke-linecap="square"
    x1="414"
    y1="182"
    x2="448"
    y2="182"
    style="stroke:rgb(0, 0,0);
            stroke-width:2;
                marker-end: url(#0,0,0)
            "
/>

<line
    stroke-linecap="square"
    x1="414"
    y1="222"
    x2="448"
    y2="222"
    style="stroke:rgb(0, 0,0);
            stroke-width:2;
                marker-end: url(#0,0,0)
            "
/>

<line
    stroke-linecap="square"
    x1="24"
    y1="87"
    x2="46"
    y2="87"
    style="stroke:rgb(0, 0,0);
            stroke-width:2;
"
/>
    <text
        x="27"
        y="80"
        alignment-baseline="middle"
        font-family="Verdana"
        font-size="11"
        fill="black">
    0
    </text>

<line
    stroke-linecap="square"
    x1="46"
    y1="87"
    x2="46"
    y2="227"
    style="stroke:rgb(0, 0,0);
            stroke-width:4;
"
/>

    <circle cx="46" cy="87" r="4" fill="black" />
<line
    stroke-linecap="square"
    x1="46"
    y1="227"
    x2="56"
    y2="227"
    style="stroke:rgb(0, 0,0);
            stroke-width:4;
"
/>

<line
    stroke-linecap="square"
    x1="56"
    y1="227"
    x2="56"
    y2="282"
    style="stroke:rgb(0, 0,0);
            stroke-width:4;
"
/>

    <circle cx="56" cy="227" r="4" fill="black" />
<line
    stroke-linecap="square"
    x1="56"
    y1="282"
    x2="96"
    y2="282"
    style="stroke:rgb(0, 0,0);
            stroke-width:4;
"
/>

    <circle cx="56" cy="282" r="4" fill="black" />
<line
    stroke-linecap="square"
    x1="96"
    y1="282"
    x2="96"
    y2="182"
    style="stroke:rgb(0, 0,0);
            stroke-width:4;
"
/>

<line
    stroke-linecap="square"
    x1="96"
    y1="182"
    x2="118"
    y2="182"
    style="stroke:rgb(0, 0,0);
            stroke-width:2;
                marker-end: url(#0,0,0)
            "
/>
    <text
        x="107"
        y="171"
        alignment-baseline="middle"
        font-family="Verdana"
        font-size="11"
        fill="black">
    0
    </text>

    <circle cx="96" cy="182" r="4" fill="black" />
<line
    stroke-linecap="square"
    x1="24"
    y1="127"
    x2="46"
    y2="127"
    style="stroke:rgb(0, 0,0);
            stroke-width:2;
"
/>
    <text
        x="27"
        y="120"
        alignment-baseline="middle"
        font-family="Verdana"
        font-size="11"
        fill="black">
    1
    </text>

<line
    stroke-linecap="square"
    x1="46"
    y1="127"
    x2="46"
    y2="227"
    style="stroke:rgb(0, 0,0);
            stroke-width:4;
"
/>

    <circle cx="46" cy="127" r="4" fill="black" />
<line
    stroke-linecap="square"
    x1="46"
    y1="227"
    x2="56"
    y2="227"
    style="stroke:rgb(0, 0,0);
            stroke-width:4;
"
/>

<line
    stroke-linecap="square"
    x1="56"
    y1="227"
    x2="56"
    y2="282"
    style="stroke:rgb(0, 0,0);
            stroke-width:4;
"
/>

    <circle cx="56" cy="227" r="4" fill="black" />
<line
    stroke-linecap="square"
    x1="56"
    y1="282"
    x2="96"
    y2="282"
    style="stroke:rgb(0, 0,0);
            stroke-width:4;
"
/>

    <circle cx="56" cy="282" r="4" fill="black" />
<line
    stroke-linecap="square"
    x1="96"
    y1="282"
    x2="96"
    y2="222"
    style="stroke:rgb(0, 0,0);
            stroke-width:4;
"
/>

<line
    stroke-linecap="square"
    x1="96"
    y1="222"
    x2="118"
    y2="222"
    style="stroke:rgb(0, 0,0);
            stroke-width:2;
                marker-end: url(#0,0,0)
            "
/>
    <text
        x="107"
        y="211"
        alignment-baseline="middle"
        font-family="Verdana"
        font-size="11"
        fill="black">
    1
    </text>

    <circle cx="96" cy="222" r="4" fill="black" />
<line
    stroke-linecap="square"
    x1="24"
    y1="262"
    x2="46"
    y2="262"
    style="stroke:rgb(0, 0,0);
            stroke-width:2;
"
/>
    <text
        x="27"
        y="255"
        alignment-baseline="middle"
        font-family="Verdana"
        font-size="11"
        fill="black">
    4
    </text>

<line
    stroke-linecap="square"
    x1="46"
    y1="262"
    x2="46"
    y2="227"
    style="stroke:rgb(0, 0,0);
            stroke-width:4;
"
/>

    <circle cx="46" cy="262" r="4" fill="black" />
<line
    stroke-linecap="square"
    x1="46"
    y1="227"
    x2="56"
    y2="227"
    style="stroke:rgb(0, 0,0);
            stroke-width:4;
"
/>

<line
    stroke-linecap="square"
    x1="56"
    y1="227"
    x2="56"
    y2="282"
    style="stroke:rgb(0, 0,0);
            stroke-width:4;
"
/>

    <circle cx="56" cy="227" r="4" fill="black" />
<line
    stroke-linecap="square"
    x1="56"
    y1="282"
    x2="96"
    y2="282"
    style="stroke:rgb(0, 0,0);
            stroke-width:4;
"
/>

    <circle cx="56" cy="282" r="4" fill="black" />
<line
    stroke-linecap="square"
    x1="96"
    y1="282"
    x2="96"
    y2="262"
    style="stroke:rgb(0, 0,0);
            stroke-width:4;
"
/>

<line
    stroke-linecap="square"
    x1="96"
    y1="262"
    x2="118"
    y2="262"
    style="stroke:rgb(0, 0,0);
            stroke-width:2;
                marker-end: url(#0,0,0)
            "
/>
    <text
        x="107"
        y="251"
        alignment-baseline="middle"
        font-family="Verdana"
        font-size="11"
        fill="black">
    4
    </text>

    <circle cx="96" cy="262" r="4" fill="black" />
<line
    stroke-linecap="square"
    x1="24"
    y1="302"
    x2="46"
    y2="302"
    style="stroke:rgb(0, 0,0);
            stroke-width:2;
"
/>
    <text
        x="27"
        y="295"
        alignment-baseline="middle"
        font-family="Verdana"
        font-size="11"
        fill="black">
    5
    </text>

<line
    stroke-linecap="square"
    x1="46"
    y1="302"
    x2="46"
    y2="227"
    style="stroke:rgb(0, 0,0);
            stroke-width:4;
"
/>

    <circle cx="46" cy="302" r="4" fill="black" />
<line
    stroke-linecap="square"
    x1="46"
    y1="227"
    x2="56"
    y2="227"
    style="stroke:rgb(0, 0,0);
            stroke-width:4;
"
/>

<line
    stroke-linecap="square"
    x1="56"
    y1="227"
    x2="56"
    y2="282"
    style="stroke:rgb(0, 0,0);
            stroke-width:4;
"
/>

    <circle cx="56" cy="227" r="4" fill="black" />
<line
    stroke-linecap="square"
    x1="56"
    y1="282"
    x2="96"
    y2="282"
    style="stroke:rgb(0, 0,0);
            stroke-width:4;
"
/>

    <circle cx="56" cy="282" r="4" fill="black" />
<line
    stroke-linecap="square"
    x1="96"
    y1="282"
    x2="96"
    y2="302"
    style="stroke:rgb(0, 0,0);
            stroke-width:4;
"
/>

<line
    stroke-linecap="square"
    x1="96"
    y1="302"
    x2="118"
    y2="302"
    style="stroke:rgb(0, 0,0);
            stroke-width:2;
                marker-end: url(#0,0,0)
            "
/>
    <text
        x="107"
        y="291"
        alignment-baseline="middle"
        font-family="Verdana"
        font-size="11"
        fill="black">
    5
    </text>

    <circle cx="96" cy="302" r="4" fill="black" />
<line
    stroke-linecap="square"
    x1="24"
    y1="382"
    x2="46"
    y2="382"
    style="stroke:rgb(0, 0,0);
            stroke-width:2;
"
/>
    <text
        x="27"
        y="375"
        alignment-baseline="middle"
        font-family="Verdana"
        font-size="11"
        fill="black">
    6
    </text>

<line
    stroke-linecap="square"
    x1="46"
    y1="382"
    x2="46"
    y2="227"
    style="stroke:rgb(0, 0,0);
            stroke-width:4;
"
/>

    <circle cx="46" cy="382" r="4" fill="black" />
<line
    stroke-linecap="square"
    x1="46"
    y1="227"
    x2="56"
    y2="227"
    style="stroke:rgb(0, 0,0);
            stroke-width:4;
"
/>

<line
    stroke-linecap="square"
    x1="56"
    y1="227"
    x2="56"
    y2="282"
    style="stroke:rgb(0, 0,0);
            stroke-width:4;
"
/>

    <circle cx="56" cy="227" r="4" fill="black" />
<line
    stroke-linecap="square"
    x1="56"
    y1="282"
    x2="96"
    y2="282"
    style="stroke:rgb(0, 0,0);
            stroke-width:4;
"
/>

    <circle cx="56" cy="282" r="4" fill="black" />
<line
    stroke-linecap="square"
    x1="96"
    y1="282"
    x2="96"
    y2="382"
    style="stroke:rgb(0, 0,0);
            stroke-width:4;
"
/>

<line
    stroke-linecap="square"
    x1="96"
    y1="382"
    x2="118"
    y2="382"
    style="stroke:rgb(0, 0,0);
            stroke-width:2;
                marker-end: url(#0,0,0)
            "
/>
    <text
        x="107"
        y="371"
        alignment-baseline="middle"
        font-family="Verdana"
        font-size="11"
        fill="black">
    6
    </text>

    <circle cx="96" cy="382" r="4" fill="black" />
<line
    stroke-linecap="square"
    x1="24"
    y1="87"
    x2="46"
    y2="87"
    style="stroke:rgb(0, 0,0);
            stroke-width:2;
"
/>
    <text
        x="27"
        y="80"
        alignment-baseline="middle"
        font-family="Verdana"
        font-size="11"
        fill="black">
    0
    </text>

<line
    stroke-linecap="square"
    x1="46"
    y1="87"
    x2="46"
    y2="227"
    style="stroke:rgb(0, 0,0);
            stroke-width:4;
"
/>

    <circle cx="46" cy="87" r="4" fill="black" />
<line
    stroke-linecap="square"
    x1="46"
    y1="227"
    x2="56"
    y2="227"
    style="stroke:rgb(0, 0,0);
            stroke-width:4;
"
/>

<line
    stroke-linecap="square"
    x1="56"
    y1="227"
    x2="56"
    y2="127"
    style="stroke:rgb(0, 0,0);
            stroke-width:4;
"
/>

    <circle cx="56" cy="227" r="4" fill="black" />
<line
    stroke-linecap="square"
    x1="56"
    y1="127"
    x2="248"
    y2="127"
    style="stroke:rgb(0, 0,0);
            stroke-width:4;
"
/>

    <circle cx="56" cy="127" r="4" fill="black" />
<line
    stroke-linecap="square"
    x1="248"
    y1="127"
    x2="248"
    y2="127"
    style="stroke:rgb(0, 0,0);
            stroke-width:4;
"
/>

<line
    stroke-linecap="square"
    x1="248"
    y1="127"
    x2="270"
    y2="127"
    style="stroke:rgb(0, 0,0);
            stroke-width:2;
                marker-end: url(#0,0,0)
            "
/>
    <text
        x="259"
        y="116"
        alignment-baseline="middle"
        font-family="Verdana"
        font-size="11"
        fill="black">
    0
    </text>

    <circle cx="248" cy="127" r="4" fill="black" />
<line
    stroke-linecap="square"
    x1="24"
    y1="127"
    x2="46"
    y2="127"
    style="stroke:rgb(0, 0,0);
            stroke-width:2;
"
/>
    <text
        x="27"
        y="120"
        alignment-baseline="middle"
        font-family="Verdana"
        font-size="11"
        fill="black">
    1
    </text>

<line
    stroke-linecap="square"
    x1="46"
    y1="127"
    x2="46"
    y2="227"
    style="stroke:rgb(0, 0,0);
            stroke-width:4;
"
/>

    <circle cx="46" cy="127" r="4" fill="black" />
<line
    stroke-linecap="square"
    x1="46"
    y1="227"
    x2="56"
    y2="227"
    style="stroke:rgb(0, 0,0);
            stroke-width:4;
"
/>

<line
    stroke-linecap="square"
    x1="56"
    y1="227"
    x2="56"
    y2="127"
    style="stroke:rgb(0, 0,0);
            stroke-width:4;
"
/>

    <circle cx="56" cy="227" r="4" fill="black" />
<line
    stroke-linecap="square"
    x1="56"
    y1="127"
    x2="248"
    y2="127"
    style="stroke:rgb(0, 0,0);
            stroke-width:4;
"
/>

    <circle cx="56" cy="127" r="4" fill="black" />
<line
    stroke-linecap="square"
    x1="248"
    y1="127"
    x2="248"
    y2="182"
    style="stroke:rgb(0, 0,0);
            stroke-width:4;
"
/>

<line
    stroke-linecap="square"
    x1="248"
    y1="182"
    x2="270"
    y2="182"
    style="stroke:rgb(0, 0,0);
            stroke-width:2;
                marker-end: url(#0,0,0)
            "
/>
    <text
        x="259"
        y="171"
        alignment-baseline="middle"
        font-family="Verdana"
        font-size="11"
        fill="black">
    1
    </text>

    <circle cx="248" cy="182" r="4" fill="black" />
<line
    stroke-linecap="square"
    x1="24"
    y1="182"
    x2="46"
    y2="182"
    style="stroke:rgb(0, 0,0);
            stroke-width:2;
"
/>
    <text
        x="27"
        y="175"
        alignment-baseline="middle"
        font-family="Verdana"
        font-size="11"
        fill="black">
    2
    </text>

<line
    stroke-linecap="square"
    x1="46"
    y1="182"
    x2="46"
    y2="227"
    style="stroke:rgb(0, 0,0);
            stroke-width:4;
"
/>

    <circle cx="46" cy="182" r="4" fill="black" />
<line
    stroke-linecap="square"
    x1="46"
    y1="227"
    x2="56"
    y2="227"
    style="stroke:rgb(0, 0,0);
            stroke-width:4;
"
/>

<line
    stroke-linecap="square"
    x1="56"
    y1="227"
    x2="56"
    y2="127"
    style="stroke:rgb(0, 0,0);
            stroke-width:4;
"
/>

    <circle cx="56" cy="227" r="4" fill="black" />
<line
    stroke-linecap="square"
    x1="56"
    y1="127"
    x2="248"
    y2="127"
    style="stroke:rgb(0, 0,0);
            stroke-width:4;
"
/>

    <circle cx="56" cy="127" r="4" fill="black" />
<line
    stroke-linecap="square"
    x1="248"
    y1="127"
    x2="248"
    y2="222"
    style="stroke:rgb(0, 0,0);
            stroke-width:4;
"
/>

<line
    stroke-linecap="square"
    x1="248"
    y1="222"
    x2="270"
    y2="222"
    style="stroke:rgb(0, 0,0);
            stroke-width:2;
                marker-end: url(#0,0,0)
            "
/>
    <text
        x="259"
        y="211"
        alignment-baseline="middle"
        font-family="Verdana"
        font-size="11"
        fill="black">
    2
    </text>

    <circle cx="248" cy="222" r="4" fill="black" />
<line
    stroke-linecap="square"
    x1="24"
    y1="222"
    x2="46"
    y2="222"
    style="stroke:rgb(0, 0,0);
            stroke-width:2;
"
/>
    <text
        x="27"
        y="215"
        alignment-baseline="middle"
        font-family="Verdana"
        font-size="11"
        fill="black">
    3
    </text>

<line
    stroke-linecap="square"
    x1="46"
    y1="222"
    x2="46"
    y2="227"
    style="stroke:rgb(0, 0,0);
            stroke-width:4;
"
/>

    <circle cx="46" cy="222" r="4" fill="black" />
<line
    stroke-linecap="square"
    x1="46"
    y1="227"
    x2="56"
    y2="227"
    style="stroke:rgb(0, 0,0);
            stroke-width:4;
"
/>

<line
    stroke-linecap="square"
    x1="56"
    y1="227"
    x2="56"
    y2="127"
    style="stroke:rgb(0, 0,0);
            stroke-width:4;
"
/>

    <circle cx="56" cy="227" r="4" fill="black" />
<line
    stroke-linecap="square"
    x1="56"
    y1="127"
    x2="248"
    y2="127"
    style="stroke:rgb(0, 0,0);
            stroke-width:4;
"
/>

    <circle cx="56" cy="127" r="4" fill="black" />
<line
    stroke-linecap="square"
    x1="248"
    y1="127"
    x2="248"
    y2="262"
    style="stroke:rgb(0, 0,0);
            stroke-width:4;
"
/>

<line
    stroke-linecap="square"
    x1="248"
    y1="262"
    x2="270"
    y2="262"
    style="stroke:rgb(0, 0,0);
            stroke-width:2;
                marker-end: url(#0,0,0)
            "
/>
    <text
        x="259"
        y="251"
        alignment-baseline="middle"
        font-family="Verdana"
        font-size="11"
        fill="black">
    3
    </text>

    <circle cx="248" cy="262" r="4" fill="black" />
<line
    stroke-linecap="square"
    x1="216"
    y1="382"
    x2="270"
    y2="382"
    style="stroke:rgb(0, 0,0);
            stroke-width:2;
                marker-end: url(#0,0,0)
            "
/>

<line
    stroke-linecap="square"
    x1="216"
    y1="302"
    x2="270"
    y2="302"
    style="stroke:rgb(0, 0,0);
            stroke-width:2;
                marker-end: url(#0,0,0)
            "
/>

<line
    stroke-linecap="square"
    x1="216"
    y1="342"
    x2="270"
    y2="342"
    style="stroke:rgb(0, 0,0);
            stroke-width:2;
                marker-end: url(#0,0,0)
            "
/>

<defs>
    <!-- Small box indicating a port -->
    <rect id="port" x="0" y="0" width="16" height="16"
          style="fill:white;stroke:rgb(0,0,0);stroke-width:1;fill-opacity:1.0;stroke-opacity:1.0"/>
</defs><use x="398" y="119" xlink:href="#port" />
<text text-anchor="end" alignment-baseline="middle" x="395" y="129" transform="rotate(0,395,129)" style="font-weight: regular" font-family="Verdana" font-size="9" fill="black">

</text>

<use x="448" y="119" xlink:href="#port" />
<text text-anchor="start" alignment-baseline="middle" x="468" y="129" transform="rotate(0,468,129)" style="font-weight: regular" font-family="Verdana" font-size="9" fill="black">

</text>

<use x="398" y="79" xlink:href="#port" />
<text text-anchor="end" alignment-baseline="middle" x="395" y="89" transform="rotate(0,395,89)" style="font-weight: regular" font-family="Verdana" font-size="9" fill="black">

</text>

<use x="448" y="79" xlink:href="#port" />
<text text-anchor="start" alignment-baseline="middle" x="468" y="89" transform="rotate(0,468,89)" style="font-weight: regular" font-family="Verdana" font-size="9" fill="black">

</text>

<use x="398" y="174" xlink:href="#port" />
<text text-anchor="end" alignment-baseline="middle" x="395" y="184" transform="rotate(0,395,184)" style="font-weight: regular" font-family="Verdana" font-size="9" fill="black">

</text>

<use x="448" y="174" xlink:href="#port" />
<text text-anchor="start" alignment-baseline="middle" x="468" y="184" transform="rotate(0,468,184)" style="font-weight: regular" font-family="Verdana" font-size="9" fill="black">

</text>

<use x="398" y="214" xlink:href="#port" />
<text text-anchor="end" alignment-baseline="middle" x="395" y="224" transform="rotate(0,395,224)" style="font-weight: regular" font-family="Verdana" font-size="9" fill="black">

</text>

<use x="448" y="214" xlink:href="#port" />
<text text-anchor="start" alignment-baseline="middle" x="468" y="224" transform="rotate(0,468,224)" style="font-weight: regular" font-family="Verdana" font-size="9" fill="black">

</text>

<use x="8" y="79" xlink:href="#port" />
<text text-anchor="end" alignment-baseline="middle" x="4" y="89" transform="rotate(0,4,89)" style="font-weight: regular" font-family="Verdana" font-size="9" fill="black">

</text>

<use x="118" y="174" xlink:href="#port" />
<text text-anchor="start" alignment-baseline="middle" x="137" y="184" transform="rotate(0,137,184)" style="font-weight: regular" font-family="Verdana" font-size="9" fill="black">

</text>

<use x="8" y="119" xlink:href="#port" />
<text text-anchor="end" alignment-baseline="middle" x="4" y="129" transform="rotate(0,4,129)" style="font-weight: regular" font-family="Verdana" font-size="9" fill="black">

</text>

<use x="118" y="214" xlink:href="#port" />
<text text-anchor="start" alignment-baseline="middle" x="137" y="224" transform="rotate(0,137,224)" style="font-weight: regular" font-family="Verdana" font-size="9" fill="black">

</text>

<use x="8" y="254" xlink:href="#port" />
<text text-anchor="end" alignment-baseline="middle" x="4" y="264" transform="rotate(0,4,264)" style="font-weight: regular" font-family="Verdana" font-size="9" fill="black">

</text>

<use x="118" y="254" xlink:href="#port" />
<text text-anchor="start" alignment-baseline="middle" x="137" y="264" transform="rotate(0,137,264)" style="font-weight: regular" font-family="Verdana" font-size="9" fill="black">

</text>

<use x="8" y="294" xlink:href="#port" />
<text text-anchor="end" alignment-baseline="middle" x="4" y="304" transform="rotate(0,4,304)" style="font-weight: regular" font-family="Verdana" font-size="9" fill="black">

</text>

<use x="118" y="294" xlink:href="#port" />
<text text-anchor="start" alignment-baseline="middle" x="137" y="304" transform="rotate(0,137,304)" style="font-weight: regular" font-family="Verdana" font-size="9" fill="black">

</text>

<use x="8" y="374" xlink:href="#port" />
<text text-anchor="end" alignment-baseline="middle" x="4" y="384" transform="rotate(0,4,384)" style="font-weight: regular" font-family="Verdana" font-size="9" fill="black">

</text>

<use x="118" y="374" xlink:href="#port" />
<text text-anchor="start" alignment-baseline="middle" x="137" y="384" transform="rotate(0,137,384)" style="font-weight: regular" font-family="Verdana" font-size="9" fill="black">

</text>

<use x="8" y="79" xlink:href="#port" />
<text text-anchor="end" alignment-baseline="middle" x="4" y="89" transform="rotate(0,4,89)" style="font-weight: regular" font-family="Verdana" font-size="9" fill="black">

</text>

<use x="270" y="119" xlink:href="#port" />
<text text-anchor="start" alignment-baseline="middle" x="289" y="129" transform="rotate(0,289,129)" style="font-weight: regular" font-family="Verdana" font-size="9" fill="black">

</text>

<use x="8" y="119" xlink:href="#port" />
<text text-anchor="end" alignment-baseline="middle" x="4" y="129" transform="rotate(0,4,129)" style="font-weight: regular" font-family="Verdana" font-size="9" fill="black">

</text>

<use x="270" y="174" xlink:href="#port" />
<text text-anchor="start" alignment-baseline="middle" x="289" y="184" transform="rotate(0,289,184)" style="font-weight: regular" font-family="Verdana" font-size="9" fill="black">

</text>

<use x="8" y="174" xlink:href="#port" />
<text text-anchor="end" alignment-baseline="middle" x="4" y="184" transform="rotate(0,4,184)" style="font-weight: regular" font-family="Verdana" font-size="9" fill="black">

</text>

<use x="270" y="214" xlink:href="#port" />
<text text-anchor="start" alignment-baseline="middle" x="289" y="224" transform="rotate(0,289,224)" style="font-weight: regular" font-family="Verdana" font-size="9" fill="black">

</text>

<use x="8" y="214" xlink:href="#port" />
<text text-anchor="end" alignment-baseline="middle" x="4" y="224" transform="rotate(0,4,224)" style="font-weight: regular" font-family="Verdana" font-size="9" fill="black">

</text>

<use x="270" y="254" xlink:href="#port" />
<text text-anchor="start" alignment-baseline="middle" x="289" y="264" transform="rotate(0,289,264)" style="font-weight: regular" font-family="Verdana" font-size="9" fill="black">

</text>

<use x="200" y="374" xlink:href="#port" />
<text text-anchor="end" alignment-baseline="middle" x="197" y="384" transform="rotate(0,197,384)" style="font-weight: regular" font-family="Verdana" font-size="9" fill="black">

</text>

<use x="270" y="374" xlink:href="#port" />
<text text-anchor="start" alignment-baseline="middle" x="289" y="384" transform="rotate(0,289,384)" style="font-weight: regular" font-family="Verdana" font-size="9" fill="black">

</text>

<use x="200" y="294" xlink:href="#port" />
<text text-anchor="end" alignment-baseline="middle" x="197" y="304" transform="rotate(0,197,304)" style="font-weight: regular" font-family="Verdana" font-size="9" fill="black">

</text>

<use x="270" y="294" xlink:href="#port" />
<text text-anchor="start" alignment-baseline="middle" x="289" y="304" transform="rotate(0,289,304)" style="font-weight: regular" font-family="Verdana" font-size="9" fill="black">

</text>

<use x="200" y="334" xlink:href="#port" />
<text text-anchor="end" alignment-baseline="middle" x="197" y="344" transform="rotate(0,197,344)" style="font-weight: regular" font-family="Verdana" font-size="9" fill="black">

</text>

<use x="270" y="334" xlink:href="#port" />
<text text-anchor="start" alignment-baseline="middle" x="289" y="344" transform="rotate(0,289,344)" style="font-weight: regular" font-family="Verdana" font-size="9" fill="black">

</text>


</svg>