<svg width="100%" height="100%" xmlns="http://www.w3.org/2000/svg" version="1.1" xmlns:xlink="http://www.w3.org/1999/xlink">
    <svg xmlns="http://www.w3.org/2000/svg" version="1.1">

<!-- Canvas: behaviorGeneration -->
<g transform="translate(16 20)">

    <rect
        id="957"
        width="620"
        height="470"
        style="fill:white;stroke:black;stroke-width:2;fill-opacity:1.0;stroke-opacity:1.0"/>

    <text
        x="8"
        y="20"
        font-family="Verdana"
        fill="black">
            <tspan style="font-weight: bold" font-size="13">behaviorGeneration</tspan>
    </text>

</g>

</svg><!-- Component: trimPath -->
<g transform="translate(166 215)">
    <rect
        data-name="testManuelSchrick.autopilot.autopilot.behaviorGeneration.trimPath"
        id="959"
        width="120"
        height="255"
        style="
                fill:white;
            stroke:black;
            stroke-width:2;
            fill-opacity:1.0;
            stroke-opacity:1.0"
        onmouseout="this.style.stroke = '#000000'; this.style['stroke-width'] = 2; this.style.cursor='default';"
    />

    <text
        x="10"
        y="15"
        alignment-baseline="middle"
        font-family="Verdana"
        fill="black">
            <tspan style="font-weight: bold" font-size="11">trimPath</tspan>
    </text>

</g><!-- Component: calcMotionCmds -->
<g transform="translate(376 120)">
    <rect
        data-name="testManuelSchrick.autopilot.autopilot.behaviorGeneration.calcMotionCmds"
        id="960"
        width="210"
        height="350"
        style="
                fill:rgb(242,242,242);
            stroke:black;
            stroke-width:2;
            fill-opacity:1.0;
            stroke-opacity:1.0"
        onmouseout="this.style.stroke = '#000000'; this.style['stroke-width'] = 2; this.style.cursor='default';"
            onmouseover="this.style.stroke = '#316FC0'; this.style['stroke-width'] = 5; this.style.cursor='pointer';"
            onclick="window.open('testManuelSchrick.autopilot.autopilot.behaviorGeneration.calcMotionCmds_no_port_names.html','_parent',false);parent.openFileInEditor('/autopilot/autopilot/behaviorGeneration/calcMotionCmds.ema');"
    />

    <text
        x="10"
        y="15"
        alignment-baseline="middle"
        font-family="Verdana"
        fill="black">
            <tspan style="font-weight: bold" font-size="11">calcMotionCmds</tspan>
    </text>

</g><defs>
    <marker id="0,0,0" markerWidth="13" markerHeight="13" refX="5" refY="5" orient="auto">
            <polyline points="0,2 5,5 0,8" style="fill:none; stroke:rgb(0,0,0);
                    stroke-width:1" />
    </marker>
</defs><line
    stroke-linecap="square"
    x1="594"
    y1="195"
    x2="628"
    y2="195"
    style="stroke:rgb(0, 0,0);
            stroke-width:2;
                marker-end: url(#0,0,0)
            "
/>

<line
    stroke-linecap="square"
    x1="594"
    y1="155"
    x2="628"
    y2="155"
    style="stroke:rgb(0, 0,0);
            stroke-width:2;
                marker-end: url(#0,0,0)
            "
/>

<line
    stroke-linecap="square"
    x1="594"
    y1="250"
    x2="628"
    y2="250"
    style="stroke:rgb(0, 0,0);
            stroke-width:2;
                marker-end: url(#0,0,0)
            "
/>

<line
    stroke-linecap="square"
    x1="594"
    y1="290"
    x2="628"
    y2="290"
    style="stroke:rgb(0, 0,0);
            stroke-width:2;
                marker-end: url(#0,0,0)
            "
/>

<line
    stroke-linecap="square"
    x1="24"
    y1="155"
    x2="46"
    y2="155"
    style="stroke:rgb(0, 0,0);
            stroke-width:2;
"
/>
    <text
        x="27"
        y="148"
        alignment-baseline="middle"
        font-family="Verdana"
        font-size="11"
        fill="black">
    0
    </text>

<line
    stroke-linecap="square"
    x1="46"
    y1="155"
    x2="46"
    y2="295"
    style="stroke:rgb(0, 0,0);
            stroke-width:4;
"
/>

    <circle cx="46" cy="155" r="4" fill="black" />
<line
    stroke-linecap="square"
    x1="46"
    y1="295"
    x2="76"
    y2="295"
    style="stroke:rgb(0, 0,0);
            stroke-width:4;
"
/>

<line
    stroke-linecap="square"
    x1="76"
    y1="295"
    x2="76"
    y2="350"
    style="stroke:rgb(0, 0,0);
            stroke-width:4;
"
/>

    <circle cx="76" cy="295" r="4" fill="black" />
<line
    stroke-linecap="square"
    x1="76"
    y1="350"
    x2="136"
    y2="350"
    style="stroke:rgb(0, 0,0);
            stroke-width:4;
"
/>

    <circle cx="76" cy="350" r="4" fill="black" />
<line
    stroke-linecap="square"
    x1="136"
    y1="350"
    x2="136"
    y2="250"
    style="stroke:rgb(0, 0,0);
            stroke-width:4;
"
/>

<line
    stroke-linecap="square"
    x1="136"
    y1="250"
    x2="158"
    y2="250"
    style="stroke:rgb(0, 0,0);
            stroke-width:2;
                marker-end: url(#0,0,0)
            "
/>
    <text
        x="147"
        y="239"
        alignment-baseline="middle"
        font-family="Verdana"
        font-size="11"
        fill="black">
    0
    </text>

    <circle cx="136" cy="250" r="4" fill="black" />
<line
    stroke-linecap="square"
    x1="24"
    y1="195"
    x2="46"
    y2="195"
    style="stroke:rgb(0, 0,0);
            stroke-width:2;
"
/>
    <text
        x="27"
        y="188"
        alignment-baseline="middle"
        font-family="Verdana"
        font-size="11"
        fill="black">
    1
    </text>

<line
    stroke-linecap="square"
    x1="46"
    y1="195"
    x2="46"
    y2="295"
    style="stroke:rgb(0, 0,0);
            stroke-width:4;
"
/>

    <circle cx="46" cy="195" r="4" fill="black" />
<line
    stroke-linecap="square"
    x1="46"
    y1="295"
    x2="76"
    y2="295"
    style="stroke:rgb(0, 0,0);
            stroke-width:4;
"
/>

<line
    stroke-linecap="square"
    x1="76"
    y1="295"
    x2="76"
    y2="350"
    style="stroke:rgb(0, 0,0);
            stroke-width:4;
"
/>

    <circle cx="76" cy="295" r="4" fill="black" />
<line
    stroke-linecap="square"
    x1="76"
    y1="350"
    x2="136"
    y2="350"
    style="stroke:rgb(0, 0,0);
            stroke-width:4;
"
/>

    <circle cx="76" cy="350" r="4" fill="black" />
<line
    stroke-linecap="square"
    x1="136"
    y1="350"
    x2="136"
    y2="290"
    style="stroke:rgb(0, 0,0);
            stroke-width:4;
"
/>

<line
    stroke-linecap="square"
    x1="136"
    y1="290"
    x2="158"
    y2="290"
    style="stroke:rgb(0, 0,0);
            stroke-width:2;
                marker-end: url(#0,0,0)
            "
/>
    <text
        x="147"
        y="279"
        alignment-baseline="middle"
        font-family="Verdana"
        font-size="11"
        fill="black">
    1
    </text>

    <circle cx="136" cy="290" r="4" fill="black" />
<line
    stroke-linecap="square"
    x1="24"
    y1="330"
    x2="46"
    y2="330"
    style="stroke:rgb(0, 0,0);
            stroke-width:2;
"
/>
    <text
        x="27"
        y="323"
        alignment-baseline="middle"
        font-family="Verdana"
        font-size="11"
        fill="black">
    4
    </text>

<line
    stroke-linecap="square"
    x1="46"
    y1="330"
    x2="46"
    y2="295"
    style="stroke:rgb(0, 0,0);
            stroke-width:4;
"
/>

    <circle cx="46" cy="330" r="4" fill="black" />
<line
    stroke-linecap="square"
    x1="46"
    y1="295"
    x2="76"
    y2="295"
    style="stroke:rgb(0, 0,0);
            stroke-width:4;
"
/>

<line
    stroke-linecap="square"
    x1="76"
    y1="295"
    x2="76"
    y2="350"
    style="stroke:rgb(0, 0,0);
            stroke-width:4;
"
/>

    <circle cx="76" cy="295" r="4" fill="black" />
<line
    stroke-linecap="square"
    x1="76"
    y1="350"
    x2="136"
    y2="350"
    style="stroke:rgb(0, 0,0);
            stroke-width:4;
"
/>

    <circle cx="76" cy="350" r="4" fill="black" />
<line
    stroke-linecap="square"
    x1="136"
    y1="350"
    x2="136"
    y2="330"
    style="stroke:rgb(0, 0,0);
            stroke-width:4;
"
/>

<line
    stroke-linecap="square"
    x1="136"
    y1="330"
    x2="158"
    y2="330"
    style="stroke:rgb(0, 0,0);
            stroke-width:2;
                marker-end: url(#0,0,0)
            "
/>
    <text
        x="147"
        y="319"
        alignment-baseline="middle"
        font-family="Verdana"
        font-size="11"
        fill="black">
    4
    </text>

    <circle cx="136" cy="330" r="4" fill="black" />
<line
    stroke-linecap="square"
    x1="24"
    y1="370"
    x2="46"
    y2="370"
    style="stroke:rgb(0, 0,0);
            stroke-width:2;
"
/>
    <text
        x="27"
        y="363"
        alignment-baseline="middle"
        font-family="Verdana"
        font-size="11"
        fill="black">
    5
    </text>

<line
    stroke-linecap="square"
    x1="46"
    y1="370"
    x2="46"
    y2="295"
    style="stroke:rgb(0, 0,0);
            stroke-width:4;
"
/>

    <circle cx="46" cy="370" r="4" fill="black" />
<line
    stroke-linecap="square"
    x1="46"
    y1="295"
    x2="76"
    y2="295"
    style="stroke:rgb(0, 0,0);
            stroke-width:4;
"
/>

<line
    stroke-linecap="square"
    x1="76"
    y1="295"
    x2="76"
    y2="350"
    style="stroke:rgb(0, 0,0);
            stroke-width:4;
"
/>

    <circle cx="76" cy="295" r="4" fill="black" />
<line
    stroke-linecap="square"
    x1="76"
    y1="350"
    x2="136"
    y2="350"
    style="stroke:rgb(0, 0,0);
            stroke-width:4;
"
/>

    <circle cx="76" cy="350" r="4" fill="black" />
<line
    stroke-linecap="square"
    x1="136"
    y1="350"
    x2="136"
    y2="370"
    style="stroke:rgb(0, 0,0);
            stroke-width:4;
"
/>

<line
    stroke-linecap="square"
    x1="136"
    y1="370"
    x2="158"
    y2="370"
    style="stroke:rgb(0, 0,0);
            stroke-width:2;
                marker-end: url(#0,0,0)
            "
/>
    <text
        x="147"
        y="359"
        alignment-baseline="middle"
        font-family="Verdana"
        font-size="11"
        fill="black">
    5
    </text>

    <circle cx="136" cy="370" r="4" fill="black" />
<line
    stroke-linecap="square"
    x1="24"
    y1="450"
    x2="46"
    y2="450"
    style="stroke:rgb(0, 0,0);
            stroke-width:2;
"
/>
    <text
        x="27"
        y="443"
        alignment-baseline="middle"
        font-family="Verdana"
        font-size="11"
        fill="black">
    6
    </text>

<line
    stroke-linecap="square"
    x1="46"
    y1="450"
    x2="46"
    y2="295"
    style="stroke:rgb(0, 0,0);
            stroke-width:4;
"
/>

    <circle cx="46" cy="450" r="4" fill="black" />
<line
    stroke-linecap="square"
    x1="46"
    y1="295"
    x2="76"
    y2="295"
    style="stroke:rgb(0, 0,0);
            stroke-width:4;
"
/>

<line
    stroke-linecap="square"
    x1="76"
    y1="295"
    x2="76"
    y2="350"
    style="stroke:rgb(0, 0,0);
            stroke-width:4;
"
/>

    <circle cx="76" cy="295" r="4" fill="black" />
<line
    stroke-linecap="square"
    x1="76"
    y1="350"
    x2="136"
    y2="350"
    style="stroke:rgb(0, 0,0);
            stroke-width:4;
"
/>

    <circle cx="76" cy="350" r="4" fill="black" />
<line
    stroke-linecap="square"
    x1="136"
    y1="350"
    x2="136"
    y2="450"
    style="stroke:rgb(0, 0,0);
            stroke-width:4;
"
/>

<line
    stroke-linecap="square"
    x1="136"
    y1="450"
    x2="158"
    y2="450"
    style="stroke:rgb(0, 0,0);
            stroke-width:2;
                marker-end: url(#0,0,0)
            "
/>
    <text
        x="147"
        y="439"
        alignment-baseline="middle"
        font-family="Verdana"
        font-size="11"
        fill="black">
    6
    </text>

    <circle cx="136" cy="450" r="4" fill="black" />
<line
    stroke-linecap="square"
    x1="24"
    y1="155"
    x2="46"
    y2="155"
    style="stroke:rgb(0, 0,0);
            stroke-width:2;
"
/>
    <text
        x="27"
        y="148"
        alignment-baseline="middle"
        font-family="Verdana"
        font-size="11"
        fill="black">
    0
    </text>

<line
    stroke-linecap="square"
    x1="46"
    y1="155"
    x2="46"
    y2="295"
    style="stroke:rgb(0, 0,0);
            stroke-width:4;
"
/>

    <circle cx="46" cy="155" r="4" fill="black" />
<line
    stroke-linecap="square"
    x1="46"
    y1="295"
    x2="76"
    y2="295"
    style="stroke:rgb(0, 0,0);
            stroke-width:4;
"
/>

<line
    stroke-linecap="square"
    x1="76"
    y1="295"
    x2="76"
    y2="195"
    style="stroke:rgb(0, 0,0);
            stroke-width:4;
"
/>

    <circle cx="76" cy="295" r="4" fill="black" />
<line
    stroke-linecap="square"
    x1="76"
    y1="195"
    x2="346"
    y2="195"
    style="stroke:rgb(0, 0,0);
            stroke-width:4;
"
/>

    <circle cx="76" cy="195" r="4" fill="black" />
<line
    stroke-linecap="square"
    x1="346"
    y1="195"
    x2="346"
    y2="195"
    style="stroke:rgb(0, 0,0);
            stroke-width:4;
"
/>

<line
    stroke-linecap="square"
    x1="346"
    y1="195"
    x2="368"
    y2="195"
    style="stroke:rgb(0, 0,0);
            stroke-width:2;
                marker-end: url(#0,0,0)
            "
/>
    <text
        x="357"
        y="184"
        alignment-baseline="middle"
        font-family="Verdana"
        font-size="11"
        fill="black">
    0
    </text>

    <circle cx="346" cy="195" r="4" fill="black" />
<line
    stroke-linecap="square"
    x1="24"
    y1="195"
    x2="46"
    y2="195"
    style="stroke:rgb(0, 0,0);
            stroke-width:2;
"
/>
    <text
        x="27"
        y="188"
        alignment-baseline="middle"
        font-family="Verdana"
        font-size="11"
        fill="black">
    1
    </text>

<line
    stroke-linecap="square"
    x1="46"
    y1="195"
    x2="46"
    y2="295"
    style="stroke:rgb(0, 0,0);
            stroke-width:4;
"
/>

    <circle cx="46" cy="195" r="4" fill="black" />
<line
    stroke-linecap="square"
    x1="46"
    y1="295"
    x2="76"
    y2="295"
    style="stroke:rgb(0, 0,0);
            stroke-width:4;
"
/>

<line
    stroke-linecap="square"
    x1="76"
    y1="295"
    x2="76"
    y2="195"
    style="stroke:rgb(0, 0,0);
            stroke-width:4;
"
/>

    <circle cx="76" cy="295" r="4" fill="black" />
<line
    stroke-linecap="square"
    x1="76"
    y1="195"
    x2="346"
    y2="195"
    style="stroke:rgb(0, 0,0);
            stroke-width:4;
"
/>

    <circle cx="76" cy="195" r="4" fill="black" />
<line
    stroke-linecap="square"
    x1="346"
    y1="195"
    x2="346"
    y2="250"
    style="stroke:rgb(0, 0,0);
            stroke-width:4;
"
/>

<line
    stroke-linecap="square"
    x1="346"
    y1="250"
    x2="368"
    y2="250"
    style="stroke:rgb(0, 0,0);
            stroke-width:2;
                marker-end: url(#0,0,0)
            "
/>
    <text
        x="357"
        y="239"
        alignment-baseline="middle"
        font-family="Verdana"
        font-size="11"
        fill="black">
    1
    </text>

    <circle cx="346" cy="250" r="4" fill="black" />
<line
    stroke-linecap="square"
    x1="24"
    y1="250"
    x2="46"
    y2="250"
    style="stroke:rgb(0, 0,0);
            stroke-width:2;
"
/>
    <text
        x="27"
        y="243"
        alignment-baseline="middle"
        font-family="Verdana"
        font-size="11"
        fill="black">
    2
    </text>

<line
    stroke-linecap="square"
    x1="46"
    y1="250"
    x2="46"
    y2="295"
    style="stroke:rgb(0, 0,0);
            stroke-width:4;
"
/>

    <circle cx="46" cy="250" r="4" fill="black" />
<line
    stroke-linecap="square"
    x1="46"
    y1="295"
    x2="76"
    y2="295"
    style="stroke:rgb(0, 0,0);
            stroke-width:4;
"
/>

<line
    stroke-linecap="square"
    x1="76"
    y1="295"
    x2="76"
    y2="195"
    style="stroke:rgb(0, 0,0);
            stroke-width:4;
"
/>

    <circle cx="76" cy="295" r="4" fill="black" />
<line
    stroke-linecap="square"
    x1="76"
    y1="195"
    x2="346"
    y2="195"
    style="stroke:rgb(0, 0,0);
            stroke-width:4;
"
/>

    <circle cx="76" cy="195" r="4" fill="black" />
<line
    stroke-linecap="square"
    x1="346"
    y1="195"
    x2="346"
    y2="290"
    style="stroke:rgb(0, 0,0);
            stroke-width:4;
"
/>

<line
    stroke-linecap="square"
    x1="346"
    y1="290"
    x2="368"
    y2="290"
    style="stroke:rgb(0, 0,0);
            stroke-width:2;
                marker-end: url(#0,0,0)
            "
/>
    <text
        x="357"
        y="279"
        alignment-baseline="middle"
        font-family="Verdana"
        font-size="11"
        fill="black">
    2
    </text>

    <circle cx="346" cy="290" r="4" fill="black" />
<line
    stroke-linecap="square"
    x1="24"
    y1="290"
    x2="46"
    y2="290"
    style="stroke:rgb(0, 0,0);
            stroke-width:2;
"
/>
    <text
        x="27"
        y="283"
        alignment-baseline="middle"
        font-family="Verdana"
        font-size="11"
        fill="black">
    3
    </text>

<line
    stroke-linecap="square"
    x1="46"
    y1="290"
    x2="46"
    y2="295"
    style="stroke:rgb(0, 0,0);
            stroke-width:4;
"
/>

    <circle cx="46" cy="290" r="4" fill="black" />
<line
    stroke-linecap="square"
    x1="46"
    y1="295"
    x2="76"
    y2="295"
    style="stroke:rgb(0, 0,0);
            stroke-width:4;
"
/>

<line
    stroke-linecap="square"
    x1="76"
    y1="295"
    x2="76"
    y2="195"
    style="stroke:rgb(0, 0,0);
            stroke-width:4;
"
/>

    <circle cx="76" cy="295" r="4" fill="black" />
<line
    stroke-linecap="square"
    x1="76"
    y1="195"
    x2="346"
    y2="195"
    style="stroke:rgb(0, 0,0);
            stroke-width:4;
"
/>

    <circle cx="76" cy="195" r="4" fill="black" />
<line
    stroke-linecap="square"
    x1="346"
    y1="195"
    x2="346"
    y2="330"
    style="stroke:rgb(0, 0,0);
            stroke-width:4;
"
/>

<line
    stroke-linecap="square"
    x1="346"
    y1="330"
    x2="368"
    y2="330"
    style="stroke:rgb(0, 0,0);
            stroke-width:2;
                marker-end: url(#0,0,0)
            "
/>
    <text
        x="357"
        y="319"
        alignment-baseline="middle"
        font-family="Verdana"
        font-size="11"
        fill="black">
    3
    </text>

    <circle cx="346" cy="330" r="4" fill="black" />
<line
    stroke-linecap="square"
    x1="294"
    y1="450"
    x2="368"
    y2="450"
    style="stroke:rgb(0, 0,0);
            stroke-width:2;
                marker-end: url(#0,0,0)
            "
/>

<line
    stroke-linecap="square"
    x1="294"
    y1="370"
    x2="368"
    y2="370"
    style="stroke:rgb(0, 0,0);
            stroke-width:2;
                marker-end: url(#0,0,0)
            "
/>

<line
    stroke-linecap="square"
    x1="294"
    y1="410"
    x2="368"
    y2="410"
    style="stroke:rgb(0, 0,0);
            stroke-width:2;
                marker-end: url(#0,0,0)
            "
/>

<defs>
    <!-- Small box indicating a port -->
    <rect id="port" x="0" y="0" width="16" height="16"
          style="fill:white;stroke:rgb(0,0,0);stroke-width:1;fill-opacity:1.0;stroke-opacity:1.0"/>
</defs><use x="578" y="187" xlink:href="#port" />
<text text-anchor="end" alignment-baseline="middle" x="575" y="197" transform="rotate(0,575,197)" style="font-weight: regular" font-family="Verdana" font-size="9" fill="black">

</text>

<use x="628" y="187" xlink:href="#port" />
<text text-anchor="start" alignment-baseline="middle" x="648" y="197" transform="rotate(0,648,197)" style="font-weight: regular" font-family="Verdana" font-size="9" fill="black">

</text>

<use x="578" y="147" xlink:href="#port" />
<text text-anchor="end" alignment-baseline="middle" x="575" y="157" transform="rotate(0,575,157)" style="font-weight: regular" font-family="Verdana" font-size="9" fill="black">

</text>

<use x="628" y="147" xlink:href="#port" />
<text text-anchor="start" alignment-baseline="middle" x="648" y="157" transform="rotate(0,648,157)" style="font-weight: regular" font-family="Verdana" font-size="9" fill="black">

</text>

<use x="578" y="242" xlink:href="#port" />
<text text-anchor="end" alignment-baseline="middle" x="575" y="252" transform="rotate(0,575,252)" style="font-weight: regular" font-family="Verdana" font-size="9" fill="black">

</text>

<use x="628" y="242" xlink:href="#port" />
<text text-anchor="start" alignment-baseline="middle" x="648" y="252" transform="rotate(0,648,252)" style="font-weight: regular" font-family="Verdana" font-size="9" fill="black">

</text>

<use x="578" y="282" xlink:href="#port" />
<text text-anchor="end" alignment-baseline="middle" x="575" y="292" transform="rotate(0,575,292)" style="font-weight: regular" font-family="Verdana" font-size="9" fill="black">

</text>

<use x="628" y="282" xlink:href="#port" />
<text text-anchor="start" alignment-baseline="middle" x="648" y="292" transform="rotate(0,648,292)" style="font-weight: regular" font-family="Verdana" font-size="9" fill="black">

</text>

<use x="8" y="147" xlink:href="#port" />
<text text-anchor="end" alignment-baseline="middle" x="4" y="157" transform="rotate(0,4,157)" style="font-weight: regular" font-family="Verdana" font-size="9" fill="black">

</text>

<use x="158" y="242" xlink:href="#port" />
<text text-anchor="start" alignment-baseline="middle" x="177" y="252" transform="rotate(0,177,252)" style="font-weight: regular" font-family="Verdana" font-size="9" fill="black">

</text>

<use x="8" y="187" xlink:href="#port" />
<text text-anchor="end" alignment-baseline="middle" x="4" y="197" transform="rotate(0,4,197)" style="font-weight: regular" font-family="Verdana" font-size="9" fill="black">

</text>

<use x="158" y="282" xlink:href="#port" />
<text text-anchor="start" alignment-baseline="middle" x="177" y="292" transform="rotate(0,177,292)" style="font-weight: regular" font-family="Verdana" font-size="9" fill="black">

</text>

<use x="8" y="322" xlink:href="#port" />
<text text-anchor="end" alignment-baseline="middle" x="4" y="332" transform="rotate(0,4,332)" style="font-weight: regular" font-family="Verdana" font-size="9" fill="black">

</text>

<use x="158" y="322" xlink:href="#port" />
<text text-anchor="start" alignment-baseline="middle" x="177" y="332" transform="rotate(0,177,332)" style="font-weight: regular" font-family="Verdana" font-size="9" fill="black">

</text>

<use x="8" y="362" xlink:href="#port" />
<text text-anchor="end" alignment-baseline="middle" x="4" y="372" transform="rotate(0,4,372)" style="font-weight: regular" font-family="Verdana" font-size="9" fill="black">

</text>

<use x="158" y="362" xlink:href="#port" />
<text text-anchor="start" alignment-baseline="middle" x="177" y="372" transform="rotate(0,177,372)" style="font-weight: regular" font-family="Verdana" font-size="9" fill="black">

</text>

<use x="8" y="442" xlink:href="#port" />
<text text-anchor="end" alignment-baseline="middle" x="4" y="452" transform="rotate(0,4,452)" style="font-weight: regular" font-family="Verdana" font-size="9" fill="black">

</text>

<use x="158" y="442" xlink:href="#port" />
<text text-anchor="start" alignment-baseline="middle" x="177" y="452" transform="rotate(0,177,452)" style="font-weight: regular" font-family="Verdana" font-size="9" fill="black">

</text>

<use x="8" y="147" xlink:href="#port" />
<text text-anchor="end" alignment-baseline="middle" x="4" y="157" transform="rotate(0,4,157)" style="font-weight: regular" font-family="Verdana" font-size="9" fill="black">

</text>

<use x="368" y="187" xlink:href="#port" />
<text text-anchor="start" alignment-baseline="middle" x="387" y="197" transform="rotate(0,387,197)" style="font-weight: regular" font-family="Verdana" font-size="9" fill="black">

</text>

<use x="8" y="187" xlink:href="#port" />
<text text-anchor="end" alignment-baseline="middle" x="4" y="197" transform="rotate(0,4,197)" style="font-weight: regular" font-family="Verdana" font-size="9" fill="black">

</text>

<use x="368" y="242" xlink:href="#port" />
<text text-anchor="start" alignment-baseline="middle" x="387" y="252" transform="rotate(0,387,252)" style="font-weight: regular" font-family="Verdana" font-size="9" fill="black">

</text>

<use x="8" y="242" xlink:href="#port" />
<text text-anchor="end" alignment-baseline="middle" x="4" y="252" transform="rotate(0,4,252)" style="font-weight: regular" font-family="Verdana" font-size="9" fill="black">

</text>

<use x="368" y="282" xlink:href="#port" />
<text text-anchor="start" alignment-baseline="middle" x="387" y="292" transform="rotate(0,387,292)" style="font-weight: regular" font-family="Verdana" font-size="9" fill="black">

</text>

<use x="8" y="282" xlink:href="#port" />
<text text-anchor="end" alignment-baseline="middle" x="4" y="292" transform="rotate(0,4,292)" style="font-weight: regular" font-family="Verdana" font-size="9" fill="black">

</text>

<use x="368" y="322" xlink:href="#port" />
<text text-anchor="start" alignment-baseline="middle" x="387" y="332" transform="rotate(0,387,332)" style="font-weight: regular" font-family="Verdana" font-size="9" fill="black">

</text>

<use x="278" y="442" xlink:href="#port" />
<text text-anchor="end" alignment-baseline="middle" x="275" y="452" transform="rotate(0,275,452)" style="font-weight: regular" font-family="Verdana" font-size="9" fill="black">

</text>

<use x="368" y="442" xlink:href="#port" />
<text text-anchor="start" alignment-baseline="middle" x="387" y="452" transform="rotate(0,387,452)" style="font-weight: regular" font-family="Verdana" font-size="9" fill="black">

</text>

<use x="278" y="362" xlink:href="#port" />
<text text-anchor="end" alignment-baseline="middle" x="275" y="372" transform="rotate(0,275,372)" style="font-weight: regular" font-family="Verdana" font-size="9" fill="black">

</text>

<use x="368" y="362" xlink:href="#port" />
<text text-anchor="start" alignment-baseline="middle" x="387" y="372" transform="rotate(0,387,372)" style="font-weight: regular" font-family="Verdana" font-size="9" fill="black">

</text>

<use x="278" y="402" xlink:href="#port" />
<text text-anchor="end" alignment-baseline="middle" x="275" y="412" transform="rotate(0,275,412)" style="font-weight: regular" font-family="Verdana" font-size="9" fill="black">

</text>

<use x="368" y="402" xlink:href="#port" />
<text text-anchor="start" alignment-baseline="middle" x="387" y="412" transform="rotate(0,387,412)" style="font-weight: regular" font-family="Verdana" font-size="9" fill="black">

</text>


</svg>