<svg width="100%" height="100%" xmlns="http://www.w3.org/2000/svg" version="1.1" xmlns:xlink="http://www.w3.org/1999/xlink">
    <svg xmlns="http://www.w3.org/2000/svg" version="1.1">

<!-- Canvas: behaviorGeneration -->
<g transform="translate(142 20)">

    <rect
        id="103"
        width="929"
        height="402"
        style="fill:white;stroke:black;stroke-width:2;fill-opacity:1.0;stroke-opacity:1.0"/>

    <text
        x="8"
        y="20"
        style="font-weight: bold"
        font-family="Verdana"
        font-size="13"
        fill="black">
            behaviorGeneration
    </text>

</g>

</svg><!-- Component: trimPath -->
<g transform="translate(292 147)">
    <rect
        data-name="testManuelSchrick.autopilot.autopilot.behaviorGeneration.trimPath"
        id="104"
        width="282"
        height="215"
        style="fill:white;stroke:black;stroke-width:2;fill-opacity:1.0;stroke-opacity:1.0"
        onmouseout="this.style.stroke = '#000000'; this.style['stroke-width'] = 2; this.style.cursor='default';"
    />

    <text
        x="10"
        y="15"
        alignment-baseline="middle"
        style="font-weight: bold"
        font-family="Verdana"
        font-size="11"
        fill="black">
    trimPath
    </text>
</g><!-- Component: calcMotionCmds -->
<g transform="translate(724 52)">
    <rect
        data-name="testManuelSchrick.autopilot.autopilot.behaviorGeneration.calcMotionCmds"
        id="105"
        width="297"
        height="350"
        style="fill:white;stroke:black;stroke-width:2;fill-opacity:1.0;stroke-opacity:1.0"
        onmouseout="this.style.stroke = '#000000'; this.style['stroke-width'] = 2; this.style.cursor='default';"
            onmouseover="this.style.stroke = '#316FC0'; this.style['stroke-width'] = 5; this.style.cursor='pointer';"
            onclick="window.open('testManuelSchrick.autopilot.autopilot.behaviorGeneration.calcMotionCmds.html','_parent',false);parent.openFileInEditor('/autopilot/autopilot/behaviorGeneration/calcMotionCmds.ema');"
    />

    <text
        x="10"
        y="15"
        alignment-baseline="middle"
        style="font-weight: bold"
        font-family="Verdana"
        font-size="11"
        fill="black">
    calcMotionCmds
    </text>
</g><defs>
    <marker id="0,0,0" markerWidth="13" markerHeight="13" refX="5" refY="5" orient="auto">
            <polyline points="0,2 5,5 0,8" style="fill:none; stroke:rgb(0,0,0);
                    stroke-width:1" />
    </marker>
</defs><line
    stroke-linecap="square"
    x1="1029"
    y1="127"
    x2="1063"
    y2="127"
    style="stroke:rgb(0, 0,0);
            stroke-width:2;
                marker-end: url(#0,0,0)
            "
/>

<line
    stroke-linecap="square"
    x1="1029"
    y1="87"
    x2="1063"
    y2="87"
    style="stroke:rgb(0, 0,0);
            stroke-width:2;
                marker-end: url(#0,0,0)
            "
/>

<line
    stroke-linecap="square"
    x1="1029"
    y1="182"
    x2="1063"
    y2="182"
    style="stroke:rgb(0, 0,0);
            stroke-width:2;
                marker-end: url(#0,0,0)
            "
/>

<line
    stroke-linecap="square"
    x1="1029"
    y1="222"
    x2="1063"
    y2="222"
    style="stroke:rgb(0, 0,0);
            stroke-width:2;
                marker-end: url(#0,0,0)
            "
/>

<line
    stroke-linecap="square"
    x1="150"
    y1="87"
    x2="172"
    y2="87"
    style="stroke:rgb(0, 0,0);
            stroke-width:2;
"
/>
    <text
        x="153"
        y="80"
        alignment-baseline="middle"
        font-family="Verdana"
        font-size="11"
        fill="black">
    0
    </text>

<line
    stroke-linecap="square"
    x1="172"
    y1="87"
    x2="172"
    y2="222"
    style="stroke:rgb(0, 0,0);
            stroke-width:4;
"
/>

    <circle cx="172" cy="87" r="4" fill="black" />
<line
    stroke-linecap="square"
    x1="172"
    y1="222"
    x2="202"
    y2="222"
    style="stroke:rgb(0, 0,0);
            stroke-width:4;
"
/>

<line
    stroke-linecap="square"
    x1="202"
    y1="222"
    x2="202"
    y2="262"
    style="stroke:rgb(0, 0,0);
            stroke-width:4;
"
/>

    <circle cx="202" cy="222" r="4" fill="black" />
<line
    stroke-linecap="square"
    x1="202"
    y1="262"
    x2="262"
    y2="262"
    style="stroke:rgb(0, 0,0);
            stroke-width:4;
"
/>

    <circle cx="202" cy="262" r="4" fill="black" />
<line
    stroke-linecap="square"
    x1="262"
    y1="262"
    x2="262"
    y2="182"
    style="stroke:rgb(0, 0,0);
            stroke-width:4;
"
/>

<line
    stroke-linecap="square"
    x1="262"
    y1="182"
    x2="284"
    y2="182"
    style="stroke:rgb(0, 0,0);
            stroke-width:2;
                marker-end: url(#0,0,0)
            "
/>
    <text
        x="273"
        y="171"
        alignment-baseline="middle"
        font-family="Verdana"
        font-size="11"
        fill="black">
    0
    </text>

    <circle cx="262" cy="182" r="4" fill="black" />
<line
    stroke-linecap="square"
    x1="150"
    y1="127"
    x2="172"
    y2="127"
    style="stroke:rgb(0, 0,0);
            stroke-width:2;
"
/>
    <text
        x="153"
        y="120"
        alignment-baseline="middle"
        font-family="Verdana"
        font-size="11"
        fill="black">
    1
    </text>

<line
    stroke-linecap="square"
    x1="172"
    y1="127"
    x2="172"
    y2="222"
    style="stroke:rgb(0, 0,0);
            stroke-width:4;
"
/>

    <circle cx="172" cy="127" r="4" fill="black" />
<line
    stroke-linecap="square"
    x1="172"
    y1="222"
    x2="202"
    y2="222"
    style="stroke:rgb(0, 0,0);
            stroke-width:4;
"
/>

<line
    stroke-linecap="square"
    x1="202"
    y1="222"
    x2="202"
    y2="262"
    style="stroke:rgb(0, 0,0);
            stroke-width:4;
"
/>

    <circle cx="202" cy="222" r="4" fill="black" />
<line
    stroke-linecap="square"
    x1="202"
    y1="262"
    x2="262"
    y2="262"
    style="stroke:rgb(0, 0,0);
            stroke-width:4;
"
/>

    <circle cx="202" cy="262" r="4" fill="black" />
<line
    stroke-linecap="square"
    x1="262"
    y1="262"
    x2="262"
    y2="222"
    style="stroke:rgb(0, 0,0);
            stroke-width:4;
"
/>

<line
    stroke-linecap="square"
    x1="262"
    y1="222"
    x2="284"
    y2="222"
    style="stroke:rgb(0, 0,0);
            stroke-width:2;
                marker-end: url(#0,0,0)
            "
/>
    <text
        x="273"
        y="211"
        alignment-baseline="middle"
        font-family="Verdana"
        font-size="11"
        fill="black">
    1
    </text>

    <circle cx="262" cy="222" r="4" fill="black" />
<line
    stroke-linecap="square"
    x1="150"
    y1="262"
    x2="172"
    y2="262"
    style="stroke:rgb(0, 0,0);
            stroke-width:2;
"
/>
    <text
        x="153"
        y="255"
        alignment-baseline="middle"
        font-family="Verdana"
        font-size="11"
        fill="black">
    4
    </text>

<line
    stroke-linecap="square"
    x1="172"
    y1="262"
    x2="172"
    y2="222"
    style="stroke:rgb(0, 0,0);
            stroke-width:4;
"
/>

    <circle cx="172" cy="262" r="4" fill="black" />
<line
    stroke-linecap="square"
    x1="172"
    y1="222"
    x2="202"
    y2="222"
    style="stroke:rgb(0, 0,0);
            stroke-width:4;
"
/>

<line
    stroke-linecap="square"
    x1="202"
    y1="222"
    x2="202"
    y2="262"
    style="stroke:rgb(0, 0,0);
            stroke-width:4;
"
/>

    <circle cx="202" cy="222" r="4" fill="black" />
<line
    stroke-linecap="square"
    x1="202"
    y1="262"
    x2="262"
    y2="262"
    style="stroke:rgb(0, 0,0);
            stroke-width:4;
"
/>

    <circle cx="202" cy="262" r="4" fill="black" />
<line
    stroke-linecap="square"
    x1="262"
    y1="262"
    x2="262"
    y2="262"
    style="stroke:rgb(0, 0,0);
            stroke-width:4;
"
/>

<line
    stroke-linecap="square"
    x1="262"
    y1="262"
    x2="284"
    y2="262"
    style="stroke:rgb(0, 0,0);
            stroke-width:2;
                marker-end: url(#0,0,0)
            "
/>
    <text
        x="273"
        y="251"
        alignment-baseline="middle"
        font-family="Verdana"
        font-size="11"
        fill="black">
    4
    </text>

    <circle cx="262" cy="262" r="4" fill="black" />
<line
    stroke-linecap="square"
    x1="150"
    y1="302"
    x2="172"
    y2="302"
    style="stroke:rgb(0, 0,0);
            stroke-width:2;
"
/>
    <text
        x="153"
        y="295"
        alignment-baseline="middle"
        font-family="Verdana"
        font-size="11"
        fill="black">
    5
    </text>

<line
    stroke-linecap="square"
    x1="172"
    y1="302"
    x2="172"
    y2="222"
    style="stroke:rgb(0, 0,0);
            stroke-width:4;
"
/>

    <circle cx="172" cy="302" r="4" fill="black" />
<line
    stroke-linecap="square"
    x1="172"
    y1="222"
    x2="202"
    y2="222"
    style="stroke:rgb(0, 0,0);
            stroke-width:4;
"
/>

<line
    stroke-linecap="square"
    x1="202"
    y1="222"
    x2="202"
    y2="262"
    style="stroke:rgb(0, 0,0);
            stroke-width:4;
"
/>

    <circle cx="202" cy="222" r="4" fill="black" />
<line
    stroke-linecap="square"
    x1="202"
    y1="262"
    x2="262"
    y2="262"
    style="stroke:rgb(0, 0,0);
            stroke-width:4;
"
/>

    <circle cx="202" cy="262" r="4" fill="black" />
<line
    stroke-linecap="square"
    x1="262"
    y1="262"
    x2="262"
    y2="302"
    style="stroke:rgb(0, 0,0);
            stroke-width:4;
"
/>

<line
    stroke-linecap="square"
    x1="262"
    y1="302"
    x2="284"
    y2="302"
    style="stroke:rgb(0, 0,0);
            stroke-width:2;
                marker-end: url(#0,0,0)
            "
/>
    <text
        x="273"
        y="291"
        alignment-baseline="middle"
        font-family="Verdana"
        font-size="11"
        fill="black">
    5
    </text>

    <circle cx="262" cy="302" r="4" fill="black" />
<line
    stroke-linecap="square"
    x1="150"
    y1="342"
    x2="172"
    y2="342"
    style="stroke:rgb(0, 0,0);
            stroke-width:2;
"
/>
    <text
        x="153"
        y="335"
        alignment-baseline="middle"
        font-family="Verdana"
        font-size="11"
        fill="black">
    6
    </text>

<line
    stroke-linecap="square"
    x1="172"
    y1="342"
    x2="172"
    y2="222"
    style="stroke:rgb(0, 0,0);
            stroke-width:4;
"
/>

    <circle cx="172" cy="342" r="4" fill="black" />
<line
    stroke-linecap="square"
    x1="172"
    y1="222"
    x2="202"
    y2="222"
    style="stroke:rgb(0, 0,0);
            stroke-width:4;
"
/>

<line
    stroke-linecap="square"
    x1="202"
    y1="222"
    x2="202"
    y2="262"
    style="stroke:rgb(0, 0,0);
            stroke-width:4;
"
/>

    <circle cx="202" cy="222" r="4" fill="black" />
<line
    stroke-linecap="square"
    x1="202"
    y1="262"
    x2="262"
    y2="262"
    style="stroke:rgb(0, 0,0);
            stroke-width:4;
"
/>

    <circle cx="202" cy="262" r="4" fill="black" />
<line
    stroke-linecap="square"
    x1="262"
    y1="262"
    x2="262"
    y2="342"
    style="stroke:rgb(0, 0,0);
            stroke-width:4;
"
/>

<line
    stroke-linecap="square"
    x1="262"
    y1="342"
    x2="284"
    y2="342"
    style="stroke:rgb(0, 0,0);
            stroke-width:2;
                marker-end: url(#0,0,0)
            "
/>
    <text
        x="273"
        y="331"
        alignment-baseline="middle"
        font-family="Verdana"
        font-size="11"
        fill="black">
    6
    </text>

    <circle cx="262" cy="342" r="4" fill="black" />
<line
    stroke-linecap="square"
    x1="150"
    y1="87"
    x2="172"
    y2="87"
    style="stroke:rgb(0, 0,0);
            stroke-width:2;
"
/>
    <text
        x="153"
        y="80"
        alignment-baseline="middle"
        font-family="Verdana"
        font-size="11"
        fill="black">
    0
    </text>

<line
    stroke-linecap="square"
    x1="172"
    y1="87"
    x2="172"
    y2="222"
    style="stroke:rgb(0, 0,0);
            stroke-width:4;
"
/>

    <circle cx="172" cy="87" r="4" fill="black" />
<line
    stroke-linecap="square"
    x1="172"
    y1="222"
    x2="202"
    y2="222"
    style="stroke:rgb(0, 0,0);
            stroke-width:4;
"
/>

<line
    stroke-linecap="square"
    x1="202"
    y1="222"
    x2="202"
    y2="127"
    style="stroke:rgb(0, 0,0);
            stroke-width:4;
"
/>

    <circle cx="202" cy="222" r="4" fill="black" />
<line
    stroke-linecap="square"
    x1="202"
    y1="127"
    x2="694"
    y2="127"
    style="stroke:rgb(0, 0,0);
            stroke-width:4;
"
/>

    <circle cx="202" cy="127" r="4" fill="black" />
<line
    stroke-linecap="square"
    x1="694"
    y1="127"
    x2="694"
    y2="127"
    style="stroke:rgb(0, 0,0);
            stroke-width:4;
"
/>

<line
    stroke-linecap="square"
    x1="694"
    y1="127"
    x2="716"
    y2="127"
    style="stroke:rgb(0, 0,0);
            stroke-width:2;
                marker-end: url(#0,0,0)
            "
/>
    <text
        x="705"
        y="116"
        alignment-baseline="middle"
        font-family="Verdana"
        font-size="11"
        fill="black">
    0
    </text>

    <circle cx="694" cy="127" r="4" fill="black" />
<line
    stroke-linecap="square"
    x1="150"
    y1="127"
    x2="172"
    y2="127"
    style="stroke:rgb(0, 0,0);
            stroke-width:2;
"
/>
    <text
        x="153"
        y="120"
        alignment-baseline="middle"
        font-family="Verdana"
        font-size="11"
        fill="black">
    1
    </text>

<line
    stroke-linecap="square"
    x1="172"
    y1="127"
    x2="172"
    y2="222"
    style="stroke:rgb(0, 0,0);
            stroke-width:4;
"
/>

    <circle cx="172" cy="127" r="4" fill="black" />
<line
    stroke-linecap="square"
    x1="172"
    y1="222"
    x2="202"
    y2="222"
    style="stroke:rgb(0, 0,0);
            stroke-width:4;
"
/>

<line
    stroke-linecap="square"
    x1="202"
    y1="222"
    x2="202"
    y2="127"
    style="stroke:rgb(0, 0,0);
            stroke-width:4;
"
/>

    <circle cx="202" cy="222" r="4" fill="black" />
<line
    stroke-linecap="square"
    x1="202"
    y1="127"
    x2="694"
    y2="127"
    style="stroke:rgb(0, 0,0);
            stroke-width:4;
"
/>

    <circle cx="202" cy="127" r="4" fill="black" />
<line
    stroke-linecap="square"
    x1="694"
    y1="127"
    x2="694"
    y2="182"
    style="stroke:rgb(0, 0,0);
            stroke-width:4;
"
/>

<line
    stroke-linecap="square"
    x1="694"
    y1="182"
    x2="716"
    y2="182"
    style="stroke:rgb(0, 0,0);
            stroke-width:2;
                marker-end: url(#0,0,0)
            "
/>
    <text
        x="705"
        y="171"
        alignment-baseline="middle"
        font-family="Verdana"
        font-size="11"
        fill="black">
    1
    </text>

    <circle cx="694" cy="182" r="4" fill="black" />
<line
    stroke-linecap="square"
    x1="150"
    y1="182"
    x2="172"
    y2="182"
    style="stroke:rgb(0, 0,0);
            stroke-width:2;
"
/>
    <text
        x="153"
        y="175"
        alignment-baseline="middle"
        font-family="Verdana"
        font-size="11"
        fill="black">
    2
    </text>

<line
    stroke-linecap="square"
    x1="172"
    y1="182"
    x2="172"
    y2="222"
    style="stroke:rgb(0, 0,0);
            stroke-width:4;
"
/>

    <circle cx="172" cy="182" r="4" fill="black" />
<line
    stroke-linecap="square"
    x1="172"
    y1="222"
    x2="202"
    y2="222"
    style="stroke:rgb(0, 0,0);
            stroke-width:4;
"
/>

<line
    stroke-linecap="square"
    x1="202"
    y1="222"
    x2="202"
    y2="127"
    style="stroke:rgb(0, 0,0);
            stroke-width:4;
"
/>

    <circle cx="202" cy="222" r="4" fill="black" />
<line
    stroke-linecap="square"
    x1="202"
    y1="127"
    x2="694"
    y2="127"
    style="stroke:rgb(0, 0,0);
            stroke-width:4;
"
/>

    <circle cx="202" cy="127" r="4" fill="black" />
<line
    stroke-linecap="square"
    x1="694"
    y1="127"
    x2="694"
    y2="222"
    style="stroke:rgb(0, 0,0);
            stroke-width:4;
"
/>

<line
    stroke-linecap="square"
    x1="694"
    y1="222"
    x2="716"
    y2="222"
    style="stroke:rgb(0, 0,0);
            stroke-width:2;
                marker-end: url(#0,0,0)
            "
/>
    <text
        x="705"
        y="211"
        alignment-baseline="middle"
        font-family="Verdana"
        font-size="11"
        fill="black">
    2
    </text>

    <circle cx="694" cy="222" r="4" fill="black" />
<line
    stroke-linecap="square"
    x1="150"
    y1="222"
    x2="172"
    y2="222"
    style="stroke:rgb(0, 0,0);
            stroke-width:2;
"
/>
    <text
        x="153"
        y="215"
        alignment-baseline="middle"
        font-family="Verdana"
        font-size="11"
        fill="black">
    3
    </text>

<line
    stroke-linecap="square"
    x1="172"
    y1="222"
    x2="172"
    y2="222"
    style="stroke:rgb(0, 0,0);
            stroke-width:4;
"
/>

    <circle cx="172" cy="222" r="4" fill="black" />
<line
    stroke-linecap="square"
    x1="172"
    y1="222"
    x2="202"
    y2="222"
    style="stroke:rgb(0, 0,0);
            stroke-width:4;
"
/>

<line
    stroke-linecap="square"
    x1="202"
    y1="222"
    x2="202"
    y2="127"
    style="stroke:rgb(0, 0,0);
            stroke-width:4;
"
/>

    <circle cx="202" cy="222" r="4" fill="black" />
<line
    stroke-linecap="square"
    x1="202"
    y1="127"
    x2="694"
    y2="127"
    style="stroke:rgb(0, 0,0);
            stroke-width:4;
"
/>

    <circle cx="202" cy="127" r="4" fill="black" />
<line
    stroke-linecap="square"
    x1="694"
    y1="127"
    x2="694"
    y2="262"
    style="stroke:rgb(0, 0,0);
            stroke-width:4;
"
/>

<line
    stroke-linecap="square"
    x1="694"
    y1="262"
    x2="716"
    y2="262"
    style="stroke:rgb(0, 0,0);
            stroke-width:2;
                marker-end: url(#0,0,0)
            "
/>
    <text
        x="705"
        y="251"
        alignment-baseline="middle"
        font-family="Verdana"
        font-size="11"
        fill="black">
    3
    </text>

    <circle cx="694" cy="262" r="4" fill="black" />
<line
    stroke-linecap="square"
    x1="582"
    y1="262"
    x2="604"
    y2="262"
    style="stroke:rgb(0, 0,0);
            stroke-width:2;
"
/>
    <text
        x="585"
        y="255"
        alignment-baseline="middle"
        font-family="Verdana"
        font-size="11"
        fill="black">
    0
    </text>

<line
    stroke-linecap="square"
    x1="604"
    y1="262"
    x2="604"
    y2="302"
    style="stroke:rgb(0, 0,0);
            stroke-width:4;
"
/>

    <circle cx="604" cy="262" r="4" fill="black" />
<line
    stroke-linecap="square"
    x1="604"
    y1="302"
    x2="634"
    y2="302"
    style="stroke:rgb(0, 0,0);
            stroke-width:4;
"
/>

<line
    stroke-linecap="square"
    x1="634"
    y1="302"
    x2="634"
    y2="342"
    style="stroke:rgb(0, 0,0);
            stroke-width:4;
"
/>

    <circle cx="634" cy="302" r="4" fill="black" />
<line
    stroke-linecap="square"
    x1="634"
    y1="342"
    x2="694"
    y2="342"
    style="stroke:rgb(0, 0,0);
            stroke-width:4;
"
/>

    <circle cx="634" cy="342" r="4" fill="black" />
<line
    stroke-linecap="square"
    x1="694"
    y1="342"
    x2="694"
    y2="302"
    style="stroke:rgb(0, 0,0);
            stroke-width:4;
"
/>

<line
    stroke-linecap="square"
    x1="694"
    y1="302"
    x2="716"
    y2="302"
    style="stroke:rgb(0, 0,0);
            stroke-width:2;
                marker-end: url(#0,0,0)
            "
/>
    <text
        x="705"
        y="291"
        alignment-baseline="middle"
        font-family="Verdana"
        font-size="11"
        fill="black">
    0
    </text>

    <circle cx="694" cy="302" r="4" fill="black" />
<line
    stroke-linecap="square"
    x1="582"
    y1="302"
    x2="604"
    y2="302"
    style="stroke:rgb(0, 0,0);
            stroke-width:2;
"
/>
    <text
        x="585"
        y="295"
        alignment-baseline="middle"
        font-family="Verdana"
        font-size="11"
        fill="black">
    1
    </text>

<line
    stroke-linecap="square"
    x1="604"
    y1="302"
    x2="604"
    y2="302"
    style="stroke:rgb(0, 0,0);
            stroke-width:4;
"
/>

    <circle cx="604" cy="302" r="4" fill="black" />
<line
    stroke-linecap="square"
    x1="604"
    y1="302"
    x2="634"
    y2="302"
    style="stroke:rgb(0, 0,0);
            stroke-width:4;
"
/>

<line
    stroke-linecap="square"
    x1="634"
    y1="302"
    x2="634"
    y2="342"
    style="stroke:rgb(0, 0,0);
            stroke-width:4;
"
/>

    <circle cx="634" cy="302" r="4" fill="black" />
<line
    stroke-linecap="square"
    x1="634"
    y1="342"
    x2="694"
    y2="342"
    style="stroke:rgb(0, 0,0);
            stroke-width:4;
"
/>

    <circle cx="634" cy="342" r="4" fill="black" />
<line
    stroke-linecap="square"
    x1="694"
    y1="342"
    x2="694"
    y2="342"
    style="stroke:rgb(0, 0,0);
            stroke-width:4;
"
/>

<line
    stroke-linecap="square"
    x1="694"
    y1="342"
    x2="716"
    y2="342"
    style="stroke:rgb(0, 0,0);
            stroke-width:2;
                marker-end: url(#0,0,0)
            "
/>
    <text
        x="705"
        y="331"
        alignment-baseline="middle"
        font-family="Verdana"
        font-size="11"
        fill="black">
    1
    </text>

    <circle cx="694" cy="342" r="4" fill="black" />
<line
    stroke-linecap="square"
    x1="582"
    y1="342"
    x2="604"
    y2="342"
    style="stroke:rgb(0, 0,0);
            stroke-width:2;
"
/>
    <text
        x="585"
        y="335"
        alignment-baseline="middle"
        font-family="Verdana"
        font-size="11"
        fill="black">
    2
    </text>

<line
    stroke-linecap="square"
    x1="604"
    y1="342"
    x2="604"
    y2="302"
    style="stroke:rgb(0, 0,0);
            stroke-width:4;
"
/>

    <circle cx="604" cy="342" r="4" fill="black" />
<line
    stroke-linecap="square"
    x1="604"
    y1="302"
    x2="634"
    y2="302"
    style="stroke:rgb(0, 0,0);
            stroke-width:4;
"
/>

<line
    stroke-linecap="square"
    x1="634"
    y1="302"
    x2="634"
    y2="342"
    style="stroke:rgb(0, 0,0);
            stroke-width:4;
"
/>

    <circle cx="634" cy="302" r="4" fill="black" />
<line
    stroke-linecap="square"
    x1="634"
    y1="342"
    x2="694"
    y2="342"
    style="stroke:rgb(0, 0,0);
            stroke-width:4;
"
/>

    <circle cx="634" cy="342" r="4" fill="black" />
<line
    stroke-linecap="square"
    x1="694"
    y1="342"
    x2="694"
    y2="382"
    style="stroke:rgb(0, 0,0);
            stroke-width:4;
"
/>

<line
    stroke-linecap="square"
    x1="694"
    y1="382"
    x2="716"
    y2="382"
    style="stroke:rgb(0, 0,0);
            stroke-width:2;
                marker-end: url(#0,0,0)
            "
/>
    <text
        x="705"
        y="371"
        alignment-baseline="middle"
        font-family="Verdana"
        font-size="11"
        fill="black">
    2
    </text>

    <circle cx="694" cy="382" r="4" fill="black" />
<defs>
    <!-- Small box indicating a port -->
    <rect id="port" x="0" y="0" width="16" height="16"
          style="fill:white;stroke:rgb(0,0,0);stroke-width:1;fill-opacity:1.0;stroke-opacity:1.0"/>
</defs><use x="134" y="79" xlink:href="#port" />
<text text-anchor="end" alignment-baseline="middle" x="130" y="89" transform="rotate(0,130,89)" style="font-weight: regular" font-family="Verdana" font-size="9" fill="black">
currentPositionX
</text>

<use x="134" y="119" xlink:href="#port" />
<text text-anchor="end" alignment-baseline="middle" x="130" y="129" transform="rotate(0,130,129)" style="font-weight: regular" font-family="Verdana" font-size="9" fill="black">
currentPositionY
</text>

<use x="134" y="174" xlink:href="#port" />
<text text-anchor="end" alignment-baseline="middle" x="130" y="184" transform="rotate(0,130,184)" style="font-weight: regular" font-family="Verdana" font-size="9" fill="black">
currentDirectionX
</text>

<use x="134" y="214" xlink:href="#port" />
<text text-anchor="end" alignment-baseline="middle" x="130" y="224" transform="rotate(0,130,224)" style="font-weight: regular" font-family="Verdana" font-size="9" fill="black">
currentDirectionY
</text>

<use x="134" y="254" xlink:href="#port" />
<text text-anchor="end" alignment-baseline="middle" x="130" y="264" transform="rotate(0,130,264)" style="font-weight: regular" font-family="Verdana" font-size="9" fill="black">
plannedTrajectoryLength
</text>

<use x="134" y="294" xlink:href="#port" />
<text text-anchor="end" alignment-baseline="middle" x="130" y="304" transform="rotate(0,130,304)" style="font-weight: regular" font-family="Verdana" font-size="9" fill="black">
plannedTrajectoryX
</text>

<use x="134" y="334" xlink:href="#port" />
<text text-anchor="end" alignment-baseline="middle" x="130" y="344" transform="rotate(0,130,344)" style="font-weight: regular" font-family="Verdana" font-size="9" fill="black">
plannedTrajectoryY
</text>

<use x="1063" y="119" xlink:href="#port" />
<text text-anchor="start" alignment-baseline="middle" x="1083" y="129" transform="rotate(0,1083,129)" style="font-weight: regular" font-family="Verdana" font-size="9" fill="black">
desiredDirectionX
</text>

<use x="1063" y="79" xlink:href="#port" />
<text text-anchor="start" alignment-baseline="middle" x="1083" y="89" transform="rotate(0,1083,89)" style="font-weight: regular" font-family="Verdana" font-size="9" fill="black">
desiredDirectionY
</text>

<use x="1063" y="174" xlink:href="#port" />
<text text-anchor="start" alignment-baseline="middle" x="1083" y="184" transform="rotate(0,1083,184)" style="font-weight: regular" font-family="Verdana" font-size="9" fill="black">
signedDistanceToTrajectory
</text>

<use x="1063" y="214" xlink:href="#port" />
<text text-anchor="start" alignment-baseline="middle" x="1083" y="224" transform="rotate(0,1083,224)" style="font-weight: regular" font-family="Verdana" font-size="9" fill="black">
desiredVelocity
</text>

<use x="284" y="174" xlink:href="#port" />
<text text-anchor="start" alignment-baseline="middle" x="303" y="184" transform="rotate(0,303,184)" style="font-weight: regular" font-family="Verdana" font-size="9" fill="black">
currentPositionX
</text>

<use x="284" y="214" xlink:href="#port" />
<text text-anchor="start" alignment-baseline="middle" x="303" y="224" transform="rotate(0,303,224)" style="font-weight: regular" font-family="Verdana" font-size="9" fill="black">
currentPositionY
</text>

<use x="284" y="254" xlink:href="#port" />
<text text-anchor="start" alignment-baseline="middle" x="303" y="264" transform="rotate(0,303,264)" style="font-weight: regular" font-family="Verdana" font-size="9" fill="black">
plannedTrajectoryLength
</text>

<use x="284" y="294" xlink:href="#port" />
<text text-anchor="start" alignment-baseline="middle" x="303" y="304" transform="rotate(0,303,304)" style="font-weight: regular" font-family="Verdana" font-size="9" fill="black">
plannedTrajectoryX
</text>

<use x="284" y="334" xlink:href="#port" />
<text text-anchor="start" alignment-baseline="middle" x="303" y="344" transform="rotate(0,303,344)" style="font-weight: regular" font-family="Verdana" font-size="9" fill="black">
plannedTrajectoryY
</text>

<use x="566" y="254" xlink:href="#port" />
<text text-anchor="end" alignment-baseline="middle" x="563" y="264" transform="rotate(0,563,264)" style="font-weight: regular" font-family="Verdana" font-size="9" fill="black">
trimmedTrajectoryLength
</text>

<use x="566" y="294" xlink:href="#port" />
<text text-anchor="end" alignment-baseline="middle" x="563" y="304" transform="rotate(0,563,304)" style="font-weight: regular" font-family="Verdana" font-size="9" fill="black">
trimmedTrajectoryX
</text>

<use x="566" y="334" xlink:href="#port" />
<text text-anchor="end" alignment-baseline="middle" x="563" y="344" transform="rotate(0,563,344)" style="font-weight: regular" font-family="Verdana" font-size="9" fill="black">
trimmedTrajectoryY
</text>

<use x="716" y="119" xlink:href="#port" />
<text text-anchor="start" alignment-baseline="middle" x="735" y="129" transform="rotate(0,735,129)" style="font-weight: regular" font-family="Verdana" font-size="9" fill="black">
currentPositionX
</text>

<use x="716" y="174" xlink:href="#port" />
<text text-anchor="start" alignment-baseline="middle" x="735" y="184" transform="rotate(0,735,184)" style="font-weight: regular" font-family="Verdana" font-size="9" fill="black">
currentPositionY
</text>

<use x="716" y="214" xlink:href="#port" />
<text text-anchor="start" alignment-baseline="middle" x="735" y="224" transform="rotate(0,735,224)" style="font-weight: regular" font-family="Verdana" font-size="9" fill="black">
currentDirectionX
</text>

<use x="716" y="254" xlink:href="#port" />
<text text-anchor="start" alignment-baseline="middle" x="735" y="264" transform="rotate(0,735,264)" style="font-weight: regular" font-family="Verdana" font-size="9" fill="black">
currentDirectionY
</text>

<use x="716" y="294" xlink:href="#port" />
<text text-anchor="start" alignment-baseline="middle" x="735" y="304" transform="rotate(0,735,304)" style="font-weight: regular" font-family="Verdana" font-size="9" fill="black">
trimmedTrajectoryLength
</text>

<use x="716" y="334" xlink:href="#port" />
<text text-anchor="start" alignment-baseline="middle" x="735" y="344" transform="rotate(0,735,344)" style="font-weight: regular" font-family="Verdana" font-size="9" fill="black">
trimmedTrajectoryX
</text>

<use x="716" y="374" xlink:href="#port" />
<text text-anchor="start" alignment-baseline="middle" x="735" y="384" transform="rotate(0,735,384)" style="font-weight: regular" font-family="Verdana" font-size="9" fill="black">
trimmedTrajectoryY
</text>

<use x="1013" y="119" xlink:href="#port" />
<text text-anchor="end" alignment-baseline="middle" x="1010" y="129" transform="rotate(0,1010,129)" style="font-weight: regular" font-family="Verdana" font-size="9" fill="black">
desiredDirectionX
</text>

<use x="1013" y="79" xlink:href="#port" />
<text text-anchor="end" alignment-baseline="middle" x="1010" y="89" transform="rotate(0,1010,89)" style="font-weight: regular" font-family="Verdana" font-size="9" fill="black">
desiredDirectionY
</text>

<use x="1013" y="174" xlink:href="#port" />
<text text-anchor="end" alignment-baseline="middle" x="1010" y="184" transform="rotate(0,1010,184)" style="font-weight: regular" font-family="Verdana" font-size="9" fill="black">
signedDistanceToTrajectory
</text>

<use x="1013" y="214" xlink:href="#port" />
<text text-anchor="end" alignment-baseline="middle" x="1010" y="224" transform="rotate(0,1010,224)" style="font-weight: regular" font-family="Verdana" font-size="9" fill="black">
desiredVelocity
</text>


</svg>