<svg width="100%" height="100%" xmlns="http://www.w3.org/2000/svg" version="1.1" xmlns:xlink="http://www.w3.org/1999/xlink">
    <svg xmlns="http://www.w3.org/2000/svg" version="1.1">

<!-- Canvas: behaviorGeneration -->
<g transform="translate(16 20)">

    <rect
        id="15198"
        width="225"
        height="507"
        style="fill:white;stroke:black;stroke-width:2;fill-opacity:1.0;stroke-opacity:1.0"/>

    <text
        x="8"
        y="20"
        font-family="Verdana"
        fill="black">
            <tspan style="font-weight: bold" font-size="13">behaviorGeneration</tspan>
    </text>

</g>

</svg><!-- Component: trimPath -->
<g transform="translate(111 52)">
    <rect
        data-name="testManuelSchrick.autopilot.autopilot.behaviorGeneration.trimPath"
        id="15200"
        width="35"
        height="215"
        style="
                fill:white;
            stroke:black;
            stroke-width:2;
            fill-opacity:1.0;
            stroke-opacity:1.0"
        onmouseout="this.style.stroke = '#000000'; this.style['stroke-width'] = 2; this.style.cursor='default';"
    />

    <text
        x="15"
        y="15"
        alignment-baseline="middle"
        font-family="Verdana"
        fill="black"
        transform="rotate(90,15,15)">
            <tspan style="font-weight: bold" font-size="11">trimPath</tspan>
    </text>

</g><!-- Component: calcMotionCmds -->
<g transform="translate(176 52)">
    <rect
        data-name="testManuelSchrick.autopilot.autopilot.behaviorGeneration.calcMotionCmds"
        id="15201"
        width="35"
        height="375"
        style="
                fill:rgb(242,242,242);
            stroke:black;
            stroke-width:2;
            fill-opacity:1.0;
            stroke-opacity:1.0"
        onmouseout="this.style.stroke = '#000000'; this.style['stroke-width'] = 2; this.style.cursor='default';"
            onmouseover="this.style.stroke = '#316FC0'; this.style['stroke-width'] = 5; this.style.cursor='pointer';"
            onclick="window.open('testManuelSchrick.autopilot.autopilot.behaviorGeneration.calcMotionCmds_no_port_names.html','_parent',false);parent.openFileInEditor('/autopilot/autopilot/behaviorGeneration/calcMotionCmds.ema');"
    />

    <text
        x="15"
        y="15"
        alignment-baseline="middle"
        font-family="Verdana"
        fill="black"
        transform="rotate(90,15,15)">
            <tspan style="font-weight: bold" font-size="11">calcMotionCmds</tspan>
    </text>

</g><defs>
    <marker id="0,0,0" markerWidth="13" markerHeight="13" refX="5" refY="5" orient="auto">
            <polyline points="0,2 5,5 0,8" style="fill:none; stroke:rgb(0,0,0);
                    stroke-width:1" />
    </marker>
</defs><line
    stroke-linecap="square"
    x1="219"
    y1="287"
    x2="233"
    y2="287"
    style="stroke:rgb(0, 0,0);
            stroke-width:2;
                marker-end: url(#0,0,0)
            "
/>

<line
    stroke-linecap="square"
    x1="219"
    y1="247"
    x2="233"
    y2="247"
    style="stroke:rgb(0, 0,0);
            stroke-width:2;
                marker-end: url(#0,0,0)
            "
/>

<line
    stroke-linecap="square"
    x1="219"
    y1="207"
    x2="233"
    y2="207"
    style="stroke:rgb(0, 0,0);
            stroke-width:2;
                marker-end: url(#0,0,0)
            "
/>

<line
    stroke-linecap="square"
    x1="219"
    y1="167"
    x2="233"
    y2="167"
    style="stroke:rgb(0, 0,0);
            stroke-width:2;
                marker-end: url(#0,0,0)
            "
/>

<line
    stroke-linecap="square"
    x1="24"
    y1="87"
    x2="41"
    y2="87"
    style="stroke:rgb(0, 0,0);
            stroke-width:2;
"
/>
    <text
        x="27"
        y="80"
        alignment-baseline="middle"
        font-family="Verdana"
        font-size="11"
        fill="black">
    0
    </text>

<line
    stroke-linecap="square"
    x1="41"
    y1="87"
    x2="41"
    y2="344"
    style="stroke:rgb(0, 0,0);
            stroke-width:4;
"
/>

    <circle cx="41" cy="87" r="4" fill="black" />
<line
    stroke-linecap="square"
    x1="41"
    y1="344"
    x2="51"
    y2="344"
    style="stroke:rgb(0, 0,0);
            stroke-width:4;
"
/>

<line
    stroke-linecap="square"
    x1="51"
    y1="344"
    x2="51"
    y2="167"
    style="stroke:rgb(0, 0,0);
            stroke-width:4;
"
/>

    <circle cx="51" cy="344" r="4" fill="black" />
<line
    stroke-linecap="square"
    x1="51"
    y1="167"
    x2="86"
    y2="167"
    style="stroke:rgb(0, 0,0);
            stroke-width:4;
"
/>

    <circle cx="51" cy="167" r="4" fill="black" />
<line
    stroke-linecap="square"
    x1="86"
    y1="167"
    x2="86"
    y2="87"
    style="stroke:rgb(0, 0,0);
            stroke-width:4;
"
/>

<line
    stroke-linecap="square"
    x1="86"
    y1="87"
    x2="103"
    y2="87"
    style="stroke:rgb(0, 0,0);
            stroke-width:2;
                marker-end: url(#0,0,0)
            "
/>
    <text
        x="92"
        y="76"
        alignment-baseline="middle"
        font-family="Verdana"
        font-size="11"
        fill="black">
    0
    </text>

    <circle cx="86" cy="87" r="4" fill="black" />
<line
    stroke-linecap="square"
    x1="24"
    y1="287"
    x2="41"
    y2="287"
    style="stroke:rgb(0, 0,0);
            stroke-width:2;
"
/>
    <text
        x="27"
        y="280"
        alignment-baseline="middle"
        font-family="Verdana"
        font-size="11"
        fill="black">
    1
    </text>

<line
    stroke-linecap="square"
    x1="41"
    y1="287"
    x2="41"
    y2="344"
    style="stroke:rgb(0, 0,0);
            stroke-width:4;
"
/>

    <circle cx="41" cy="287" r="4" fill="black" />
<line
    stroke-linecap="square"
    x1="41"
    y1="344"
    x2="51"
    y2="344"
    style="stroke:rgb(0, 0,0);
            stroke-width:4;
"
/>

<line
    stroke-linecap="square"
    x1="51"
    y1="344"
    x2="51"
    y2="167"
    style="stroke:rgb(0, 0,0);
            stroke-width:4;
"
/>

    <circle cx="51" cy="344" r="4" fill="black" />
<line
    stroke-linecap="square"
    x1="51"
    y1="167"
    x2="86"
    y2="167"
    style="stroke:rgb(0, 0,0);
            stroke-width:4;
"
/>

    <circle cx="51" cy="167" r="4" fill="black" />
<line
    stroke-linecap="square"
    x1="86"
    y1="167"
    x2="86"
    y2="127"
    style="stroke:rgb(0, 0,0);
            stroke-width:4;
"
/>

<line
    stroke-linecap="square"
    x1="86"
    y1="127"
    x2="103"
    y2="127"
    style="stroke:rgb(0, 0,0);
            stroke-width:2;
                marker-end: url(#0,0,0)
            "
/>
    <text
        x="92"
        y="116"
        alignment-baseline="middle"
        font-family="Verdana"
        font-size="11"
        fill="black">
    1
    </text>

    <circle cx="86" cy="127" r="4" fill="black" />
<line
    stroke-linecap="square"
    x1="24"
    y1="407"
    x2="41"
    y2="407"
    style="stroke:rgb(0, 0,0);
            stroke-width:2;
"
/>
    <text
        x="27"
        y="400"
        alignment-baseline="middle"
        font-family="Verdana"
        font-size="11"
        fill="black">
    4
    </text>

<line
    stroke-linecap="square"
    x1="41"
    y1="407"
    x2="41"
    y2="344"
    style="stroke:rgb(0, 0,0);
            stroke-width:4;
"
/>

    <circle cx="41" cy="407" r="4" fill="black" />
<line
    stroke-linecap="square"
    x1="41"
    y1="344"
    x2="51"
    y2="344"
    style="stroke:rgb(0, 0,0);
            stroke-width:4;
"
/>

<line
    stroke-linecap="square"
    x1="51"
    y1="344"
    x2="51"
    y2="167"
    style="stroke:rgb(0, 0,0);
            stroke-width:4;
"
/>

    <circle cx="51" cy="344" r="4" fill="black" />
<line
    stroke-linecap="square"
    x1="51"
    y1="167"
    x2="86"
    y2="167"
    style="stroke:rgb(0, 0,0);
            stroke-width:4;
"
/>

    <circle cx="51" cy="167" r="4" fill="black" />
<line
    stroke-linecap="square"
    x1="86"
    y1="167"
    x2="86"
    y2="167"
    style="stroke:rgb(0, 0,0);
            stroke-width:4;
"
/>

<line
    stroke-linecap="square"
    x1="86"
    y1="167"
    x2="103"
    y2="167"
    style="stroke:rgb(0, 0,0);
            stroke-width:2;
                marker-end: url(#0,0,0)
            "
/>
    <text
        x="92"
        y="156"
        alignment-baseline="middle"
        font-family="Verdana"
        font-size="11"
        fill="black">
    4
    </text>

    <circle cx="86" cy="167" r="4" fill="black" />
<line
    stroke-linecap="square"
    x1="24"
    y1="447"
    x2="41"
    y2="447"
    style="stroke:rgb(0, 0,0);
            stroke-width:2;
"
/>
    <text
        x="27"
        y="440"
        alignment-baseline="middle"
        font-family="Verdana"
        font-size="11"
        fill="black">
    5
    </text>

<line
    stroke-linecap="square"
    x1="41"
    y1="447"
    x2="41"
    y2="344"
    style="stroke:rgb(0, 0,0);
            stroke-width:4;
"
/>

    <circle cx="41" cy="447" r="4" fill="black" />
<line
    stroke-linecap="square"
    x1="41"
    y1="344"
    x2="51"
    y2="344"
    style="stroke:rgb(0, 0,0);
            stroke-width:4;
"
/>

<line
    stroke-linecap="square"
    x1="51"
    y1="344"
    x2="51"
    y2="167"
    style="stroke:rgb(0, 0,0);
            stroke-width:4;
"
/>

    <circle cx="51" cy="344" r="4" fill="black" />
<line
    stroke-linecap="square"
    x1="51"
    y1="167"
    x2="86"
    y2="167"
    style="stroke:rgb(0, 0,0);
            stroke-width:4;
"
/>

    <circle cx="51" cy="167" r="4" fill="black" />
<line
    stroke-linecap="square"
    x1="86"
    y1="167"
    x2="86"
    y2="207"
    style="stroke:rgb(0, 0,0);
            stroke-width:4;
"
/>

<line
    stroke-linecap="square"
    x1="86"
    y1="207"
    x2="103"
    y2="207"
    style="stroke:rgb(0, 0,0);
            stroke-width:2;
                marker-end: url(#0,0,0)
            "
/>
    <text
        x="92"
        y="196"
        alignment-baseline="middle"
        font-family="Verdana"
        font-size="11"
        fill="black">
    5
    </text>

    <circle cx="86" cy="207" r="4" fill="black" />
<line
    stroke-linecap="square"
    x1="24"
    y1="487"
    x2="41"
    y2="487"
    style="stroke:rgb(0, 0,0);
            stroke-width:2;
"
/>
    <text
        x="27"
        y="480"
        alignment-baseline="middle"
        font-family="Verdana"
        font-size="11"
        fill="black">
    6
    </text>

<line
    stroke-linecap="square"
    x1="41"
    y1="487"
    x2="41"
    y2="344"
    style="stroke:rgb(0, 0,0);
            stroke-width:4;
"
/>

    <circle cx="41" cy="487" r="4" fill="black" />
<line
    stroke-linecap="square"
    x1="41"
    y1="344"
    x2="51"
    y2="344"
    style="stroke:rgb(0, 0,0);
            stroke-width:4;
"
/>

<line
    stroke-linecap="square"
    x1="51"
    y1="344"
    x2="51"
    y2="167"
    style="stroke:rgb(0, 0,0);
            stroke-width:4;
"
/>

    <circle cx="51" cy="344" r="4" fill="black" />
<line
    stroke-linecap="square"
    x1="51"
    y1="167"
    x2="86"
    y2="167"
    style="stroke:rgb(0, 0,0);
            stroke-width:4;
"
/>

    <circle cx="51" cy="167" r="4" fill="black" />
<line
    stroke-linecap="square"
    x1="86"
    y1="167"
    x2="86"
    y2="247"
    style="stroke:rgb(0, 0,0);
            stroke-width:4;
"
/>

<line
    stroke-linecap="square"
    x1="86"
    y1="247"
    x2="103"
    y2="247"
    style="stroke:rgb(0, 0,0);
            stroke-width:2;
                marker-end: url(#0,0,0)
            "
/>
    <text
        x="92"
        y="236"
        alignment-baseline="middle"
        font-family="Verdana"
        font-size="11"
        fill="black">
    6
    </text>

    <circle cx="86" cy="247" r="4" fill="black" />
<line
    stroke-linecap="square"
    x1="24"
    y1="87"
    x2="41"
    y2="87"
    style="stroke:rgb(0, 0,0);
            stroke-width:2;
"
/>
    <text
        x="27"
        y="80"
        alignment-baseline="middle"
        font-family="Verdana"
        font-size="11"
        fill="black">
    0
    </text>

<line
    stroke-linecap="square"
    x1="41"
    y1="87"
    x2="41"
    y2="344"
    style="stroke:rgb(0, 0,0);
            stroke-width:4;
"
/>

    <circle cx="41" cy="87" r="4" fill="black" />
<line
    stroke-linecap="square"
    x1="41"
    y1="344"
    x2="51"
    y2="344"
    style="stroke:rgb(0, 0,0);
            stroke-width:4;
"
/>

<line
    stroke-linecap="square"
    x1="51"
    y1="344"
    x2="51"
    y2="347"
    style="stroke:rgb(0, 0,0);
            stroke-width:4;
"
/>

    <circle cx="51" cy="344" r="4" fill="black" />
<line
    stroke-linecap="square"
    x1="51"
    y1="347"
    x2="146"
    y2="347"
    style="stroke:rgb(0, 0,0);
            stroke-width:4;
"
/>

    <circle cx="51" cy="347" r="4" fill="black" />
<line
    stroke-linecap="square"
    x1="146"
    y1="347"
    x2="146"
    y2="287"
    style="stroke:rgb(0, 0,0);
            stroke-width:4;
"
/>

<line
    stroke-linecap="square"
    x1="146"
    y1="287"
    x2="168"
    y2="287"
    style="stroke:rgb(0, 0,0);
            stroke-width:2;
                marker-end: url(#0,0,0)
            "
/>
    <text
        x="157"
        y="276"
        alignment-baseline="middle"
        font-family="Verdana"
        font-size="11"
        fill="black">
    0
    </text>

    <circle cx="146" cy="287" r="4" fill="black" />
<line
    stroke-linecap="square"
    x1="24"
    y1="287"
    x2="41"
    y2="287"
    style="stroke:rgb(0, 0,0);
            stroke-width:2;
"
/>
    <text
        x="27"
        y="280"
        alignment-baseline="middle"
        font-family="Verdana"
        font-size="11"
        fill="black">
    1
    </text>

<line
    stroke-linecap="square"
    x1="41"
    y1="287"
    x2="41"
    y2="344"
    style="stroke:rgb(0, 0,0);
            stroke-width:4;
"
/>

    <circle cx="41" cy="287" r="4" fill="black" />
<line
    stroke-linecap="square"
    x1="41"
    y1="344"
    x2="51"
    y2="344"
    style="stroke:rgb(0, 0,0);
            stroke-width:4;
"
/>

<line
    stroke-linecap="square"
    x1="51"
    y1="344"
    x2="51"
    y2="347"
    style="stroke:rgb(0, 0,0);
            stroke-width:4;
"
/>

    <circle cx="51" cy="344" r="4" fill="black" />
<line
    stroke-linecap="square"
    x1="51"
    y1="347"
    x2="146"
    y2="347"
    style="stroke:rgb(0, 0,0);
            stroke-width:4;
"
/>

    <circle cx="51" cy="347" r="4" fill="black" />
<line
    stroke-linecap="square"
    x1="146"
    y1="347"
    x2="146"
    y2="327"
    style="stroke:rgb(0, 0,0);
            stroke-width:4;
"
/>

<line
    stroke-linecap="square"
    x1="146"
    y1="327"
    x2="168"
    y2="327"
    style="stroke:rgb(0, 0,0);
            stroke-width:2;
                marker-end: url(#0,0,0)
            "
/>
    <text
        x="157"
        y="316"
        alignment-baseline="middle"
        font-family="Verdana"
        font-size="11"
        fill="black">
    1
    </text>

    <circle cx="146" cy="327" r="4" fill="black" />
<line
    stroke-linecap="square"
    x1="24"
    y1="327"
    x2="41"
    y2="327"
    style="stroke:rgb(0, 0,0);
            stroke-width:2;
"
/>
    <text
        x="27"
        y="320"
        alignment-baseline="middle"
        font-family="Verdana"
        font-size="11"
        fill="black">
    2
    </text>

<line
    stroke-linecap="square"
    x1="41"
    y1="327"
    x2="41"
    y2="344"
    style="stroke:rgb(0, 0,0);
            stroke-width:4;
"
/>

    <circle cx="41" cy="327" r="4" fill="black" />
<line
    stroke-linecap="square"
    x1="41"
    y1="344"
    x2="51"
    y2="344"
    style="stroke:rgb(0, 0,0);
            stroke-width:4;
"
/>

<line
    stroke-linecap="square"
    x1="51"
    y1="344"
    x2="51"
    y2="347"
    style="stroke:rgb(0, 0,0);
            stroke-width:4;
"
/>

    <circle cx="51" cy="344" r="4" fill="black" />
<line
    stroke-linecap="square"
    x1="51"
    y1="347"
    x2="146"
    y2="347"
    style="stroke:rgb(0, 0,0);
            stroke-width:4;
"
/>

    <circle cx="51" cy="347" r="4" fill="black" />
<line
    stroke-linecap="square"
    x1="146"
    y1="347"
    x2="146"
    y2="367"
    style="stroke:rgb(0, 0,0);
            stroke-width:4;
"
/>

<line
    stroke-linecap="square"
    x1="146"
    y1="367"
    x2="168"
    y2="367"
    style="stroke:rgb(0, 0,0);
            stroke-width:2;
                marker-end: url(#0,0,0)
            "
/>
    <text
        x="157"
        y="356"
        alignment-baseline="middle"
        font-family="Verdana"
        font-size="11"
        fill="black">
    2
    </text>

    <circle cx="146" cy="367" r="4" fill="black" />
<line
    stroke-linecap="square"
    x1="24"
    y1="367"
    x2="41"
    y2="367"
    style="stroke:rgb(0, 0,0);
            stroke-width:2;
"
/>
    <text
        x="27"
        y="360"
        alignment-baseline="middle"
        font-family="Verdana"
        font-size="11"
        fill="black">
    3
    </text>

<line
    stroke-linecap="square"
    x1="41"
    y1="367"
    x2="41"
    y2="344"
    style="stroke:rgb(0, 0,0);
            stroke-width:4;
"
/>

    <circle cx="41" cy="367" r="4" fill="black" />
<line
    stroke-linecap="square"
    x1="41"
    y1="344"
    x2="51"
    y2="344"
    style="stroke:rgb(0, 0,0);
            stroke-width:4;
"
/>

<line
    stroke-linecap="square"
    x1="51"
    y1="344"
    x2="51"
    y2="347"
    style="stroke:rgb(0, 0,0);
            stroke-width:4;
"
/>

    <circle cx="51" cy="344" r="4" fill="black" />
<line
    stroke-linecap="square"
    x1="51"
    y1="347"
    x2="146"
    y2="347"
    style="stroke:rgb(0, 0,0);
            stroke-width:4;
"
/>

    <circle cx="51" cy="347" r="4" fill="black" />
<line
    stroke-linecap="square"
    x1="146"
    y1="347"
    x2="146"
    y2="407"
    style="stroke:rgb(0, 0,0);
            stroke-width:4;
"
/>

<line
    stroke-linecap="square"
    x1="146"
    y1="407"
    x2="168"
    y2="407"
    style="stroke:rgb(0, 0,0);
            stroke-width:2;
                marker-end: url(#0,0,0)
            "
/>
    <text
        x="157"
        y="396"
        alignment-baseline="middle"
        font-family="Verdana"
        font-size="11"
        fill="black">
    3
    </text>

    <circle cx="146" cy="407" r="4" fill="black" />
<line
    stroke-linecap="square"
    x1="154"
    y1="87"
    x2="168"
    y2="87"
    style="stroke:rgb(0, 0,0);
            stroke-width:2;
                marker-end: url(#0,0,0)
            "
/>

<line
    stroke-linecap="square"
    x1="154"
    y1="127"
    x2="168"
    y2="127"
    style="stroke:rgb(0, 0,0);
            stroke-width:2;
                marker-end: url(#0,0,0)
            "
/>

<line
    stroke-linecap="square"
    x1="154"
    y1="167"
    x2="168"
    y2="167"
    style="stroke:rgb(0, 0,0);
            stroke-width:2;
                marker-end: url(#0,0,0)
            "
/>

<defs>
    <!-- Small box indicating a port -->
    <rect id="port" x="0" y="0" width="16" height="16"
          style="fill:white;stroke:rgb(0,0,0);stroke-width:1;fill-opacity:1.0;stroke-opacity:1.0"/>
</defs><use x="203" y="279" xlink:href="#port" />
<text text-anchor="end" alignment-baseline="middle" x="200" y="289" transform="rotate(0,200,289)" style="font-weight: regular" font-family="Verdana" font-size="9" fill="black">

</text>

<use x="233" y="279" xlink:href="#port" />
<text text-anchor="start" alignment-baseline="middle" x="253" y="289" transform="rotate(0,253,289)" style="font-weight: regular" font-family="Verdana" font-size="9" fill="black">

</text>

<use x="203" y="239" xlink:href="#port" />
<text text-anchor="end" alignment-baseline="middle" x="200" y="249" transform="rotate(0,200,249)" style="font-weight: regular" font-family="Verdana" font-size="9" fill="black">

</text>

<use x="233" y="239" xlink:href="#port" />
<text text-anchor="start" alignment-baseline="middle" x="253" y="249" transform="rotate(0,253,249)" style="font-weight: regular" font-family="Verdana" font-size="9" fill="black">

</text>

<use x="203" y="199" xlink:href="#port" />
<text text-anchor="end" alignment-baseline="middle" x="200" y="209" transform="rotate(0,200,209)" style="font-weight: regular" font-family="Verdana" font-size="9" fill="black">

</text>

<use x="233" y="199" xlink:href="#port" />
<text text-anchor="start" alignment-baseline="middle" x="253" y="209" transform="rotate(0,253,209)" style="font-weight: regular" font-family="Verdana" font-size="9" fill="black">

</text>

<use x="203" y="159" xlink:href="#port" />
<text text-anchor="end" alignment-baseline="middle" x="200" y="169" transform="rotate(0,200,169)" style="font-weight: regular" font-family="Verdana" font-size="9" fill="black">

</text>

<use x="233" y="159" xlink:href="#port" />
<text text-anchor="start" alignment-baseline="middle" x="253" y="169" transform="rotate(0,253,169)" style="font-weight: regular" font-family="Verdana" font-size="9" fill="black">

</text>

<use x="8" y="79" xlink:href="#port" />
<text text-anchor="end" alignment-baseline="middle" x="4" y="89" transform="rotate(0,4,89)" style="font-weight: regular" font-family="Verdana" font-size="9" fill="black">

</text>

<use x="103" y="79" xlink:href="#port" />
<text text-anchor="start" alignment-baseline="middle" x="122" y="89" transform="rotate(0,122,89)" style="font-weight: regular" font-family="Verdana" font-size="9" fill="black">

</text>

<use x="8" y="279" xlink:href="#port" />
<text text-anchor="end" alignment-baseline="middle" x="4" y="289" transform="rotate(0,4,289)" style="font-weight: regular" font-family="Verdana" font-size="9" fill="black">

</text>

<use x="103" y="119" xlink:href="#port" />
<text text-anchor="start" alignment-baseline="middle" x="122" y="129" transform="rotate(0,122,129)" style="font-weight: regular" font-family="Verdana" font-size="9" fill="black">

</text>

<use x="8" y="399" xlink:href="#port" />
<text text-anchor="end" alignment-baseline="middle" x="4" y="409" transform="rotate(0,4,409)" style="font-weight: regular" font-family="Verdana" font-size="9" fill="black">

</text>

<use x="103" y="159" xlink:href="#port" />
<text text-anchor="start" alignment-baseline="middle" x="122" y="169" transform="rotate(0,122,169)" style="font-weight: regular" font-family="Verdana" font-size="9" fill="black">

</text>

<use x="8" y="439" xlink:href="#port" />
<text text-anchor="end" alignment-baseline="middle" x="4" y="449" transform="rotate(0,4,449)" style="font-weight: regular" font-family="Verdana" font-size="9" fill="black">

</text>

<use x="103" y="199" xlink:href="#port" />
<text text-anchor="start" alignment-baseline="middle" x="122" y="209" transform="rotate(0,122,209)" style="font-weight: regular" font-family="Verdana" font-size="9" fill="black">

</text>

<use x="8" y="479" xlink:href="#port" />
<text text-anchor="end" alignment-baseline="middle" x="4" y="489" transform="rotate(0,4,489)" style="font-weight: regular" font-family="Verdana" font-size="9" fill="black">

</text>

<use x="103" y="239" xlink:href="#port" />
<text text-anchor="start" alignment-baseline="middle" x="122" y="249" transform="rotate(0,122,249)" style="font-weight: regular" font-family="Verdana" font-size="9" fill="black">

</text>

<use x="8" y="79" xlink:href="#port" />
<text text-anchor="end" alignment-baseline="middle" x="4" y="89" transform="rotate(0,4,89)" style="font-weight: regular" font-family="Verdana" font-size="9" fill="black">

</text>

<use x="168" y="279" xlink:href="#port" />
<text text-anchor="start" alignment-baseline="middle" x="187" y="289" transform="rotate(0,187,289)" style="font-weight: regular" font-family="Verdana" font-size="9" fill="black">

</text>

<use x="8" y="279" xlink:href="#port" />
<text text-anchor="end" alignment-baseline="middle" x="4" y="289" transform="rotate(0,4,289)" style="font-weight: regular" font-family="Verdana" font-size="9" fill="black">

</text>

<use x="168" y="319" xlink:href="#port" />
<text text-anchor="start" alignment-baseline="middle" x="187" y="329" transform="rotate(0,187,329)" style="font-weight: regular" font-family="Verdana" font-size="9" fill="black">

</text>

<use x="8" y="319" xlink:href="#port" />
<text text-anchor="end" alignment-baseline="middle" x="4" y="329" transform="rotate(0,4,329)" style="font-weight: regular" font-family="Verdana" font-size="9" fill="black">

</text>

<use x="168" y="359" xlink:href="#port" />
<text text-anchor="start" alignment-baseline="middle" x="187" y="369" transform="rotate(0,187,369)" style="font-weight: regular" font-family="Verdana" font-size="9" fill="black">

</text>

<use x="8" y="359" xlink:href="#port" />
<text text-anchor="end" alignment-baseline="middle" x="4" y="369" transform="rotate(0,4,369)" style="font-weight: regular" font-family="Verdana" font-size="9" fill="black">

</text>

<use x="168" y="399" xlink:href="#port" />
<text text-anchor="start" alignment-baseline="middle" x="187" y="409" transform="rotate(0,187,409)" style="font-weight: regular" font-family="Verdana" font-size="9" fill="black">

</text>

<use x="138" y="79" xlink:href="#port" />
<text text-anchor="end" alignment-baseline="middle" x="135" y="89" transform="rotate(0,135,89)" style="font-weight: regular" font-family="Verdana" font-size="9" fill="black">

</text>

<use x="168" y="79" xlink:href="#port" />
<text text-anchor="start" alignment-baseline="middle" x="187" y="89" transform="rotate(0,187,89)" style="font-weight: regular" font-family="Verdana" font-size="9" fill="black">

</text>

<use x="138" y="119" xlink:href="#port" />
<text text-anchor="end" alignment-baseline="middle" x="135" y="129" transform="rotate(0,135,129)" style="font-weight: regular" font-family="Verdana" font-size="9" fill="black">

</text>

<use x="168" y="119" xlink:href="#port" />
<text text-anchor="start" alignment-baseline="middle" x="187" y="129" transform="rotate(0,187,129)" style="font-weight: regular" font-family="Verdana" font-size="9" fill="black">

</text>

<use x="138" y="159" xlink:href="#port" />
<text text-anchor="end" alignment-baseline="middle" x="135" y="169" transform="rotate(0,135,169)" style="font-weight: regular" font-family="Verdana" font-size="9" fill="black">

</text>

<use x="168" y="159" xlink:href="#port" />
<text text-anchor="start" alignment-baseline="middle" x="187" y="169" transform="rotate(0,187,169)" style="font-weight: regular" font-family="Verdana" font-size="9" fill="black">

</text>


</svg>