<svg width="100%" height="100%" xmlns="http://www.w3.org/2000/svg" version="1.1" xmlns:xlink="http://www.w3.org/1999/xlink">
    <svg xmlns="http://www.w3.org/2000/svg" version="1.1">

<!-- Canvas: behaviorGeneration -->
<g transform="translate(75 20)">

    <rect
        id="15163"
        width="405"
        height="507"
        style="fill:white;stroke:black;stroke-width:2;fill-opacity:1.0;stroke-opacity:1.0"/>

    <text
        x="8"
        y="20"
        font-family="Verdana"
        fill="black">
            <tspan style="font-weight: bold" font-size="13">behaviorGeneration</tspan>
    </text>

</g>

</svg><!-- Component: trimPath -->
<g transform="translate(170 52)">
    <rect
        data-name="testManuelSchrick.autopilot.autopilot.behaviorGeneration.trimPath"
        id="15165"
        width="127"
        height="215"
        style="
                fill:white;
            stroke:black;
            stroke-width:2;
            fill-opacity:1.0;
            stroke-opacity:1.0"
        onmouseout="this.style.stroke = '#000000'; this.style['stroke-width'] = 2; this.style.cursor='default';"
    />

    <text
        x="10"
        y="15"
        alignment-baseline="middle"
        font-family="Verdana"
        fill="black">
            <tspan style="font-weight: bold" font-size="11">trimPath</tspan>
    </text>

    <text
            x="10"
            y="30"
            alignment-baseline="middle"
            font-family="Verdana"
            fill="black">
                <tspan style="font-weight: bold" font-size="11"></tspan>
        </text>

</g><!-- Component: calcMotionCmds -->
<g transform="translate(327 52)">
    <rect
        data-name="testManuelSchrick.autopilot.autopilot.behaviorGeneration.calcMotionCmds"
        id="15166"
        width="123"
        height="375"
        style="
                fill:rgb(242,242,242);
            stroke:black;
            stroke-width:2;
            fill-opacity:1.0;
            stroke-opacity:1.0"
        onmouseout="this.style.stroke = '#000000'; this.style['stroke-width'] = 2; this.style.cursor='default';"
            onmouseover="this.style.stroke = '#316FC0'; this.style['stroke-width'] = 5; this.style.cursor='pointer';"
            onclick="window.open('testManuelSchrick.autopilot.autopilot.behaviorGeneration.calcMotionCmds.html','_parent',false);parent.openFileInEditor('/autopilot/autopilot/behaviorGeneration/calcMotionCmds.ema');"
    />

    <text
        x="10"
        y="15"
        alignment-baseline="middle"
        font-family="Verdana"
        fill="black">
            <tspan style="font-weight: bold" font-size="11">calcMotionCmds</tspan>
    </text>

    <text
            x="10"
            y="30"
            alignment-baseline="middle"
            font-family="Verdana"
            fill="black">
                <tspan style="font-weight: bold" font-size="11"></tspan>
        </text>

</g><defs>
    <marker id="0,0,0" markerWidth="13" markerHeight="13" refX="5" refY="5" orient="auto">
            <polyline points="0,2 5,5 0,8" style="fill:none; stroke:rgb(0,0,0);
                    stroke-width:1" />
    </marker>
</defs><line
    stroke-linecap="square"
    x1="458"
    y1="287"
    x2="472"
    y2="287"
    style="stroke:rgb(0, 0,0);
            stroke-width:2;
                marker-end: url(#0,0,0)
            "
/>

<line
    stroke-linecap="square"
    x1="458"
    y1="247"
    x2="472"
    y2="247"
    style="stroke:rgb(0, 0,0);
            stroke-width:2;
                marker-end: url(#0,0,0)
            "
/>

<line
    stroke-linecap="square"
    x1="458"
    y1="207"
    x2="472"
    y2="207"
    style="stroke:rgb(0, 0,0);
            stroke-width:2;
                marker-end: url(#0,0,0)
            "
/>

<line
    stroke-linecap="square"
    x1="458"
    y1="167"
    x2="472"
    y2="167"
    style="stroke:rgb(0, 0,0);
            stroke-width:2;
                marker-end: url(#0,0,0)
            "
/>

<line
    stroke-linecap="square"
    x1="83"
    y1="87"
    x2="100"
    y2="87"
    style="stroke:rgb(0, 0,0);
            stroke-width:2;
"
/>
    <text
        x="86"
        y="80"
        alignment-baseline="middle"
        font-family="Verdana"
        font-size="11"
        fill="black">
    0
    </text>

<line
    stroke-linecap="square"
    x1="100"
    y1="87"
    x2="100"
    y2="344"
    style="stroke:rgb(0, 0,0);
            stroke-width:4;
"
/>

    <circle cx="100" cy="87" r="4" fill="black" />
<line
    stroke-linecap="square"
    x1="100"
    y1="344"
    x2="110"
    y2="344"
    style="stroke:rgb(0, 0,0);
            stroke-width:4;
"
/>

<line
    stroke-linecap="square"
    x1="110"
    y1="344"
    x2="110"
    y2="167"
    style="stroke:rgb(0, 0,0);
            stroke-width:4;
"
/>

    <circle cx="110" cy="344" r="4" fill="black" />
<line
    stroke-linecap="square"
    x1="110"
    y1="167"
    x2="145"
    y2="167"
    style="stroke:rgb(0, 0,0);
            stroke-width:4;
"
/>

    <circle cx="110" cy="167" r="4" fill="black" />
<line
    stroke-linecap="square"
    x1="145"
    y1="167"
    x2="145"
    y2="87"
    style="stroke:rgb(0, 0,0);
            stroke-width:4;
"
/>

<line
    stroke-linecap="square"
    x1="145"
    y1="87"
    x2="162"
    y2="87"
    style="stroke:rgb(0, 0,0);
            stroke-width:2;
                marker-end: url(#0,0,0)
            "
/>
    <text
        x="151"
        y="76"
        alignment-baseline="middle"
        font-family="Verdana"
        font-size="11"
        fill="black">
    0
    </text>

    <circle cx="145" cy="87" r="4" fill="black" />
<line
    stroke-linecap="square"
    x1="83"
    y1="287"
    x2="100"
    y2="287"
    style="stroke:rgb(0, 0,0);
            stroke-width:2;
"
/>
    <text
        x="86"
        y="280"
        alignment-baseline="middle"
        font-family="Verdana"
        font-size="11"
        fill="black">
    1
    </text>

<line
    stroke-linecap="square"
    x1="100"
    y1="287"
    x2="100"
    y2="344"
    style="stroke:rgb(0, 0,0);
            stroke-width:4;
"
/>

    <circle cx="100" cy="287" r="4" fill="black" />
<line
    stroke-linecap="square"
    x1="100"
    y1="344"
    x2="110"
    y2="344"
    style="stroke:rgb(0, 0,0);
            stroke-width:4;
"
/>

<line
    stroke-linecap="square"
    x1="110"
    y1="344"
    x2="110"
    y2="167"
    style="stroke:rgb(0, 0,0);
            stroke-width:4;
"
/>

    <circle cx="110" cy="344" r="4" fill="black" />
<line
    stroke-linecap="square"
    x1="110"
    y1="167"
    x2="145"
    y2="167"
    style="stroke:rgb(0, 0,0);
            stroke-width:4;
"
/>

    <circle cx="110" cy="167" r="4" fill="black" />
<line
    stroke-linecap="square"
    x1="145"
    y1="167"
    x2="145"
    y2="127"
    style="stroke:rgb(0, 0,0);
            stroke-width:4;
"
/>

<line
    stroke-linecap="square"
    x1="145"
    y1="127"
    x2="162"
    y2="127"
    style="stroke:rgb(0, 0,0);
            stroke-width:2;
                marker-end: url(#0,0,0)
            "
/>
    <text
        x="151"
        y="116"
        alignment-baseline="middle"
        font-family="Verdana"
        font-size="11"
        fill="black">
    1
    </text>

    <circle cx="145" cy="127" r="4" fill="black" />
<line
    stroke-linecap="square"
    x1="83"
    y1="407"
    x2="100"
    y2="407"
    style="stroke:rgb(0, 0,0);
            stroke-width:2;
"
/>
    <text
        x="86"
        y="400"
        alignment-baseline="middle"
        font-family="Verdana"
        font-size="11"
        fill="black">
    4
    </text>

<line
    stroke-linecap="square"
    x1="100"
    y1="407"
    x2="100"
    y2="344"
    style="stroke:rgb(0, 0,0);
            stroke-width:4;
"
/>

    <circle cx="100" cy="407" r="4" fill="black" />
<line
    stroke-linecap="square"
    x1="100"
    y1="344"
    x2="110"
    y2="344"
    style="stroke:rgb(0, 0,0);
            stroke-width:4;
"
/>

<line
    stroke-linecap="square"
    x1="110"
    y1="344"
    x2="110"
    y2="167"
    style="stroke:rgb(0, 0,0);
            stroke-width:4;
"
/>

    <circle cx="110" cy="344" r="4" fill="black" />
<line
    stroke-linecap="square"
    x1="110"
    y1="167"
    x2="145"
    y2="167"
    style="stroke:rgb(0, 0,0);
            stroke-width:4;
"
/>

    <circle cx="110" cy="167" r="4" fill="black" />
<line
    stroke-linecap="square"
    x1="145"
    y1="167"
    x2="145"
    y2="167"
    style="stroke:rgb(0, 0,0);
            stroke-width:4;
"
/>

<line
    stroke-linecap="square"
    x1="145"
    y1="167"
    x2="162"
    y2="167"
    style="stroke:rgb(0, 0,0);
            stroke-width:2;
                marker-end: url(#0,0,0)
            "
/>
    <text
        x="151"
        y="156"
        alignment-baseline="middle"
        font-family="Verdana"
        font-size="11"
        fill="black">
    4
    </text>

    <circle cx="145" cy="167" r="4" fill="black" />
<line
    stroke-linecap="square"
    x1="83"
    y1="447"
    x2="100"
    y2="447"
    style="stroke:rgb(0, 0,0);
            stroke-width:2;
"
/>
    <text
        x="86"
        y="440"
        alignment-baseline="middle"
        font-family="Verdana"
        font-size="11"
        fill="black">
    5
    </text>

<line
    stroke-linecap="square"
    x1="100"
    y1="447"
    x2="100"
    y2="344"
    style="stroke:rgb(0, 0,0);
            stroke-width:4;
"
/>

    <circle cx="100" cy="447" r="4" fill="black" />
<line
    stroke-linecap="square"
    x1="100"
    y1="344"
    x2="110"
    y2="344"
    style="stroke:rgb(0, 0,0);
            stroke-width:4;
"
/>

<line
    stroke-linecap="square"
    x1="110"
    y1="344"
    x2="110"
    y2="167"
    style="stroke:rgb(0, 0,0);
            stroke-width:4;
"
/>

    <circle cx="110" cy="344" r="4" fill="black" />
<line
    stroke-linecap="square"
    x1="110"
    y1="167"
    x2="145"
    y2="167"
    style="stroke:rgb(0, 0,0);
            stroke-width:4;
"
/>

    <circle cx="110" cy="167" r="4" fill="black" />
<line
    stroke-linecap="square"
    x1="145"
    y1="167"
    x2="145"
    y2="207"
    style="stroke:rgb(0, 0,0);
            stroke-width:4;
"
/>

<line
    stroke-linecap="square"
    x1="145"
    y1="207"
    x2="162"
    y2="207"
    style="stroke:rgb(0, 0,0);
            stroke-width:2;
                marker-end: url(#0,0,0)
            "
/>
    <text
        x="151"
        y="196"
        alignment-baseline="middle"
        font-family="Verdana"
        font-size="11"
        fill="black">
    5
    </text>

    <circle cx="145" cy="207" r="4" fill="black" />
<line
    stroke-linecap="square"
    x1="83"
    y1="487"
    x2="100"
    y2="487"
    style="stroke:rgb(0, 0,0);
            stroke-width:2;
"
/>
    <text
        x="86"
        y="480"
        alignment-baseline="middle"
        font-family="Verdana"
        font-size="11"
        fill="black">
    6
    </text>

<line
    stroke-linecap="square"
    x1="100"
    y1="487"
    x2="100"
    y2="344"
    style="stroke:rgb(0, 0,0);
            stroke-width:4;
"
/>

    <circle cx="100" cy="487" r="4" fill="black" />
<line
    stroke-linecap="square"
    x1="100"
    y1="344"
    x2="110"
    y2="344"
    style="stroke:rgb(0, 0,0);
            stroke-width:4;
"
/>

<line
    stroke-linecap="square"
    x1="110"
    y1="344"
    x2="110"
    y2="167"
    style="stroke:rgb(0, 0,0);
            stroke-width:4;
"
/>

    <circle cx="110" cy="344" r="4" fill="black" />
<line
    stroke-linecap="square"
    x1="110"
    y1="167"
    x2="145"
    y2="167"
    style="stroke:rgb(0, 0,0);
            stroke-width:4;
"
/>

    <circle cx="110" cy="167" r="4" fill="black" />
<line
    stroke-linecap="square"
    x1="145"
    y1="167"
    x2="145"
    y2="247"
    style="stroke:rgb(0, 0,0);
            stroke-width:4;
"
/>

<line
    stroke-linecap="square"
    x1="145"
    y1="247"
    x2="162"
    y2="247"
    style="stroke:rgb(0, 0,0);
            stroke-width:2;
                marker-end: url(#0,0,0)
            "
/>
    <text
        x="151"
        y="236"
        alignment-baseline="middle"
        font-family="Verdana"
        font-size="11"
        fill="black">
    6
    </text>

    <circle cx="145" cy="247" r="4" fill="black" />
<line
    stroke-linecap="square"
    x1="83"
    y1="87"
    x2="100"
    y2="87"
    style="stroke:rgb(0, 0,0);
            stroke-width:2;
"
/>
    <text
        x="86"
        y="80"
        alignment-baseline="middle"
        font-family="Verdana"
        font-size="11"
        fill="black">
    0
    </text>

<line
    stroke-linecap="square"
    x1="100"
    y1="87"
    x2="100"
    y2="344"
    style="stroke:rgb(0, 0,0);
            stroke-width:4;
"
/>

    <circle cx="100" cy="87" r="4" fill="black" />
<line
    stroke-linecap="square"
    x1="100"
    y1="344"
    x2="110"
    y2="344"
    style="stroke:rgb(0, 0,0);
            stroke-width:4;
"
/>

<line
    stroke-linecap="square"
    x1="110"
    y1="344"
    x2="110"
    y2="347"
    style="stroke:rgb(0, 0,0);
            stroke-width:4;
"
/>

    <circle cx="110" cy="344" r="4" fill="black" />
<line
    stroke-linecap="square"
    x1="110"
    y1="347"
    x2="297"
    y2="347"
    style="stroke:rgb(0, 0,0);
            stroke-width:4;
"
/>

    <circle cx="110" cy="347" r="4" fill="black" />
<line
    stroke-linecap="square"
    x1="297"
    y1="347"
    x2="297"
    y2="287"
    style="stroke:rgb(0, 0,0);
            stroke-width:4;
"
/>

<line
    stroke-linecap="square"
    x1="297"
    y1="287"
    x2="319"
    y2="287"
    style="stroke:rgb(0, 0,0);
            stroke-width:2;
                marker-end: url(#0,0,0)
            "
/>
    <text
        x="308"
        y="276"
        alignment-baseline="middle"
        font-family="Verdana"
        font-size="11"
        fill="black">
    0
    </text>

    <circle cx="297" cy="287" r="4" fill="black" />
<line
    stroke-linecap="square"
    x1="83"
    y1="287"
    x2="100"
    y2="287"
    style="stroke:rgb(0, 0,0);
            stroke-width:2;
"
/>
    <text
        x="86"
        y="280"
        alignment-baseline="middle"
        font-family="Verdana"
        font-size="11"
        fill="black">
    1
    </text>

<line
    stroke-linecap="square"
    x1="100"
    y1="287"
    x2="100"
    y2="344"
    style="stroke:rgb(0, 0,0);
            stroke-width:4;
"
/>

    <circle cx="100" cy="287" r="4" fill="black" />
<line
    stroke-linecap="square"
    x1="100"
    y1="344"
    x2="110"
    y2="344"
    style="stroke:rgb(0, 0,0);
            stroke-width:4;
"
/>

<line
    stroke-linecap="square"
    x1="110"
    y1="344"
    x2="110"
    y2="347"
    style="stroke:rgb(0, 0,0);
            stroke-width:4;
"
/>

    <circle cx="110" cy="344" r="4" fill="black" />
<line
    stroke-linecap="square"
    x1="110"
    y1="347"
    x2="297"
    y2="347"
    style="stroke:rgb(0, 0,0);
            stroke-width:4;
"
/>

    <circle cx="110" cy="347" r="4" fill="black" />
<line
    stroke-linecap="square"
    x1="297"
    y1="347"
    x2="297"
    y2="327"
    style="stroke:rgb(0, 0,0);
            stroke-width:4;
"
/>

<line
    stroke-linecap="square"
    x1="297"
    y1="327"
    x2="319"
    y2="327"
    style="stroke:rgb(0, 0,0);
            stroke-width:2;
                marker-end: url(#0,0,0)
            "
/>
    <text
        x="308"
        y="316"
        alignment-baseline="middle"
        font-family="Verdana"
        font-size="11"
        fill="black">
    1
    </text>

    <circle cx="297" cy="327" r="4" fill="black" />
<line
    stroke-linecap="square"
    x1="83"
    y1="327"
    x2="100"
    y2="327"
    style="stroke:rgb(0, 0,0);
            stroke-width:2;
"
/>
    <text
        x="86"
        y="320"
        alignment-baseline="middle"
        font-family="Verdana"
        font-size="11"
        fill="black">
    2
    </text>

<line
    stroke-linecap="square"
    x1="100"
    y1="327"
    x2="100"
    y2="344"
    style="stroke:rgb(0, 0,0);
            stroke-width:4;
"
/>

    <circle cx="100" cy="327" r="4" fill="black" />
<line
    stroke-linecap="square"
    x1="100"
    y1="344"
    x2="110"
    y2="344"
    style="stroke:rgb(0, 0,0);
            stroke-width:4;
"
/>

<line
    stroke-linecap="square"
    x1="110"
    y1="344"
    x2="110"
    y2="347"
    style="stroke:rgb(0, 0,0);
            stroke-width:4;
"
/>

    <circle cx="110" cy="344" r="4" fill="black" />
<line
    stroke-linecap="square"
    x1="110"
    y1="347"
    x2="297"
    y2="347"
    style="stroke:rgb(0, 0,0);
            stroke-width:4;
"
/>

    <circle cx="110" cy="347" r="4" fill="black" />
<line
    stroke-linecap="square"
    x1="297"
    y1="347"
    x2="297"
    y2="367"
    style="stroke:rgb(0, 0,0);
            stroke-width:4;
"
/>

<line
    stroke-linecap="square"
    x1="297"
    y1="367"
    x2="319"
    y2="367"
    style="stroke:rgb(0, 0,0);
            stroke-width:2;
                marker-end: url(#0,0,0)
            "
/>
    <text
        x="308"
        y="356"
        alignment-baseline="middle"
        font-family="Verdana"
        font-size="11"
        fill="black">
    2
    </text>

    <circle cx="297" cy="367" r="4" fill="black" />
<line
    stroke-linecap="square"
    x1="83"
    y1="367"
    x2="100"
    y2="367"
    style="stroke:rgb(0, 0,0);
            stroke-width:2;
"
/>
    <text
        x="86"
        y="360"
        alignment-baseline="middle"
        font-family="Verdana"
        font-size="11"
        fill="black">
    3
    </text>

<line
    stroke-linecap="square"
    x1="100"
    y1="367"
    x2="100"
    y2="344"
    style="stroke:rgb(0, 0,0);
            stroke-width:4;
"
/>

    <circle cx="100" cy="367" r="4" fill="black" />
<line
    stroke-linecap="square"
    x1="100"
    y1="344"
    x2="110"
    y2="344"
    style="stroke:rgb(0, 0,0);
            stroke-width:4;
"
/>

<line
    stroke-linecap="square"
    x1="110"
    y1="344"
    x2="110"
    y2="347"
    style="stroke:rgb(0, 0,0);
            stroke-width:4;
"
/>

    <circle cx="110" cy="344" r="4" fill="black" />
<line
    stroke-linecap="square"
    x1="110"
    y1="347"
    x2="297"
    y2="347"
    style="stroke:rgb(0, 0,0);
            stroke-width:4;
"
/>

    <circle cx="110" cy="347" r="4" fill="black" />
<line
    stroke-linecap="square"
    x1="297"
    y1="347"
    x2="297"
    y2="407"
    style="stroke:rgb(0, 0,0);
            stroke-width:4;
"
/>

<line
    stroke-linecap="square"
    x1="297"
    y1="407"
    x2="319"
    y2="407"
    style="stroke:rgb(0, 0,0);
            stroke-width:2;
                marker-end: url(#0,0,0)
            "
/>
    <text
        x="308"
        y="396"
        alignment-baseline="middle"
        font-family="Verdana"
        font-size="11"
        fill="black">
    3
    </text>

    <circle cx="297" cy="407" r="4" fill="black" />
<line
    stroke-linecap="square"
    x1="305"
    y1="87"
    x2="319"
    y2="87"
    style="stroke:rgb(0, 0,0);
            stroke-width:2;
                marker-end: url(#0,0,0)
            "
/>

<line
    stroke-linecap="square"
    x1="305"
    y1="127"
    x2="319"
    y2="127"
    style="stroke:rgb(0, 0,0);
            stroke-width:2;
                marker-end: url(#0,0,0)
            "
/>

<line
    stroke-linecap="square"
    x1="305"
    y1="167"
    x2="319"
    y2="167"
    style="stroke:rgb(0, 0,0);
            stroke-width:2;
                marker-end: url(#0,0,0)
            "
/>

<defs>
    <!-- Small box indicating a port -->
    <rect id="port" x="0" y="0" width="16" height="16"
          style="fill:white;stroke:rgb(0,0,0);stroke-width:1;fill-opacity:1.0;stroke-opacity:1.0"/>
</defs><use x="442" y="279" xlink:href="#port" />
<text text-anchor="end" alignment-baseline="middle" x="439" y="289" transform="rotate(0,439,289)" style="font-weight: regular" font-family="Verdana" font-size="9" fill="black">
desiredD
</text>

<text text-anchor="end" alignment-baseline="middle" x="439" y="299" transform="rotate(0,439,299)" style="font-weight: regular" font-family="Verdana" font-size="9" fill="black">
irectionX
</text>

<use x="472" y="279" xlink:href="#port" />
<text text-anchor="start" alignment-baseline="middle" x="492" y="289" transform="rotate(0,492,289)" style="font-weight: regular" font-family="Verdana" font-size="9" fill="black">
desiredD
</text>

<text text-anchor="start" alignment-baseline="middle" x="492" y="299" transform="rotate(0,492,299)" style="font-weight: regular" font-family="Verdana" font-size="9" fill="black">
irectionX
</text>

<use x="442" y="239" xlink:href="#port" />
<text text-anchor="end" alignment-baseline="middle" x="439" y="249" transform="rotate(0,439,249)" style="font-weight: regular" font-family="Verdana" font-size="9" fill="black">
desiredDi
</text>

<text text-anchor="end" alignment-baseline="middle" x="439" y="259" transform="rotate(0,439,259)" style="font-weight: regular" font-family="Verdana" font-size="9" fill="black">
rectionY
</text>

<use x="472" y="239" xlink:href="#port" />
<text text-anchor="start" alignment-baseline="middle" x="492" y="249" transform="rotate(0,492,249)" style="font-weight: regular" font-family="Verdana" font-size="9" fill="black">
desiredDi
</text>

<text text-anchor="start" alignment-baseline="middle" x="492" y="259" transform="rotate(0,492,259)" style="font-weight: regular" font-family="Verdana" font-size="9" fill="black">
rectionY
</text>

<use x="442" y="199" xlink:href="#port" />
<text text-anchor="end" alignment-baseline="middle" x="439" y="209" transform="rotate(0,439,209)" style="font-weight: regular" font-family="Verdana" font-size="9" fill="black">
signedDistanc
</text>

<text text-anchor="end" alignment-baseline="middle" x="439" y="219" transform="rotate(0,439,219)" style="font-weight: regular" font-family="Verdana" font-size="9" fill="black">
eToTrajectory
</text>

<use x="472" y="199" xlink:href="#port" />
<text text-anchor="start" alignment-baseline="middle" x="492" y="209" transform="rotate(0,492,209)" style="font-weight: regular" font-family="Verdana" font-size="9" fill="black">
signedDistanc
</text>

<text text-anchor="start" alignment-baseline="middle" x="492" y="219" transform="rotate(0,492,219)" style="font-weight: regular" font-family="Verdana" font-size="9" fill="black">
eToTrajectory
</text>

<use x="442" y="159" xlink:href="#port" />
<text text-anchor="end" alignment-baseline="middle" x="439" y="169" transform="rotate(0,439,169)" style="font-weight: regular" font-family="Verdana" font-size="9" fill="black">
desiredV
</text>

<text text-anchor="end" alignment-baseline="middle" x="439" y="179" transform="rotate(0,439,179)" style="font-weight: regular" font-family="Verdana" font-size="9" fill="black">
elocity
</text>

<use x="472" y="159" xlink:href="#port" />
<text text-anchor="start" alignment-baseline="middle" x="492" y="169" transform="rotate(0,492,169)" style="font-weight: regular" font-family="Verdana" font-size="9" fill="black">
desiredV
</text>

<text text-anchor="start" alignment-baseline="middle" x="492" y="179" transform="rotate(0,492,179)" style="font-weight: regular" font-family="Verdana" font-size="9" fill="black">
elocity
</text>

<use x="67" y="79" xlink:href="#port" />
<text text-anchor="end" alignment-baseline="middle" x="63" y="89" transform="rotate(0,63,89)" style="font-weight: regular" font-family="Verdana" font-size="9" fill="black">
currentP
</text>

<text text-anchor="end" alignment-baseline="middle" x="63" y="99" transform="rotate(0,63,99)" style="font-weight: regular" font-family="Verdana" font-size="9" fill="black">
ositionX
</text>

<use x="162" y="79" xlink:href="#port" />
<text text-anchor="start" alignment-baseline="middle" x="181" y="89" transform="rotate(0,181,89)" style="font-weight: regular" font-family="Verdana" font-size="9" fill="black">
currentP
</text>

<text text-anchor="start" alignment-baseline="middle" x="181" y="99" transform="rotate(0,181,99)" style="font-weight: regular" font-family="Verdana" font-size="9" fill="black">
ositionX
</text>

<use x="67" y="279" xlink:href="#port" />
<text text-anchor="end" alignment-baseline="middle" x="63" y="289" transform="rotate(0,63,289)" style="font-weight: regular" font-family="Verdana" font-size="9" fill="black">
currentP
</text>

<text text-anchor="end" alignment-baseline="middle" x="63" y="299" transform="rotate(0,63,299)" style="font-weight: regular" font-family="Verdana" font-size="9" fill="black">
ositionY
</text>

<use x="162" y="119" xlink:href="#port" />
<text text-anchor="start" alignment-baseline="middle" x="181" y="129" transform="rotate(0,181,129)" style="font-weight: regular" font-family="Verdana" font-size="9" fill="black">
currentP
</text>

<text text-anchor="start" alignment-baseline="middle" x="181" y="139" transform="rotate(0,181,139)" style="font-weight: regular" font-family="Verdana" font-size="9" fill="black">
ositionY
</text>

<use x="67" y="399" xlink:href="#port" />
<text text-anchor="end" alignment-baseline="middle" x="63" y="409" transform="rotate(0,63,409)" style="font-weight: regular" font-family="Verdana" font-size="9" fill="black">
plannedTraje
</text>

<text text-anchor="end" alignment-baseline="middle" x="63" y="419" transform="rotate(0,63,419)" style="font-weight: regular" font-family="Verdana" font-size="9" fill="black">
ctoryLength
</text>

<use x="162" y="159" xlink:href="#port" />
<text text-anchor="start" alignment-baseline="middle" x="181" y="169" transform="rotate(0,181,169)" style="font-weight: regular" font-family="Verdana" font-size="9" fill="black">
plannedTraje
</text>

<text text-anchor="start" alignment-baseline="middle" x="181" y="179" transform="rotate(0,181,179)" style="font-weight: regular" font-family="Verdana" font-size="9" fill="black">
ctoryLength
</text>

<use x="67" y="439" xlink:href="#port" />
<text text-anchor="end" alignment-baseline="middle" x="63" y="449" transform="rotate(0,63,449)" style="font-weight: regular" font-family="Verdana" font-size="9" fill="black">
plannedTr
</text>

<text text-anchor="end" alignment-baseline="middle" x="63" y="459" transform="rotate(0,63,459)" style="font-weight: regular" font-family="Verdana" font-size="9" fill="black">
ajectoryX
</text>

<use x="162" y="199" xlink:href="#port" />
<text text-anchor="start" alignment-baseline="middle" x="181" y="209" transform="rotate(0,181,209)" style="font-weight: regular" font-family="Verdana" font-size="9" fill="black">
plannedTr
</text>

<text text-anchor="start" alignment-baseline="middle" x="181" y="219" transform="rotate(0,181,219)" style="font-weight: regular" font-family="Verdana" font-size="9" fill="black">
ajectoryX
</text>

<use x="67" y="479" xlink:href="#port" />
<text text-anchor="end" alignment-baseline="middle" x="63" y="489" transform="rotate(0,63,489)" style="font-weight: regular" font-family="Verdana" font-size="9" fill="black">
plannedTr
</text>

<text text-anchor="end" alignment-baseline="middle" x="63" y="499" transform="rotate(0,63,499)" style="font-weight: regular" font-family="Verdana" font-size="9" fill="black">
ajectoryY
</text>

<use x="162" y="239" xlink:href="#port" />
<text text-anchor="start" alignment-baseline="middle" x="181" y="249" transform="rotate(0,181,249)" style="font-weight: regular" font-family="Verdana" font-size="9" fill="black">
plannedTr
</text>

<text text-anchor="start" alignment-baseline="middle" x="181" y="259" transform="rotate(0,181,259)" style="font-weight: regular" font-family="Verdana" font-size="9" fill="black">
ajectoryY
</text>

<use x="67" y="79" xlink:href="#port" />
<text text-anchor="end" alignment-baseline="middle" x="63" y="89" transform="rotate(0,63,89)" style="font-weight: regular" font-family="Verdana" font-size="9" fill="black">
currentP
</text>

<text text-anchor="end" alignment-baseline="middle" x="63" y="99" transform="rotate(0,63,99)" style="font-weight: regular" font-family="Verdana" font-size="9" fill="black">
ositionX
</text>

<use x="319" y="279" xlink:href="#port" />
<text text-anchor="start" alignment-baseline="middle" x="338" y="289" transform="rotate(0,338,289)" style="font-weight: regular" font-family="Verdana" font-size="9" fill="black">
currentP
</text>

<text text-anchor="start" alignment-baseline="middle" x="338" y="299" transform="rotate(0,338,299)" style="font-weight: regular" font-family="Verdana" font-size="9" fill="black">
ositionX
</text>

<use x="67" y="279" xlink:href="#port" />
<text text-anchor="end" alignment-baseline="middle" x="63" y="289" transform="rotate(0,63,289)" style="font-weight: regular" font-family="Verdana" font-size="9" fill="black">
currentP
</text>

<text text-anchor="end" alignment-baseline="middle" x="63" y="299" transform="rotate(0,63,299)" style="font-weight: regular" font-family="Verdana" font-size="9" fill="black">
ositionY
</text>

<use x="319" y="319" xlink:href="#port" />
<text text-anchor="start" alignment-baseline="middle" x="338" y="329" transform="rotate(0,338,329)" style="font-weight: regular" font-family="Verdana" font-size="9" fill="black">
currentP
</text>

<text text-anchor="start" alignment-baseline="middle" x="338" y="339" transform="rotate(0,338,339)" style="font-weight: regular" font-family="Verdana" font-size="9" fill="black">
ositionY
</text>

<use x="67" y="319" xlink:href="#port" />
<text text-anchor="end" alignment-baseline="middle" x="63" y="329" transform="rotate(0,63,329)" style="font-weight: regular" font-family="Verdana" font-size="9" fill="black">
currentD
</text>

<text text-anchor="end" alignment-baseline="middle" x="63" y="339" transform="rotate(0,63,339)" style="font-weight: regular" font-family="Verdana" font-size="9" fill="black">
irectionX
</text>

<use x="319" y="359" xlink:href="#port" />
<text text-anchor="start" alignment-baseline="middle" x="338" y="369" transform="rotate(0,338,369)" style="font-weight: regular" font-family="Verdana" font-size="9" fill="black">
currentD
</text>

<text text-anchor="start" alignment-baseline="middle" x="338" y="379" transform="rotate(0,338,379)" style="font-weight: regular" font-family="Verdana" font-size="9" fill="black">
irectionX
</text>

<use x="67" y="359" xlink:href="#port" />
<text text-anchor="end" alignment-baseline="middle" x="63" y="369" transform="rotate(0,63,369)" style="font-weight: regular" font-family="Verdana" font-size="9" fill="black">
currentDi
</text>

<text text-anchor="end" alignment-baseline="middle" x="63" y="379" transform="rotate(0,63,379)" style="font-weight: regular" font-family="Verdana" font-size="9" fill="black">
rectionY
</text>

<use x="319" y="399" xlink:href="#port" />
<text text-anchor="start" alignment-baseline="middle" x="338" y="409" transform="rotate(0,338,409)" style="font-weight: regular" font-family="Verdana" font-size="9" fill="black">
currentDi
</text>

<text text-anchor="start" alignment-baseline="middle" x="338" y="419" transform="rotate(0,338,419)" style="font-weight: regular" font-family="Verdana" font-size="9" fill="black">
rectionY
</text>

<use x="289" y="79" xlink:href="#port" />
<text text-anchor="end" alignment-baseline="middle" x="286" y="89" transform="rotate(0,286,89)" style="font-weight: regular" font-family="Verdana" font-size="9" fill="black">
trimmedTraje
</text>

<text text-anchor="end" alignment-baseline="middle" x="286" y="99" transform="rotate(0,286,99)" style="font-weight: regular" font-family="Verdana" font-size="9" fill="black">
ctoryLength
</text>

<use x="319" y="79" xlink:href="#port" />
<text text-anchor="start" alignment-baseline="middle" x="338" y="89" transform="rotate(0,338,89)" style="font-weight: regular" font-family="Verdana" font-size="9" fill="black">
trimmedTraje
</text>

<text text-anchor="start" alignment-baseline="middle" x="338" y="99" transform="rotate(0,338,99)" style="font-weight: regular" font-family="Verdana" font-size="9" fill="black">
ctoryLength
</text>

<use x="289" y="119" xlink:href="#port" />
<text text-anchor="end" alignment-baseline="middle" x="286" y="129" transform="rotate(0,286,129)" style="font-weight: regular" font-family="Verdana" font-size="9" fill="black">
trimmedTr
</text>

<text text-anchor="end" alignment-baseline="middle" x="286" y="139" transform="rotate(0,286,139)" style="font-weight: regular" font-family="Verdana" font-size="9" fill="black">
ajectoryX
</text>

<use x="319" y="119" xlink:href="#port" />
<text text-anchor="start" alignment-baseline="middle" x="338" y="129" transform="rotate(0,338,129)" style="font-weight: regular" font-family="Verdana" font-size="9" fill="black">
trimmedTr
</text>

<text text-anchor="start" alignment-baseline="middle" x="338" y="139" transform="rotate(0,338,139)" style="font-weight: regular" font-family="Verdana" font-size="9" fill="black">
ajectoryX
</text>

<use x="289" y="159" xlink:href="#port" />
<text text-anchor="end" alignment-baseline="middle" x="286" y="169" transform="rotate(0,286,169)" style="font-weight: regular" font-family="Verdana" font-size="9" fill="black">
trimmedTr
</text>

<text text-anchor="end" alignment-baseline="middle" x="286" y="179" transform="rotate(0,286,179)" style="font-weight: regular" font-family="Verdana" font-size="9" fill="black">
ajectoryY
</text>

<use x="319" y="159" xlink:href="#port" />
<text text-anchor="start" alignment-baseline="middle" x="338" y="169" transform="rotate(0,338,169)" style="font-weight: regular" font-family="Verdana" font-size="9" fill="black">
trimmedTr
</text>

<text text-anchor="start" alignment-baseline="middle" x="338" y="179" transform="rotate(0,338,179)" style="font-weight: regular" font-family="Verdana" font-size="9" fill="black">
ajectoryY
</text>


</svg>