<svg width="100%" height="100%" xmlns="http://www.w3.org/2000/svg" version="1.1" xmlns:xlink="http://www.w3.org/1999/xlink">
    <svg xmlns="http://www.w3.org/2000/svg" version="1.1">

<!-- Canvas: environment -->
<g transform="translate(16 20)">

    <rect
        id="16942"
        width="412"
        height="362"
        style="fill:white;stroke:black;stroke-width:2;fill-opacity:1.0;stroke-opacity:1.0"/>

    <text
        x="8"
        y="20"
        font-family="Verdana"
        fill="black">
            <tspan style="font-weight: bold" font-size="13">environment</tspan>
    </text>

</g>

</svg><!-- Component: physicsSimulation -->
<g transform="translate(46 52)">
    <rect
        data-name="testManuelSchrick.pumpStationExample.pumpStation.environment.physicsSimulation"
        id="16943"
        width="135"
        height="310"
        style="
                fill:white;
            stroke:black;
            stroke-width:2;
            fill-opacity:1.0;
            stroke-opacity:1.0"
        onmouseout="this.style.stroke = '#000000'; this.style['stroke-width'] = 2; this.style.cursor='default';"
    />

    <text
        x="10"
        y="15"
        alignment-baseline="middle"
        font-family="Verdana"
        fill="black">
            <tspan style="font-weight: bold" font-size="11">physicsSimulation</tspan>
    </text>

</g><!-- Component: simulationPanel -->
<g transform="translate(276 187)">
    <rect
        data-name="testManuelSchrick.pumpStationExample.pumpStation.environment.simulationPanel"
        id="16944"
        width="122"
        height="175"
        style="
                fill:white;
            stroke:black;
            stroke-width:2;
            fill-opacity:1.0;
            stroke-opacity:1.0"
        onmouseout="this.style.stroke = '#000000'; this.style['stroke-width'] = 2; this.style.cursor='default';"
    />

    <text
        x="10"
        y="15"
        alignment-baseline="middle"
        font-family="Verdana"
        fill="black">
            <tspan style="font-weight: bold" font-size="11">simulationPanel</tspan>
    </text>

</g><defs>
    <marker id="0,0,0" markerWidth="13" markerHeight="13" refX="5" refY="5" orient="auto">
            <polyline points="0,2 5,5 0,8" style="fill:none; stroke:rgb(0,0,0);
                    stroke-width:1" />
    </marker>
</defs><line
    stroke-linecap="square"
    x1="189"
    y1="222"
    x2="206"
    y2="222"
    style="stroke:rgb(0, 0,0);
            stroke-width:2;
"
/>
    <text
        x="192"
        y="215"
        alignment-baseline="middle"
        font-family="Verdana"
        font-size="11"
        fill="black">
    1
    </text>

<line
    stroke-linecap="square"
    x1="206"
    y1="222"
    x2="206"
    y2="242"
    style="stroke:rgb(0, 0,0);
            stroke-width:4;
"
/>

    <circle cx="206" cy="222" r="4" fill="black" />
<line
    stroke-linecap="square"
    x1="206"
    y1="242"
    x2="216"
    y2="242"
    style="stroke:rgb(0, 0,0);
            stroke-width:4;
"
/>

<line
    stroke-linecap="square"
    x1="216"
    y1="242"
    x2="216"
    y2="127"
    style="stroke:rgb(0, 0,0);
            stroke-width:4;
"
/>

    <circle cx="216" cy="242" r="4" fill="black" />
<line
    stroke-linecap="square"
    x1="216"
    y1="127"
    x2="398"
    y2="127"
    style="stroke:rgb(0, 0,0);
            stroke-width:4;
"
/>

    <circle cx="216" cy="127" r="4" fill="black" />
<line
    stroke-linecap="square"
    x1="398"
    y1="127"
    x2="398"
    y2="87"
    style="stroke:rgb(0, 0,0);
            stroke-width:4;
"
/>

<line
    stroke-linecap="square"
    x1="398"
    y1="87"
    x2="420"
    y2="87"
    style="stroke:rgb(0, 0,0);
            stroke-width:2;
                marker-end: url(#0,0,0)
            "
/>
    <text
        x="409"
        y="76"
        alignment-baseline="middle"
        font-family="Verdana"
        font-size="11"
        fill="black">
    1
    </text>

    <circle cx="398" cy="87" r="4" fill="black" />
<line
    stroke-linecap="square"
    x1="189"
    y1="302"
    x2="206"
    y2="302"
    style="stroke:rgb(0, 0,0);
            stroke-width:2;
"
/>
    <text
        x="192"
        y="295"
        alignment-baseline="middle"
        font-family="Verdana"
        font-size="11"
        fill="black">
    2
    </text>

<line
    stroke-linecap="square"
    x1="206"
    y1="302"
    x2="206"
    y2="242"
    style="stroke:rgb(0, 0,0);
            stroke-width:4;
"
/>

    <circle cx="206" cy="302" r="4" fill="black" />
<line
    stroke-linecap="square"
    x1="206"
    y1="242"
    x2="216"
    y2="242"
    style="stroke:rgb(0, 0,0);
            stroke-width:4;
"
/>

<line
    stroke-linecap="square"
    x1="216"
    y1="242"
    x2="216"
    y2="127"
    style="stroke:rgb(0, 0,0);
            stroke-width:4;
"
/>

    <circle cx="216" cy="242" r="4" fill="black" />
<line
    stroke-linecap="square"
    x1="216"
    y1="127"
    x2="398"
    y2="127"
    style="stroke:rgb(0, 0,0);
            stroke-width:4;
"
/>

    <circle cx="216" cy="127" r="4" fill="black" />
<line
    stroke-linecap="square"
    x1="398"
    y1="127"
    x2="398"
    y2="127"
    style="stroke:rgb(0, 0,0);
            stroke-width:4;
"
/>

<line
    stroke-linecap="square"
    x1="398"
    y1="127"
    x2="420"
    y2="127"
    style="stroke:rgb(0, 0,0);
            stroke-width:2;
                marker-end: url(#0,0,0)
            "
/>
    <text
        x="409"
        y="116"
        alignment-baseline="middle"
        font-family="Verdana"
        font-size="11"
        fill="black">
    2
    </text>

    <circle cx="398" cy="127" r="4" fill="black" />
<line
    stroke-linecap="square"
    x1="189"
    y1="342"
    x2="206"
    y2="342"
    style="stroke:rgb(0, 0,0);
            stroke-width:2;
"
/>
    <text
        x="192"
        y="335"
        alignment-baseline="middle"
        font-family="Verdana"
        font-size="11"
        fill="black">
    3
    </text>

<line
    stroke-linecap="square"
    x1="206"
    y1="342"
    x2="206"
    y2="242"
    style="stroke:rgb(0, 0,0);
            stroke-width:4;
"
/>

    <circle cx="206" cy="342" r="4" fill="black" />
<line
    stroke-linecap="square"
    x1="206"
    y1="242"
    x2="216"
    y2="242"
    style="stroke:rgb(0, 0,0);
            stroke-width:4;
"
/>

<line
    stroke-linecap="square"
    x1="216"
    y1="242"
    x2="216"
    y2="127"
    style="stroke:rgb(0, 0,0);
            stroke-width:4;
"
/>

    <circle cx="216" cy="242" r="4" fill="black" />
<line
    stroke-linecap="square"
    x1="216"
    y1="127"
    x2="398"
    y2="127"
    style="stroke:rgb(0, 0,0);
            stroke-width:4;
"
/>

    <circle cx="216" cy="127" r="4" fill="black" />
<line
    stroke-linecap="square"
    x1="398"
    y1="127"
    x2="398"
    y2="167"
    style="stroke:rgb(0, 0,0);
            stroke-width:4;
"
/>

<line
    stroke-linecap="square"
    x1="398"
    y1="167"
    x2="420"
    y2="167"
    style="stroke:rgb(0, 0,0);
            stroke-width:2;
                marker-end: url(#0,0,0)
            "
/>
    <text
        x="409"
        y="156"
        alignment-baseline="middle"
        font-family="Verdana"
        font-size="11"
        fill="black">
    3
    </text>

    <circle cx="398" cy="167" r="4" fill="black" />
<line
    stroke-linecap="square"
    x1="406"
    y1="222"
    x2="420"
    y2="222"
    style="stroke:rgb(0, 0,0);
            stroke-width:2;
                marker-end: url(#0,0,0)
            "
/>

<line
    stroke-linecap="square"
    x1="24"
    y1="222"
    x2="38"
    y2="222"
    style="stroke:rgb(0, 0,0);
            stroke-width:2;
                marker-end: url(#0,0,0)
            "
/>

<line
    stroke-linecap="square"
    x1="24"
    y1="167"
    x2="38"
    y2="167"
    style="stroke:rgb(0, 0,0);
            stroke-width:2;
                marker-end: url(#0,0,0)
            "
/>

<line
    stroke-linecap="square"
    x1="24"
    y1="127"
    x2="38"
    y2="127"
    style="stroke:rgb(0, 0,0);
            stroke-width:2;
                marker-end: url(#0,0,0)
            "
/>

<line
    stroke-linecap="square"
    x1="189"
    y1="87"
    x2="206"
    y2="87"
    style="stroke:rgb(0, 0,0);
            stroke-width:2;
"
/>
    <text
        x="192"
        y="80"
        alignment-baseline="middle"
        font-family="Verdana"
        font-size="11"
        fill="black">
    0
    </text>

<line
    stroke-linecap="square"
    x1="206"
    y1="87"
    x2="206"
    y2="242"
    style="stroke:rgb(0, 0,0);
            stroke-width:4;
"
/>

    <circle cx="206" cy="87" r="4" fill="black" />
<line
    stroke-linecap="square"
    x1="206"
    y1="242"
    x2="216"
    y2="242"
    style="stroke:rgb(0, 0,0);
            stroke-width:4;
"
/>

<line
    stroke-linecap="square"
    x1="216"
    y1="242"
    x2="216"
    y2="282"
    style="stroke:rgb(0, 0,0);
            stroke-width:4;
"
/>

    <circle cx="216" cy="242" r="4" fill="black" />
<line
    stroke-linecap="square"
    x1="216"
    y1="282"
    x2="251"
    y2="282"
    style="stroke:rgb(0, 0,0);
            stroke-width:4;
"
/>

    <circle cx="216" cy="282" r="4" fill="black" />
<line
    stroke-linecap="square"
    x1="251"
    y1="282"
    x2="251"
    y2="222"
    style="stroke:rgb(0, 0,0);
            stroke-width:4;
"
/>

<line
    stroke-linecap="square"
    x1="251"
    y1="222"
    x2="268"
    y2="222"
    style="stroke:rgb(0, 0,0);
            stroke-width:2;
                marker-end: url(#0,0,0)
            "
/>
    <text
        x="257"
        y="211"
        alignment-baseline="middle"
        font-family="Verdana"
        font-size="11"
        fill="black">
    0
    </text>

    <circle cx="251" cy="222" r="4" fill="black" />
<line
    stroke-linecap="square"
    x1="189"
    y1="222"
    x2="206"
    y2="222"
    style="stroke:rgb(0, 0,0);
            stroke-width:2;
"
/>
    <text
        x="192"
        y="215"
        alignment-baseline="middle"
        font-family="Verdana"
        font-size="11"
        fill="black">
    1
    </text>

<line
    stroke-linecap="square"
    x1="206"
    y1="222"
    x2="206"
    y2="242"
    style="stroke:rgb(0, 0,0);
            stroke-width:4;
"
/>

    <circle cx="206" cy="222" r="4" fill="black" />
<line
    stroke-linecap="square"
    x1="206"
    y1="242"
    x2="216"
    y2="242"
    style="stroke:rgb(0, 0,0);
            stroke-width:4;
"
/>

<line
    stroke-linecap="square"
    x1="216"
    y1="242"
    x2="216"
    y2="282"
    style="stroke:rgb(0, 0,0);
            stroke-width:4;
"
/>

    <circle cx="216" cy="242" r="4" fill="black" />
<line
    stroke-linecap="square"
    x1="216"
    y1="282"
    x2="251"
    y2="282"
    style="stroke:rgb(0, 0,0);
            stroke-width:4;
"
/>

    <circle cx="216" cy="282" r="4" fill="black" />
<line
    stroke-linecap="square"
    x1="251"
    y1="282"
    x2="251"
    y2="262"
    style="stroke:rgb(0, 0,0);
            stroke-width:4;
"
/>

<line
    stroke-linecap="square"
    x1="251"
    y1="262"
    x2="268"
    y2="262"
    style="stroke:rgb(0, 0,0);
            stroke-width:2;
                marker-end: url(#0,0,0)
            "
/>
    <text
        x="257"
        y="251"
        alignment-baseline="middle"
        font-family="Verdana"
        font-size="11"
        fill="black">
    1
    </text>

    <circle cx="251" cy="262" r="4" fill="black" />
<line
    stroke-linecap="square"
    x1="189"
    y1="302"
    x2="206"
    y2="302"
    style="stroke:rgb(0, 0,0);
            stroke-width:2;
"
/>
    <text
        x="192"
        y="295"
        alignment-baseline="middle"
        font-family="Verdana"
        font-size="11"
        fill="black">
    2
    </text>

<line
    stroke-linecap="square"
    x1="206"
    y1="302"
    x2="206"
    y2="242"
    style="stroke:rgb(0, 0,0);
            stroke-width:4;
"
/>

    <circle cx="206" cy="302" r="4" fill="black" />
<line
    stroke-linecap="square"
    x1="206"
    y1="242"
    x2="216"
    y2="242"
    style="stroke:rgb(0, 0,0);
            stroke-width:4;
"
/>

<line
    stroke-linecap="square"
    x1="216"
    y1="242"
    x2="216"
    y2="282"
    style="stroke:rgb(0, 0,0);
            stroke-width:4;
"
/>

    <circle cx="216" cy="242" r="4" fill="black" />
<line
    stroke-linecap="square"
    x1="216"
    y1="282"
    x2="251"
    y2="282"
    style="stroke:rgb(0, 0,0);
            stroke-width:4;
"
/>

    <circle cx="216" cy="282" r="4" fill="black" />
<line
    stroke-linecap="square"
    x1="251"
    y1="282"
    x2="251"
    y2="302"
    style="stroke:rgb(0, 0,0);
            stroke-width:4;
"
/>

<line
    stroke-linecap="square"
    x1="251"
    y1="302"
    x2="268"
    y2="302"
    style="stroke:rgb(0, 0,0);
            stroke-width:2;
                marker-end: url(#0,0,0)
            "
/>
    <text
        x="257"
        y="291"
        alignment-baseline="middle"
        font-family="Verdana"
        font-size="11"
        fill="black">
    2
    </text>

    <circle cx="251" cy="302" r="4" fill="black" />
<line
    stroke-linecap="square"
    x1="189"
    y1="342"
    x2="206"
    y2="342"
    style="stroke:rgb(0, 0,0);
            stroke-width:2;
"
/>
    <text
        x="192"
        y="335"
        alignment-baseline="middle"
        font-family="Verdana"
        font-size="11"
        fill="black">
    3
    </text>

<line
    stroke-linecap="square"
    x1="206"
    y1="342"
    x2="206"
    y2="242"
    style="stroke:rgb(0, 0,0);
            stroke-width:4;
"
/>

    <circle cx="206" cy="342" r="4" fill="black" />
<line
    stroke-linecap="square"
    x1="206"
    y1="242"
    x2="216"
    y2="242"
    style="stroke:rgb(0, 0,0);
            stroke-width:4;
"
/>

<line
    stroke-linecap="square"
    x1="216"
    y1="242"
    x2="216"
    y2="282"
    style="stroke:rgb(0, 0,0);
            stroke-width:4;
"
/>

    <circle cx="216" cy="242" r="4" fill="black" />
<line
    stroke-linecap="square"
    x1="216"
    y1="282"
    x2="251"
    y2="282"
    style="stroke:rgb(0, 0,0);
            stroke-width:4;
"
/>

    <circle cx="216" cy="282" r="4" fill="black" />
<line
    stroke-linecap="square"
    x1="251"
    y1="282"
    x2="251"
    y2="342"
    style="stroke:rgb(0, 0,0);
            stroke-width:4;
"
/>

<line
    stroke-linecap="square"
    x1="251"
    y1="342"
    x2="268"
    y2="342"
    style="stroke:rgb(0, 0,0);
            stroke-width:2;
                marker-end: url(#0,0,0)
            "
/>
    <text
        x="257"
        y="331"
        alignment-baseline="middle"
        font-family="Verdana"
        font-size="11"
        fill="black">
    3
    </text>

    <circle cx="251" cy="342" r="4" fill="black" />
<defs>
    <!-- Small box indicating a port -->
    <rect id="port" x="0" y="0" width="16" height="16"
          style="fill:white;stroke:rgb(0,0,0);stroke-width:1;fill-opacity:1.0;stroke-opacity:1.0"/>
</defs><use x="173" y="214" xlink:href="#port" />
<text text-anchor="end" alignment-baseline="middle" x="170" y="224" transform="rotate(0,170,224)" style="font-weight: regular" font-family="Verdana" font-size="9" fill="black">

</text>

<use x="420" y="79" xlink:href="#port" />
<text text-anchor="start" alignment-baseline="middle" x="440" y="89" transform="rotate(0,440,89)" style="font-weight: regular" font-family="Verdana" font-size="9" fill="black">

</text>

<use x="173" y="294" xlink:href="#port" />
<text text-anchor="end" alignment-baseline="middle" x="170" y="304" transform="rotate(0,170,304)" style="font-weight: regular" font-family="Verdana" font-size="9" fill="black">

</text>

<use x="420" y="119" xlink:href="#port" />
<text text-anchor="start" alignment-baseline="middle" x="440" y="129" transform="rotate(0,440,129)" style="font-weight: regular" font-family="Verdana" font-size="9" fill="black">

</text>

<use x="173" y="334" xlink:href="#port" />
<text text-anchor="end" alignment-baseline="middle" x="170" y="344" transform="rotate(0,170,344)" style="font-weight: regular" font-family="Verdana" font-size="9" fill="black">

</text>

<use x="420" y="159" xlink:href="#port" />
<text text-anchor="start" alignment-baseline="middle" x="440" y="169" transform="rotate(0,440,169)" style="font-weight: regular" font-family="Verdana" font-size="9" fill="black">

</text>

<use x="390" y="214" xlink:href="#port" />
<text text-anchor="end" alignment-baseline="middle" x="387" y="224" transform="rotate(0,387,224)" style="font-weight: regular" font-family="Verdana" font-size="9" fill="black">

</text>

<use x="420" y="214" xlink:href="#port" />
<text text-anchor="start" alignment-baseline="middle" x="440" y="224" transform="rotate(0,440,224)" style="font-weight: regular" font-family="Verdana" font-size="9" fill="black">

</text>

<use x="8" y="214" xlink:href="#port" />
<text text-anchor="end" alignment-baseline="middle" x="4" y="224" transform="rotate(0,4,224)" style="font-weight: regular" font-family="Verdana" font-size="9" fill="black">

</text>

<use x="38" y="214" xlink:href="#port" />
<text text-anchor="start" alignment-baseline="middle" x="57" y="224" transform="rotate(0,57,224)" style="font-weight: regular" font-family="Verdana" font-size="9" fill="black">

</text>

<use x="8" y="159" xlink:href="#port" />
<text text-anchor="end" alignment-baseline="middle" x="4" y="169" transform="rotate(0,4,169)" style="font-weight: regular" font-family="Verdana" font-size="9" fill="black">

</text>

<use x="38" y="159" xlink:href="#port" />
<text text-anchor="start" alignment-baseline="middle" x="57" y="169" transform="rotate(0,57,169)" style="font-weight: regular" font-family="Verdana" font-size="9" fill="black">

</text>

<use x="8" y="119" xlink:href="#port" />
<text text-anchor="end" alignment-baseline="middle" x="4" y="129" transform="rotate(0,4,129)" style="font-weight: regular" font-family="Verdana" font-size="9" fill="black">

</text>

<use x="38" y="119" xlink:href="#port" />
<text text-anchor="start" alignment-baseline="middle" x="57" y="129" transform="rotate(0,57,129)" style="font-weight: regular" font-family="Verdana" font-size="9" fill="black">

</text>

<use x="173" y="79" xlink:href="#port" />
<text text-anchor="end" alignment-baseline="middle" x="170" y="89" transform="rotate(0,170,89)" style="font-weight: regular" font-family="Verdana" font-size="9" fill="black">

</text>

<use x="268" y="214" xlink:href="#port" />
<text text-anchor="start" alignment-baseline="middle" x="287" y="224" transform="rotate(0,287,224)" style="font-weight: regular" font-family="Verdana" font-size="9" fill="black">

</text>

<use x="173" y="214" xlink:href="#port" />
<text text-anchor="end" alignment-baseline="middle" x="170" y="224" transform="rotate(0,170,224)" style="font-weight: regular" font-family="Verdana" font-size="9" fill="black">

</text>

<use x="268" y="254" xlink:href="#port" />
<text text-anchor="start" alignment-baseline="middle" x="287" y="264" transform="rotate(0,287,264)" style="font-weight: regular" font-family="Verdana" font-size="9" fill="black">

</text>

<use x="173" y="294" xlink:href="#port" />
<text text-anchor="end" alignment-baseline="middle" x="170" y="304" transform="rotate(0,170,304)" style="font-weight: regular" font-family="Verdana" font-size="9" fill="black">

</text>

<use x="268" y="294" xlink:href="#port" />
<text text-anchor="start" alignment-baseline="middle" x="287" y="304" transform="rotate(0,287,304)" style="font-weight: regular" font-family="Verdana" font-size="9" fill="black">

</text>

<use x="173" y="334" xlink:href="#port" />
<text text-anchor="end" alignment-baseline="middle" x="170" y="344" transform="rotate(0,170,344)" style="font-weight: regular" font-family="Verdana" font-size="9" fill="black">

</text>

<use x="268" y="334" xlink:href="#port" />
<text text-anchor="start" alignment-baseline="middle" x="287" y="344" transform="rotate(0,287,344)" style="font-weight: regular" font-family="Verdana" font-size="9" fill="black">

</text>


</svg>