<svg width="100%" height="100%" xmlns="http://www.w3.org/2000/svg" version="1.1" xmlns:xlink="http://www.w3.org/1999/xlink">
    <svg xmlns="http://www.w3.org/2000/svg" version="1.1">

<!-- Canvas: behaviorGeneration -->
<g transform="translate(75 20)">

    <rect
        id="15157"
        width="441"
        height="402"
        style="fill:white;stroke:black;stroke-width:2;fill-opacity:1.0;stroke-opacity:1.0"/>

    <text
        x="8"
        y="20"
        font-family="Verdana"
        fill="black">
            <tspan style="font-weight: bold" font-size="13">behaviorGeneration</tspan>
    </text>

</g>

</svg><!-- Component: trimPath -->
<g transform="translate(170 147)">
    <rect
        data-name="testManuelSchrick.autopilot.autopilot.behaviorGeneration.trimPath"
        id="15159"
        width="127"
        height="255"
        style="
                fill:white;
            stroke:black;
            stroke-width:2;
            fill-opacity:1.0;
            stroke-opacity:1.0"
        onmouseout="this.style.stroke = '#000000'; this.style['stroke-width'] = 2; this.style.cursor='default';"
    />

    <text
        x="10"
        y="15"
        alignment-baseline="middle"
        font-family="Verdana"
        fill="black">
            <tspan style="font-weight: bold" font-size="11">trimPath</tspan>
    </text>

</g><!-- Component: calcMotionCmds -->
<g transform="translate(357 52)">
    <rect
        data-name="testManuelSchrick.autopilot.autopilot.behaviorGeneration.calcMotionCmds"
        id="15160"
        width="129"
        height="350"
        style="
                fill:rgb(242,242,242);
            stroke:black;
            stroke-width:2;
            fill-opacity:1.0;
            stroke-opacity:1.0"
        onmouseout="this.style.stroke = '#000000'; this.style['stroke-width'] = 2; this.style.cursor='default';"
            onmouseover="this.style.stroke = '#316FC0'; this.style['stroke-width'] = 5; this.style.cursor='pointer';"
            onclick="window.open('testManuelSchrick.autopilot.autopilot.behaviorGeneration.calcMotionCmds.html','_parent',false);parent.openFileInEditor('/autopilot/autopilot/behaviorGeneration/calcMotionCmds.ema');"
    />

    <text
        x="10"
        y="15"
        alignment-baseline="middle"
        font-family="Verdana"
        fill="black">
            <tspan style="font-weight: bold" font-size="11">calcMotionCmds</tspan>
    </text>

</g><defs>
    <marker id="0,0,0" markerWidth="13" markerHeight="13" refX="5" refY="5" orient="auto">
            <polyline points="0,2 5,5 0,8" style="fill:none; stroke:rgb(0,0,0);
                    stroke-width:1" />
    </marker>
</defs><line
    stroke-linecap="square"
    x1="494"
    y1="127"
    x2="508"
    y2="127"
    style="stroke:rgb(0, 0,0);
            stroke-width:2;
                marker-end: url(#0,0,0)
            "
/>

<line
    stroke-linecap="square"
    x1="494"
    y1="87"
    x2="508"
    y2="87"
    style="stroke:rgb(0, 0,0);
            stroke-width:2;
                marker-end: url(#0,0,0)
            "
/>

<line
    stroke-linecap="square"
    x1="494"
    y1="182"
    x2="508"
    y2="182"
    style="stroke:rgb(0, 0,0);
            stroke-width:2;
                marker-end: url(#0,0,0)
            "
/>

<line
    stroke-linecap="square"
    x1="494"
    y1="222"
    x2="508"
    y2="222"
    style="stroke:rgb(0, 0,0);
            stroke-width:2;
                marker-end: url(#0,0,0)
            "
/>

<line
    stroke-linecap="square"
    x1="83"
    y1="87"
    x2="100"
    y2="87"
    style="stroke:rgb(0, 0,0);
            stroke-width:2;
"
/>
    <text
        x="86"
        y="80"
        alignment-baseline="middle"
        font-family="Verdana"
        font-size="11"
        fill="black">
    0
    </text>

<line
    stroke-linecap="square"
    x1="100"
    y1="87"
    x2="100"
    y2="227"
    style="stroke:rgb(0, 0,0);
            stroke-width:4;
"
/>

    <circle cx="100" cy="87" r="4" fill="black" />
<line
    stroke-linecap="square"
    x1="100"
    y1="227"
    x2="110"
    y2="227"
    style="stroke:rgb(0, 0,0);
            stroke-width:4;
"
/>

<line
    stroke-linecap="square"
    x1="110"
    y1="227"
    x2="110"
    y2="282"
    style="stroke:rgb(0, 0,0);
            stroke-width:4;
"
/>

    <circle cx="110" cy="227" r="4" fill="black" />
<line
    stroke-linecap="square"
    x1="110"
    y1="282"
    x2="145"
    y2="282"
    style="stroke:rgb(0, 0,0);
            stroke-width:4;
"
/>

    <circle cx="110" cy="282" r="4" fill="black" />
<line
    stroke-linecap="square"
    x1="145"
    y1="282"
    x2="145"
    y2="182"
    style="stroke:rgb(0, 0,0);
            stroke-width:4;
"
/>

<line
    stroke-linecap="square"
    x1="145"
    y1="182"
    x2="162"
    y2="182"
    style="stroke:rgb(0, 0,0);
            stroke-width:2;
                marker-end: url(#0,0,0)
            "
/>
    <text
        x="151"
        y="171"
        alignment-baseline="middle"
        font-family="Verdana"
        font-size="11"
        fill="black">
    0
    </text>

    <circle cx="145" cy="182" r="4" fill="black" />
<line
    stroke-linecap="square"
    x1="83"
    y1="127"
    x2="100"
    y2="127"
    style="stroke:rgb(0, 0,0);
            stroke-width:2;
"
/>
    <text
        x="86"
        y="120"
        alignment-baseline="middle"
        font-family="Verdana"
        font-size="11"
        fill="black">
    1
    </text>

<line
    stroke-linecap="square"
    x1="100"
    y1="127"
    x2="100"
    y2="227"
    style="stroke:rgb(0, 0,0);
            stroke-width:4;
"
/>

    <circle cx="100" cy="127" r="4" fill="black" />
<line
    stroke-linecap="square"
    x1="100"
    y1="227"
    x2="110"
    y2="227"
    style="stroke:rgb(0, 0,0);
            stroke-width:4;
"
/>

<line
    stroke-linecap="square"
    x1="110"
    y1="227"
    x2="110"
    y2="282"
    style="stroke:rgb(0, 0,0);
            stroke-width:4;
"
/>

    <circle cx="110" cy="227" r="4" fill="black" />
<line
    stroke-linecap="square"
    x1="110"
    y1="282"
    x2="145"
    y2="282"
    style="stroke:rgb(0, 0,0);
            stroke-width:4;
"
/>

    <circle cx="110" cy="282" r="4" fill="black" />
<line
    stroke-linecap="square"
    x1="145"
    y1="282"
    x2="145"
    y2="222"
    style="stroke:rgb(0, 0,0);
            stroke-width:4;
"
/>

<line
    stroke-linecap="square"
    x1="145"
    y1="222"
    x2="162"
    y2="222"
    style="stroke:rgb(0, 0,0);
            stroke-width:2;
                marker-end: url(#0,0,0)
            "
/>
    <text
        x="151"
        y="211"
        alignment-baseline="middle"
        font-family="Verdana"
        font-size="11"
        fill="black">
    1
    </text>

    <circle cx="145" cy="222" r="4" fill="black" />
<line
    stroke-linecap="square"
    x1="83"
    y1="262"
    x2="100"
    y2="262"
    style="stroke:rgb(0, 0,0);
            stroke-width:2;
"
/>
    <text
        x="86"
        y="255"
        alignment-baseline="middle"
        font-family="Verdana"
        font-size="11"
        fill="black">
    4
    </text>

<line
    stroke-linecap="square"
    x1="100"
    y1="262"
    x2="100"
    y2="227"
    style="stroke:rgb(0, 0,0);
            stroke-width:4;
"
/>

    <circle cx="100" cy="262" r="4" fill="black" />
<line
    stroke-linecap="square"
    x1="100"
    y1="227"
    x2="110"
    y2="227"
    style="stroke:rgb(0, 0,0);
            stroke-width:4;
"
/>

<line
    stroke-linecap="square"
    x1="110"
    y1="227"
    x2="110"
    y2="282"
    style="stroke:rgb(0, 0,0);
            stroke-width:4;
"
/>

    <circle cx="110" cy="227" r="4" fill="black" />
<line
    stroke-linecap="square"
    x1="110"
    y1="282"
    x2="145"
    y2="282"
    style="stroke:rgb(0, 0,0);
            stroke-width:4;
"
/>

    <circle cx="110" cy="282" r="4" fill="black" />
<line
    stroke-linecap="square"
    x1="145"
    y1="282"
    x2="145"
    y2="262"
    style="stroke:rgb(0, 0,0);
            stroke-width:4;
"
/>

<line
    stroke-linecap="square"
    x1="145"
    y1="262"
    x2="162"
    y2="262"
    style="stroke:rgb(0, 0,0);
            stroke-width:2;
                marker-end: url(#0,0,0)
            "
/>
    <text
        x="151"
        y="251"
        alignment-baseline="middle"
        font-family="Verdana"
        font-size="11"
        fill="black">
    4
    </text>

    <circle cx="145" cy="262" r="4" fill="black" />
<line
    stroke-linecap="square"
    x1="83"
    y1="302"
    x2="100"
    y2="302"
    style="stroke:rgb(0, 0,0);
            stroke-width:2;
"
/>
    <text
        x="86"
        y="295"
        alignment-baseline="middle"
        font-family="Verdana"
        font-size="11"
        fill="black">
    5
    </text>

<line
    stroke-linecap="square"
    x1="100"
    y1="302"
    x2="100"
    y2="227"
    style="stroke:rgb(0, 0,0);
            stroke-width:4;
"
/>

    <circle cx="100" cy="302" r="4" fill="black" />
<line
    stroke-linecap="square"
    x1="100"
    y1="227"
    x2="110"
    y2="227"
    style="stroke:rgb(0, 0,0);
            stroke-width:4;
"
/>

<line
    stroke-linecap="square"
    x1="110"
    y1="227"
    x2="110"
    y2="282"
    style="stroke:rgb(0, 0,0);
            stroke-width:4;
"
/>

    <circle cx="110" cy="227" r="4" fill="black" />
<line
    stroke-linecap="square"
    x1="110"
    y1="282"
    x2="145"
    y2="282"
    style="stroke:rgb(0, 0,0);
            stroke-width:4;
"
/>

    <circle cx="110" cy="282" r="4" fill="black" />
<line
    stroke-linecap="square"
    x1="145"
    y1="282"
    x2="145"
    y2="302"
    style="stroke:rgb(0, 0,0);
            stroke-width:4;
"
/>

<line
    stroke-linecap="square"
    x1="145"
    y1="302"
    x2="162"
    y2="302"
    style="stroke:rgb(0, 0,0);
            stroke-width:2;
                marker-end: url(#0,0,0)
            "
/>
    <text
        x="151"
        y="291"
        alignment-baseline="middle"
        font-family="Verdana"
        font-size="11"
        fill="black">
    5
    </text>

    <circle cx="145" cy="302" r="4" fill="black" />
<line
    stroke-linecap="square"
    x1="83"
    y1="382"
    x2="100"
    y2="382"
    style="stroke:rgb(0, 0,0);
            stroke-width:2;
"
/>
    <text
        x="86"
        y="375"
        alignment-baseline="middle"
        font-family="Verdana"
        font-size="11"
        fill="black">
    6
    </text>

<line
    stroke-linecap="square"
    x1="100"
    y1="382"
    x2="100"
    y2="227"
    style="stroke:rgb(0, 0,0);
            stroke-width:4;
"
/>

    <circle cx="100" cy="382" r="4" fill="black" />
<line
    stroke-linecap="square"
    x1="100"
    y1="227"
    x2="110"
    y2="227"
    style="stroke:rgb(0, 0,0);
            stroke-width:4;
"
/>

<line
    stroke-linecap="square"
    x1="110"
    y1="227"
    x2="110"
    y2="282"
    style="stroke:rgb(0, 0,0);
            stroke-width:4;
"
/>

    <circle cx="110" cy="227" r="4" fill="black" />
<line
    stroke-linecap="square"
    x1="110"
    y1="282"
    x2="145"
    y2="282"
    style="stroke:rgb(0, 0,0);
            stroke-width:4;
"
/>

    <circle cx="110" cy="282" r="4" fill="black" />
<line
    stroke-linecap="square"
    x1="145"
    y1="282"
    x2="145"
    y2="382"
    style="stroke:rgb(0, 0,0);
            stroke-width:4;
"
/>

<line
    stroke-linecap="square"
    x1="145"
    y1="382"
    x2="162"
    y2="382"
    style="stroke:rgb(0, 0,0);
            stroke-width:2;
                marker-end: url(#0,0,0)
            "
/>
    <text
        x="151"
        y="371"
        alignment-baseline="middle"
        font-family="Verdana"
        font-size="11"
        fill="black">
    6
    </text>

    <circle cx="145" cy="382" r="4" fill="black" />
<line
    stroke-linecap="square"
    x1="83"
    y1="87"
    x2="100"
    y2="87"
    style="stroke:rgb(0, 0,0);
            stroke-width:2;
"
/>
    <text
        x="86"
        y="80"
        alignment-baseline="middle"
        font-family="Verdana"
        font-size="11"
        fill="black">
    0
    </text>

<line
    stroke-linecap="square"
    x1="100"
    y1="87"
    x2="100"
    y2="227"
    style="stroke:rgb(0, 0,0);
            stroke-width:4;
"
/>

    <circle cx="100" cy="87" r="4" fill="black" />
<line
    stroke-linecap="square"
    x1="100"
    y1="227"
    x2="110"
    y2="227"
    style="stroke:rgb(0, 0,0);
            stroke-width:4;
"
/>

<line
    stroke-linecap="square"
    x1="110"
    y1="227"
    x2="110"
    y2="127"
    style="stroke:rgb(0, 0,0);
            stroke-width:4;
"
/>

    <circle cx="110" cy="227" r="4" fill="black" />
<line
    stroke-linecap="square"
    x1="110"
    y1="127"
    x2="332"
    y2="127"
    style="stroke:rgb(0, 0,0);
            stroke-width:4;
"
/>

    <circle cx="110" cy="127" r="4" fill="black" />
<line
    stroke-linecap="square"
    x1="332"
    y1="127"
    x2="332"
    y2="127"
    style="stroke:rgb(0, 0,0);
            stroke-width:4;
"
/>

<line
    stroke-linecap="square"
    x1="332"
    y1="127"
    x2="349"
    y2="127"
    style="stroke:rgb(0, 0,0);
            stroke-width:2;
                marker-end: url(#0,0,0)
            "
/>
    <text
        x="338"
        y="116"
        alignment-baseline="middle"
        font-family="Verdana"
        font-size="11"
        fill="black">
    0
    </text>

    <circle cx="332" cy="127" r="4" fill="black" />
<line
    stroke-linecap="square"
    x1="83"
    y1="127"
    x2="100"
    y2="127"
    style="stroke:rgb(0, 0,0);
            stroke-width:2;
"
/>
    <text
        x="86"
        y="120"
        alignment-baseline="middle"
        font-family="Verdana"
        font-size="11"
        fill="black">
    1
    </text>

<line
    stroke-linecap="square"
    x1="100"
    y1="127"
    x2="100"
    y2="227"
    style="stroke:rgb(0, 0,0);
            stroke-width:4;
"
/>

    <circle cx="100" cy="127" r="4" fill="black" />
<line
    stroke-linecap="square"
    x1="100"
    y1="227"
    x2="110"
    y2="227"
    style="stroke:rgb(0, 0,0);
            stroke-width:4;
"
/>

<line
    stroke-linecap="square"
    x1="110"
    y1="227"
    x2="110"
    y2="127"
    style="stroke:rgb(0, 0,0);
            stroke-width:4;
"
/>

    <circle cx="110" cy="227" r="4" fill="black" />
<line
    stroke-linecap="square"
    x1="110"
    y1="127"
    x2="332"
    y2="127"
    style="stroke:rgb(0, 0,0);
            stroke-width:4;
"
/>

    <circle cx="110" cy="127" r="4" fill="black" />
<line
    stroke-linecap="square"
    x1="332"
    y1="127"
    x2="332"
    y2="182"
    style="stroke:rgb(0, 0,0);
            stroke-width:4;
"
/>

<line
    stroke-linecap="square"
    x1="332"
    y1="182"
    x2="349"
    y2="182"
    style="stroke:rgb(0, 0,0);
            stroke-width:2;
                marker-end: url(#0,0,0)
            "
/>
    <text
        x="338"
        y="171"
        alignment-baseline="middle"
        font-family="Verdana"
        font-size="11"
        fill="black">
    1
    </text>

    <circle cx="332" cy="182" r="4" fill="black" />
<line
    stroke-linecap="square"
    x1="83"
    y1="182"
    x2="100"
    y2="182"
    style="stroke:rgb(0, 0,0);
            stroke-width:2;
"
/>
    <text
        x="86"
        y="175"
        alignment-baseline="middle"
        font-family="Verdana"
        font-size="11"
        fill="black">
    2
    </text>

<line
    stroke-linecap="square"
    x1="100"
    y1="182"
    x2="100"
    y2="227"
    style="stroke:rgb(0, 0,0);
            stroke-width:4;
"
/>

    <circle cx="100" cy="182" r="4" fill="black" />
<line
    stroke-linecap="square"
    x1="100"
    y1="227"
    x2="110"
    y2="227"
    style="stroke:rgb(0, 0,0);
            stroke-width:4;
"
/>

<line
    stroke-linecap="square"
    x1="110"
    y1="227"
    x2="110"
    y2="127"
    style="stroke:rgb(0, 0,0);
            stroke-width:4;
"
/>

    <circle cx="110" cy="227" r="4" fill="black" />
<line
    stroke-linecap="square"
    x1="110"
    y1="127"
    x2="332"
    y2="127"
    style="stroke:rgb(0, 0,0);
            stroke-width:4;
"
/>

    <circle cx="110" cy="127" r="4" fill="black" />
<line
    stroke-linecap="square"
    x1="332"
    y1="127"
    x2="332"
    y2="222"
    style="stroke:rgb(0, 0,0);
            stroke-width:4;
"
/>

<line
    stroke-linecap="square"
    x1="332"
    y1="222"
    x2="349"
    y2="222"
    style="stroke:rgb(0, 0,0);
            stroke-width:2;
                marker-end: url(#0,0,0)
            "
/>
    <text
        x="338"
        y="211"
        alignment-baseline="middle"
        font-family="Verdana"
        font-size="11"
        fill="black">
    2
    </text>

    <circle cx="332" cy="222" r="4" fill="black" />
<line
    stroke-linecap="square"
    x1="83"
    y1="222"
    x2="100"
    y2="222"
    style="stroke:rgb(0, 0,0);
            stroke-width:2;
"
/>
    <text
        x="86"
        y="215"
        alignment-baseline="middle"
        font-family="Verdana"
        font-size="11"
        fill="black">
    3
    </text>

<line
    stroke-linecap="square"
    x1="100"
    y1="222"
    x2="100"
    y2="227"
    style="stroke:rgb(0, 0,0);
            stroke-width:4;
"
/>

    <circle cx="100" cy="222" r="4" fill="black" />
<line
    stroke-linecap="square"
    x1="100"
    y1="227"
    x2="110"
    y2="227"
    style="stroke:rgb(0, 0,0);
            stroke-width:4;
"
/>

<line
    stroke-linecap="square"
    x1="110"
    y1="227"
    x2="110"
    y2="127"
    style="stroke:rgb(0, 0,0);
            stroke-width:4;
"
/>

    <circle cx="110" cy="227" r="4" fill="black" />
<line
    stroke-linecap="square"
    x1="110"
    y1="127"
    x2="332"
    y2="127"
    style="stroke:rgb(0, 0,0);
            stroke-width:4;
"
/>

    <circle cx="110" cy="127" r="4" fill="black" />
<line
    stroke-linecap="square"
    x1="332"
    y1="127"
    x2="332"
    y2="262"
    style="stroke:rgb(0, 0,0);
            stroke-width:4;
"
/>

<line
    stroke-linecap="square"
    x1="332"
    y1="262"
    x2="349"
    y2="262"
    style="stroke:rgb(0, 0,0);
            stroke-width:2;
                marker-end: url(#0,0,0)
            "
/>
    <text
        x="338"
        y="251"
        alignment-baseline="middle"
        font-family="Verdana"
        font-size="11"
        fill="black">
    3
    </text>

    <circle cx="332" cy="262" r="4" fill="black" />
<line
    stroke-linecap="square"
    x1="305"
    y1="382"
    x2="349"
    y2="382"
    style="stroke:rgb(0, 0,0);
            stroke-width:2;
                marker-end: url(#0,0,0)
            "
/>

<line
    stroke-linecap="square"
    x1="305"
    y1="302"
    x2="349"
    y2="302"
    style="stroke:rgb(0, 0,0);
            stroke-width:2;
                marker-end: url(#0,0,0)
            "
/>

<line
    stroke-linecap="square"
    x1="305"
    y1="342"
    x2="349"
    y2="342"
    style="stroke:rgb(0, 0,0);
            stroke-width:2;
                marker-end: url(#0,0,0)
            "
/>

<defs>
    <!-- Small box indicating a port -->
    <rect id="port" x="0" y="0" width="16" height="16"
          style="fill:white;stroke:rgb(0,0,0);stroke-width:1;fill-opacity:1.0;stroke-opacity:1.0"/>
</defs><use x="478" y="119" xlink:href="#port" />
<text text-anchor="end" alignment-baseline="middle" x="475" y="129" transform="rotate(0,475,129)" style="font-weight: regular" font-family="Verdana" font-size="9" fill="black">
desiredD
</text>

<text text-anchor="end" alignment-baseline="middle" x="475" y="139" transform="rotate(0,475,139)" style="font-weight: regular" font-family="Verdana" font-size="9" fill="black">
irectionX
</text>

<use x="508" y="119" xlink:href="#port" />
<text text-anchor="start" alignment-baseline="middle" x="528" y="129" transform="rotate(0,528,129)" style="font-weight: regular" font-family="Verdana" font-size="9" fill="black">
desiredD
</text>

<text text-anchor="start" alignment-baseline="middle" x="528" y="139" transform="rotate(0,528,139)" style="font-weight: regular" font-family="Verdana" font-size="9" fill="black">
irectionX
</text>

<use x="478" y="79" xlink:href="#port" />
<text text-anchor="end" alignment-baseline="middle" x="475" y="89" transform="rotate(0,475,89)" style="font-weight: regular" font-family="Verdana" font-size="9" fill="black">
desiredDi
</text>

<text text-anchor="end" alignment-baseline="middle" x="475" y="99" transform="rotate(0,475,99)" style="font-weight: regular" font-family="Verdana" font-size="9" fill="black">
rectionY
</text>

<use x="508" y="79" xlink:href="#port" />
<text text-anchor="start" alignment-baseline="middle" x="528" y="89" transform="rotate(0,528,89)" style="font-weight: regular" font-family="Verdana" font-size="9" fill="black">
desiredDi
</text>

<text text-anchor="start" alignment-baseline="middle" x="528" y="99" transform="rotate(0,528,99)" style="font-weight: regular" font-family="Verdana" font-size="9" fill="black">
rectionY
</text>

<use x="478" y="174" xlink:href="#port" />
<text text-anchor="end" alignment-baseline="middle" x="475" y="184" transform="rotate(0,475,184)" style="font-weight: regular" font-family="Verdana" font-size="9" fill="black">
signedDistanc
</text>

<text text-anchor="end" alignment-baseline="middle" x="475" y="194" transform="rotate(0,475,194)" style="font-weight: regular" font-family="Verdana" font-size="9" fill="black">
eToTrajectory
</text>

<use x="508" y="174" xlink:href="#port" />
<text text-anchor="start" alignment-baseline="middle" x="528" y="184" transform="rotate(0,528,184)" style="font-weight: regular" font-family="Verdana" font-size="9" fill="black">
signedDistanc
</text>

<text text-anchor="start" alignment-baseline="middle" x="528" y="194" transform="rotate(0,528,194)" style="font-weight: regular" font-family="Verdana" font-size="9" fill="black">
eToTrajectory
</text>

<use x="478" y="214" xlink:href="#port" />
<text text-anchor="end" alignment-baseline="middle" x="475" y="224" transform="rotate(0,475,224)" style="font-weight: regular" font-family="Verdana" font-size="9" fill="black">
desiredV
</text>

<text text-anchor="end" alignment-baseline="middle" x="475" y="234" transform="rotate(0,475,234)" style="font-weight: regular" font-family="Verdana" font-size="9" fill="black">
elocity
</text>

<use x="508" y="214" xlink:href="#port" />
<text text-anchor="start" alignment-baseline="middle" x="528" y="224" transform="rotate(0,528,224)" style="font-weight: regular" font-family="Verdana" font-size="9" fill="black">
desiredV
</text>

<text text-anchor="start" alignment-baseline="middle" x="528" y="234" transform="rotate(0,528,234)" style="font-weight: regular" font-family="Verdana" font-size="9" fill="black">
elocity
</text>

<use x="67" y="79" xlink:href="#port" />
<text text-anchor="end" alignment-baseline="middle" x="63" y="89" transform="rotate(0,63,89)" style="font-weight: regular" font-family="Verdana" font-size="9" fill="black">
currentP
</text>

<text text-anchor="end" alignment-baseline="middle" x="63" y="99" transform="rotate(0,63,99)" style="font-weight: regular" font-family="Verdana" font-size="9" fill="black">
ositionX
</text>

<use x="162" y="174" xlink:href="#port" />
<text text-anchor="start" alignment-baseline="middle" x="181" y="184" transform="rotate(0,181,184)" style="font-weight: regular" font-family="Verdana" font-size="9" fill="black">
currentP
</text>

<text text-anchor="start" alignment-baseline="middle" x="181" y="194" transform="rotate(0,181,194)" style="font-weight: regular" font-family="Verdana" font-size="9" fill="black">
ositionX
</text>

<use x="67" y="119" xlink:href="#port" />
<text text-anchor="end" alignment-baseline="middle" x="63" y="129" transform="rotate(0,63,129)" style="font-weight: regular" font-family="Verdana" font-size="9" fill="black">
currentP
</text>

<text text-anchor="end" alignment-baseline="middle" x="63" y="139" transform="rotate(0,63,139)" style="font-weight: regular" font-family="Verdana" font-size="9" fill="black">
ositionY
</text>

<use x="162" y="214" xlink:href="#port" />
<text text-anchor="start" alignment-baseline="middle" x="181" y="224" transform="rotate(0,181,224)" style="font-weight: regular" font-family="Verdana" font-size="9" fill="black">
currentP
</text>

<text text-anchor="start" alignment-baseline="middle" x="181" y="234" transform="rotate(0,181,234)" style="font-weight: regular" font-family="Verdana" font-size="9" fill="black">
ositionY
</text>

<use x="67" y="254" xlink:href="#port" />
<text text-anchor="end" alignment-baseline="middle" x="63" y="264" transform="rotate(0,63,264)" style="font-weight: regular" font-family="Verdana" font-size="9" fill="black">
plannedTraje
</text>

<text text-anchor="end" alignment-baseline="middle" x="63" y="274" transform="rotate(0,63,274)" style="font-weight: regular" font-family="Verdana" font-size="9" fill="black">
ctoryLength
</text>

<use x="162" y="254" xlink:href="#port" />
<text text-anchor="start" alignment-baseline="middle" x="181" y="264" transform="rotate(0,181,264)" style="font-weight: regular" font-family="Verdana" font-size="9" fill="black">
plannedTraje
</text>

<text text-anchor="start" alignment-baseline="middle" x="181" y="274" transform="rotate(0,181,274)" style="font-weight: regular" font-family="Verdana" font-size="9" fill="black">
ctoryLength
</text>

<use x="67" y="294" xlink:href="#port" />
<text text-anchor="end" alignment-baseline="middle" x="63" y="304" transform="rotate(0,63,304)" style="font-weight: regular" font-family="Verdana" font-size="9" fill="black">
plannedTr
</text>

<text text-anchor="end" alignment-baseline="middle" x="63" y="314" transform="rotate(0,63,314)" style="font-weight: regular" font-family="Verdana" font-size="9" fill="black">
ajectoryX
</text>

<use x="162" y="294" xlink:href="#port" />
<text text-anchor="start" alignment-baseline="middle" x="181" y="304" transform="rotate(0,181,304)" style="font-weight: regular" font-family="Verdana" font-size="9" fill="black">
plannedTr
</text>

<text text-anchor="start" alignment-baseline="middle" x="181" y="314" transform="rotate(0,181,314)" style="font-weight: regular" font-family="Verdana" font-size="9" fill="black">
ajectoryX
</text>

<use x="67" y="374" xlink:href="#port" />
<text text-anchor="end" alignment-baseline="middle" x="63" y="384" transform="rotate(0,63,384)" style="font-weight: regular" font-family="Verdana" font-size="9" fill="black">
plannedTr
</text>

<text text-anchor="end" alignment-baseline="middle" x="63" y="394" transform="rotate(0,63,394)" style="font-weight: regular" font-family="Verdana" font-size="9" fill="black">
ajectoryY
</text>

<use x="162" y="374" xlink:href="#port" />
<text text-anchor="start" alignment-baseline="middle" x="181" y="384" transform="rotate(0,181,384)" style="font-weight: regular" font-family="Verdana" font-size="9" fill="black">
plannedTr
</text>

<text text-anchor="start" alignment-baseline="middle" x="181" y="394" transform="rotate(0,181,394)" style="font-weight: regular" font-family="Verdana" font-size="9" fill="black">
ajectoryY
</text>

<use x="67" y="79" xlink:href="#port" />
<text text-anchor="end" alignment-baseline="middle" x="63" y="89" transform="rotate(0,63,89)" style="font-weight: regular" font-family="Verdana" font-size="9" fill="black">
currentP
</text>

<text text-anchor="end" alignment-baseline="middle" x="63" y="99" transform="rotate(0,63,99)" style="font-weight: regular" font-family="Verdana" font-size="9" fill="black">
ositionX
</text>

<use x="349" y="119" xlink:href="#port" />
<text text-anchor="start" alignment-baseline="middle" x="368" y="129" transform="rotate(0,368,129)" style="font-weight: regular" font-family="Verdana" font-size="9" fill="black">
currentP
</text>

<text text-anchor="start" alignment-baseline="middle" x="368" y="139" transform="rotate(0,368,139)" style="font-weight: regular" font-family="Verdana" font-size="9" fill="black">
ositionX
</text>

<use x="67" y="119" xlink:href="#port" />
<text text-anchor="end" alignment-baseline="middle" x="63" y="129" transform="rotate(0,63,129)" style="font-weight: regular" font-family="Verdana" font-size="9" fill="black">
currentP
</text>

<text text-anchor="end" alignment-baseline="middle" x="63" y="139" transform="rotate(0,63,139)" style="font-weight: regular" font-family="Verdana" font-size="9" fill="black">
ositionY
</text>

<use x="349" y="174" xlink:href="#port" />
<text text-anchor="start" alignment-baseline="middle" x="368" y="184" transform="rotate(0,368,184)" style="font-weight: regular" font-family="Verdana" font-size="9" fill="black">
currentP
</text>

<text text-anchor="start" alignment-baseline="middle" x="368" y="194" transform="rotate(0,368,194)" style="font-weight: regular" font-family="Verdana" font-size="9" fill="black">
ositionY
</text>

<use x="67" y="174" xlink:href="#port" />
<text text-anchor="end" alignment-baseline="middle" x="63" y="184" transform="rotate(0,63,184)" style="font-weight: regular" font-family="Verdana" font-size="9" fill="black">
currentD
</text>

<text text-anchor="end" alignment-baseline="middle" x="63" y="194" transform="rotate(0,63,194)" style="font-weight: regular" font-family="Verdana" font-size="9" fill="black">
irectionX
</text>

<use x="349" y="214" xlink:href="#port" />
<text text-anchor="start" alignment-baseline="middle" x="368" y="224" transform="rotate(0,368,224)" style="font-weight: regular" font-family="Verdana" font-size="9" fill="black">
currentD
</text>

<text text-anchor="start" alignment-baseline="middle" x="368" y="234" transform="rotate(0,368,234)" style="font-weight: regular" font-family="Verdana" font-size="9" fill="black">
irectionX
</text>

<use x="67" y="214" xlink:href="#port" />
<text text-anchor="end" alignment-baseline="middle" x="63" y="224" transform="rotate(0,63,224)" style="font-weight: regular" font-family="Verdana" font-size="9" fill="black">
currentDi
</text>

<text text-anchor="end" alignment-baseline="middle" x="63" y="234" transform="rotate(0,63,234)" style="font-weight: regular" font-family="Verdana" font-size="9" fill="black">
rectionY
</text>

<use x="349" y="254" xlink:href="#port" />
<text text-anchor="start" alignment-baseline="middle" x="368" y="264" transform="rotate(0,368,264)" style="font-weight: regular" font-family="Verdana" font-size="9" fill="black">
currentDi
</text>

<text text-anchor="start" alignment-baseline="middle" x="368" y="274" transform="rotate(0,368,274)" style="font-weight: regular" font-family="Verdana" font-size="9" fill="black">
rectionY
</text>

<use x="289" y="374" xlink:href="#port" />
<text text-anchor="end" alignment-baseline="middle" x="286" y="384" transform="rotate(0,286,384)" style="font-weight: regular" font-family="Verdana" font-size="9" fill="black">
trimmedTraje
</text>

<text text-anchor="end" alignment-baseline="middle" x="286" y="394" transform="rotate(0,286,394)" style="font-weight: regular" font-family="Verdana" font-size="9" fill="black">
ctoryLength
</text>

<use x="349" y="374" xlink:href="#port" />
<text text-anchor="start" alignment-baseline="middle" x="368" y="384" transform="rotate(0,368,384)" style="font-weight: regular" font-family="Verdana" font-size="9" fill="black">
trimmedTraje
</text>

<text text-anchor="start" alignment-baseline="middle" x="368" y="394" transform="rotate(0,368,394)" style="font-weight: regular" font-family="Verdana" font-size="9" fill="black">
ctoryLength
</text>

<use x="289" y="294" xlink:href="#port" />
<text text-anchor="end" alignment-baseline="middle" x="286" y="304" transform="rotate(0,286,304)" style="font-weight: regular" font-family="Verdana" font-size="9" fill="black">
trimmedTr
</text>

<text text-anchor="end" alignment-baseline="middle" x="286" y="314" transform="rotate(0,286,314)" style="font-weight: regular" font-family="Verdana" font-size="9" fill="black">
ajectoryX
</text>

<use x="349" y="294" xlink:href="#port" />
<text text-anchor="start" alignment-baseline="middle" x="368" y="304" transform="rotate(0,368,304)" style="font-weight: regular" font-family="Verdana" font-size="9" fill="black">
trimmedTr
</text>

<text text-anchor="start" alignment-baseline="middle" x="368" y="314" transform="rotate(0,368,314)" style="font-weight: regular" font-family="Verdana" font-size="9" fill="black">
ajectoryX
</text>

<use x="289" y="334" xlink:href="#port" />
<text text-anchor="end" alignment-baseline="middle" x="286" y="344" transform="rotate(0,286,344)" style="font-weight: regular" font-family="Verdana" font-size="9" fill="black">
trimmedTr
</text>

<text text-anchor="end" alignment-baseline="middle" x="286" y="354" transform="rotate(0,286,354)" style="font-weight: regular" font-family="Verdana" font-size="9" fill="black">
ajectoryY
</text>

<use x="349" y="334" xlink:href="#port" />
<text text-anchor="start" alignment-baseline="middle" x="368" y="344" transform="rotate(0,368,344)" style="font-weight: regular" font-family="Verdana" font-size="9" fill="black">
trimmedTr
</text>

<text text-anchor="start" alignment-baseline="middle" x="368" y="354" transform="rotate(0,368,354)" style="font-weight: regular" font-family="Verdana" font-size="9" fill="black">
ajectoryY
</text>


</svg>