<svg width="100%" height="100%" xmlns="http://www.w3.org/2000/svg" version="1.1" xmlns:xlink="http://www.w3.org/1999/xlink">
    <svg xmlns="http://www.w3.org/2000/svg" version="1.1">

<!-- Canvas: environment -->
<g transform="translate(16 20)">

    <rect
        id="16976"
        width="225"
        height="429"
        style="fill:white;stroke:black;stroke-width:2;fill-opacity:1.0;stroke-opacity:1.0"/>

    <text
        x="8"
        y="20"
        font-family="Verdana"
        fill="black">
            <tspan style="font-weight: bold" font-size="13">environment</tspan>
    </text>

</g>

</svg><!-- Component: physicsSimulation -->
<g transform="translate(46 52)">
    <rect
        data-name="testManuelSchrick.pumpStationExample.pumpStation.environment.physicsSimulation"
        id="16977"
        width="35"
        height="377"
        style="
                fill:white;
            stroke:black;
            stroke-width:2;
            fill-opacity:1.0;
            stroke-opacity:1.0"
        onmouseout="this.style.stroke = '#000000'; this.style['stroke-width'] = 2; this.style.cursor='default';"
    />

    <text
        x="15"
        y="15"
        alignment-baseline="middle"
        font-family="Verdana"
        fill="black"
        transform="rotate(90,15,15)">
            <tspan style="font-weight: bold" font-size="11">physicsSimulation</tspan>
    </text>

</g><!-- Component: simulationPanel -->
<g transform="translate(176 187)">
    <rect
        data-name="testManuelSchrick.pumpStationExample.pumpStation.environment.simulationPanel"
        id="16978"
        width="35"
        height="242"
        style="
                fill:white;
            stroke:black;
            stroke-width:2;
            fill-opacity:1.0;
            stroke-opacity:1.0"
        onmouseout="this.style.stroke = '#000000'; this.style['stroke-width'] = 2; this.style.cursor='default';"
    />

    <text
        x="15"
        y="15"
        alignment-baseline="middle"
        font-family="Verdana"
        fill="black"
        transform="rotate(90,15,15)">
            <tspan style="font-weight: bold" font-size="11">simulationPanel</tspan>
    </text>

</g><defs>
    <marker id="0,0,0" markerWidth="13" markerHeight="13" refX="5" refY="5" orient="auto">
            <polyline points="0,2 5,5 0,8" style="fill:none; stroke:rgb(0,0,0);
                    stroke-width:1" />
    </marker>
</defs><line
    stroke-linecap="square"
    x1="89"
    y1="289"
    x2="106"
    y2="289"
    style="stroke:rgb(0, 0,0);
            stroke-width:2;
"
/>
    <text
        x="92"
        y="282"
        alignment-baseline="middle"
        font-family="Verdana"
        font-size="11"
        fill="black">
    1
    </text>

<line
    stroke-linecap="square"
    x1="106"
    y1="289"
    x2="106"
    y2="309"
    style="stroke:rgb(0, 0,0);
            stroke-width:4;
"
/>

    <circle cx="106" cy="289" r="4" fill="black" />
<line
    stroke-linecap="square"
    x1="106"
    y1="309"
    x2="116"
    y2="309"
    style="stroke:rgb(0, 0,0);
            stroke-width:4;
"
/>

<line
    stroke-linecap="square"
    x1="116"
    y1="309"
    x2="116"
    y2="127"
    style="stroke:rgb(0, 0,0);
            stroke-width:4;
"
/>

    <circle cx="116" cy="309" r="4" fill="black" />
<line
    stroke-linecap="square"
    x1="116"
    y1="127"
    x2="211"
    y2="127"
    style="stroke:rgb(0, 0,0);
            stroke-width:4;
"
/>

    <circle cx="116" cy="127" r="4" fill="black" />
<line
    stroke-linecap="square"
    x1="211"
    y1="127"
    x2="211"
    y2="87"
    style="stroke:rgb(0, 0,0);
            stroke-width:4;
"
/>

<line
    stroke-linecap="square"
    x1="211"
    y1="87"
    x2="233"
    y2="87"
    style="stroke:rgb(0, 0,0);
            stroke-width:2;
                marker-end: url(#0,0,0)
            "
/>
    <text
        x="222"
        y="76"
        alignment-baseline="middle"
        font-family="Verdana"
        font-size="11"
        fill="black">
    1
    </text>

    <circle cx="211" cy="87" r="4" fill="black" />
<line
    stroke-linecap="square"
    x1="89"
    y1="369"
    x2="106"
    y2="369"
    style="stroke:rgb(0, 0,0);
            stroke-width:2;
"
/>
    <text
        x="92"
        y="362"
        alignment-baseline="middle"
        font-family="Verdana"
        font-size="11"
        fill="black">
    2
    </text>

<line
    stroke-linecap="square"
    x1="106"
    y1="369"
    x2="106"
    y2="309"
    style="stroke:rgb(0, 0,0);
            stroke-width:4;
"
/>

    <circle cx="106" cy="369" r="4" fill="black" />
<line
    stroke-linecap="square"
    x1="106"
    y1="309"
    x2="116"
    y2="309"
    style="stroke:rgb(0, 0,0);
            stroke-width:4;
"
/>

<line
    stroke-linecap="square"
    x1="116"
    y1="309"
    x2="116"
    y2="127"
    style="stroke:rgb(0, 0,0);
            stroke-width:4;
"
/>

    <circle cx="116" cy="309" r="4" fill="black" />
<line
    stroke-linecap="square"
    x1="116"
    y1="127"
    x2="211"
    y2="127"
    style="stroke:rgb(0, 0,0);
            stroke-width:4;
"
/>

    <circle cx="116" cy="127" r="4" fill="black" />
<line
    stroke-linecap="square"
    x1="211"
    y1="127"
    x2="211"
    y2="127"
    style="stroke:rgb(0, 0,0);
            stroke-width:4;
"
/>

<line
    stroke-linecap="square"
    x1="211"
    y1="127"
    x2="233"
    y2="127"
    style="stroke:rgb(0, 0,0);
            stroke-width:2;
                marker-end: url(#0,0,0)
            "
/>
    <text
        x="222"
        y="116"
        alignment-baseline="middle"
        font-family="Verdana"
        font-size="11"
        fill="black">
    2
    </text>

    <circle cx="211" cy="127" r="4" fill="black" />
<line
    stroke-linecap="square"
    x1="89"
    y1="409"
    x2="106"
    y2="409"
    style="stroke:rgb(0, 0,0);
            stroke-width:2;
"
/>
    <text
        x="92"
        y="402"
        alignment-baseline="middle"
        font-family="Verdana"
        font-size="11"
        fill="black">
    3
    </text>

<line
    stroke-linecap="square"
    x1="106"
    y1="409"
    x2="106"
    y2="309"
    style="stroke:rgb(0, 0,0);
            stroke-width:4;
"
/>

    <circle cx="106" cy="409" r="4" fill="black" />
<line
    stroke-linecap="square"
    x1="106"
    y1="309"
    x2="116"
    y2="309"
    style="stroke:rgb(0, 0,0);
            stroke-width:4;
"
/>

<line
    stroke-linecap="square"
    x1="116"
    y1="309"
    x2="116"
    y2="127"
    style="stroke:rgb(0, 0,0);
            stroke-width:4;
"
/>

    <circle cx="116" cy="309" r="4" fill="black" />
<line
    stroke-linecap="square"
    x1="116"
    y1="127"
    x2="211"
    y2="127"
    style="stroke:rgb(0, 0,0);
            stroke-width:4;
"
/>

    <circle cx="116" cy="127" r="4" fill="black" />
<line
    stroke-linecap="square"
    x1="211"
    y1="127"
    x2="211"
    y2="167"
    style="stroke:rgb(0, 0,0);
            stroke-width:4;
"
/>

<line
    stroke-linecap="square"
    x1="211"
    y1="167"
    x2="233"
    y2="167"
    style="stroke:rgb(0, 0,0);
            stroke-width:2;
                marker-end: url(#0,0,0)
            "
/>
    <text
        x="222"
        y="156"
        alignment-baseline="middle"
        font-family="Verdana"
        font-size="11"
        fill="black">
    3
    </text>

    <circle cx="211" cy="167" r="4" fill="black" />
<line
    stroke-linecap="square"
    x1="219"
    y1="289"
    x2="233"
    y2="289"
    style="stroke:rgb(0, 0,0);
            stroke-width:2;
                marker-end: url(#0,0,0)
            "
/>

<line
    stroke-linecap="square"
    x1="24"
    y1="289"
    x2="38"
    y2="289"
    style="stroke:rgb(0, 0,0);
            stroke-width:2;
                marker-end: url(#0,0,0)
            "
/>

<line
    stroke-linecap="square"
    x1="24"
    y1="167"
    x2="38"
    y2="167"
    style="stroke:rgb(0, 0,0);
            stroke-width:2;
                marker-end: url(#0,0,0)
            "
/>

<line
    stroke-linecap="square"
    x1="24"
    y1="127"
    x2="38"
    y2="127"
    style="stroke:rgb(0, 0,0);
            stroke-width:2;
                marker-end: url(#0,0,0)
            "
/>

<line
    stroke-linecap="square"
    x1="89"
    y1="87"
    x2="106"
    y2="87"
    style="stroke:rgb(0, 0,0);
            stroke-width:2;
"
/>
    <text
        x="92"
        y="80"
        alignment-baseline="middle"
        font-family="Verdana"
        font-size="11"
        fill="black">
    0
    </text>

<line
    stroke-linecap="square"
    x1="106"
    y1="87"
    x2="106"
    y2="309"
    style="stroke:rgb(0, 0,0);
            stroke-width:4;
"
/>

    <circle cx="106" cy="87" r="4" fill="black" />
<line
    stroke-linecap="square"
    x1="106"
    y1="309"
    x2="116"
    y2="309"
    style="stroke:rgb(0, 0,0);
            stroke-width:4;
"
/>

<line
    stroke-linecap="square"
    x1="116"
    y1="309"
    x2="116"
    y2="349"
    style="stroke:rgb(0, 0,0);
            stroke-width:4;
"
/>

    <circle cx="116" cy="309" r="4" fill="black" />
<line
    stroke-linecap="square"
    x1="116"
    y1="349"
    x2="151"
    y2="349"
    style="stroke:rgb(0, 0,0);
            stroke-width:4;
"
/>

    <circle cx="116" cy="349" r="4" fill="black" />
<line
    stroke-linecap="square"
    x1="151"
    y1="349"
    x2="151"
    y2="289"
    style="stroke:rgb(0, 0,0);
            stroke-width:4;
"
/>

<line
    stroke-linecap="square"
    x1="151"
    y1="289"
    x2="168"
    y2="289"
    style="stroke:rgb(0, 0,0);
            stroke-width:2;
                marker-end: url(#0,0,0)
            "
/>
    <text
        x="157"
        y="278"
        alignment-baseline="middle"
        font-family="Verdana"
        font-size="11"
        fill="black">
    0
    </text>

    <circle cx="151" cy="289" r="4" fill="black" />
<line
    stroke-linecap="square"
    x1="89"
    y1="289"
    x2="106"
    y2="289"
    style="stroke:rgb(0, 0,0);
            stroke-width:2;
"
/>
    <text
        x="92"
        y="282"
        alignment-baseline="middle"
        font-family="Verdana"
        font-size="11"
        fill="black">
    1
    </text>

<line
    stroke-linecap="square"
    x1="106"
    y1="289"
    x2="106"
    y2="309"
    style="stroke:rgb(0, 0,0);
            stroke-width:4;
"
/>

    <circle cx="106" cy="289" r="4" fill="black" />
<line
    stroke-linecap="square"
    x1="106"
    y1="309"
    x2="116"
    y2="309"
    style="stroke:rgb(0, 0,0);
            stroke-width:4;
"
/>

<line
    stroke-linecap="square"
    x1="116"
    y1="309"
    x2="116"
    y2="349"
    style="stroke:rgb(0, 0,0);
            stroke-width:4;
"
/>

    <circle cx="116" cy="309" r="4" fill="black" />
<line
    stroke-linecap="square"
    x1="116"
    y1="349"
    x2="151"
    y2="349"
    style="stroke:rgb(0, 0,0);
            stroke-width:4;
"
/>

    <circle cx="116" cy="349" r="4" fill="black" />
<line
    stroke-linecap="square"
    x1="151"
    y1="349"
    x2="151"
    y2="329"
    style="stroke:rgb(0, 0,0);
            stroke-width:4;
"
/>

<line
    stroke-linecap="square"
    x1="151"
    y1="329"
    x2="168"
    y2="329"
    style="stroke:rgb(0, 0,0);
            stroke-width:2;
                marker-end: url(#0,0,0)
            "
/>
    <text
        x="157"
        y="318"
        alignment-baseline="middle"
        font-family="Verdana"
        font-size="11"
        fill="black">
    1
    </text>

    <circle cx="151" cy="329" r="4" fill="black" />
<line
    stroke-linecap="square"
    x1="89"
    y1="369"
    x2="106"
    y2="369"
    style="stroke:rgb(0, 0,0);
            stroke-width:2;
"
/>
    <text
        x="92"
        y="362"
        alignment-baseline="middle"
        font-family="Verdana"
        font-size="11"
        fill="black">
    2
    </text>

<line
    stroke-linecap="square"
    x1="106"
    y1="369"
    x2="106"
    y2="309"
    style="stroke:rgb(0, 0,0);
            stroke-width:4;
"
/>

    <circle cx="106" cy="369" r="4" fill="black" />
<line
    stroke-linecap="square"
    x1="106"
    y1="309"
    x2="116"
    y2="309"
    style="stroke:rgb(0, 0,0);
            stroke-width:4;
"
/>

<line
    stroke-linecap="square"
    x1="116"
    y1="309"
    x2="116"
    y2="349"
    style="stroke:rgb(0, 0,0);
            stroke-width:4;
"
/>

    <circle cx="116" cy="309" r="4" fill="black" />
<line
    stroke-linecap="square"
    x1="116"
    y1="349"
    x2="151"
    y2="349"
    style="stroke:rgb(0, 0,0);
            stroke-width:4;
"
/>

    <circle cx="116" cy="349" r="4" fill="black" />
<line
    stroke-linecap="square"
    x1="151"
    y1="349"
    x2="151"
    y2="369"
    style="stroke:rgb(0, 0,0);
            stroke-width:4;
"
/>

<line
    stroke-linecap="square"
    x1="151"
    y1="369"
    x2="168"
    y2="369"
    style="stroke:rgb(0, 0,0);
            stroke-width:2;
                marker-end: url(#0,0,0)
            "
/>
    <text
        x="157"
        y="358"
        alignment-baseline="middle"
        font-family="Verdana"
        font-size="11"
        fill="black">
    2
    </text>

    <circle cx="151" cy="369" r="4" fill="black" />
<line
    stroke-linecap="square"
    x1="89"
    y1="409"
    x2="106"
    y2="409"
    style="stroke:rgb(0, 0,0);
            stroke-width:2;
"
/>
    <text
        x="92"
        y="402"
        alignment-baseline="middle"
        font-family="Verdana"
        font-size="11"
        fill="black">
    3
    </text>

<line
    stroke-linecap="square"
    x1="106"
    y1="409"
    x2="106"
    y2="309"
    style="stroke:rgb(0, 0,0);
            stroke-width:4;
"
/>

    <circle cx="106" cy="409" r="4" fill="black" />
<line
    stroke-linecap="square"
    x1="106"
    y1="309"
    x2="116"
    y2="309"
    style="stroke:rgb(0, 0,0);
            stroke-width:4;
"
/>

<line
    stroke-linecap="square"
    x1="116"
    y1="309"
    x2="116"
    y2="349"
    style="stroke:rgb(0, 0,0);
            stroke-width:4;
"
/>

    <circle cx="116" cy="309" r="4" fill="black" />
<line
    stroke-linecap="square"
    x1="116"
    y1="349"
    x2="151"
    y2="349"
    style="stroke:rgb(0, 0,0);
            stroke-width:4;
"
/>

    <circle cx="116" cy="349" r="4" fill="black" />
<line
    stroke-linecap="square"
    x1="151"
    y1="349"
    x2="151"
    y2="409"
    style="stroke:rgb(0, 0,0);
            stroke-width:4;
"
/>

<line
    stroke-linecap="square"
    x1="151"
    y1="409"
    x2="168"
    y2="409"
    style="stroke:rgb(0, 0,0);
            stroke-width:2;
                marker-end: url(#0,0,0)
            "
/>
    <text
        x="157"
        y="398"
        alignment-baseline="middle"
        font-family="Verdana"
        font-size="11"
        fill="black">
    3
    </text>

    <circle cx="151" cy="409" r="4" fill="black" />
<defs>
    <!-- Small box indicating a port -->
    <rect id="port" x="0" y="0" width="16" height="16"
          style="fill:white;stroke:rgb(0,0,0);stroke-width:1;fill-opacity:1.0;stroke-opacity:1.0"/>
</defs><use x="73" y="281" xlink:href="#port" />
<text text-anchor="end" alignment-baseline="middle" x="70" y="291" transform="rotate(0,70,291)" style="font-weight: regular" font-family="Verdana" font-size="9" fill="black">

</text>

<use x="233" y="79" xlink:href="#port" />
<text text-anchor="start" alignment-baseline="middle" x="253" y="89" transform="rotate(0,253,89)" style="font-weight: regular" font-family="Verdana" font-size="9" fill="black">

</text>

<use x="73" y="361" xlink:href="#port" />
<text text-anchor="end" alignment-baseline="middle" x="70" y="371" transform="rotate(0,70,371)" style="font-weight: regular" font-family="Verdana" font-size="9" fill="black">

</text>

<use x="233" y="119" xlink:href="#port" />
<text text-anchor="start" alignment-baseline="middle" x="253" y="129" transform="rotate(0,253,129)" style="font-weight: regular" font-family="Verdana" font-size="9" fill="black">

</text>

<use x="73" y="401" xlink:href="#port" />
<text text-anchor="end" alignment-baseline="middle" x="70" y="411" transform="rotate(0,70,411)" style="font-weight: regular" font-family="Verdana" font-size="9" fill="black">

</text>

<use x="233" y="159" xlink:href="#port" />
<text text-anchor="start" alignment-baseline="middle" x="253" y="169" transform="rotate(0,253,169)" style="font-weight: regular" font-family="Verdana" font-size="9" fill="black">

</text>

<use x="203" y="281" xlink:href="#port" />
<text text-anchor="end" alignment-baseline="middle" x="200" y="291" transform="rotate(0,200,291)" style="font-weight: regular" font-family="Verdana" font-size="9" fill="black">

</text>

<use x="233" y="281" xlink:href="#port" />
<text text-anchor="start" alignment-baseline="middle" x="253" y="291" transform="rotate(0,253,291)" style="font-weight: regular" font-family="Verdana" font-size="9" fill="black">

</text>

<use x="8" y="281" xlink:href="#port" />
<text text-anchor="end" alignment-baseline="middle" x="4" y="291" transform="rotate(0,4,291)" style="font-weight: regular" font-family="Verdana" font-size="9" fill="black">

</text>

<use x="38" y="281" xlink:href="#port" />
<text text-anchor="start" alignment-baseline="middle" x="57" y="291" transform="rotate(0,57,291)" style="font-weight: regular" font-family="Verdana" font-size="9" fill="black">

</text>

<use x="8" y="159" xlink:href="#port" />
<text text-anchor="end" alignment-baseline="middle" x="4" y="169" transform="rotate(0,4,169)" style="font-weight: regular" font-family="Verdana" font-size="9" fill="black">

</text>

<use x="38" y="159" xlink:href="#port" />
<text text-anchor="start" alignment-baseline="middle" x="57" y="169" transform="rotate(0,57,169)" style="font-weight: regular" font-family="Verdana" font-size="9" fill="black">

</text>

<use x="8" y="119" xlink:href="#port" />
<text text-anchor="end" alignment-baseline="middle" x="4" y="129" transform="rotate(0,4,129)" style="font-weight: regular" font-family="Verdana" font-size="9" fill="black">

</text>

<use x="38" y="119" xlink:href="#port" />
<text text-anchor="start" alignment-baseline="middle" x="57" y="129" transform="rotate(0,57,129)" style="font-weight: regular" font-family="Verdana" font-size="9" fill="black">

</text>

<use x="73" y="79" xlink:href="#port" />
<text text-anchor="end" alignment-baseline="middle" x="70" y="89" transform="rotate(0,70,89)" style="font-weight: regular" font-family="Verdana" font-size="9" fill="black">

</text>

<use x="168" y="281" xlink:href="#port" />
<text text-anchor="start" alignment-baseline="middle" x="187" y="291" transform="rotate(0,187,291)" style="font-weight: regular" font-family="Verdana" font-size="9" fill="black">

</text>

<use x="73" y="281" xlink:href="#port" />
<text text-anchor="end" alignment-baseline="middle" x="70" y="291" transform="rotate(0,70,291)" style="font-weight: regular" font-family="Verdana" font-size="9" fill="black">

</text>

<use x="168" y="321" xlink:href="#port" />
<text text-anchor="start" alignment-baseline="middle" x="187" y="331" transform="rotate(0,187,331)" style="font-weight: regular" font-family="Verdana" font-size="9" fill="black">

</text>

<use x="73" y="361" xlink:href="#port" />
<text text-anchor="end" alignment-baseline="middle" x="70" y="371" transform="rotate(0,70,371)" style="font-weight: regular" font-family="Verdana" font-size="9" fill="black">

</text>

<use x="168" y="361" xlink:href="#port" />
<text text-anchor="start" alignment-baseline="middle" x="187" y="371" transform="rotate(0,187,371)" style="font-weight: regular" font-family="Verdana" font-size="9" fill="black">

</text>

<use x="73" y="401" xlink:href="#port" />
<text text-anchor="end" alignment-baseline="middle" x="70" y="411" transform="rotate(0,70,411)" style="font-weight: regular" font-family="Verdana" font-size="9" fill="black">

</text>

<use x="168" y="401" xlink:href="#port" />
<text text-anchor="start" alignment-baseline="middle" x="187" y="411" transform="rotate(0,187,411)" style="font-weight: regular" font-family="Verdana" font-size="9" fill="black">

</text>


</svg>