<svg width="100%" height="100%" xmlns="http://www.w3.org/2000/svg" version="1.1" xmlns:xlink="http://www.w3.org/1999/xlink">
    <svg xmlns="http://www.w3.org/2000/svg" version="1.1">

<!-- Canvas: environment -->
<g transform="translate(16 20)">

    <rect
        id="16939"
        width="497"
        height="362"
        style="fill:white;stroke:black;stroke-width:2;fill-opacity:1.0;stroke-opacity:1.0"/>

    <text
        x="8"
        y="20"
        font-family="Verdana"
        fill="black">
            <tspan style="font-weight: bold" font-size="13">environment</tspan>
    </text>

</g>

</svg><!-- Component: physicsSimulation -->
<g transform="translate(66 52)">
    <rect
        data-name="testManuelSchrick.pumpStationExample.pumpStation.environment.physicsSimulation"
        id="16940"
        width="130"
        height="310"
        style="
                fill:white;
            stroke:black;
            stroke-width:2;
            fill-opacity:1.0;
            stroke-opacity:1.0"
        onmouseout="this.style.stroke = '#000000'; this.style['stroke-width'] = 2; this.style.cursor='default';"
    />

    <text
        x="10"
        y="15"
        alignment-baseline="middle"
        font-family="Verdana"
        fill="black">
            <tspan style="font-weight: bold" font-size="11">physicsSimulation</tspan>
    </text>

</g><!-- Component: simulationPanel -->
<g transform="translate(346 187)">
    <rect
        data-name="testManuelSchrick.pumpStationExample.pumpStation.environment.simulationPanel"
        id="16941"
        width="117"
        height="175"
        style="
                fill:white;
            stroke:black;
            stroke-width:2;
            fill-opacity:1.0;
            stroke-opacity:1.0"
        onmouseout="this.style.stroke = '#000000'; this.style['stroke-width'] = 2; this.style.cursor='default';"
    />

    <text
        x="10"
        y="15"
        alignment-baseline="middle"
        font-family="Verdana"
        fill="black">
            <tspan style="font-weight: bold" font-size="11">simulationPanel</tspan>
    </text>

</g><defs>
    <marker id="0,0,0" markerWidth="13" markerHeight="13" refX="5" refY="5" orient="auto">
            <polyline points="0,2 5,5 0,8" style="fill:none; stroke:rgb(0,0,0);
                    stroke-width:1" />
    </marker>
</defs><line
    stroke-linecap="square"
    x1="204"
    y1="222"
    x2="226"
    y2="222"
    style="stroke:rgb(0, 0,0);
            stroke-width:2;
"
/>
    <text
        x="207"
        y="215"
        alignment-baseline="middle"
        font-family="Verdana"
        font-size="11"
        fill="black">
    1
    </text>

<line
    stroke-linecap="square"
    x1="226"
    y1="222"
    x2="226"
    y2="242"
    style="stroke:rgb(0, 0,0);
            stroke-width:4;
"
/>

    <circle cx="226" cy="222" r="4" fill="black" />
<line
    stroke-linecap="square"
    x1="226"
    y1="242"
    x2="256"
    y2="242"
    style="stroke:rgb(0, 0,0);
            stroke-width:4;
"
/>

<line
    stroke-linecap="square"
    x1="256"
    y1="242"
    x2="256"
    y2="127"
    style="stroke:rgb(0, 0,0);
            stroke-width:4;
"
/>

    <circle cx="256" cy="242" r="4" fill="black" />
<line
    stroke-linecap="square"
    x1="256"
    y1="127"
    x2="463"
    y2="127"
    style="stroke:rgb(0, 0,0);
            stroke-width:4;
"
/>

    <circle cx="256" cy="127" r="4" fill="black" />
<line
    stroke-linecap="square"
    x1="463"
    y1="127"
    x2="463"
    y2="87"
    style="stroke:rgb(0, 0,0);
            stroke-width:4;
"
/>

<line
    stroke-linecap="square"
    x1="463"
    y1="87"
    x2="505"
    y2="87"
    style="stroke:rgb(0, 0,0);
            stroke-width:2;
                marker-end: url(#0,0,0)
            "
/>
    <text
        x="494"
        y="76"
        alignment-baseline="middle"
        font-family="Verdana"
        font-size="11"
        fill="black">
    1
    </text>

    <circle cx="463" cy="87" r="4" fill="black" />
<line
    stroke-linecap="square"
    x1="204"
    y1="302"
    x2="226"
    y2="302"
    style="stroke:rgb(0, 0,0);
            stroke-width:2;
"
/>
    <text
        x="207"
        y="295"
        alignment-baseline="middle"
        font-family="Verdana"
        font-size="11"
        fill="black">
    2
    </text>

<line
    stroke-linecap="square"
    x1="226"
    y1="302"
    x2="226"
    y2="242"
    style="stroke:rgb(0, 0,0);
            stroke-width:4;
"
/>

    <circle cx="226" cy="302" r="4" fill="black" />
<line
    stroke-linecap="square"
    x1="226"
    y1="242"
    x2="256"
    y2="242"
    style="stroke:rgb(0, 0,0);
            stroke-width:4;
"
/>

<line
    stroke-linecap="square"
    x1="256"
    y1="242"
    x2="256"
    y2="127"
    style="stroke:rgb(0, 0,0);
            stroke-width:4;
"
/>

    <circle cx="256" cy="242" r="4" fill="black" />
<line
    stroke-linecap="square"
    x1="256"
    y1="127"
    x2="463"
    y2="127"
    style="stroke:rgb(0, 0,0);
            stroke-width:4;
"
/>

    <circle cx="256" cy="127" r="4" fill="black" />
<line
    stroke-linecap="square"
    x1="463"
    y1="127"
    x2="463"
    y2="127"
    style="stroke:rgb(0, 0,0);
            stroke-width:4;
"
/>

<line
    stroke-linecap="square"
    x1="463"
    y1="127"
    x2="505"
    y2="127"
    style="stroke:rgb(0, 0,0);
            stroke-width:2;
                marker-end: url(#0,0,0)
            "
/>
    <text
        x="494"
        y="116"
        alignment-baseline="middle"
        font-family="Verdana"
        font-size="11"
        fill="black">
    2
    </text>

    <circle cx="463" cy="127" r="4" fill="black" />
<line
    stroke-linecap="square"
    x1="204"
    y1="342"
    x2="226"
    y2="342"
    style="stroke:rgb(0, 0,0);
            stroke-width:2;
"
/>
    <text
        x="207"
        y="335"
        alignment-baseline="middle"
        font-family="Verdana"
        font-size="11"
        fill="black">
    3
    </text>

<line
    stroke-linecap="square"
    x1="226"
    y1="342"
    x2="226"
    y2="242"
    style="stroke:rgb(0, 0,0);
            stroke-width:4;
"
/>

    <circle cx="226" cy="342" r="4" fill="black" />
<line
    stroke-linecap="square"
    x1="226"
    y1="242"
    x2="256"
    y2="242"
    style="stroke:rgb(0, 0,0);
            stroke-width:4;
"
/>

<line
    stroke-linecap="square"
    x1="256"
    y1="242"
    x2="256"
    y2="127"
    style="stroke:rgb(0, 0,0);
            stroke-width:4;
"
/>

    <circle cx="256" cy="242" r="4" fill="black" />
<line
    stroke-linecap="square"
    x1="256"
    y1="127"
    x2="463"
    y2="127"
    style="stroke:rgb(0, 0,0);
            stroke-width:4;
"
/>

    <circle cx="256" cy="127" r="4" fill="black" />
<line
    stroke-linecap="square"
    x1="463"
    y1="127"
    x2="463"
    y2="167"
    style="stroke:rgb(0, 0,0);
            stroke-width:4;
"
/>

<line
    stroke-linecap="square"
    x1="463"
    y1="167"
    x2="505"
    y2="167"
    style="stroke:rgb(0, 0,0);
            stroke-width:2;
                marker-end: url(#0,0,0)
            "
/>
    <text
        x="494"
        y="156"
        alignment-baseline="middle"
        font-family="Verdana"
        font-size="11"
        fill="black">
    3
    </text>

    <circle cx="463" cy="167" r="4" fill="black" />
<line
    stroke-linecap="square"
    x1="471"
    y1="222"
    x2="505"
    y2="222"
    style="stroke:rgb(0, 0,0);
            stroke-width:2;
                marker-end: url(#0,0,0)
            "
/>

<line
    stroke-linecap="square"
    x1="24"
    y1="222"
    x2="58"
    y2="222"
    style="stroke:rgb(0, 0,0);
            stroke-width:2;
                marker-end: url(#0,0,0)
            "
/>

<line
    stroke-linecap="square"
    x1="24"
    y1="167"
    x2="58"
    y2="167"
    style="stroke:rgb(0, 0,0);
            stroke-width:2;
                marker-end: url(#0,0,0)
            "
/>

<line
    stroke-linecap="square"
    x1="24"
    y1="127"
    x2="58"
    y2="127"
    style="stroke:rgb(0, 0,0);
            stroke-width:2;
                marker-end: url(#0,0,0)
            "
/>

<line
    stroke-linecap="square"
    x1="204"
    y1="87"
    x2="226"
    y2="87"
    style="stroke:rgb(0, 0,0);
            stroke-width:2;
"
/>
    <text
        x="207"
        y="80"
        alignment-baseline="middle"
        font-family="Verdana"
        font-size="11"
        fill="black">
    0
    </text>

<line
    stroke-linecap="square"
    x1="226"
    y1="87"
    x2="226"
    y2="242"
    style="stroke:rgb(0, 0,0);
            stroke-width:4;
"
/>

    <circle cx="226" cy="87" r="4" fill="black" />
<line
    stroke-linecap="square"
    x1="226"
    y1="242"
    x2="256"
    y2="242"
    style="stroke:rgb(0, 0,0);
            stroke-width:4;
"
/>

<line
    stroke-linecap="square"
    x1="256"
    y1="242"
    x2="256"
    y2="282"
    style="stroke:rgb(0, 0,0);
            stroke-width:4;
"
/>

    <circle cx="256" cy="242" r="4" fill="black" />
<line
    stroke-linecap="square"
    x1="256"
    y1="282"
    x2="316"
    y2="282"
    style="stroke:rgb(0, 0,0);
            stroke-width:4;
"
/>

    <circle cx="256" cy="282" r="4" fill="black" />
<line
    stroke-linecap="square"
    x1="316"
    y1="282"
    x2="316"
    y2="222"
    style="stroke:rgb(0, 0,0);
            stroke-width:4;
"
/>

<line
    stroke-linecap="square"
    x1="316"
    y1="222"
    x2="338"
    y2="222"
    style="stroke:rgb(0, 0,0);
            stroke-width:2;
                marker-end: url(#0,0,0)
            "
/>
    <text
        x="327"
        y="211"
        alignment-baseline="middle"
        font-family="Verdana"
        font-size="11"
        fill="black">
    0
    </text>

    <circle cx="316" cy="222" r="4" fill="black" />
<line
    stroke-linecap="square"
    x1="204"
    y1="222"
    x2="226"
    y2="222"
    style="stroke:rgb(0, 0,0);
            stroke-width:2;
"
/>
    <text
        x="207"
        y="215"
        alignment-baseline="middle"
        font-family="Verdana"
        font-size="11"
        fill="black">
    1
    </text>

<line
    stroke-linecap="square"
    x1="226"
    y1="222"
    x2="226"
    y2="242"
    style="stroke:rgb(0, 0,0);
            stroke-width:4;
"
/>

    <circle cx="226" cy="222" r="4" fill="black" />
<line
    stroke-linecap="square"
    x1="226"
    y1="242"
    x2="256"
    y2="242"
    style="stroke:rgb(0, 0,0);
            stroke-width:4;
"
/>

<line
    stroke-linecap="square"
    x1="256"
    y1="242"
    x2="256"
    y2="282"
    style="stroke:rgb(0, 0,0);
            stroke-width:4;
"
/>

    <circle cx="256" cy="242" r="4" fill="black" />
<line
    stroke-linecap="square"
    x1="256"
    y1="282"
    x2="316"
    y2="282"
    style="stroke:rgb(0, 0,0);
            stroke-width:4;
"
/>

    <circle cx="256" cy="282" r="4" fill="black" />
<line
    stroke-linecap="square"
    x1="316"
    y1="282"
    x2="316"
    y2="262"
    style="stroke:rgb(0, 0,0);
            stroke-width:4;
"
/>

<line
    stroke-linecap="square"
    x1="316"
    y1="262"
    x2="338"
    y2="262"
    style="stroke:rgb(0, 0,0);
            stroke-width:2;
                marker-end: url(#0,0,0)
            "
/>
    <text
        x="327"
        y="251"
        alignment-baseline="middle"
        font-family="Verdana"
        font-size="11"
        fill="black">
    1
    </text>

    <circle cx="316" cy="262" r="4" fill="black" />
<line
    stroke-linecap="square"
    x1="204"
    y1="302"
    x2="226"
    y2="302"
    style="stroke:rgb(0, 0,0);
            stroke-width:2;
"
/>
    <text
        x="207"
        y="295"
        alignment-baseline="middle"
        font-family="Verdana"
        font-size="11"
        fill="black">
    2
    </text>

<line
    stroke-linecap="square"
    x1="226"
    y1="302"
    x2="226"
    y2="242"
    style="stroke:rgb(0, 0,0);
            stroke-width:4;
"
/>

    <circle cx="226" cy="302" r="4" fill="black" />
<line
    stroke-linecap="square"
    x1="226"
    y1="242"
    x2="256"
    y2="242"
    style="stroke:rgb(0, 0,0);
            stroke-width:4;
"
/>

<line
    stroke-linecap="square"
    x1="256"
    y1="242"
    x2="256"
    y2="282"
    style="stroke:rgb(0, 0,0);
            stroke-width:4;
"
/>

    <circle cx="256" cy="242" r="4" fill="black" />
<line
    stroke-linecap="square"
    x1="256"
    y1="282"
    x2="316"
    y2="282"
    style="stroke:rgb(0, 0,0);
            stroke-width:4;
"
/>

    <circle cx="256" cy="282" r="4" fill="black" />
<line
    stroke-linecap="square"
    x1="316"
    y1="282"
    x2="316"
    y2="302"
    style="stroke:rgb(0, 0,0);
            stroke-width:4;
"
/>

<line
    stroke-linecap="square"
    x1="316"
    y1="302"
    x2="338"
    y2="302"
    style="stroke:rgb(0, 0,0);
            stroke-width:2;
                marker-end: url(#0,0,0)
            "
/>
    <text
        x="327"
        y="291"
        alignment-baseline="middle"
        font-family="Verdana"
        font-size="11"
        fill="black">
    2
    </text>

    <circle cx="316" cy="302" r="4" fill="black" />
<line
    stroke-linecap="square"
    x1="204"
    y1="342"
    x2="226"
    y2="342"
    style="stroke:rgb(0, 0,0);
            stroke-width:2;
"
/>
    <text
        x="207"
        y="335"
        alignment-baseline="middle"
        font-family="Verdana"
        font-size="11"
        fill="black">
    3
    </text>

<line
    stroke-linecap="square"
    x1="226"
    y1="342"
    x2="226"
    y2="242"
    style="stroke:rgb(0, 0,0);
            stroke-width:4;
"
/>

    <circle cx="226" cy="342" r="4" fill="black" />
<line
    stroke-linecap="square"
    x1="226"
    y1="242"
    x2="256"
    y2="242"
    style="stroke:rgb(0, 0,0);
            stroke-width:4;
"
/>

<line
    stroke-linecap="square"
    x1="256"
    y1="242"
    x2="256"
    y2="282"
    style="stroke:rgb(0, 0,0);
            stroke-width:4;
"
/>

    <circle cx="256" cy="242" r="4" fill="black" />
<line
    stroke-linecap="square"
    x1="256"
    y1="282"
    x2="316"
    y2="282"
    style="stroke:rgb(0, 0,0);
            stroke-width:4;
"
/>

    <circle cx="256" cy="282" r="4" fill="black" />
<line
    stroke-linecap="square"
    x1="316"
    y1="282"
    x2="316"
    y2="342"
    style="stroke:rgb(0, 0,0);
            stroke-width:4;
"
/>

<line
    stroke-linecap="square"
    x1="316"
    y1="342"
    x2="338"
    y2="342"
    style="stroke:rgb(0, 0,0);
            stroke-width:2;
                marker-end: url(#0,0,0)
            "
/>
    <text
        x="327"
        y="331"
        alignment-baseline="middle"
        font-family="Verdana"
        font-size="11"
        fill="black">
    3
    </text>

    <circle cx="316" cy="342" r="4" fill="black" />
<defs>
    <!-- Small box indicating a port -->
    <rect id="port" x="0" y="0" width="16" height="16"
          style="fill:white;stroke:rgb(0,0,0);stroke-width:1;fill-opacity:1.0;stroke-opacity:1.0"/>
</defs><use x="188" y="214" xlink:href="#port" />
<text text-anchor="end" alignment-baseline="middle" x="185" y="224" transform="rotate(0,185,224)" style="font-weight: regular" font-family="Verdana" font-size="9" fill="black">

</text>

<use x="505" y="79" xlink:href="#port" />
<text text-anchor="start" alignment-baseline="middle" x="525" y="89" transform="rotate(0,525,89)" style="font-weight: regular" font-family="Verdana" font-size="9" fill="black">

</text>

<use x="188" y="294" xlink:href="#port" />
<text text-anchor="end" alignment-baseline="middle" x="185" y="304" transform="rotate(0,185,304)" style="font-weight: regular" font-family="Verdana" font-size="9" fill="black">

</text>

<use x="505" y="119" xlink:href="#port" />
<text text-anchor="start" alignment-baseline="middle" x="525" y="129" transform="rotate(0,525,129)" style="font-weight: regular" font-family="Verdana" font-size="9" fill="black">

</text>

<use x="188" y="334" xlink:href="#port" />
<text text-anchor="end" alignment-baseline="middle" x="185" y="344" transform="rotate(0,185,344)" style="font-weight: regular" font-family="Verdana" font-size="9" fill="black">

</text>

<use x="505" y="159" xlink:href="#port" />
<text text-anchor="start" alignment-baseline="middle" x="525" y="169" transform="rotate(0,525,169)" style="font-weight: regular" font-family="Verdana" font-size="9" fill="black">

</text>

<use x="455" y="214" xlink:href="#port" />
<text text-anchor="end" alignment-baseline="middle" x="452" y="224" transform="rotate(0,452,224)" style="font-weight: regular" font-family="Verdana" font-size="9" fill="black">

</text>

<use x="505" y="214" xlink:href="#port" />
<text text-anchor="start" alignment-baseline="middle" x="525" y="224" transform="rotate(0,525,224)" style="font-weight: regular" font-family="Verdana" font-size="9" fill="black">

</text>

<use x="8" y="214" xlink:href="#port" />
<text text-anchor="end" alignment-baseline="middle" x="4" y="224" transform="rotate(0,4,224)" style="font-weight: regular" font-family="Verdana" font-size="9" fill="black">

</text>

<use x="58" y="214" xlink:href="#port" />
<text text-anchor="start" alignment-baseline="middle" x="77" y="224" transform="rotate(0,77,224)" style="font-weight: regular" font-family="Verdana" font-size="9" fill="black">

</text>

<use x="8" y="159" xlink:href="#port" />
<text text-anchor="end" alignment-baseline="middle" x="4" y="169" transform="rotate(0,4,169)" style="font-weight: regular" font-family="Verdana" font-size="9" fill="black">

</text>

<use x="58" y="159" xlink:href="#port" />
<text text-anchor="start" alignment-baseline="middle" x="77" y="169" transform="rotate(0,77,169)" style="font-weight: regular" font-family="Verdana" font-size="9" fill="black">

</text>

<use x="8" y="119" xlink:href="#port" />
<text text-anchor="end" alignment-baseline="middle" x="4" y="129" transform="rotate(0,4,129)" style="font-weight: regular" font-family="Verdana" font-size="9" fill="black">

</text>

<use x="58" y="119" xlink:href="#port" />
<text text-anchor="start" alignment-baseline="middle" x="77" y="129" transform="rotate(0,77,129)" style="font-weight: regular" font-family="Verdana" font-size="9" fill="black">

</text>

<use x="188" y="79" xlink:href="#port" />
<text text-anchor="end" alignment-baseline="middle" x="185" y="89" transform="rotate(0,185,89)" style="font-weight: regular" font-family="Verdana" font-size="9" fill="black">

</text>

<use x="338" y="214" xlink:href="#port" />
<text text-anchor="start" alignment-baseline="middle" x="357" y="224" transform="rotate(0,357,224)" style="font-weight: regular" font-family="Verdana" font-size="9" fill="black">

</text>

<use x="188" y="214" xlink:href="#port" />
<text text-anchor="end" alignment-baseline="middle" x="185" y="224" transform="rotate(0,185,224)" style="font-weight: regular" font-family="Verdana" font-size="9" fill="black">

</text>

<use x="338" y="254" xlink:href="#port" />
<text text-anchor="start" alignment-baseline="middle" x="357" y="264" transform="rotate(0,357,264)" style="font-weight: regular" font-family="Verdana" font-size="9" fill="black">

</text>

<use x="188" y="294" xlink:href="#port" />
<text text-anchor="end" alignment-baseline="middle" x="185" y="304" transform="rotate(0,185,304)" style="font-weight: regular" font-family="Verdana" font-size="9" fill="black">

</text>

<use x="338" y="294" xlink:href="#port" />
<text text-anchor="start" alignment-baseline="middle" x="357" y="304" transform="rotate(0,357,304)" style="font-weight: regular" font-family="Verdana" font-size="9" fill="black">

</text>

<use x="188" y="334" xlink:href="#port" />
<text text-anchor="end" alignment-baseline="middle" x="185" y="344" transform="rotate(0,185,344)" style="font-weight: regular" font-family="Verdana" font-size="9" fill="black">

</text>

<use x="338" y="334" xlink:href="#port" />
<text text-anchor="start" alignment-baseline="middle" x="357" y="344" transform="rotate(0,357,344)" style="font-weight: regular" font-family="Verdana" font-size="9" fill="black">

</text>


</svg>