<svg width="100%" height="100%" xmlns="http://www.w3.org/2000/svg" version="1.1" xmlns:xlink="http://www.w3.org/1999/xlink">
    <svg xmlns="http://www.w3.org/2000/svg" version="1.1">

<!-- Canvas: environment -->
<g transform="translate(16 20)">

    <rect
        id="2083"
        width="730"
        height="430"
        style="fill:white;stroke:black;stroke-width:2;fill-opacity:1.0;stroke-opacity:1.0"/>

    <text
        x="8"
        y="20"
        font-family="Verdana"
        fill="black">
            <tspan style="font-weight: bold" font-size="13">environment</tspan>
    </text>

</g>

</svg><!-- Component: physicsSimulation -->
<g transform="translate(66 120)">
    <rect
        data-name="testManuelSchrick.pumpStationExample.pumpStation.environment.physicsSimulation"
        id="2084"
        width="255"
        height="310"
        style="
                fill:white;
            stroke:black;
            stroke-width:2;
            fill-opacity:1.0;
            stroke-opacity:1.0"
        onmouseout="this.style.stroke = '#000000'; this.style['stroke-width'] = 2; this.style.cursor='default';"
    />

    <text
        x="10"
        y="15"
        alignment-baseline="middle"
        font-family="Verdana"
        fill="black">
            <tspan style="font-weight: bold" font-size="11">physicsSimulation</tspan>
    </text>

</g><!-- Component: simulationPanel -->
<g transform="translate(471 255)">
    <rect
        data-name="testManuelSchrick.pumpStationExample.pumpStation.environment.simulationPanel"
        id="2085"
        width="225"
        height="175"
        style="
                fill:white;
            stroke:black;
            stroke-width:2;
            fill-opacity:1.0;
            stroke-opacity:1.0"
        onmouseout="this.style.stroke = '#000000'; this.style['stroke-width'] = 2; this.style.cursor='default';"
    />

    <text
        x="10"
        y="15"
        alignment-baseline="middle"
        font-family="Verdana"
        fill="black">
            <tspan style="font-weight: bold" font-size="11">simulationPanel</tspan>
    </text>

</g><defs>
    <marker id="0,0,0" markerWidth="13" markerHeight="13" refX="5" refY="5" orient="auto">
            <polyline points="0,2 5,5 0,8" style="fill:none; stroke:rgb(0,0,0);
                    stroke-width:1" />
    </marker>
</defs><line
    stroke-linecap="square"
    x1="329"
    y1="195"
    x2="351"
    y2="195"
    style="stroke:rgb(0, 0,0);
            stroke-width:2;
"
/>
    <text
        x="332"
        y="188"
        alignment-baseline="middle"
        font-family="Verdana"
        font-size="11"
        fill="black">
    1
    </text>

<line
    stroke-linecap="square"
    x1="351"
    y1="195"
    x2="351"
    y2="262"
    style="stroke:rgb(0, 0,0);
            stroke-width:4;
"
/>

    <circle cx="351" cy="195" r="4" fill="black" />
<line
    stroke-linecap="square"
    x1="351"
    y1="262"
    x2="381"
    y2="262"
    style="stroke:rgb(0, 0,0);
            stroke-width:4;
"
/>

<line
    stroke-linecap="square"
    x1="381"
    y1="262"
    x2="381"
    y2="195"
    style="stroke:rgb(0, 0,0);
            stroke-width:4;
"
/>

    <circle cx="381" cy="262" r="4" fill="black" />
<line
    stroke-linecap="square"
    x1="381"
    y1="195"
    x2="696"
    y2="195"
    style="stroke:rgb(0, 0,0);
            stroke-width:4;
"
/>

    <circle cx="381" cy="195" r="4" fill="black" />
<line
    stroke-linecap="square"
    x1="696"
    y1="195"
    x2="696"
    y2="155"
    style="stroke:rgb(0, 0,0);
            stroke-width:4;
"
/>

<line
    stroke-linecap="square"
    x1="696"
    y1="155"
    x2="738"
    y2="155"
    style="stroke:rgb(0, 0,0);
            stroke-width:2;
                marker-end: url(#0,0,0)
            "
/>
    <text
        x="727"
        y="144"
        alignment-baseline="middle"
        font-family="Verdana"
        font-size="11"
        fill="black">
    1
    </text>

    <circle cx="696" cy="155" r="4" fill="black" />
<line
    stroke-linecap="square"
    x1="329"
    y1="290"
    x2="351"
    y2="290"
    style="stroke:rgb(0, 0,0);
            stroke-width:2;
"
/>
    <text
        x="332"
        y="283"
        alignment-baseline="middle"
        font-family="Verdana"
        font-size="11"
        fill="black">
    2
    </text>

<line
    stroke-linecap="square"
    x1="351"
    y1="290"
    x2="351"
    y2="262"
    style="stroke:rgb(0, 0,0);
            stroke-width:4;
"
/>

    <circle cx="351" cy="290" r="4" fill="black" />
<line
    stroke-linecap="square"
    x1="351"
    y1="262"
    x2="381"
    y2="262"
    style="stroke:rgb(0, 0,0);
            stroke-width:4;
"
/>

<line
    stroke-linecap="square"
    x1="381"
    y1="262"
    x2="381"
    y2="195"
    style="stroke:rgb(0, 0,0);
            stroke-width:4;
"
/>

    <circle cx="381" cy="262" r="4" fill="black" />
<line
    stroke-linecap="square"
    x1="381"
    y1="195"
    x2="696"
    y2="195"
    style="stroke:rgb(0, 0,0);
            stroke-width:4;
"
/>

    <circle cx="381" cy="195" r="4" fill="black" />
<line
    stroke-linecap="square"
    x1="696"
    y1="195"
    x2="696"
    y2="195"
    style="stroke:rgb(0, 0,0);
            stroke-width:4;
"
/>

<line
    stroke-linecap="square"
    x1="696"
    y1="195"
    x2="738"
    y2="195"
    style="stroke:rgb(0, 0,0);
            stroke-width:2;
                marker-end: url(#0,0,0)
            "
/>
    <text
        x="727"
        y="184"
        alignment-baseline="middle"
        font-family="Verdana"
        font-size="11"
        fill="black">
    2
    </text>

    <circle cx="696" cy="195" r="4" fill="black" />
<line
    stroke-linecap="square"
    x1="329"
    y1="410"
    x2="351"
    y2="410"
    style="stroke:rgb(0, 0,0);
            stroke-width:2;
"
/>
    <text
        x="332"
        y="403"
        alignment-baseline="middle"
        font-family="Verdana"
        font-size="11"
        fill="black">
    3
    </text>

<line
    stroke-linecap="square"
    x1="351"
    y1="410"
    x2="351"
    y2="262"
    style="stroke:rgb(0, 0,0);
            stroke-width:4;
"
/>

    <circle cx="351" cy="410" r="4" fill="black" />
<line
    stroke-linecap="square"
    x1="351"
    y1="262"
    x2="381"
    y2="262"
    style="stroke:rgb(0, 0,0);
            stroke-width:4;
"
/>

<line
    stroke-linecap="square"
    x1="381"
    y1="262"
    x2="381"
    y2="195"
    style="stroke:rgb(0, 0,0);
            stroke-width:4;
"
/>

    <circle cx="381" cy="262" r="4" fill="black" />
<line
    stroke-linecap="square"
    x1="381"
    y1="195"
    x2="696"
    y2="195"
    style="stroke:rgb(0, 0,0);
            stroke-width:4;
"
/>

    <circle cx="381" cy="195" r="4" fill="black" />
<line
    stroke-linecap="square"
    x1="696"
    y1="195"
    x2="696"
    y2="235"
    style="stroke:rgb(0, 0,0);
            stroke-width:4;
"
/>

<line
    stroke-linecap="square"
    x1="696"
    y1="235"
    x2="738"
    y2="235"
    style="stroke:rgb(0, 0,0);
            stroke-width:2;
                marker-end: url(#0,0,0)
            "
/>
    <text
        x="727"
        y="224"
        alignment-baseline="middle"
        font-family="Verdana"
        font-size="11"
        fill="black">
    3
    </text>

    <circle cx="696" cy="235" r="4" fill="black" />
<line
    stroke-linecap="square"
    x1="704"
    y1="290"
    x2="738"
    y2="290"
    style="stroke:rgb(0, 0,0);
            stroke-width:2;
                marker-end: url(#0,0,0)
            "
/>

<line
    stroke-linecap="square"
    x1="24"
    y1="290"
    x2="58"
    y2="290"
    style="stroke:rgb(0, 0,0);
            stroke-width:2;
                marker-end: url(#0,0,0)
            "
/>

<line
    stroke-linecap="square"
    x1="24"
    y1="235"
    x2="58"
    y2="235"
    style="stroke:rgb(0, 0,0);
            stroke-width:2;
                marker-end: url(#0,0,0)
            "
/>

<line
    stroke-linecap="square"
    x1="24"
    y1="195"
    x2="58"
    y2="195"
    style="stroke:rgb(0, 0,0);
            stroke-width:2;
                marker-end: url(#0,0,0)
            "
/>

<line
    stroke-linecap="square"
    x1="329"
    y1="155"
    x2="351"
    y2="155"
    style="stroke:rgb(0, 0,0);
            stroke-width:2;
"
/>
    <text
        x="332"
        y="148"
        alignment-baseline="middle"
        font-family="Verdana"
        font-size="11"
        fill="black">
    0
    </text>

<line
    stroke-linecap="square"
    x1="351"
    y1="155"
    x2="351"
    y2="262"
    style="stroke:rgb(0, 0,0);
            stroke-width:4;
"
/>

    <circle cx="351" cy="155" r="4" fill="black" />
<line
    stroke-linecap="square"
    x1="351"
    y1="262"
    x2="381"
    y2="262"
    style="stroke:rgb(0, 0,0);
            stroke-width:4;
"
/>

<line
    stroke-linecap="square"
    x1="381"
    y1="262"
    x2="381"
    y2="350"
    style="stroke:rgb(0, 0,0);
            stroke-width:4;
"
/>

    <circle cx="381" cy="262" r="4" fill="black" />
<line
    stroke-linecap="square"
    x1="381"
    y1="350"
    x2="441"
    y2="350"
    style="stroke:rgb(0, 0,0);
            stroke-width:4;
"
/>

    <circle cx="381" cy="350" r="4" fill="black" />
<line
    stroke-linecap="square"
    x1="441"
    y1="350"
    x2="441"
    y2="290"
    style="stroke:rgb(0, 0,0);
            stroke-width:4;
"
/>

<line
    stroke-linecap="square"
    x1="441"
    y1="290"
    x2="463"
    y2="290"
    style="stroke:rgb(0, 0,0);
            stroke-width:2;
                marker-end: url(#0,0,0)
            "
/>
    <text
        x="452"
        y="279"
        alignment-baseline="middle"
        font-family="Verdana"
        font-size="11"
        fill="black">
    0
    </text>

    <circle cx="441" cy="290" r="4" fill="black" />
<line
    stroke-linecap="square"
    x1="329"
    y1="195"
    x2="351"
    y2="195"
    style="stroke:rgb(0, 0,0);
            stroke-width:2;
"
/>
    <text
        x="332"
        y="188"
        alignment-baseline="middle"
        font-family="Verdana"
        font-size="11"
        fill="black">
    1
    </text>

<line
    stroke-linecap="square"
    x1="351"
    y1="195"
    x2="351"
    y2="262"
    style="stroke:rgb(0, 0,0);
            stroke-width:4;
"
/>

    <circle cx="351" cy="195" r="4" fill="black" />
<line
    stroke-linecap="square"
    x1="351"
    y1="262"
    x2="381"
    y2="262"
    style="stroke:rgb(0, 0,0);
            stroke-width:4;
"
/>

<line
    stroke-linecap="square"
    x1="381"
    y1="262"
    x2="381"
    y2="350"
    style="stroke:rgb(0, 0,0);
            stroke-width:4;
"
/>

    <circle cx="381" cy="262" r="4" fill="black" />
<line
    stroke-linecap="square"
    x1="381"
    y1="350"
    x2="441"
    y2="350"
    style="stroke:rgb(0, 0,0);
            stroke-width:4;
"
/>

    <circle cx="381" cy="350" r="4" fill="black" />
<line
    stroke-linecap="square"
    x1="441"
    y1="350"
    x2="441"
    y2="330"
    style="stroke:rgb(0, 0,0);
            stroke-width:4;
"
/>

<line
    stroke-linecap="square"
    x1="441"
    y1="330"
    x2="463"
    y2="330"
    style="stroke:rgb(0, 0,0);
            stroke-width:2;
                marker-end: url(#0,0,0)
            "
/>
    <text
        x="452"
        y="319"
        alignment-baseline="middle"
        font-family="Verdana"
        font-size="11"
        fill="black">
    1
    </text>

    <circle cx="441" cy="330" r="4" fill="black" />
<line
    stroke-linecap="square"
    x1="329"
    y1="290"
    x2="351"
    y2="290"
    style="stroke:rgb(0, 0,0);
            stroke-width:2;
"
/>
    <text
        x="332"
        y="283"
        alignment-baseline="middle"
        font-family="Verdana"
        font-size="11"
        fill="black">
    2
    </text>

<line
    stroke-linecap="square"
    x1="351"
    y1="290"
    x2="351"
    y2="262"
    style="stroke:rgb(0, 0,0);
            stroke-width:4;
"
/>

    <circle cx="351" cy="290" r="4" fill="black" />
<line
    stroke-linecap="square"
    x1="351"
    y1="262"
    x2="381"
    y2="262"
    style="stroke:rgb(0, 0,0);
            stroke-width:4;
"
/>

<line
    stroke-linecap="square"
    x1="381"
    y1="262"
    x2="381"
    y2="350"
    style="stroke:rgb(0, 0,0);
            stroke-width:4;
"
/>

    <circle cx="381" cy="262" r="4" fill="black" />
<line
    stroke-linecap="square"
    x1="381"
    y1="350"
    x2="441"
    y2="350"
    style="stroke:rgb(0, 0,0);
            stroke-width:4;
"
/>

    <circle cx="381" cy="350" r="4" fill="black" />
<line
    stroke-linecap="square"
    x1="441"
    y1="350"
    x2="441"
    y2="370"
    style="stroke:rgb(0, 0,0);
            stroke-width:4;
"
/>

<line
    stroke-linecap="square"
    x1="441"
    y1="370"
    x2="463"
    y2="370"
    style="stroke:rgb(0, 0,0);
            stroke-width:2;
                marker-end: url(#0,0,0)
            "
/>
    <text
        x="452"
        y="359"
        alignment-baseline="middle"
        font-family="Verdana"
        font-size="11"
        fill="black">
    2
    </text>

    <circle cx="441" cy="370" r="4" fill="black" />
<line
    stroke-linecap="square"
    x1="329"
    y1="410"
    x2="351"
    y2="410"
    style="stroke:rgb(0, 0,0);
            stroke-width:2;
"
/>
    <text
        x="332"
        y="403"
        alignment-baseline="middle"
        font-family="Verdana"
        font-size="11"
        fill="black">
    3
    </text>

<line
    stroke-linecap="square"
    x1="351"
    y1="410"
    x2="351"
    y2="262"
    style="stroke:rgb(0, 0,0);
            stroke-width:4;
"
/>

    <circle cx="351" cy="410" r="4" fill="black" />
<line
    stroke-linecap="square"
    x1="351"
    y1="262"
    x2="381"
    y2="262"
    style="stroke:rgb(0, 0,0);
            stroke-width:4;
"
/>

<line
    stroke-linecap="square"
    x1="381"
    y1="262"
    x2="381"
    y2="350"
    style="stroke:rgb(0, 0,0);
            stroke-width:4;
"
/>

    <circle cx="381" cy="262" r="4" fill="black" />
<line
    stroke-linecap="square"
    x1="381"
    y1="350"
    x2="441"
    y2="350"
    style="stroke:rgb(0, 0,0);
            stroke-width:4;
"
/>

    <circle cx="381" cy="350" r="4" fill="black" />
<line
    stroke-linecap="square"
    x1="441"
    y1="350"
    x2="441"
    y2="410"
    style="stroke:rgb(0, 0,0);
            stroke-width:4;
"
/>

<line
    stroke-linecap="square"
    x1="441"
    y1="410"
    x2="463"
    y2="410"
    style="stroke:rgb(0, 0,0);
            stroke-width:2;
                marker-end: url(#0,0,0)
            "
/>
    <text
        x="452"
        y="399"
        alignment-baseline="middle"
        font-family="Verdana"
        font-size="11"
        fill="black">
    3
    </text>

    <circle cx="441" cy="410" r="4" fill="black" />
<defs>
    <!-- Small box indicating a port -->
    <rect id="port" x="0" y="0" width="16" height="16"
          style="fill:white;stroke:rgb(0,0,0);stroke-width:1;fill-opacity:1.0;stroke-opacity:1.0"/>
</defs><use x="313" y="187" xlink:href="#port" />
<text text-anchor="end" alignment-baseline="middle" x="310" y="197" transform="rotate(0,310,197)" style="font-weight: regular" font-family="Verdana" font-size="9" fill="black">

</text>

<use x="738" y="147" xlink:href="#port" />
<text text-anchor="start" alignment-baseline="middle" x="758" y="157" transform="rotate(0,758,157)" style="font-weight: regular" font-family="Verdana" font-size="9" fill="black">

</text>

<use x="313" y="282" xlink:href="#port" />
<text text-anchor="end" alignment-baseline="middle" x="310" y="292" transform="rotate(0,310,292)" style="font-weight: regular" font-family="Verdana" font-size="9" fill="black">

</text>

<use x="738" y="187" xlink:href="#port" />
<text text-anchor="start" alignment-baseline="middle" x="758" y="197" transform="rotate(0,758,197)" style="font-weight: regular" font-family="Verdana" font-size="9" fill="black">

</text>

<use x="313" y="402" xlink:href="#port" />
<text text-anchor="end" alignment-baseline="middle" x="310" y="412" transform="rotate(0,310,412)" style="font-weight: regular" font-family="Verdana" font-size="9" fill="black">

</text>

<use x="738" y="227" xlink:href="#port" />
<text text-anchor="start" alignment-baseline="middle" x="758" y="237" transform="rotate(0,758,237)" style="font-weight: regular" font-family="Verdana" font-size="9" fill="black">

</text>

<use x="688" y="282" xlink:href="#port" />
<text text-anchor="end" alignment-baseline="middle" x="685" y="292" transform="rotate(0,685,292)" style="font-weight: regular" font-family="Verdana" font-size="9" fill="black">

</text>

<use x="738" y="282" xlink:href="#port" />
<text text-anchor="start" alignment-baseline="middle" x="758" y="292" transform="rotate(0,758,292)" style="font-weight: regular" font-family="Verdana" font-size="9" fill="black">

</text>

<use x="8" y="282" xlink:href="#port" />
<text text-anchor="end" alignment-baseline="middle" x="4" y="292" transform="rotate(0,4,292)" style="font-weight: regular" font-family="Verdana" font-size="9" fill="black">

</text>

<use x="58" y="282" xlink:href="#port" />
<text text-anchor="start" alignment-baseline="middle" x="77" y="292" transform="rotate(0,77,292)" style="font-weight: regular" font-family="Verdana" font-size="9" fill="black">

</text>

<use x="8" y="227" xlink:href="#port" />
<text text-anchor="end" alignment-baseline="middle" x="4" y="237" transform="rotate(0,4,237)" style="font-weight: regular" font-family="Verdana" font-size="9" fill="black">

</text>

<use x="58" y="227" xlink:href="#port" />
<text text-anchor="start" alignment-baseline="middle" x="77" y="237" transform="rotate(0,77,237)" style="font-weight: regular" font-family="Verdana" font-size="9" fill="black">

</text>

<use x="8" y="187" xlink:href="#port" />
<text text-anchor="end" alignment-baseline="middle" x="4" y="197" transform="rotate(0,4,197)" style="font-weight: regular" font-family="Verdana" font-size="9" fill="black">

</text>

<use x="58" y="187" xlink:href="#port" />
<text text-anchor="start" alignment-baseline="middle" x="77" y="197" transform="rotate(0,77,197)" style="font-weight: regular" font-family="Verdana" font-size="9" fill="black">

</text>

<use x="313" y="147" xlink:href="#port" />
<text text-anchor="end" alignment-baseline="middle" x="310" y="157" transform="rotate(0,310,157)" style="font-weight: regular" font-family="Verdana" font-size="9" fill="black">

</text>

<use x="463" y="282" xlink:href="#port" />
<text text-anchor="start" alignment-baseline="middle" x="482" y="292" transform="rotate(0,482,292)" style="font-weight: regular" font-family="Verdana" font-size="9" fill="black">

</text>

<use x="313" y="187" xlink:href="#port" />
<text text-anchor="end" alignment-baseline="middle" x="310" y="197" transform="rotate(0,310,197)" style="font-weight: regular" font-family="Verdana" font-size="9" fill="black">

</text>

<use x="463" y="322" xlink:href="#port" />
<text text-anchor="start" alignment-baseline="middle" x="482" y="332" transform="rotate(0,482,332)" style="font-weight: regular" font-family="Verdana" font-size="9" fill="black">

</text>

<use x="313" y="282" xlink:href="#port" />
<text text-anchor="end" alignment-baseline="middle" x="310" y="292" transform="rotate(0,310,292)" style="font-weight: regular" font-family="Verdana" font-size="9" fill="black">

</text>

<use x="463" y="362" xlink:href="#port" />
<text text-anchor="start" alignment-baseline="middle" x="482" y="372" transform="rotate(0,482,372)" style="font-weight: regular" font-family="Verdana" font-size="9" fill="black">

</text>

<use x="313" y="402" xlink:href="#port" />
<text text-anchor="end" alignment-baseline="middle" x="310" y="412" transform="rotate(0,310,412)" style="font-weight: regular" font-family="Verdana" font-size="9" fill="black">

</text>

<use x="463" y="402" xlink:href="#port" />
<text text-anchor="start" alignment-baseline="middle" x="482" y="412" transform="rotate(0,482,412)" style="font-weight: regular" font-family="Verdana" font-size="9" fill="black">

</text>


</svg>