<svg width="100%" height="100%" xmlns="http://www.w3.org/2000/svg" version="1.1" xmlns:xlink="http://www.w3.org/1999/xlink">
    <svg xmlns="http://www.w3.org/2000/svg" version="1.1">

<!-- Canvas: environment -->
<g transform="translate(176 20)">

    <rect
        id="2061"
        width="795"
        height="430"
        style="fill:white;stroke:black;stroke-width:2;fill-opacity:1.0;stroke-opacity:1.0"/>

    <text
        x="8"
        y="20"
        font-family="Verdana"
        fill="black">
            <tspan style="font-weight: bold" font-size="13">environment</tspan>
    </text>

</g>

</svg><!-- Component: physicsSimulation -->
<g transform="translate(226 120)">
    <rect
        data-name="testManuelSchrick.pumpStationExample.pumpStation.environment.physicsSimulation"
        id="2062"
        width="320"
        height="310"
        style="
                fill:white;
            stroke:black;
            stroke-width:2;
            fill-opacity:1.0;
            stroke-opacity:1.0"
        onmouseout="this.style.stroke = '#000000'; this.style['stroke-width'] = 2; this.style.cursor='default';"
    />

    <text
        x="10"
        y="15"
        alignment-baseline="middle"
        font-family="Verdana"
        fill="black">
            <tspan style="font-weight: bold" font-size="11">physicsSimulation</tspan>
    </text>

</g><!-- Component: simulationPanel -->
<g transform="translate(696 255)">
    <rect
        data-name="testManuelSchrick.pumpStationExample.pumpStation.environment.simulationPanel"
        id="2063"
        width="225"
        height="175"
        style="
                fill:white;
            stroke:black;
            stroke-width:2;
            fill-opacity:1.0;
            stroke-opacity:1.0"
        onmouseout="this.style.stroke = '#000000'; this.style['stroke-width'] = 2; this.style.cursor='default';"
    />

    <text
        x="10"
        y="15"
        alignment-baseline="middle"
        font-family="Verdana"
        fill="black">
            <tspan style="font-weight: bold" font-size="11">simulationPanel</tspan>
    </text>

</g><defs>
    <marker id="0,0,0" markerWidth="13" markerHeight="13" refX="5" refY="5" orient="auto">
            <polyline points="0,2 5,5 0,8" style="fill:none; stroke:rgb(0,0,0);
                    stroke-width:1" />
    </marker>
</defs><line
    stroke-linecap="square"
    x1="554"
    y1="195"
    x2="576"
    y2="195"
    style="stroke:rgb(0, 0,0);
            stroke-width:2;
"
/>
    <text
        x="557"
        y="188"
        alignment-baseline="middle"
        font-family="Verdana"
        font-size="11"
        fill="black">
    1
    </text>

<line
    stroke-linecap="square"
    x1="576"
    y1="195"
    x2="576"
    y2="262"
    style="stroke:rgb(0, 0,0);
            stroke-width:4;
"
/>

    <circle cx="576" cy="195" r="4" fill="black" />
<line
    stroke-linecap="square"
    x1="576"
    y1="262"
    x2="606"
    y2="262"
    style="stroke:rgb(0, 0,0);
            stroke-width:4;
"
/>

<line
    stroke-linecap="square"
    x1="606"
    y1="262"
    x2="606"
    y2="195"
    style="stroke:rgb(0, 0,0);
            stroke-width:4;
"
/>

    <circle cx="606" cy="262" r="4" fill="black" />
<line
    stroke-linecap="square"
    x1="606"
    y1="195"
    x2="921"
    y2="195"
    style="stroke:rgb(0, 0,0);
            stroke-width:4;
"
/>

    <circle cx="606" cy="195" r="4" fill="black" />
<line
    stroke-linecap="square"
    x1="921"
    y1="195"
    x2="921"
    y2="155"
    style="stroke:rgb(0, 0,0);
            stroke-width:4;
"
/>

<line
    stroke-linecap="square"
    x1="921"
    y1="155"
    x2="963"
    y2="155"
    style="stroke:rgb(0, 0,0);
            stroke-width:2;
                marker-end: url(#0,0,0)
            "
/>
    <text
        x="952"
        y="144"
        alignment-baseline="middle"
        font-family="Verdana"
        font-size="11"
        fill="black">
    1
    </text>

    <circle cx="921" cy="155" r="4" fill="black" />
<line
    stroke-linecap="square"
    x1="554"
    y1="290"
    x2="576"
    y2="290"
    style="stroke:rgb(0, 0,0);
            stroke-width:2;
"
/>
    <text
        x="557"
        y="283"
        alignment-baseline="middle"
        font-family="Verdana"
        font-size="11"
        fill="black">
    2
    </text>

<line
    stroke-linecap="square"
    x1="576"
    y1="290"
    x2="576"
    y2="262"
    style="stroke:rgb(0, 0,0);
            stroke-width:4;
"
/>

    <circle cx="576" cy="290" r="4" fill="black" />
<line
    stroke-linecap="square"
    x1="576"
    y1="262"
    x2="606"
    y2="262"
    style="stroke:rgb(0, 0,0);
            stroke-width:4;
"
/>

<line
    stroke-linecap="square"
    x1="606"
    y1="262"
    x2="606"
    y2="195"
    style="stroke:rgb(0, 0,0);
            stroke-width:4;
"
/>

    <circle cx="606" cy="262" r="4" fill="black" />
<line
    stroke-linecap="square"
    x1="606"
    y1="195"
    x2="921"
    y2="195"
    style="stroke:rgb(0, 0,0);
            stroke-width:4;
"
/>

    <circle cx="606" cy="195" r="4" fill="black" />
<line
    stroke-linecap="square"
    x1="921"
    y1="195"
    x2="921"
    y2="195"
    style="stroke:rgb(0, 0,0);
            stroke-width:4;
"
/>

<line
    stroke-linecap="square"
    x1="921"
    y1="195"
    x2="963"
    y2="195"
    style="stroke:rgb(0, 0,0);
            stroke-width:2;
                marker-end: url(#0,0,0)
            "
/>
    <text
        x="952"
        y="184"
        alignment-baseline="middle"
        font-family="Verdana"
        font-size="11"
        fill="black">
    2
    </text>

    <circle cx="921" cy="195" r="4" fill="black" />
<line
    stroke-linecap="square"
    x1="554"
    y1="410"
    x2="576"
    y2="410"
    style="stroke:rgb(0, 0,0);
            stroke-width:2;
"
/>
    <text
        x="557"
        y="403"
        alignment-baseline="middle"
        font-family="Verdana"
        font-size="11"
        fill="black">
    3
    </text>

<line
    stroke-linecap="square"
    x1="576"
    y1="410"
    x2="576"
    y2="262"
    style="stroke:rgb(0, 0,0);
            stroke-width:4;
"
/>

    <circle cx="576" cy="410" r="4" fill="black" />
<line
    stroke-linecap="square"
    x1="576"
    y1="262"
    x2="606"
    y2="262"
    style="stroke:rgb(0, 0,0);
            stroke-width:4;
"
/>

<line
    stroke-linecap="square"
    x1="606"
    y1="262"
    x2="606"
    y2="195"
    style="stroke:rgb(0, 0,0);
            stroke-width:4;
"
/>

    <circle cx="606" cy="262" r="4" fill="black" />
<line
    stroke-linecap="square"
    x1="606"
    y1="195"
    x2="921"
    y2="195"
    style="stroke:rgb(0, 0,0);
            stroke-width:4;
"
/>

    <circle cx="606" cy="195" r="4" fill="black" />
<line
    stroke-linecap="square"
    x1="921"
    y1="195"
    x2="921"
    y2="235"
    style="stroke:rgb(0, 0,0);
            stroke-width:4;
"
/>

<line
    stroke-linecap="square"
    x1="921"
    y1="235"
    x2="963"
    y2="235"
    style="stroke:rgb(0, 0,0);
            stroke-width:2;
                marker-end: url(#0,0,0)
            "
/>
    <text
        x="952"
        y="224"
        alignment-baseline="middle"
        font-family="Verdana"
        font-size="11"
        fill="black">
    3
    </text>

    <circle cx="921" cy="235" r="4" fill="black" />
<line
    stroke-linecap="square"
    x1="929"
    y1="290"
    x2="963"
    y2="290"
    style="stroke:rgb(0, 0,0);
            stroke-width:2;
                marker-end: url(#0,0,0)
            "
/>

<line
    stroke-linecap="square"
    x1="184"
    y1="290"
    x2="218"
    y2="290"
    style="stroke:rgb(0, 0,0);
            stroke-width:2;
                marker-end: url(#0,0,0)
            "
/>

<line
    stroke-linecap="square"
    x1="184"
    y1="235"
    x2="218"
    y2="235"
    style="stroke:rgb(0, 0,0);
            stroke-width:2;
                marker-end: url(#0,0,0)
            "
/>

<line
    stroke-linecap="square"
    x1="184"
    y1="195"
    x2="218"
    y2="195"
    style="stroke:rgb(0, 0,0);
            stroke-width:2;
                marker-end: url(#0,0,0)
            "
/>

<line
    stroke-linecap="square"
    x1="554"
    y1="155"
    x2="576"
    y2="155"
    style="stroke:rgb(0, 0,0);
            stroke-width:2;
"
/>
    <text
        x="557"
        y="148"
        alignment-baseline="middle"
        font-family="Verdana"
        font-size="11"
        fill="black">
    0
    </text>

<line
    stroke-linecap="square"
    x1="576"
    y1="155"
    x2="576"
    y2="262"
    style="stroke:rgb(0, 0,0);
            stroke-width:4;
"
/>

    <circle cx="576" cy="155" r="4" fill="black" />
<line
    stroke-linecap="square"
    x1="576"
    y1="262"
    x2="606"
    y2="262"
    style="stroke:rgb(0, 0,0);
            stroke-width:4;
"
/>

<line
    stroke-linecap="square"
    x1="606"
    y1="262"
    x2="606"
    y2="350"
    style="stroke:rgb(0, 0,0);
            stroke-width:4;
"
/>

    <circle cx="606" cy="262" r="4" fill="black" />
<line
    stroke-linecap="square"
    x1="606"
    y1="350"
    x2="666"
    y2="350"
    style="stroke:rgb(0, 0,0);
            stroke-width:4;
"
/>

    <circle cx="606" cy="350" r="4" fill="black" />
<line
    stroke-linecap="square"
    x1="666"
    y1="350"
    x2="666"
    y2="290"
    style="stroke:rgb(0, 0,0);
            stroke-width:4;
"
/>

<line
    stroke-linecap="square"
    x1="666"
    y1="290"
    x2="688"
    y2="290"
    style="stroke:rgb(0, 0,0);
            stroke-width:2;
                marker-end: url(#0,0,0)
            "
/>
    <text
        x="677"
        y="279"
        alignment-baseline="middle"
        font-family="Verdana"
        font-size="11"
        fill="black">
    0
    </text>

    <circle cx="666" cy="290" r="4" fill="black" />
<line
    stroke-linecap="square"
    x1="554"
    y1="195"
    x2="576"
    y2="195"
    style="stroke:rgb(0, 0,0);
            stroke-width:2;
"
/>
    <text
        x="557"
        y="188"
        alignment-baseline="middle"
        font-family="Verdana"
        font-size="11"
        fill="black">
    1
    </text>

<line
    stroke-linecap="square"
    x1="576"
    y1="195"
    x2="576"
    y2="262"
    style="stroke:rgb(0, 0,0);
            stroke-width:4;
"
/>

    <circle cx="576" cy="195" r="4" fill="black" />
<line
    stroke-linecap="square"
    x1="576"
    y1="262"
    x2="606"
    y2="262"
    style="stroke:rgb(0, 0,0);
            stroke-width:4;
"
/>

<line
    stroke-linecap="square"
    x1="606"
    y1="262"
    x2="606"
    y2="350"
    style="stroke:rgb(0, 0,0);
            stroke-width:4;
"
/>

    <circle cx="606" cy="262" r="4" fill="black" />
<line
    stroke-linecap="square"
    x1="606"
    y1="350"
    x2="666"
    y2="350"
    style="stroke:rgb(0, 0,0);
            stroke-width:4;
"
/>

    <circle cx="606" cy="350" r="4" fill="black" />
<line
    stroke-linecap="square"
    x1="666"
    y1="350"
    x2="666"
    y2="330"
    style="stroke:rgb(0, 0,0);
            stroke-width:4;
"
/>

<line
    stroke-linecap="square"
    x1="666"
    y1="330"
    x2="688"
    y2="330"
    style="stroke:rgb(0, 0,0);
            stroke-width:2;
                marker-end: url(#0,0,0)
            "
/>
    <text
        x="677"
        y="319"
        alignment-baseline="middle"
        font-family="Verdana"
        font-size="11"
        fill="black">
    1
    </text>

    <circle cx="666" cy="330" r="4" fill="black" />
<line
    stroke-linecap="square"
    x1="554"
    y1="290"
    x2="576"
    y2="290"
    style="stroke:rgb(0, 0,0);
            stroke-width:2;
"
/>
    <text
        x="557"
        y="283"
        alignment-baseline="middle"
        font-family="Verdana"
        font-size="11"
        fill="black">
    2
    </text>

<line
    stroke-linecap="square"
    x1="576"
    y1="290"
    x2="576"
    y2="262"
    style="stroke:rgb(0, 0,0);
            stroke-width:4;
"
/>

    <circle cx="576" cy="290" r="4" fill="black" />
<line
    stroke-linecap="square"
    x1="576"
    y1="262"
    x2="606"
    y2="262"
    style="stroke:rgb(0, 0,0);
            stroke-width:4;
"
/>

<line
    stroke-linecap="square"
    x1="606"
    y1="262"
    x2="606"
    y2="350"
    style="stroke:rgb(0, 0,0);
            stroke-width:4;
"
/>

    <circle cx="606" cy="262" r="4" fill="black" />
<line
    stroke-linecap="square"
    x1="606"
    y1="350"
    x2="666"
    y2="350"
    style="stroke:rgb(0, 0,0);
            stroke-width:4;
"
/>

    <circle cx="606" cy="350" r="4" fill="black" />
<line
    stroke-linecap="square"
    x1="666"
    y1="350"
    x2="666"
    y2="370"
    style="stroke:rgb(0, 0,0);
            stroke-width:4;
"
/>

<line
    stroke-linecap="square"
    x1="666"
    y1="370"
    x2="688"
    y2="370"
    style="stroke:rgb(0, 0,0);
            stroke-width:2;
                marker-end: url(#0,0,0)
            "
/>
    <text
        x="677"
        y="359"
        alignment-baseline="middle"
        font-family="Verdana"
        font-size="11"
        fill="black">
    2
    </text>

    <circle cx="666" cy="370" r="4" fill="black" />
<line
    stroke-linecap="square"
    x1="554"
    y1="410"
    x2="576"
    y2="410"
    style="stroke:rgb(0, 0,0);
            stroke-width:2;
"
/>
    <text
        x="557"
        y="403"
        alignment-baseline="middle"
        font-family="Verdana"
        font-size="11"
        fill="black">
    3
    </text>

<line
    stroke-linecap="square"
    x1="576"
    y1="410"
    x2="576"
    y2="262"
    style="stroke:rgb(0, 0,0);
            stroke-width:4;
"
/>

    <circle cx="576" cy="410" r="4" fill="black" />
<line
    stroke-linecap="square"
    x1="576"
    y1="262"
    x2="606"
    y2="262"
    style="stroke:rgb(0, 0,0);
            stroke-width:4;
"
/>

<line
    stroke-linecap="square"
    x1="606"
    y1="262"
    x2="606"
    y2="350"
    style="stroke:rgb(0, 0,0);
            stroke-width:4;
"
/>

    <circle cx="606" cy="262" r="4" fill="black" />
<line
    stroke-linecap="square"
    x1="606"
    y1="350"
    x2="666"
    y2="350"
    style="stroke:rgb(0, 0,0);
            stroke-width:4;
"
/>

    <circle cx="606" cy="350" r="4" fill="black" />
<line
    stroke-linecap="square"
    x1="666"
    y1="350"
    x2="666"
    y2="410"
    style="stroke:rgb(0, 0,0);
            stroke-width:4;
"
/>

<line
    stroke-linecap="square"
    x1="666"
    y1="410"
    x2="688"
    y2="410"
    style="stroke:rgb(0, 0,0);
            stroke-width:2;
                marker-end: url(#0,0,0)
            "
/>
    <text
        x="677"
        y="399"
        alignment-baseline="middle"
        font-family="Verdana"
        font-size="11"
        fill="black">
    3
    </text>

    <circle cx="666" cy="410" r="4" fill="black" />
<defs>
    <!-- Small box indicating a port -->
    <rect id="port" x="0" y="0" width="16" height="16"
          style="fill:white;stroke:rgb(0,0,0);stroke-width:1;fill-opacity:1.0;stroke-opacity:1.0"/>
</defs><use x="538" y="187" xlink:href="#port" />
<text text-anchor="end" alignment-baseline="middle" x="535" y="197" transform="rotate(0,535,197)" style="font-weight: regular" font-family="Verdana" font-size="9" fill="black">
level1
</text>

<use x="963" y="147" xlink:href="#port" />
<text text-anchor="start" alignment-baseline="middle" x="983" y="157" transform="rotate(0,983,157)" style="font-weight: regular" font-family="Verdana" font-size="9" fill="black">
level1
</text>

<use x="538" y="282" xlink:href="#port" />
<text text-anchor="end" alignment-baseline="middle" x="535" y="292" transform="rotate(0,535,292)" style="font-weight: regular" font-family="Verdana" font-size="9" fill="black">
pump
</text>

<use x="963" y="187" xlink:href="#port" />
<text text-anchor="start" alignment-baseline="middle" x="983" y="197" transform="rotate(0,983,197)" style="font-weight: regular" font-family="Verdana" font-size="9" fill="black">
pump
</text>

<use x="538" y="402" xlink:href="#port" />
<text text-anchor="end" alignment-baseline="middle" x="535" y="412" transform="rotate(0,535,412)" style="font-weight: regular" font-family="Verdana" font-size="9" fill="black">
valve
</text>

<use x="963" y="227" xlink:href="#port" />
<text text-anchor="start" alignment-baseline="middle" x="983" y="237" transform="rotate(0,983,237)" style="font-weight: regular" font-family="Verdana" font-size="9" fill="black">
valve
</text>

<use x="913" y="282" xlink:href="#port" />
<text text-anchor="end" alignment-baseline="middle" x="910" y="292" transform="rotate(0,910,292)" style="font-weight: regular" font-family="Verdana" font-size="9" fill="black">
button
</text>

<use x="963" y="282" xlink:href="#port" />
<text text-anchor="start" alignment-baseline="middle" x="983" y="292" transform="rotate(0,983,292)" style="font-weight: regular" font-family="Verdana" font-size="9" fill="black">
button
</text>

<use x="168" y="282" xlink:href="#port" />
<text text-anchor="end" alignment-baseline="middle" x="164" y="292" transform="rotate(0,164,292)" style="font-weight: regular" font-family="Verdana" font-size="9" fill="black">
pumpActuatorPort
</text>

<use x="218" y="282" xlink:href="#port" />
<text text-anchor="start" alignment-baseline="middle" x="237" y="292" transform="rotate(0,237,292)" style="font-weight: regular" font-family="Verdana" font-size="9" fill="black">
pumpActuatorPort
</text>

<use x="168" y="227" xlink:href="#port" />
<text text-anchor="end" alignment-baseline="middle" x="164" y="237" transform="rotate(0,164,237)" style="font-weight: regular" font-family="Verdana" font-size="9" fill="black">
valveOpen
</text>

<use x="218" y="227" xlink:href="#port" />
<text text-anchor="start" alignment-baseline="middle" x="237" y="237" transform="rotate(0,237,237)" style="font-weight: regular" font-family="Verdana" font-size="9" fill="black">
valveOpen
</text>

<use x="168" y="187" xlink:href="#port" />
<text text-anchor="end" alignment-baseline="middle" x="164" y="197" transform="rotate(0,164,197)" style="font-weight: regular" font-family="Verdana" font-size="9" fill="black">
valveClose
</text>

<use x="218" y="187" xlink:href="#port" />
<text text-anchor="start" alignment-baseline="middle" x="237" y="197" transform="rotate(0,237,197)" style="font-weight: regular" font-family="Verdana" font-size="9" fill="black">
valveClose
</text>

<use x="538" y="147" xlink:href="#port" />
<text text-anchor="end" alignment-baseline="middle" x="535" y="157" transform="rotate(0,535,157)" style="font-weight: regular" font-family="Verdana" font-size="9" fill="black">
level2
</text>

<use x="688" y="282" xlink:href="#port" />
<text text-anchor="start" alignment-baseline="middle" x="707" y="292" transform="rotate(0,707,292)" style="font-weight: regular" font-family="Verdana" font-size="9" fill="black">
level2
</text>

<use x="538" y="187" xlink:href="#port" />
<text text-anchor="end" alignment-baseline="middle" x="535" y="197" transform="rotate(0,535,197)" style="font-weight: regular" font-family="Verdana" font-size="9" fill="black">
level1
</text>

<use x="688" y="322" xlink:href="#port" />
<text text-anchor="start" alignment-baseline="middle" x="707" y="332" transform="rotate(0,707,332)" style="font-weight: regular" font-family="Verdana" font-size="9" fill="black">
level1
</text>

<use x="538" y="282" xlink:href="#port" />
<text text-anchor="end" alignment-baseline="middle" x="535" y="292" transform="rotate(0,535,292)" style="font-weight: regular" font-family="Verdana" font-size="9" fill="black">
pump
</text>

<use x="688" y="362" xlink:href="#port" />
<text text-anchor="start" alignment-baseline="middle" x="707" y="372" transform="rotate(0,707,372)" style="font-weight: regular" font-family="Verdana" font-size="9" fill="black">
pump
</text>

<use x="538" y="402" xlink:href="#port" />
<text text-anchor="end" alignment-baseline="middle" x="535" y="412" transform="rotate(0,535,412)" style="font-weight: regular" font-family="Verdana" font-size="9" fill="black">
valve
</text>

<use x="688" y="402" xlink:href="#port" />
<text text-anchor="start" alignment-baseline="middle" x="707" y="412" transform="rotate(0,707,412)" style="font-weight: regular" font-family="Verdana" font-size="9" fill="black">
valve
</text>


</svg>